<svg width="400" height="400" viewBox="0 0 400 400" fill="none" xmlns="http://www.w3.org/2000/svg">
<path d="M68.36 334.4C139.368 370.704 254.496 370.704 325.496 334.4C396.496 298.096 396.504 239.2 325.496 202.936C254.488 166.672 139.368 166.632 68.36 202.936C-2.648 239.24 -2.64 298.104 68.36 334.4Z" fill="#F5F5F5"/>
<path d="M300.584 276.408C304.48 278.656 312.128 277.88 317.664 274.68L349.6 256.128C355.144 252.928 356.472 248.512 352.576 246.256C348.68 244 341.04 244.8 335.496 248L303.576 266.568C298.032 269.744 296.696 274.16 300.584 276.408Z" fill="#EBEBEB"/>
<path d="M108.248 293.52L75.752 274.76L108.248 256V293.52Z" fill="#EBEBEB"/>
<path d="M200.096 304.744L147.72 274.488L200.104 244.288L200.096 304.744Z" fill="#EBEBEB"/>
<path d="M64.288 249.656C64.384 242.056 59.072 226.24 51.304 216.28C43.536 206.32 31.2 198.952 22.4 201.856C14.16 204.568 14.92 215.336 24.8 222.592C34.68 229.848 49.52 238.984 53.752 251.392L62.752 266.592L64.288 249.656Z" fill="#0EA5C6"/>
<path opacity="0.1" d="M64.288 249.656C64.384 242.056 59.072 226.24 51.304 216.28C43.536 206.32 31.2 198.952 22.4 201.856C14.16 204.568 14.92 215.336 24.8 222.592C34.68 229.848 49.52 238.984 53.752 251.392L62.752 266.592L64.288 249.656Z" fill="black"/>
<path d="M64.728 260.064C64.6066 260.053 64.4921 260.003 64.4024 259.921C64.3127 259.838 64.2528 259.728 64.232 259.608C59.432 233.6 38.712 212.256 26.208 207.448C26.1325 207.427 26.0621 207.391 26.0014 207.342C25.9407 207.292 25.891 207.231 25.8556 207.161C25.8203 207.091 25.7999 207.014 25.796 206.936C25.792 206.858 25.8044 206.78 25.8326 206.707C25.8607 206.634 25.9038 206.567 25.9592 206.512C26.0145 206.456 26.0809 206.413 26.154 206.385C26.227 206.357 26.3052 206.345 26.3834 206.348C26.4616 206.352 26.5381 206.373 26.608 206.408C39.352 211.312 60.472 233.008 65.32 259.408C65.3339 259.48 65.3336 259.553 65.319 259.624C65.3043 259.696 65.2758 259.763 65.2349 259.824C65.194 259.884 65.1416 259.935 65.0807 259.975C65.0198 260.015 64.9516 260.043 64.88 260.056L64.728 260.064Z" fill="white"/>
<path d="M60.656 276.624C59.488 272.336 54.352 265.224 45.984 259.296C36.72 252.744 24.944 249.64 22.28 244.592C19.08 238.528 24.224 232.896 33.8 234.192C43.376 235.488 60.08 248.8 62.544 268.528L60.656 276.624Z" fill="#0EA5C6"/>
<path d="M62.5681 272.16C62.4612 272.151 62.3592 272.112 62.2741 272.046C62.189 271.981 62.1244 271.893 62.0881 271.792C54.4001 249.464 37.5361 241.456 29.6961 240.344C29.5507 240.324 29.4193 240.247 29.3308 240.13C29.2423 240.013 29.2039 239.865 29.2241 239.72C29.2442 239.575 29.3213 239.443 29.4383 239.355C29.5553 239.266 29.7027 239.228 29.8481 239.248C38.5201 240.48 55.2961 248.64 63.1441 271.424C63.1905 271.564 63.1805 271.717 63.1163 271.85C63.0521 271.983 62.9387 272.085 62.8001 272.136C62.7251 272.159 62.6462 272.168 62.5681 272.16Z" fill="white"/>
<path d="M347.944 228C347.944 228 349.008 212 358.448 200.08C367.888 188.16 367.312 183.28 360.8 180.88C354.288 178.48 339.2 192.84 342.528 212C345.856 231.16 347.944 228 347.944 228Z" fill="#0EA5C6"/>
<path opacity="0.1" d="M347.944 228C347.944 228 349.008 212 358.448 200.08C367.888 188.16 367.312 183.28 360.8 180.88C354.288 178.48 339.2 192.84 342.528 212C345.856 231.16 347.944 228 347.944 228Z" fill="black"/>
<path d="M345.056 218.864C344.962 218.864 344.871 218.829 344.801 218.765C344.731 218.702 344.688 218.614 344.68 218.52C343.584 200.872 356.04 186.392 360.68 183.112C360.719 183.083 360.764 183.063 360.811 183.051C360.858 183.04 360.907 183.039 360.955 183.047C361.003 183.055 361.048 183.073 361.089 183.099C361.13 183.125 361.165 183.16 361.192 183.2C361.249 183.281 361.271 183.381 361.255 183.478C361.238 183.575 361.184 183.662 361.104 183.72C356.528 186.92 344.304 201.136 345.392 218.472C345.396 218.569 345.363 218.664 345.299 218.737C345.235 218.81 345.145 218.856 345.048 218.864H345.056Z" fill="white"/>
<path d="M345.376 241.248C349.627 242.637 353.982 243.686 358.4 244.384C365.712 245.536 368.944 242.04 368.944 242.04C368.944 242.04 366.064 235.184 361.912 233.24C366.404 234.249 370.694 236.01 374.6 238.448C374.6 238.448 379.064 238.52 380.84 231.704C380.84 231.704 378.2 227.6 369.32 225.384C369.32 225.384 374.72 224.024 382.504 226.008C383.088 226.24 385.576 217.432 386.328 213.368C387.08 209.304 385.448 209.368 382.28 208.496C379.112 207.624 368.608 205.296 366.624 207.032C364.64 208.768 363.632 214.736 363.632 214.736C362.846 212.293 362.744 209.681 363.336 207.184C363.336 207.184 360.488 206.072 356.056 207.36C352.44 208.408 352.264 210.872 352.424 213.656C352.638 216.074 353.176 218.453 354.024 220.728C354.024 220.728 351.2 217.112 351.112 209.264C351.112 209.264 343.704 212.944 342.44 220.304C341.704 224.296 340.728 236 345.376 241.248Z" fill="#0EA5C6"/>
<path d="M346.768 239.824C346.846 239.824 346.922 239.802 346.989 239.761C347.055 239.72 347.109 239.662 347.144 239.592C353.04 227.328 374.984 213.08 382.84 211.552C382.893 211.542 382.944 211.522 382.99 211.493C383.035 211.463 383.074 211.425 383.105 211.381C383.135 211.336 383.156 211.286 383.167 211.233C383.178 211.18 383.178 211.125 383.168 211.072C383.145 210.965 383.081 210.871 382.99 210.81C382.899 210.748 382.788 210.725 382.68 210.744C374.68 212.304 352.392 226.744 346.4 239.232C346.353 239.331 346.347 239.444 346.383 239.547C346.419 239.651 346.494 239.736 346.592 239.784C346.648 239.809 346.707 239.822 346.768 239.824Z" fill="white"/>
<path d="M61.424 282.288C60.52 282.288 59.976 281.544 59.976 280.288V145.72L224.8 50.576V184.6C224.743 185.719 224.424 186.809 223.868 187.782C223.312 188.754 222.535 189.583 221.6 190.2L62.7359 281.88C62.3418 282.128 61.8894 282.269 61.424 282.288Z" fill="#FAFAFA"/>
<path d="M224.304 51.384V184.6C224.237 185.638 223.931 186.646 223.411 187.547C222.891 188.447 222.17 189.216 221.304 189.792L62.504 281.472C62.1807 281.681 61.8084 281.802 61.424 281.824C60.536 281.824 60.44 280.744 60.44 280.288V145.992L224.304 51.384ZM225.24 49.784L59.504 145.448V280.288C59.504 281.888 60.304 282.76 61.424 282.76C61.971 282.74 62.5033 282.577 62.968 282.288L221.776 190.6C222.784 189.942 223.623 189.056 224.225 188.014C224.826 186.971 225.174 185.802 225.24 184.6V49.76V49.784Z" fill="#E0E0E0"/>
<path d="M59.512 145.448V167.968L225.24 72.28V49.76L59.512 145.448Z" fill="#0EA5C6"/>
<path d="M72.504 146.648V149.848C72.504 150.504 72.976 150.776 73.544 150.448L124.496 121.032V115.432L73.544 144.848C73.243 145.047 72.9924 145.313 72.8119 145.625C72.6314 145.938 72.526 146.288 72.504 146.648Z" fill="#FAFAFA"/>
<path d="M129.96 112.28C130.536 111.944 131 112.216 131 112.88V116.08C130.979 116.44 130.874 116.791 130.694 117.103C130.513 117.416 130.262 117.682 129.96 117.88L124.496 121.032V115.432L129.96 112.28Z" fill="#455A64"/>
<path d="M59.504 138.192C59.5696 136.99 59.9175 135.821 60.5193 134.778C61.1211 133.736 61.96 132.85 62.968 132.192L221.776 40.504C223.688 39.4 225.24 40.296 225.24 42.504V49.76L59.504 145.448V138.192Z" fill="#455A64"/>
<path d="M206.816 52.912C206.348 53.2215 205.959 53.6371 205.681 54.1249C205.403 54.6127 205.243 55.1592 205.216 55.72C205.216 56.76 205.944 57.176 206.816 56.664C207.285 56.3527 207.673 55.9357 207.951 55.4465C208.229 54.9574 208.388 54.4099 208.416 53.848C208.448 52.8 207.72 52.392 206.816 52.912Z" fill="#0EA5C6"/>
<path d="M212 49.936C211.532 50.2455 211.143 50.6611 210.865 51.1489C210.587 51.6367 210.427 52.1832 210.4 52.744C210.4 53.784 211.128 54.2 212 53.688C212.468 53.3757 212.856 52.9585 213.134 52.4696C213.411 51.9807 213.571 51.4336 213.6 50.872C213.6 49.832 212.864 49.416 212 49.936Z" fill="#0EA5C6"/>
<path d="M217.112 46.96C216.644 47.2695 216.255 47.6851 215.977 48.1729C215.699 48.6607 215.539 49.2072 215.512 49.7679C215.512 50.8079 216.24 51.2239 217.112 50.7119C217.58 50.3997 217.968 49.9825 218.246 49.4936C218.523 49.0046 218.683 48.4575 218.712 47.8959C218.736 46.8559 218.008 46.44 217.112 46.96Z" fill="#0EA5C6"/>
<g opacity="0.1">
<path opacity="0.1" d="M173.24 86.9359C172.207 87.6119 171.347 88.522 170.732 89.5923C170.116 90.6625 169.761 91.8629 169.696 93.0959C169.696 95.3599 171.296 96.2959 173.24 95.1439C174.274 94.4705 175.135 93.5623 175.753 92.4933C176.37 91.4243 176.726 90.2246 176.792 88.9919C176.8 86.7279 175.2 85.8079 173.24 86.9359Z" fill="black"/>
<path opacity="0.1" d="M157 96.32C155.965 96.9934 155.104 97.9015 154.487 98.9706C153.87 100.04 153.514 101.239 153.448 102.472C153.448 104.736 155.048 105.672 157 104.528C158.033 103.852 158.893 102.942 159.508 101.872C160.124 100.801 160.479 99.601 160.544 98.368C160.544 96.104 158.96 95.2 157 96.32Z" fill="black"/>
<path opacity="0.1" d="M189.488 77.6C188.455 78.2742 187.595 79.1828 186.98 80.2518C186.364 81.3208 186.009 82.52 185.944 83.752C185.944 86.016 187.544 86.952 189.488 85.8C190.523 85.127 191.384 84.219 192.002 83.1498C192.619 82.0807 192.975 80.8808 193.04 79.648C193.04 77.344 191.456 76.424 189.488 77.6Z" fill="black"/>
<path opacity="0.1" d="M205.744 68.1599C204.709 68.8333 203.848 69.7415 203.231 70.8106C202.614 71.8796 202.258 73.0793 202.192 74.3119C202.192 76.5759 203.792 77.5119 205.744 76.3599C206.779 75.6865 207.639 74.7784 208.257 73.7093C208.874 72.6403 209.23 71.4406 209.296 70.2079C209.296 67.9439 207.704 67.0239 205.744 68.1599Z" fill="black"/>
</g>
<path d="M76 169.72L114.568 147.448C116.48 146.344 118.032 147.24 118.032 149.448V186.48C117.966 187.682 117.618 188.851 117.017 189.894C116.415 190.936 115.576 191.822 114.568 192.48L76 214.744C74.088 215.848 72.5359 214.952 72.5359 212.744V175.72C72.6016 174.518 72.9495 173.349 73.5513 172.306C74.1531 171.264 74.992 170.378 76 169.72Z" fill="#E0E0E0"/>
<path d="M131.2 137.824L212 91.2C213.912 90.088 215.464 90.984 215.464 93.2V130.224C215.398 131.426 215.05 132.595 214.449 133.638C213.847 134.68 213.008 135.566 212 136.224L131.2 182.848C129.288 183.952 127.736 183.056 127.736 180.848V143.824C127.802 142.622 128.149 141.453 128.751 140.41C129.353 139.368 130.192 138.482 131.2 137.824Z" fill="#E0E0E0"/>
<path d="M76 226L137.312 190.6C139.232 189.496 140.784 190.28 140.784 192.352C140.698 193.515 140.34 194.642 139.739 195.641C139.137 196.641 138.308 197.484 137.32 198.104L76 233.504C74.088 234.608 72.5359 233.824 72.5359 231.752C72.6214 230.589 72.9796 229.462 73.5813 228.463C74.1831 227.463 75.0117 226.62 76 226Z" fill="#E0E0E0"/>
<path d="M76 239.136L137.312 203.736C139.232 202.632 140.784 203.416 140.784 205.488C140.698 206.651 140.34 207.778 139.739 208.777C139.137 209.777 138.308 210.62 137.32 211.24L76 246.64C74.088 247.744 72.5359 246.96 72.5359 244.888C72.6214 243.725 72.9796 242.598 73.5813 241.598C74.1831 240.599 75.0117 239.756 76 239.136Z" fill="#E0E0E0"/>
<path d="M76 252.264L137.312 216.864C139.232 215.76 140.784 216.544 140.784 218.616C140.698 219.779 140.34 220.906 139.739 221.905C139.137 222.905 138.308 223.748 137.32 224.368L76 259.768C74.088 260.872 72.5359 260.088 72.5359 258.016C72.6214 256.853 72.9796 255.726 73.5813 254.726C74.1831 253.727 75.0117 252.884 76 252.264Z" fill="#E0E0E0"/>
<path d="M105 207.736C105.041 207.015 105.25 206.314 105.612 205.689C105.973 205.063 106.476 204.532 107.08 204.136L213.408 142.752C214.052 142.425 214.765 142.254 215.488 142.254C216.211 142.254 216.924 142.425 217.568 142.752L219.912 144.104C220.516 144.499 221.018 145.031 221.378 145.656C221.738 146.282 221.946 146.983 221.984 147.704V229.208C221.945 229.928 221.737 230.629 221.377 231.255C221.017 231.88 220.515 232.412 219.912 232.808L113.6 294.192C112.956 294.519 112.243 294.69 111.52 294.69C110.797 294.69 110.084 294.519 109.44 294.192L107.096 292.84C106.491 292.445 105.988 291.913 105.627 291.288C105.266 290.663 105.056 289.961 105.016 289.24L105 207.736Z" fill="#0EA5C6"/>
<path opacity="0.4" d="M105.6 205.688L111.504 209.096L221.368 145.656C221.017 145.023 220.514 144.487 219.904 144.096L217.6 142.752C216.958 142.425 216.248 142.254 215.528 142.254C214.808 142.254 214.098 142.425 213.456 142.752L107.08 204.136C106.464 204.52 105.954 205.054 105.6 205.688Z" fill="white"/>
<path opacity="0.1" d="M105 207.736V289.24C105.04 289.961 105.25 290.663 105.611 291.288C105.972 291.913 106.475 292.445 107.08 292.84L109.424 294.192C109.604 294.296 109.794 294.382 109.992 294.448C110.27 294.542 110.557 294.609 110.848 294.648C111.395 294.715 111.948 294.693 112.488 294.584C112.626 294.559 112.763 294.524 112.896 294.48L113.144 294.384C112.986 294.452 112.816 294.487 112.644 294.487C112.472 294.487 112.302 294.452 112.144 294.384C111.923 294.237 111.746 294.031 111.635 293.789C111.523 293.548 111.481 293.28 111.512 293.016V211.496C111.491 211.125 111.583 210.757 111.776 210.44C111.969 210.123 112.253 209.872 112.592 209.72L111.512 209.096L105.6 205.688C105.229 206.309 105.023 207.013 105 207.736Z" fill="black"/>
<path opacity="0.2" d="M111.512 209.096L160.752 227.496C162.455 228.131 164.323 228.167 166.049 227.598C167.775 227.03 169.256 225.89 170.248 224.368L178.152 212.256L221.768 145.432L179.728 212.712L221.984 229.248C221.949 229.983 221.726 230.696 221.336 231.32L179.616 212.92L170.4 227.6C169.379 229.231 167.804 230.439 165.965 231.004C164.125 231.568 162.144 231.45 160.384 230.672L153.84 227.784L112.144 294.4C111.923 294.253 111.746 294.047 111.635 293.805C111.523 293.564 111.481 293.296 111.512 293.032V291.68L153.656 227.736L111.512 209.096Z" fill="black"/>
<path d="M199.24 115.528V302.648C199.24 304.856 200.792 305.752 202.704 304.648L286.768 256.112C287.776 255.454 288.615 254.568 289.217 253.526C289.818 252.483 290.166 251.314 290.232 250.112V62.992C290.232 60.784 288.68 59.888 286.768 60.992L202.704 109.528C201.695 110.185 200.856 111.071 200.254 112.113C199.652 113.156 199.304 114.326 199.24 115.528Z" fill="#FAFAFA" stroke="#E0E0E0" stroke-width="1.16981" stroke-miterlimit="10"/>
<path d="M204.112 119.008C204.139 118.712 204.235 118.426 204.392 118.173C204.549 117.92 204.762 117.708 205.016 117.552L214.616 112.024C215.112 111.736 215.512 111.928 215.512 112.448C215.486 112.744 215.392 113.029 215.237 113.282C215.081 113.535 214.868 113.748 214.616 113.904L205.016 119.432C204.52 119.72 204.112 119.528 204.112 119.008Z" fill="#455A64"/>
<path d="M204.112 122.736C204.138 122.44 204.234 122.153 204.391 121.901C204.548 121.648 204.762 121.435 205.016 121.28L214.616 115.752C215.112 115.464 215.512 115.656 215.512 116.168C215.488 116.465 215.394 116.752 215.238 117.007C215.083 117.261 214.87 117.475 214.616 117.632L205.016 123.152C204.52 123.44 204.112 123.256 204.112 122.736Z" fill="#455A64"/>
<path d="M204.112 126.464C204.138 126.168 204.234 125.881 204.391 125.629C204.548 125.376 204.762 125.163 205.016 125.008L214.616 119.48C215.112 119.192 215.512 119.376 215.512 119.896C215.488 120.192 215.394 120.478 215.238 120.731C215.083 120.984 214.869 121.197 214.616 121.352L205.016 126.88C204.52 127.2 204.112 126.984 204.112 126.464Z" fill="#455A64"/>
<path d="M283.736 78.48V76.984C283.737 76.9658 283.733 76.9478 283.724 76.9317C283.716 76.9156 283.703 76.902 283.688 76.8923C283.672 76.8826 283.655 76.8771 283.636 76.8763C283.618 76.8756 283.6 76.8796 283.584 76.888L282.432 77.408C282.414 77.417 282.394 77.4218 282.374 77.4221C282.353 77.4224 282.333 77.4182 282.315 77.4097C282.297 77.4013 282.28 77.3889 282.267 77.3734C282.254 77.3578 282.245 77.3396 282.24 77.32C282.179 77.1206 282.093 76.9297 281.984 76.752C281.962 76.7086 281.951 76.6606 281.951 76.612C281.951 76.5634 281.962 76.5155 281.984 76.472L282.784 74.92C282.804 74.8807 282.807 74.8352 282.794 74.7933C282.78 74.7514 282.751 74.7165 282.712 74.696L281.912 74.216C281.874 74.1968 281.831 74.1919 281.79 74.2022C281.748 74.2124 281.712 74.2373 281.688 74.272L280.728 75.712C280.7 75.7506 280.662 75.7817 280.619 75.8026C280.576 75.8235 280.528 75.8336 280.48 75.832C280.27 75.8303 280.061 75.8518 279.856 75.896C279.836 75.9021 279.816 75.9037 279.796 75.9006C279.775 75.8976 279.756 75.89 279.739 75.8785C279.722 75.867 279.708 75.8518 279.698 75.834C279.688 75.8163 279.682 75.7964 279.68 75.776L279.552 74.52C279.552 74.432 279.472 74.392 279.4 74.44L278.104 75.184C278.063 75.2109 278.028 75.2462 278.002 75.2876C277.976 75.329 277.959 75.3755 277.952 75.424L277.824 76.864C277.807 76.9662 277.759 77.0609 277.688 77.136C277.428 77.3843 277.188 77.6518 276.968 77.936C276.937 77.9719 276.896 77.9979 276.851 78.0107C276.805 78.0235 276.757 78.0226 276.712 78.008L275.912 77.72C275.869 77.7064 275.823 77.7077 275.781 77.7237C275.739 77.7397 275.703 77.7694 275.68 77.808L274.728 79.456C274.709 79.4952 274.702 79.5394 274.709 79.5825C274.716 79.6256 274.737 79.6653 274.768 79.696L275.44 80.272C275.473 80.3049 275.496 80.346 275.508 80.3911C275.519 80.4362 275.518 80.4836 275.504 80.528C275.381 80.857 275.279 81.1937 275.2 81.536C275.173 81.633 275.117 81.7195 275.04 81.784L273.856 82.584C273.816 82.6146 273.784 82.6532 273.76 82.6974C273.737 82.7415 273.723 82.7901 273.72 82.84V84.328C273.716 84.3472 273.718 84.367 273.726 84.385C273.733 84.403 273.746 84.4183 273.763 84.4287C273.779 84.4391 273.799 84.4443 273.818 84.4434C273.838 84.4426 273.856 84.4358 273.872 84.424L275.024 83.904C275.043 83.8966 275.063 83.8931 275.083 83.894C275.104 83.8949 275.123 83.9 275.141 83.9091C275.16 83.9181 275.176 83.9309 275.188 83.9466C275.201 83.9623 275.211 83.9805 275.216 84C275.277 84.1995 275.363 84.3903 275.472 84.568C275.494 84.6115 275.505 84.6594 275.505 84.708C275.505 84.7566 275.494 84.8046 275.472 84.848L274.672 86.392C274.654 86.4328 274.651 86.4789 274.664 86.5216C274.678 86.5643 274.706 86.6007 274.744 86.624L275.544 87.104C275.582 87.1232 275.625 87.1282 275.666 87.1179C275.708 87.1076 275.744 87.0828 275.768 87.048L276.728 85.608C276.757 85.5694 276.794 85.5383 276.837 85.5174C276.88 85.4965 276.928 85.4864 276.976 85.488C277.186 85.4897 277.395 85.4683 277.6 85.424C277.62 85.4179 277.64 85.4164 277.661 85.4194C277.681 85.4224 277.7 85.43 277.717 85.4415C277.734 85.4531 277.748 85.4683 277.758 85.486C277.768 85.5038 277.775 85.5236 277.776 85.544L277.904 86.8C277.904 86.888 277.976 86.928 278.056 86.88L279.352 86.136C279.393 86.1072 279.427 86.0703 279.454 86.0277C279.48 85.985 279.497 85.9375 279.504 85.888L279.632 84.448C279.648 84.3477 279.695 84.2551 279.768 84.184C280.028 83.9357 280.268 83.6683 280.488 83.384C280.519 83.3481 280.56 83.3221 280.605 83.3093C280.651 83.2965 280.699 83.2974 280.744 83.312L281.544 83.6C281.587 83.6136 281.633 83.6123 281.675 83.5963C281.717 83.5804 281.753 83.5507 281.776 83.512L282.728 81.864C282.748 81.8231 282.755 81.7767 282.746 81.7319C282.737 81.6871 282.714 81.6464 282.68 81.616L282.016 81.048C281.983 81.0152 281.96 80.974 281.948 80.9289C281.937 80.8838 281.938 80.8365 281.952 80.792C282.075 80.463 282.177 80.1263 282.256 79.784C282.279 79.6851 282.335 79.5973 282.416 79.536L283.6 78.736C283.639 78.7048 283.671 78.666 283.694 78.622C283.718 78.578 283.732 78.5297 283.736 78.48ZM278.672 83.2C277.464 83.904 276.488 83.336 276.488 81.944C276.525 81.1841 276.743 80.444 277.123 79.7847C277.502 79.1254 278.033 78.5658 278.672 78.152C279.88 77.456 280.856 78.024 280.856 79.416C280.817 80.1746 280.599 80.9131 280.219 81.5709C279.84 82.2287 279.309 82.7871 278.672 83.2Z" fill="#37474F"/>
<path d="M244.736 115.36C254.56 109.688 262.52 114.288 262.52 125.632C262.52 136.976 254.56 150.76 244.736 156.432C234.912 162.104 226.952 157.504 226.952 146.168C226.952 134.832 234.912 121.032 244.736 115.36Z" fill="#455A64"/>
<path d="M244.616 124.288C247.816 122.448 250.384 123.936 250.384 127.616C250.274 129.616 249.695 131.563 248.693 133.297C247.691 135.032 246.294 136.506 244.616 137.6C241.416 139.44 238.84 137.952 238.84 134.272C238.95 132.271 239.53 130.324 240.534 128.589C241.537 126.854 242.936 125.381 244.616 124.288Z" fill="#0EA5C6"/>
<path d="M256 143.904C256 137.864 251.752 135.408 246.52 138.432L243.2 140.32C237.968 143.344 233.72 150.72 233.72 156.744V158.4C234.708 158.716 235.739 158.875 236.776 158.872C239.583 158.777 242.316 157.949 244.704 156.472C249.274 153.665 253.138 149.847 256 145.312V143.904Z" fill="#0EA5C6"/>
<path d="M228.688 173.304L260.8 154.768C261.752 154.216 262.528 154.608 262.528 155.648C262.485 156.229 262.306 156.791 262.006 157.29C261.706 157.788 261.293 158.21 260.8 158.52L228.696 177.056C227.736 177.616 226.96 177.216 226.96 176.184C227.001 175.602 227.179 175.038 227.48 174.537C227.78 174.037 228.194 173.614 228.688 173.304Z" fill="#0EA5C6"/>
<path d="M225.24 186.568L264.232 164C265.192 163.448 265.968 163.84 265.968 164.88C265.925 165.461 265.745 166.024 265.443 166.523C265.142 167.022 264.727 167.443 264.232 167.752L225.24 190.32C224.28 190.872 223.504 190.48 223.504 189.44C223.548 188.859 223.727 188.296 224.029 187.797C224.331 187.298 224.745 186.877 225.24 186.568Z" fill="#455A64"/>
<path d="M265.272 182.192L276.192 175.888C276.768 175.56 277.232 175.712 277.232 176.232C277.189 176.551 277.072 176.855 276.892 177.122C276.712 177.388 276.472 177.609 276.192 177.768L265.272 184.072C264.704 184.4 264.232 184.248 264.232 183.736C264.276 183.416 264.392 183.111 264.573 182.843C264.753 182.576 264.992 182.353 265.272 182.192Z" fill="#37474F"/>
<path d="M210.72 209.944L226.76 200.688C227.712 200.136 228.488 200.584 228.488 201.688V212.696C228.455 213.296 228.281 213.881 227.981 214.402C227.681 214.923 227.263 215.366 226.76 215.696L210.72 224.952C209.768 225.504 208.992 225.056 208.992 223.952V212.944C209.025 212.344 209.199 211.759 209.499 211.238C209.799 210.717 210.217 210.274 210.72 209.944Z" fill="#0EA5C6"/>
<path d="M213.28 211.48L224.2 205.176C224.776 204.848 225.24 205 225.24 205.512C225.198 205.832 225.082 206.138 224.902 206.406C224.721 206.674 224.481 206.897 224.2 207.056L213.28 213.36C212.704 213.688 212.24 213.536 212.24 213.024C212.282 212.704 212.398 212.398 212.578 212.13C212.759 211.862 212.999 211.639 213.28 211.48Z" fill="#FAFAFA"/>
<path d="M212.24 217.032V220.232C212.24 220.896 212.704 221.16 213.28 220.832L224.2 214.528C224.503 214.331 224.755 214.065 224.935 213.752C225.116 213.44 225.22 213.089 225.24 212.728V209.528C225.24 208.864 224.776 208.6 224.2 208.928L213.28 215.2C212.974 215.401 212.72 215.672 212.539 215.991C212.358 216.309 212.256 216.666 212.24 217.032Z" fill="#FAFAFA"/>
<path d="M236.72 194.936L252.72 185.68C253.68 185.128 254.456 185.576 254.456 186.68V197.688C254.423 198.289 254.249 198.875 253.947 199.396C253.646 199.917 253.225 200.36 252.72 200.688L236.72 209.944C235.76 210.496 234.992 210.048 234.992 208.944V197.936C235.023 197.335 235.196 196.75 235.496 196.229C235.797 195.707 236.216 195.264 236.72 194.936Z" fill="#0EA5C6"/>
<path d="M239.28 196.472L250.2 190.168C250.768 189.84 251.232 189.992 251.232 190.504C251.19 190.823 251.075 191.128 250.896 191.396C250.717 191.664 250.479 191.887 250.2 192.048L239.28 198.352C238.704 198.68 238.24 198.528 238.24 198.008C238.283 197.689 238.4 197.385 238.58 197.118C238.76 196.852 239 196.631 239.28 196.472Z" fill="#FAFAFA"/>
<path d="M238.24 202.024V205.224C238.24 205.888 238.704 206.152 239.28 205.824L250.2 199.52C250.5 199.321 250.75 199.055 250.929 198.742C251.108 198.43 251.212 198.08 251.232 197.72V194.52C251.232 193.856 250.76 193.592 250.192 193.92L239.272 200.224C238.971 200.422 238.72 200.688 238.541 201.001C238.362 201.313 238.259 201.664 238.24 202.024Z" fill="#FAFAFA"/>
<path d="M262.72 179.928L278.72 170.664C279.672 170.112 280.448 170.56 280.448 171.664V182.68C280.415 183.28 280.241 183.865 279.941 184.386C279.641 184.907 279.223 185.35 278.72 185.68L262.72 194.936C261.76 195.488 260.984 195.04 260.984 193.936V182.928C261.017 182.327 261.191 181.741 261.493 181.22C261.794 180.699 262.215 180.256 262.72 179.928Z" fill="#0EA5C6"/>
<path d="M265.272 181.464L276.192 175.2C276.768 174.864 277.232 175.016 277.232 175.536C277.191 175.855 277.075 176.161 276.894 176.427C276.714 176.694 276.473 176.915 276.192 177.072L265.272 183.376C264.704 183.712 264.232 183.56 264.232 183.04C264.269 182.714 264.383 182.402 264.564 182.128C264.744 181.854 264.987 181.627 265.272 181.464Z" fill="#FAFAFA"/>
<path d="M264.232 187.016V190.216C264.232 190.872 264.704 191.144 265.272 190.816L276.192 184.504C276.495 184.307 276.747 184.042 276.928 183.729C277.109 183.416 277.213 183.065 277.232 182.704V179.504C277.232 178.84 276.768 178.568 276.192 178.904L265.272 185.208C264.969 185.406 264.716 185.673 264.536 185.988C264.355 186.302 264.251 186.654 264.232 187.016Z" fill="#FAFAFA"/>
<path d="M212.456 235.2L277.016 197.928C278.936 196.824 280.48 197.608 280.48 199.68C280.396 200.844 280.039 201.971 279.437 202.971C278.835 203.971 278.006 204.814 277.016 205.432L212.456 242.704C210.544 243.808 208.992 243.024 208.992 240.952C209.077 239.789 209.436 238.662 210.037 237.662C210.639 236.663 211.468 235.82 212.456 235.2Z" fill="#E0E0E0"/>
<path d="M212.456 250.216L277.016 212.944C278.936 211.84 280.48 212.624 280.48 214.696C280.396 215.86 280.039 216.987 279.437 217.987C278.835 218.987 278.006 219.83 277.016 220.448L212.456 257.728C210.544 258.832 208.992 258.048 208.992 255.968C209.077 254.805 209.436 253.678 210.037 252.679C210.639 251.679 211.468 250.836 212.456 250.216Z" fill="#E0E0E0"/>
<path d="M233.472 256.848L256 243.84C256.96 243.288 257.736 243.736 257.736 244.84V252.096C257.703 252.697 257.529 253.283 257.227 253.804C256.926 254.325 256.505 254.768 256 255.096L233.472 268.104C232.512 268.656 231.736 268.208 231.736 267.104V259.848C231.769 259.247 231.943 258.661 232.245 258.14C232.546 257.619 232.967 257.176 233.472 256.848Z" fill="#0EA5C6"/>
<path d="M213.864 236.312C213.395 236.623 213.007 237.04 212.729 237.529C212.451 238.019 212.292 238.566 212.264 239.128C212.264 240.16 212.992 240.584 213.864 240.064C214.333 239.753 214.721 239.336 214.999 238.847C215.277 238.357 215.436 237.81 215.464 237.248C215.488 236.216 214.76 235.792 213.864 236.312Z" fill="#FAFAFA"/>
<path d="M219.016 233.336C218.547 233.646 218.157 234.063 217.879 234.552C217.601 235.042 217.442 235.59 217.416 236.152C217.416 237.184 218.136 237.608 219.016 237.088C219.485 236.777 219.873 236.36 220.151 235.871C220.429 235.381 220.588 234.834 220.616 234.272C220.64 233.24 219.912 232.8 219.016 233.336Z" fill="#FAFAFA"/>
<path d="M224.16 230.4C223.691 230.711 223.303 231.128 223.025 231.617C222.747 232.107 222.588 232.654 222.56 233.216C222.56 234.248 223.288 234.672 224.16 234.152C224.629 233.841 225.017 233.424 225.295 232.935C225.573 232.445 225.732 231.898 225.76 231.336C225.784 230.264 225.056 229.84 224.16 230.4Z" fill="#FAFAFA"/>
<path d="M229.312 227.384C228.843 227.695 228.454 228.112 228.176 228.601C227.898 229.09 227.739 229.638 227.712 230.2C227.712 231.232 228.44 231.656 229.312 231.136C229.781 230.825 230.17 230.408 230.447 229.919C230.725 229.429 230.884 228.882 230.912 228.32C230.936 227.288 230.208 226.864 229.312 227.384Z" fill="#FAFAFA"/>
<path d="M234.456 224.408C233.987 224.719 233.599 225.136 233.321 225.625C233.043 226.115 232.884 226.662 232.856 227.224C232.856 228.256 233.584 228.68 234.456 228.16C234.925 227.849 235.313 227.432 235.591 226.943C235.869 226.453 236.028 225.906 236.056 225.344C236.08 224.312 235.352 223.888 234.456 224.408Z" fill="#FAFAFA"/>
<path d="M239.6 221.432C239.131 221.743 238.743 222.16 238.465 222.649C238.187 223.139 238.028 223.686 238 224.248C238 225.28 238.728 225.704 239.6 225.184C240.069 224.874 240.459 224.457 240.737 223.968C241.015 223.478 241.174 222.93 241.2 222.368C241.224 221.336 240.504 220.912 239.6 221.432Z" fill="#FAFAFA"/>
<path d="M244.752 218.456C244.283 218.767 243.894 219.184 243.617 219.673C243.339 220.163 243.18 220.71 243.152 221.272C243.152 222.304 243.88 222.728 244.752 222.208C245.221 221.897 245.609 221.48 245.887 220.991C246.165 220.501 246.324 219.954 246.352 219.392C246.4 218.4 245.648 217.936 244.752 218.456Z" fill="#FAFAFA"/>
<path d="M213.864 251.336C213.396 251.648 213.008 252.065 212.73 252.554C212.452 253.043 212.293 253.59 212.264 254.152C212.264 255.192 212.992 255.608 213.864 255.088C214.332 254.778 214.721 254.363 214.999 253.875C215.277 253.387 215.436 252.841 215.464 252.28C215.488 251.24 214.76 250.824 213.864 251.336Z" fill="#FAFAFA"/>
<path d="M219.016 248.36C218.547 248.671 218.158 249.088 217.88 249.577C217.602 250.066 217.443 250.614 217.416 251.176C217.416 252.216 218.136 252.632 219.016 252.112C219.484 251.802 219.873 251.387 220.151 250.899C220.429 250.411 220.588 249.865 220.616 249.304C220.64 248.264 219.912 247.848 219.016 248.36Z" fill="#FAFAFA"/>
<path d="M224.16 245.384C223.692 245.696 223.304 246.113 223.026 246.602C222.748 247.091 222.589 247.638 222.56 248.2C222.56 249.24 223.288 249.656 224.16 249.136C224.628 248.826 225.017 248.411 225.295 247.923C225.573 247.435 225.732 246.889 225.76 246.328C225.784 245.288 225.056 244.864 224.16 245.384Z" fill="#FAFAFA"/>
<path d="M229.312 242.4C228.843 242.711 228.455 243.128 228.177 243.617C227.899 244.107 227.74 244.654 227.712 245.216C227.712 246.256 228.44 246.672 229.312 246.152C229.78 245.842 230.169 245.427 230.447 244.939C230.725 244.451 230.885 243.905 230.912 243.344C230.936 242.312 230.208 241.888 229.312 242.4Z" fill="#FAFAFA"/>
<path d="M234.456 239.432C233.987 239.743 233.599 240.16 233.321 240.649C233.043 241.139 232.884 241.686 232.856 242.248C232.856 243.288 233.584 243.704 234.456 243.184C234.924 242.874 235.313 242.459 235.591 241.971C235.869 241.483 236.028 240.937 236.056 240.376C236.08 239.336 235.352 238.912 234.456 239.432Z" fill="#FAFAFA"/>
<path d="M239.6 236.456C239.131 236.767 238.743 237.184 238.465 237.673C238.187 238.163 238.028 238.71 238 239.272C238 240.312 238.728 240.728 239.6 240.208C240.07 239.899 240.461 239.482 240.739 238.992C241.017 238.503 241.175 237.954 241.2 237.392C241.224 236.36 240.504 235.936 239.6 236.456Z" fill="#FAFAFA"/>
<path d="M244.752 233.48C244.283 233.791 243.894 234.208 243.617 234.697C243.339 235.187 243.18 235.734 243.152 236.296C243.152 237.336 243.88 237.752 244.752 237.232C245.221 236.921 245.61 236.504 245.888 236.015C246.166 235.526 246.325 234.978 246.352 234.416C246.4 233.384 245.648 232.96 244.752 233.48Z" fill="#FAFAFA"/>
<path d="M316.952 267.304C314.187 267.323 311.467 266.605 309.072 265.224C303.304 261.888 300 254.928 300 246.104C300 230.6 309.856 212.768 322.4 205.504C329.176 201.592 335.904 201.168 341.352 204.312C347.112 207.64 350.424 214.608 350.424 223.424C350.424 238.928 340.568 256.768 327.984 264.032C324.656 266.068 320.852 267.196 316.952 267.304ZM333.48 213.4C331.533 213.538 329.65 214.156 328 215.2C318.88 220.44 311.2 234.608 311.2 246.104C311.2 250.76 312.504 254.296 314.688 255.552C317.176 256.992 320.64 255.424 322.472 254.36C331.616 249.088 339.328 234.92 339.328 223.424C339.328 218.768 338.024 215.24 335.84 213.976C335.12 213.573 334.304 213.374 333.48 213.4Z" fill="#455A64"/>
<path d="M341.288 225.904C341.288 217.192 335.8 213.976 335.8 213.976C337.984 215.24 339.288 218.776 339.288 223.424C339.288 234.92 331.576 249.088 322.432 254.36C320.6 255.424 317.144 256.992 314.648 255.552C314.648 255.552 319.28 258.432 325.68 254.936C334.944 249.888 341.288 237.4 341.288 225.904Z" fill="#37474F"/>
<path d="M332.488 117.032C332.432 115.538 331.8 114.124 330.724 113.087C329.647 112.05 328.211 111.471 326.716 111.471C325.221 111.471 323.785 112.05 322.708 113.087C321.632 114.124 321 115.538 320.944 117.032V208.8C320.985 209.314 321.164 209.808 321.46 210.23C321.757 210.652 322.162 210.987 322.632 211.2C323.897 211.839 325.295 212.172 326.712 212.172C328.129 212.172 329.527 211.839 330.792 211.2C331.264 210.989 331.671 210.655 331.969 210.233C332.268 209.81 332.447 209.315 332.488 208.8V117.048V117.032Z" fill="#37474F"/>
<path d="M327.88 137.544C327.817 136.387 327.482 135.261 326.902 134.257C326.323 133.254 325.515 132.401 324.544 131.768C324.201 131.517 323.796 131.365 323.373 131.328C322.95 131.291 322.525 131.372 322.144 131.56L307.92 139.76L307.576 139.96C307.524 139.982 307.475 140.011 307.432 140.048C307.19 140.212 306.962 140.397 306.752 140.6C305.95 141.4 305.462 142.461 305.377 143.591C305.293 144.72 305.617 145.843 306.292 146.753C306.966 147.663 307.945 148.3 309.051 148.548C310.156 148.796 311.313 148.639 312.312 148.104L312.584 147.944L326.912 139.696C327.249 139.455 327.516 139.129 327.687 138.751C327.857 138.373 327.923 137.956 327.88 137.544Z" fill="#455A64"/>
<path d="M327.88 160.52C327.816 159.364 327.48 158.24 326.9 157.238C326.321 156.236 325.514 155.384 324.544 154.752C324.203 154.498 323.798 154.343 323.375 154.305C322.951 154.267 322.525 154.347 322.144 154.536L305.456 164.136L305.112 164.336C305.06 164.359 305.012 164.388 304.968 164.424C304.724 164.586 304.496 164.771 304.288 164.976C303.767 165.495 303.374 166.128 303.14 166.825C302.906 167.522 302.837 168.264 302.94 168.992C303.042 169.72 303.313 170.414 303.73 171.02C304.148 171.625 304.7 172.125 305.344 172.48C306.039 172.849 306.813 173.041 307.6 173.04C308.384 173.044 309.157 172.851 309.848 172.48C309.944 172.432 310.032 172.368 310.12 172.32L326.92 162.72C327.263 162.474 327.534 162.14 327.703 161.752C327.872 161.365 327.933 160.939 327.88 160.52Z" fill="#455A64"/>
</svg>
