<svg width="100" height="100" viewBox="0 0 100 100" fill="none" xmlns="http://www.w3.org/2000/svg">
<g clip-path="url(#clip0)">
<path d="M90.6646 25.1233C89.8574 25.1702 89.2398 25.8621 89.2867 26.6713C89.333 27.4831 90.037 28.0974 90.8366 28.0493C91.6439 28.0004 92.2615 27.3085 92.2146 26.4993C92.1657 25.6921 91.4738 25.0745 90.6646 25.1233Z" fill="#0EA5C6"/>
<path d="M55.1208 73.0277C54.3957 73.3873 54.1005 74.2688 54.4602 74.994C54.8011 75.6787 55.743 75.9967 56.4245 75.6527C57.1497 75.293 57.4448 74.4135 57.0852 73.6883C56.7255 72.9632 55.846 72.668 55.1208 73.0277Z" fill="#0EA5C6"/>
<path d="M88.3601 20.7901C88.5341 21.4487 89.1282 21.8827 89.7772 21.8827C90.6417 21.8827 91.4237 20.9034 91.1962 20.0454C90.9909 19.2616 90.1896 18.7946 89.4058 18.9997C88.624 19.2049 88.1549 20.0061 88.3601 20.7901Z" fill="#0EA5C6"/>
<path d="M84.0407 10.8999C85.2214 10.8999 85.9313 9.35557 85.1372 8.46077C83.8009 7.05095 81.7073 8.9111 82.9442 10.4056C83.2335 10.7318 83.6361 10.8999 84.0407 10.8999Z" fill="#0EA5C6"/>
<path d="M65.3334 68.8351C65.9637 69.5246 66.6439 69.6458 67.3739 69.1986C68.0385 68.7354 68.2007 67.8226 67.7394 67.1581C67.2762 66.4937 66.3615 66.3315 65.6969 66.7947H65.6989C65.0343 67.2558 64.8701 68.1705 65.3334 68.8351Z" fill="#0EA5C6"/>
<path d="M60.5292 70.1036C59.8294 70.5141 59.5969 71.411 60.0073 72.111C60.4015 72.778 61.3468 73.0206 62.0146 72.6309C62.7124 72.2204 62.945 71.3235 62.5346 70.6255C62.1241 69.9258 61.227 69.6932 60.5292 70.1036Z" fill="#0EA5C6"/>
<path d="M75.0848 58.9566C74.5141 59.5313 74.516 60.4579 75.0907 61.0304C75.7828 61.6012 76.4741 61.5984 77.1644 61.0226C77.7352 60.448 77.7313 59.5196 77.1566 58.9506C76.582 58.3781 75.6555 58.382 75.0848 58.9566Z" fill="#0EA5C6"/>
<path d="M70.5717 63.0828C69.9501 63.6006 69.8661 64.5253 70.384 65.1468C71.0461 65.7811 71.7341 65.8436 72.4481 65.3344C73.0696 64.8167 73.1537 63.892 72.6357 63.2704C72.1178 62.6489 71.1932 62.5629 70.5717 63.0828Z" fill="#0EA5C6"/>
<path d="M32.6219 2.92138C33.3842 2.92138 34.124 2.13233 34.0859 1.38119C33.9209 -0.554609 31.1261 -0.410167 31.158 1.52973C31.199 2.31351 31.846 2.92138 32.6219 2.92138Z" fill="#0EA5C6"/>
<path d="M87.5568 16.0521C88.5534 16.0521 89.3316 14.8301 88.8586 13.9138C88.4872 13.1928 87.6037 12.9111 86.8825 13.2827C86.1632 13.6539 85.8818 14.5375 86.2531 15.2568C86.5131 15.7627 87.0252 16.0521 87.5568 16.0521Z" fill="#0EA5C6"/>
<path d="M73.2494 4.03932C73.9589 4.27563 74.8645 3.81983 75.1004 3.10504C75.3525 2.33514 74.9343 1.50621 74.1642 1.25407C73.396 1.00194 72.5673 1.42021 72.3132 2.18835C72.0611 2.95845 72.4793 3.78718 73.2494 4.03932Z" fill="#0EA5C6"/>
<path d="M78.5209 6.57834C79.1864 6.93074 80.0453 6.92899 80.5517 6.15615C80.995 5.47968 80.8077 4.571 80.1295 4.12732C79.4532 3.68344 78.5444 3.87108 78.1007 4.54735C77.657 5.22578 77.8446 6.13465 78.5209 6.57834Z" fill="#0EA5C6"/>
<path d="M67.4914 2.94095C68.2893 2.99627 68.997 2.37491 69.0433 1.5669C69.0922 0.759663 68.4765 0.0640347 67.6693 0.0151707C66.8601 -0.0336934 66.1662 0.581798 66.1174 1.38903C66.0685 2.19822 66.6822 2.89209 67.4914 2.94095Z" fill="#0EA5C6"/>
<path d="M44.1559 5.18272C44.8427 5.5062 45.7811 5.16455 46.1026 4.47322C46.4446 3.7383 46.128 2.86657 45.3931 2.52452C44.6601 2.18247 43.7884 2.50107 43.4463 3.23403C43.1043 3.96894 43.4209 4.84068 44.1559 5.18272Z" fill="#0EA5C6"/>
<path d="M38.5599 3.35122C39.2838 3.49977 40.1382 2.92083 40.2818 2.19823C40.4401 1.40448 39.9241 0.632625 39.1306 0.476065C38.3351 0.317746 37.565 0.83375 37.4067 1.6275C37.2483 2.42281 37.7643 3.1931 38.5599 3.35122Z" fill="#0EA5C6"/>
<path d="M61.352 3.34164C62.18 3.34164 62.9505 2.42925 62.7945 1.60403C62.644 0.808527 61.8778 0.284705 61.0823 0.435206C60.2868 0.585903 59.763 1.35189 59.9135 2.1476C60.0464 2.85104 60.6601 3.34164 61.352 3.34164Z" fill="#0EA5C6"/>
<path d="M50.0762 8.46845C51.2089 8.46845 51.9444 7.00585 51.2275 6.09541C50.7251 5.46018 49.8026 5.35072 49.1674 5.85109C48.5321 6.35341 48.4227 7.27597 48.925 7.9112C49.2143 8.2769 49.6423 8.46845 50.0762 8.46845Z" fill="#0EA5C6"/>
<path d="M55.4063 5.22577C55.8109 4.93005 56.013 4.88646 56.0122 5.09482C56.749 4.75844 57.0755 3.88866 56.7393 3.15198C56.405 2.41492 55.5353 2.0887 54.7984 2.42489C53.3598 3.08123 53.9132 5.22577 55.4063 5.22577Z" fill="#0EA5C6"/>
<path d="M26.4847 4.03346C27.3789 4.03346 28.1621 2.99715 27.8822 2.1219C27.6359 1.35004 26.8111 0.923753 26.041 1.17022C25.2689 1.4165 24.8428 2.24113 25.0891 3.01142C25.2885 3.63473 25.8651 4.03346 26.4847 4.03346Z" fill="#0EA5C6"/>
<path d="M9.605 34.0576C10.4083 33.9579 10.9771 33.2249 10.8774 32.4216C10.7758 31.6183 10.0428 31.0475 9.23949 31.1492C8.43617 31.2489 7.86739 31.9818 7.96903 32.7871C7.96903 32.7851 7.96903 32.7851 7.96903 32.7851C8.065 33.5928 8.81692 34.1613 9.605 34.0576Z" fill="#0EA5C6"/>
<path d="M11.8469 15.6826C12.6069 16.0829 13.3846 15.7407 13.8288 15.0706C14.2061 14.3533 13.9305 13.4681 13.2151 13.0887C12.4997 12.7115 11.6124 12.9851 11.2351 13.7024C10.856 14.418 11.1316 15.3054 11.8469 15.6826Z" fill="#0EA5C6"/>
<path d="M9.14182 27.8241C9.87752 27.8706 10.6539 27.1826 10.7016 26.4559C10.7543 25.6487 10.1426 24.9511 9.33532 24.8981C7.3921 24.8391 7.21208 27.6273 9.14182 27.8241Z" fill="#0EA5C6"/>
<path d="M14.3116 43.9396C13.9774 43.2028 13.1076 42.8783 12.3707 43.2145C11.6339 43.5509 11.3094 44.4205 11.6456 45.1573C11.8919 45.6968 12.4235 46.0154 12.9806 46.0154C13.9479 46.0154 14.7264 44.8487 14.3116 43.9396Z" fill="#0EA5C6"/>
<path d="M9.8728 21.6149C10.5897 21.8101 11.4746 21.3063 11.671 20.5848C11.884 19.803 11.4208 18.9977 10.6409 18.7845C9.85912 18.5736 9.05384 19.0347 8.84274 19.8165C8.6297 20.5966 9.09097 21.4018 9.8728 21.6149Z" fill="#0EA5C6"/>
<path d="M12.1714 38.2775H12.1695C11.9349 37.5035 11.1179 37.0657 10.3419 37.3002C9.56794 37.5367 9.13012 38.3537 9.36467 39.1297C9.55621 39.7628 10.1387 40.1693 10.768 40.1693C11.6554 40.1695 12.4351 39.1496 12.1714 38.2775Z" fill="#0EA5C6"/>
<path d="M89.574 37.5191C88.8 37.2787 87.981 37.7126 87.7406 38.4866C87.5021 39.2606 87.936 40.0794 88.71 40.32C89.4217 40.5438 90.3218 40.0637 90.5434 39.3505C90.7819 38.5784 90.348 37.7575 89.574 37.5191Z" fill="#0EA5C6"/>
<path d="M90.7154 31.3738C89.9141 31.2663 89.1772 31.8312 89.0697 32.6345C88.9641 33.4361 89.529 34.1728 90.3304 34.2803C91.0622 34.3665 91.8782 33.7578 91.9761 33.0196C92.0836 32.2163 91.5187 31.4794 90.7154 31.3738Z" fill="#0EA5C6"/>
<path d="M81.2124 54.1915C80.583 53.6853 79.6585 53.7849 79.1523 54.4163C78.6441 55.0474 78.7457 55.9699 79.377 56.4764C80.0942 56.9734 80.7808 56.8991 81.4371 56.2534C81.9453 55.6222 81.8437 54.6995 81.2124 54.1915Z" fill="#0EA5C6"/>
<path d="M48.5222 75.8635C48.5222 76.6729 49.177 77.3294 49.9881 77.3294C51.9286 77.262 51.928 74.465 49.9881 74.3976C49.177 74.3976 48.5222 75.0543 48.5222 75.8635Z" fill="#0EA5C6"/>
<path d="M87.5178 43.4218C86.7828 43.0817 85.9111 43.402 85.573 44.1371C85.2329 44.872 85.5534 45.7438 86.2883 46.0839C86.9777 46.4013 87.9138 46.0635 88.2331 45.3664C88.5732 44.6316 88.2527 43.7617 87.5178 43.4218Z" fill="#0EA5C6"/>
<path d="M84.7011 49.0021C84.0151 48.5721 83.1101 48.7813 82.6821 49.4673H82.6801C82.2501 50.1534 82.4593 51.0564 83.1453 51.4864C83.8032 51.9006 84.7545 51.6768 85.1663 51.0232C85.5944 50.3371 85.3872 49.4321 84.7011 49.0021Z" fill="#0EA5C6"/>
<path d="M37.2562 70.512C36.8438 71.208 37.0745 72.1069 37.7722 72.5195C38.4383 72.9136 39.3863 72.6694 39.7796 72.0033C40.192 71.3075 39.9613 70.4084 39.2636 69.996C38.5677 69.5836 37.6686 69.8142 37.2562 70.512Z" fill="#0EA5C6"/>
<path d="M32.061 67.0289C31.5958 67.6917 31.7561 68.6062 32.4187 69.0714C33.1485 69.5202 33.8295 69.401 34.4612 68.7137C34.9244 68.0511 34.7641 67.1366 34.1016 66.6712C33.439 66.206 32.5242 66.3663 32.061 67.0289Z" fill="#0EA5C6"/>
<path d="M42.7016 73.5904C42.34 74.3155 42.6332 75.1951 43.3583 75.5569C44.0403 75.9005 44.9822 75.5895 45.3246 74.9019C45.6862 74.1768 45.393 73.2972 44.6679 72.9356C43.9447 72.574 43.0632 72.8672 42.7016 73.5904Z" fill="#0EA5C6"/>
<path d="M27.1726 63.1257C26.6527 63.7473 26.7348 64.6718 27.3544 65.1917C28.0682 65.702 28.7568 65.6412 29.4203 65.0097C29.9402 64.3882 29.8582 63.4639 29.2386 62.944C28.617 62.424 27.6925 62.5061 27.1726 63.1257Z" fill="#0EA5C6"/>
<path d="M18.6292 54.0155C17.996 54.5219 17.8924 55.4425 18.3967 56.0756C19.0514 56.7251 19.7381 56.8027 20.4568 56.3082C21.09 55.8039 21.1936 54.8813 20.6894 54.2481C20.1831 53.615 19.2606 53.5114 18.6292 54.0155Z" fill="#0EA5C6"/>
<path d="M15.9359 51.5214C16.987 51.5214 17.7538 50.2076 17.179 49.2834C16.7529 48.5954 15.8479 48.3843 15.1619 48.8104C14.4739 49.2385 14.2628 50.1417 14.6889 50.8295C14.9664 51.2771 15.4453 51.5214 15.9359 51.5214Z" fill="#0EA5C6"/>
<path d="M23.6974 61.3003C24.0688 61.3003 24.4401 61.1596 24.7275 60.8762C25.3041 60.3074 25.3099 59.3809 24.7411 58.8041C24.1724 58.2277 23.244 58.2219 22.6674 58.7906C21.7393 59.7062 22.4203 61.3003 23.6974 61.3003Z" fill="#0EA5C6"/>
<path d="M20.8457 6.69169C21.9091 6.69169 22.6706 5.35242 22.077 4.43026C21.6372 3.75203 20.7303 3.55657 20.0501 3.9944C19.37 4.43417 19.1745 5.34128 19.6143 6.02127C19.8938 6.45519 20.3648 6.69169 20.8457 6.69169Z" fill="#0EA5C6"/>
<path d="M15.1131 10.3546C15.8175 10.8908 16.5075 10.8556 17.183 10.2491C17.7263 9.64925 17.6794 8.72083 17.0774 8.17922C16.4774 7.63605 15.5509 7.68277 15.0075 8.28477C14.4642 8.88482 14.5111 9.81128 15.1131 10.3546Z" fill="#0EA5C6"/>
<path d="M22.0719 13.3745C21.4553 12.8499 20.5298 12.9243 20.0056 13.5414C9.65421 26.0965 16.5818 44.7684 27.6911 55.6883C32.8959 60.9858 39.4382 65.587 47.1403 69.3671C49.0007 70.2805 50.983 70.2795 52.8283 69.3703C60.5332 65.5894 67.0778 60.9874 72.284 55.6883C84.2807 43.8146 92.1423 21.8279 75.9433 10.0236C71.604 7.2735 66.3507 6.49148 61.1514 7.82214C56.6154 8.98276 52.6557 11.6568 49.9873 15.2997C44.9303 8.40011 35.4749 5.34865 27.4333 8.33111C25.6564 8.99077 26.6755 11.7379 28.453 11.08C35.9104 8.31352 44.806 11.6716 48.7046 18.7245C49.2524 19.716 50.7226 19.7158 51.2705 18.7245C53.4586 14.7659 57.325 11.8274 61.8781 10.6623C66.2862 9.53434 70.7241 10.1868 74.3738 12.4998C79.509 15.7539 83.925 23.882 81.4861 34.0371C79.777 41.1525 75.9773 47.7456 70.1926 53.6335C69.2319 54.6114 68.2224 55.5648 67.1658 56.4928C65.3602 54.2883 63.1544 52.4522 60.6704 51.085C63.4961 47.7587 64.2275 43.8601 64.025 39.6197C63.8389 31.8374 57.4893 25.721 49.8572 25.8858C46.3339 25.9317 42.9867 27.2612 40.4321 29.6292C37.6154 32.2405 36.0591 35.8165 35.9321 39.9706C35.8064 44.0982 36.5513 47.8439 39.2988 51.0805C36.8146 52.4467 34.6083 54.282 32.8017 56.4864C31.7476 55.5603 30.7406 54.609 29.7821 53.6333C19.7575 43.7356 13.0022 26.9104 22.2386 15.4404C22.7634 14.8242 22.6886 13.8989 22.0719 13.3745ZM49.8959 28.8174C55.2275 28.7561 60.7425 32.4895 61.0967 39.7595C57.2737 39.9594 53.4913 39.0396 51.1913 35.7243C50.6183 34.8983 49.3455 34.9129 48.7826 35.7243C46.6243 38.8348 42.613 40.4737 38.8751 39.7616C39.2369 32.6648 44.6551 28.8859 49.8959 28.8174ZM39.1477 42.7695C43.1065 43.2689 47.2388 41.7672 49.9869 38.875C52.8175 41.854 57.0638 43.3293 61.1369 42.7275C60.9481 45.1974 59.8983 47.6055 58.1381 49.5244C53.6858 54.3788 46.2889 54.3804 41.8355 49.5246C40.0752 47.6057 39.0256 45.1972 38.8368 42.7277C38.9404 42.7431 39.044 42.757 39.1477 42.7695ZM35.0539 58.3639C36.8144 56.2102 39.0123 54.4617 41.4979 53.2405C46.5063 57.081 53.4618 57.081 58.4709 53.244C60.9565 54.4662 63.1544 56.2161 64.9139 58.37C61.0386 61.4527 56.6149 64.2292 51.7388 66.6386C50.5108 67.2443 49.45 67.2388 48.2169 66.629C43.3459 64.2206 38.9261 61.4451 35.0539 58.3639Z" fill="#0EA5C6"/>
<path d="M76.9626 80.6108C75.0915 78.8525 72.008 78.3337 69.7446 80.7326C67.0518 83.5292 63.4718 85.6456 59.4732 86.9565C60.1133 83.4361 57.21 80.0713 53.5587 80.7134C50.0477 81.3318 45.1729 81.4538 41.8855 78.5229C38.6495 75.6384 33.6263 76.1663 30.7928 79.3415H26.8088C24.9604 71.9439 14.2957 73.0513 14.0856 80.7549V93.5922C14.2998 101.338 25.0534 102.397 26.8262 94.926H31.4055C42.0907 99.4754 55.4429 100.122 66.0214 95.6304C67.768 94.8945 66.629 92.1912 64.8828 92.9288C60.0312 94.9735 54.3794 95.9441 48.5413 95.7348C42.9699 95.5354 37.3472 94.283 32.2812 92.1128C32.0986 92.0346 31.9024 91.9944 31.7038 91.9944H26.9651V82.2735H31.4884C31.9536 82.2735 32.3912 82.0527 32.6676 81.6784C34.3375 79.4172 37.7627 78.7753 39.9344 80.7119C43.23 83.6498 48.1168 84.6485 54.0673 83.6013C57.4193 83.0089 57.5419 87.7184 54.6658 88.1105C50.9171 88.6214 47.008 88.6259 43.2222 87.8095C42.4314 87.6382 41.6509 88.1417 41.4801 88.9333C41.3095 89.7247 41.8126 90.5046 42.604 90.6752C47.5908 91.751 53.1183 91.6486 58.1683 90.3873C63.6378 89.0217 68.3709 86.3861 71.8665 82.7557C73.281 81.2564 74.7874 82.5904 74.9543 82.7475C75.1226 82.9057 76.5572 84.336 75.1398 85.8504C74.0515 87.013 72.8553 88.0944 71.5844 89.0649C70.053 90.2343 71.8972 92.5154 73.3639 91.3951C74.7635 90.3263 76.0811 89.135 77.2802 87.854C79.5506 85.4282 78.839 82.3742 76.9626 80.6108ZM24.0333 93.592C24.0333 95.5263 22.4597 97.0999 20.5255 97.0999C18.5912 97.0999 17.0176 95.5263 17.0176 93.592V80.7545C17.2107 76.0997 23.842 76.1032 24.0335 80.7545V93.592H24.0333Z" fill="#0EA5C6"/>
</g>
<defs>
<clipPath id="clip0">
<rect width="100" height="100" fill="white"/>
</clipPath>
</defs>
</svg>
