<svg width="400" height="400" viewBox="0 0 400 400" fill="none" xmlns="http://www.w3.org/2000/svg">
<path d="M64.616 325.824C138.872 373.472 259.264 373.472 333.52 325.824C407.776 278.176 407.784 200.92 333.52 153.272C259.256 105.624 138.872 105.616 64.616 153.272C-9.63997 200.928 -9.59997 278.176 64.616 325.824Z" fill="#F5F5F5"/>
<path d="M351.048 278.112L347.344 276C347.344 276 345.568 266.208 346.896 257.792C348.76 245.952 356.824 241.864 359.752 243.048C362.68 244.232 363.368 247.728 358.08 254.568C354.96 258.592 350.952 267.128 351.048 278.112Z" fill="#37474F"/>
<path d="M349.704 273.408H349.744C349.813 273.398 349.875 273.361 349.917 273.306C349.959 273.251 349.977 273.181 349.968 273.112C348.44 262.024 352.896 249.912 357.904 244.992C357.954 244.942 357.982 244.875 357.982 244.804C357.982 244.734 357.954 244.666 357.904 244.616C357.854 244.566 357.786 244.538 357.716 244.538C357.645 244.538 357.578 244.566 357.528 244.616C352.432 249.6 347.888 261.936 349.448 273.184C349.456 273.246 349.486 273.303 349.533 273.345C349.581 273.386 349.641 273.409 349.704 273.408Z" fill="white"/>
<path d="M361.328 284.048C361.912 284.384 363.12 283.648 363.584 283.344C364.375 282.803 365.014 282.067 365.44 281.208C365.919 280.234 366.082 279.135 365.904 278.064C365.813 277.498 365.682 276.939 365.512 276.392L365.04 274.792C364.858 274.279 364.779 273.735 364.808 273.192C364.944 272.088 365.936 271.304 366.832 270.632C367.728 269.96 368.848 268.912 368.848 267.576C368.772 266.54 368.356 265.558 367.664 264.784C367.032 263.984 366.272 263.256 365.696 262.384C365.24 261.791 365.003 261.059 365.024 260.312C365.084 259.852 365.237 259.408 365.472 259.008C366.016 258.181 366.493 257.312 366.896 256.408C367.09 255.951 367.15 255.448 367.069 254.958C366.988 254.468 366.77 254.011 366.44 253.64C366.114 253.398 365.743 253.223 365.349 253.125C364.955 253.028 364.545 253.01 364.144 253.072C363.383 253.162 362.651 253.419 362 253.824C359.88 255 358.672 257.512 356.4 258.424C355.508 258.703 354.6 258.924 353.68 259.088C353.218 259.174 352.779 259.356 352.392 259.622C352.005 259.888 351.678 260.232 351.432 260.632C350.632 262.28 352.136 264.312 351.56 266.064C351.04 267.616 349.536 268.208 348.688 269.608C348.343 270.226 348.205 270.938 348.296 271.64C348.366 272.827 348.657 273.991 349.152 275.072C349.7 276.147 350.329 277.179 351.032 278.16C351.032 278.16 361.24 284 361.328 284.048Z" fill="#455A64"/>
<path d="M355.312 280.848C355.347 280.847 355.382 280.839 355.414 280.824C355.447 280.809 355.475 280.788 355.499 280.762C355.523 280.736 355.542 280.705 355.553 280.672C355.565 280.639 355.57 280.603 355.568 280.568C355.136 270.08 360.08 258.504 363.672 255.136C363.697 255.111 363.717 255.082 363.73 255.05C363.744 255.018 363.751 254.983 363.751 254.948C363.751 254.913 363.744 254.878 363.73 254.846C363.717 254.814 363.697 254.785 363.672 254.76C363.648 254.735 363.619 254.716 363.588 254.702C363.556 254.689 363.522 254.682 363.488 254.682C363.454 254.682 363.42 254.689 363.388 254.702C363.356 254.716 363.328 254.735 363.304 254.76C359.632 258.192 354.592 269.96 355.032 280.6C355.038 280.669 355.07 280.734 355.123 280.78C355.175 280.826 355.242 280.85 355.312 280.848Z" fill="white"/>
<path d="M356.888 268.456H356.968C359.452 267.772 362.003 267.362 364.576 267.232C364.647 267.228 364.713 267.196 364.761 267.144C364.809 267.092 364.834 267.023 364.832 266.952C364.831 266.917 364.823 266.882 364.808 266.851C364.793 266.819 364.772 266.791 364.746 266.767C364.72 266.744 364.689 266.726 364.655 266.715C364.622 266.705 364.587 266.701 364.552 266.704C361.933 266.835 359.336 267.254 356.808 267.952C356.741 267.972 356.685 268.018 356.652 268.08C356.619 268.141 356.612 268.213 356.632 268.28C356.652 268.332 356.687 268.377 356.732 268.408C356.778 268.44 356.832 268.456 356.888 268.456Z" fill="white"/>
<path d="M103.52 162.6L85.776 172.848L295.76 304.328L331.256 283.84L103.52 162.6Z" fill="#0EA5C6"/>
<path d="M76.904 157.472L73.944 179.672L115.352 155.768L76.904 157.472Z" fill="#0EA5C6"/>
<path d="M307.592 297.496L280.976 312.864L252.88 296.648C224.08 280.048 187.888 268.712 148.08 263.848C118.601 260.305 88.7979 260.407 59.344 264.152L54.464 252.072L72.624 249.256C105.601 244.239 139.106 243.717 172.224 247.704C212.952 252.664 250.04 264.264 279.472 281.256L307.592 297.496Z" fill="#0EA5C6"/>
<path d="M49.432 241.152L65.696 276.192L32.888 262.536L49.432 241.152Z" fill="#0EA5C6"/>
<path d="M346.04 275.304L319.424 290.672L291.328 274.448C261.896 257.456 241.8 236.048 233.208 212.528C226.296 193.6 227.224 173.712 235.904 155.024L240.768 144.544L263.792 142.4C255.32 160.656 254.408 180.088 261.168 198.576C269.56 221.552 289.168 242.472 317.968 259.072L346.04 275.304Z" fill="#0EA5C6"/>
<path d="M219.6 143.904L280.288 153.296L256.64 134.352L219.6 143.904Z" fill="#0EA5C6"/>
<path d="M272.104 307.744L301.68 324.824L366.744 287.256L337.168 270.176L272.104 307.744Z" fill="#0EA5C6"/>
<path opacity="0.1" d="M308.416 307.496C325.634 307.496 339.592 299.437 339.592 289.496C339.592 279.555 325.634 271.496 308.416 271.496C291.198 271.496 277.24 279.555 277.24 289.496C277.24 299.437 291.198 307.496 308.416 307.496Z" fill="black"/>
<path opacity="0.1" d="M164.424 213.528C169.05 213.528 172.8 211.365 172.8 208.696C172.8 206.027 169.05 203.864 164.424 203.864C159.798 203.864 156.048 206.027 156.048 208.696C156.048 211.365 159.798 213.528 164.424 213.528Z" fill="black"/>
<path d="M175.12 135.2L167.664 130.896C165.888 129.872 163.352 130.096 160.088 131.984C152.936 136.12 149.296 143.912 149.296 151.272C149.296 155.176 150.32 158.056 152.352 159.272L159.8 163.592C161.592 164.672 164.168 164.456 167.504 162.528C174.704 158.4 178.176 150.528 178.176 143.152C178.176 139.24 177.144 136.384 175.12 135.2Z" fill="#37474F"/>
<path d="M192.576 35.352L184.992 30.992C179.624 27.92 171.824 28.656 161.968 34.344C144.144 44.632 131.848 64.288 128.08 85.04L135.496 89.328L155.328 84.904C157.6 76.24 160.976 70.096 168.8 65.6C169.817 65.0054 170.888 64.5098 172 64.12C172.148 65.0056 172.22 65.9022 172.216 66.8C172.216 73.496 167.696 81.128 149.624 99.096V127.544L157.04 131.824L178.256 119.584V103.848C188.72 92.576 200.8 75.744 200.8 55.152C200.8 45.472 197.92 38.496 192.576 35.352Z" fill="#37474F"/>
<path d="M156.96 103.376C175.04 85.408 179.56 77.776 179.56 71.088C179.56 65.224 176.92 60.888 168.76 65.6C160.976 70.096 157.56 76.24 155.328 84.904L135.496 89.328C139.264 68.576 151.568 48.92 169.392 38.632C189.224 27.2 200.8 35.744 200.8 55.152C200.8 75.744 188.752 92.576 178.208 103.848V119.584L156.992 131.824L156.96 103.376Z" fill="#455A64"/>
<path d="M156.712 155.56C156.712 148.192 160.352 140.4 167.504 136.272C174.536 132.216 178.176 135.8 178.176 143.168C178.176 150.536 174.664 158.416 167.504 162.544C160.344 166.672 156.712 162.92 156.712 155.56Z" fill="#455A64"/>
<path d="M179.56 71.088C179.56 77.784 175.04 85.408 156.96 103.376L149.544 99.096C167.624 81.12 172.136 73.496 172.136 66.8C172.144 65.9047 172.072 65.0105 171.92 64.128C177.6 62.16 179.56 66.064 179.56 71.088Z" fill="#263238"/>
<path d="M320.608 164.72C323.752 163.976 327.208 166.208 329.232 171.12C331.256 176.032 335.296 188.632 336.136 191.92C336.512 193.392 325.312 206.456 325.736 206.264C325.856 206.208 322.088 199.864 322.088 199.864L327.52 191.496L324.12 182.416L320.608 164.72Z" fill="#FFA8A7"/>
<path d="M327.856 281.6C328.28 281.76 328.384 282.568 328.448 284.184C328.496 285.4 328.76 287.536 327.336 287.96C325.912 288.384 323.808 288.168 322.896 287.016C321.752 285.584 320.976 284.32 319.344 282.568C317.928 281.048 316.4 279.632 315.832 277.496C315.312 275.576 315.744 274.736 317.056 274.176C318.864 273.376 321.704 275.92 323.12 276.32C324.336 276.696 327.424 281.472 327.856 281.6Z" fill="#263238"/>
<path d="M327.856 280.136V282.12C327.112 282.594 326.253 282.857 325.371 282.881C324.489 282.905 323.617 282.689 322.848 282.256C322.768 282.064 322.328 278.256 322.328 278.256L327.856 280.136Z" fill="#FFA8A7"/>
<path d="M313.12 292.152C313.12 292.152 313.688 293.872 314 295.352C314.24 296.552 314.592 298.552 314.168 299.448C313.744 300.344 312.112 300.928 309.584 300.912C307.944 300.912 305.384 302.016 303.632 302.992C301.871 303.863 299.877 304.144 297.944 303.792C295.688 303.52 293.352 302.192 292.992 301.28C292.632 300.368 293.096 299.896 298.408 297.632C298.456 297.632 304.008 295.104 306.584 292.264L313.12 292.152Z" fill="#263238"/>
<path d="M313.12 290.008C313.12 290.008 313.12 291.48 313.12 292.32C313.12 293.16 312.136 294.408 309.576 294.32C307.768 294.256 306.512 293.768 306.584 292.28V290.144L313.12 290.008Z" fill="#FFA8A7"/>
<path d="M329.8 252.696C329.384 249.222 328.579 245.806 327.4 242.512C327.4 242.512 328.52 233.76 329.168 225.344C330.328 210.264 329.392 205.344 326.432 198.568C326.432 198.568 301.128 196.008 300.352 206.52C299.392 219.616 300.672 244.92 301.016 249.552C301.36 254.184 301.816 256.264 303.416 265.928C304.664 273.28 306.616 290.144 306.616 290.144C307.633 290.661 308.761 290.919 309.901 290.895C311.041 290.872 312.158 290.567 313.152 290.008C313.152 290.008 315.224 268.952 315.008 263.608C314.829 259.666 314.138 255.764 312.952 252C312.952 252 314.552 230.656 314.976 227.256C314.976 227.256 315.776 234.032 316.112 238.656C316.448 243.28 317.832 247.704 319.176 256.296C320.336 263.744 322.488 280.408 322.488 280.408C325.848 282.224 327.992 280.208 327.992 280.208C327.992 280.208 330.712 259.2 329.8 252.696Z" fill="#37474F"/>
<path d="M307.648 161.312L308.84 171.088L317.44 170.312L316.456 159.464L307.648 161.312Z" fill="#FFA8A7"/>
<path d="M326.872 169.6C325.928 167.032 322.712 164.168 319.408 164.8C318.544 164.96 317.808 165.088 317.008 165.248C316.936 167.504 312.688 168.672 308.464 167.304C307.192 167.664 306.024 168.04 304.968 168.416C301.944 169.496 300.728 174.52 300.656 182.928C300.584 191.336 299.696 212.312 299.696 212.312L303.232 213.424L304.888 207.288L305.552 214.632C309.572 215.573 313.757 215.554 317.768 214.576C326.864 212.592 329.688 207.68 329.688 207.68C328.587 202.011 326.386 196.614 323.208 191.792C327.728 179.664 328.272 173.432 326.872 169.6Z" fill="#0EA5C6"/>
<path opacity="0.2" d="M300.552 187.112L305.904 181.032L300.424 191.976L300.552 187.112Z" fill="black"/>
<path d="M306.616 167.808C306.616 167.808 301.36 168.224 299.112 171.632C296.864 175.04 288.048 187.632 288.048 187.632C288.048 187.632 274.024 180.616 273.336 179.784C272.648 178.952 273.04 177.272 273.224 176.344C273.408 175.416 273.728 173.36 273.936 172.784C274.296 171.776 272.8 172.048 271.928 172.992C271.056 173.936 270.656 175.776 270.216 176.096C269.776 176.416 266.44 172.576 264.824 170.72C263.208 168.864 262.424 167.576 261.36 168.32C260.56 168.872 261.08 169.976 262.24 171.56C262.785 172.227 263.284 172.93 263.736 173.664C263.88 173.944 263.448 174.168 263.28 174.32C262.968 174.608 262.408 175.064 262.368 175.504C262.388 175.744 262.388 175.984 262.368 176.224C262.216 176.752 261.568 177.024 261.376 177.52C261.24 177.888 261.376 178.32 261.312 178.696C261.264 178.952 261.128 179.176 261.08 179.432C261.064 179.684 261.101 179.937 261.191 180.173C261.281 180.409 261.42 180.623 261.6 180.8C262.736 182.152 264.296 182.672 265.784 183.496C267.024 184.184 268.304 184.48 269.728 185.096C271.152 185.712 288.008 198.648 290.632 197.208C293.256 195.768 306.4 180.496 306.4 180.496C310.832 173.376 306.616 167.808 306.616 167.808Z" fill="#FFA8A7"/>
<path d="M302.824 149.256C302.824 149.256 299.464 145.472 301.912 141.624C304.8 137.096 310.36 136.32 316.952 138.088C319.252 138.794 321.278 140.193 322.754 142.093C324.23 143.992 325.084 146.301 325.2 148.704C325.512 153.504 312.032 157.104 312.344 160.416L302.824 149.256Z" fill="#263238"/>
<path d="M300.976 150.728C300.976 150.728 299.144 153.664 299.376 153.928C299.831 154.21 300.332 154.41 300.856 154.52L300.976 150.728Z" fill="#F28F8F"/>
<path d="M306.552 141.44C304.728 142.448 301.568 144.304 300.952 151.152C300.296 158.184 301.928 160.576 302.904 161.472C303.568 162.072 306.904 162.208 308.624 161.624C310.776 160.888 315.424 158.424 317.528 154.76C320.008 150.432 320.392 144.744 317.336 142.6C313.016 139.584 308.104 140.584 306.552 141.44Z" fill="#FFA8A7"/>
<path d="M306.016 141.744C306.016 141.744 304.576 148.144 306.616 152.144C306.616 152.144 307.68 149.616 309.816 150.272C311.952 150.928 311.872 153.816 310.216 155.336C309.794 155.771 309.257 156.077 308.668 156.218C308.079 156.36 307.462 156.331 306.888 156.136C307.612 157.956 308.701 159.609 310.088 160.992C310.088 160.992 316.488 163.848 322.04 157.584C327.072 151.904 326.136 141.992 318.432 139.656C310.728 137.32 306.016 141.744 306.016 141.744Z" fill="#263238"/>
<path d="M306.92 156.168V164.968L317.264 163.552C319.463 163.25 321.478 162.163 322.936 160.491C324.395 158.819 325.199 156.675 325.2 154.456V148.68L316.992 153.936L313.112 157.368L309.184 157.048L306.92 156.168Z" fill="#263238"/>
<path d="M301.016 139C298.248 141.976 298.312 150.336 306.616 152.176L311.616 137.224C308.416 135.264 303.488 136.352 301.016 139Z" fill="#263238"/>
<path d="M305.848 154.488C305.645 154.421 305.457 154.314 305.295 154.174C305.133 154.034 305 153.864 304.903 153.673C304.807 153.481 304.75 153.273 304.734 153.059C304.718 152.846 304.745 152.631 304.812 152.428C304.879 152.225 304.986 152.037 305.126 151.875C305.266 151.713 305.436 151.58 305.628 151.483C305.819 151.387 306.027 151.33 306.241 151.314C306.454 151.298 306.669 151.325 306.872 151.392L305.848 154.488Z" fill="#263238"/>
<path d="M314.976 227.2L315.456 222.088C318.215 221.694 320.857 220.709 323.2 219.2C323.2 219.2 321.56 221.832 317.048 223.032L316.576 229.544L316.296 240.208L314.976 227.2Z" fill="#263238"/>
</svg>
