<svg width="400" height="400" viewBox="0 0 400 400" fill="none" xmlns="http://www.w3.org/2000/svg">
<path d="M169.896 385.096L55.2402 318.904L229.928 218.112L344.584 284.312L169.896 385.096Z" fill="#E0E0E0"/>
<path d="M115.408 117.824L23.2881 171.008V72.992L115.408 19.824V117.824Z" fill="white"/>
<path d="M21.4878 172.056L23.2878 173.128L117.216 118.904L115.408 117.824L21.4878 172.056Z" fill="#FAFAFA"/>
<path d="M120.624 12.864L19.8799 71.024V179.024L120.624 120.864V12.864ZM117.216 118.904L23.2879 173.128V72.992L117.208 18.768L117.216 118.904Z" fill="#F0F0F0"/>
<path d="M117.216 118.904L115.408 117.824V19.8238L117.216 18.7678V118.904Z" fill="#E0E0E0"/>
<path d="M120.624 12.8639L118.792 11.8159L18.0479 69.9759L19.8879 71.0239L120.624 12.8639Z" fill="#FAFAFA"/>
<path d="M18.0479 69.9758L19.8879 71.0238V179.032L18.0479 177.984V69.9758Z" fill="#E0E0E0"/>
<path d="M24.792 92.768V94.888L117.216 41.456L115.408 40.384L24.792 92.768Z" fill="#FAFAFA"/>
<path d="M67.3521 47.568L69.1841 46.512V146.656L67.3521 145.6V47.568Z" fill="#E0E0E0"/>
<path d="M72.5921 44.552L69.1841 46.512V146.656L72.5921 144.68V44.552Z" fill="#F0F0F0"/>
<path d="M117.216 41.4558V45.3838L23.2559 99.8398V95.9038L117.216 41.4558Z" fill="#F0F0F0"/>
<path d="M69.1841 69.288L67.3521 68.168L23.2881 93.632V95.904L69.1841 69.288Z" fill="#FAFAFA"/>
<path d="M33.1681 104.32L77.8801 78.44C78.6638 78.0435 79.5298 77.8369 80.4081 77.8369C81.2864 77.8369 82.1524 78.0435 82.9361 78.44L83.4961 78.776C84.231 79.2562 84.8427 79.9025 85.2818 80.6626C85.721 81.4227 85.9752 82.2755 86.0241 83.152V107.016C86.0241 108.616 86.0241 109.928 83.7281 111.224L38.7761 137.28C37.9924 137.676 37.1264 137.883 36.2481 137.883C35.3698 137.883 34.5039 137.676 33.7201 137.28L33.1681 136.944C32.4322 136.463 31.8199 135.815 31.3807 135.054C30.9415 134.292 30.6878 133.438 30.6401 132.56V108.704C30.6878 107.826 30.9415 106.972 31.3807 106.21C31.8199 105.449 32.4322 104.801 33.1681 104.32Z" fill="#FAFAFA"/>
<path d="M83.328 119.2C81.04 118.104 78.528 115.28 78.528 112.352L71.52 116.472C72.9484 118.099 74.7793 119.322 76.8292 120.018C78.8792 120.715 81.0762 120.86 83.2 120.44C83.3388 120.416 83.4659 120.347 83.562 120.243C83.658 120.14 83.7178 120.009 83.7323 119.868C83.7468 119.728 83.7151 119.587 83.6422 119.466C83.5692 119.346 83.4589 119.252 83.328 119.2Z" fill="#FAFAFA"/>
<path d="M85.9361 82.44C85.6401 81.36 84.6641 81.024 83.5361 81.696L38.8161 107.584C38.0666 108.043 37.4512 108.691 37.0321 109.464L31.4321 106.216C31.8558 105.445 32.47 104.795 33.2161 104.328L77.8801 78.44C78.6638 78.0435 79.5298 77.8369 80.4081 77.8369C81.2864 77.8369 82.1524 78.0435 82.9361 78.44L83.4961 78.776C84.1293 79.1902 84.6719 79.7284 85.0913 80.3582C85.5106 80.9879 85.798 81.6961 85.9361 82.44Z" fill="#0EA5C6"/>
<path opacity="0.45" d="M85.9361 82.44C85.6401 81.36 84.6641 81.024 83.5361 81.696L38.8161 107.584C38.0666 108.043 37.4512 108.691 37.0321 109.464L31.4321 106.216C31.8558 105.445 32.47 104.795 33.2161 104.328L77.8801 78.44C78.6638 78.0435 79.5298 77.8369 80.4081 77.8369C81.2864 77.8369 82.1524 78.0435 82.9361 78.44L83.4961 78.776C84.1293 79.1902 84.6719 79.7284 85.0913 80.3582C85.5106 80.9879 85.798 81.6961 85.9361 82.44Z" fill="white"/>
<path d="M30.6401 132.56C30.6878 133.438 30.9415 134.292 31.3807 135.054C31.8199 135.816 32.4322 136.463 33.1681 136.944L33.7201 137.28C34.4315 137.642 35.2121 137.848 36.0096 137.884C36.8071 137.92 37.6031 137.785 38.3441 137.488C37.1521 137.936 36.2481 137.256 36.2481 135.816V112C36.2773 111.119 36.5306 110.26 36.9841 109.504L31.3841 106.248C30.9315 107.004 30.6783 107.863 30.6481 108.744L30.6401 132.56Z" fill="#0EA5C6"/>
<path opacity="0.25" d="M30.6401 132.56C30.6878 133.438 30.9415 134.292 31.3807 135.054C31.8199 135.816 32.4322 136.463 33.1681 136.944L33.7201 137.28C34.4315 137.642 35.2121 137.848 36.0096 137.884C36.8071 137.92 37.6031 137.785 38.3441 137.488C37.1521 137.936 36.2481 137.256 36.2481 135.816V112C36.2773 111.119 36.5306 110.26 36.9841 109.504L31.3841 106.248C30.9315 107.004 30.6783 107.863 30.6481 108.744L30.6401 132.56Z" fill="white"/>
<path d="M84.6324 82.1521C84.7364 82.1521 85.0323 82.1521 85.1683 82.6561C85.1995 82.825 85.2155 82.9964 85.2163 83.1681V107.024C85.2163 108.544 85.2164 109.424 83.3204 110.536L78.4003 113.4L77.8404 113.72L78.0323 114.336C78.8494 116.626 80.4659 118.543 82.5844 119.736C80.9171 119.983 79.2162 119.872 77.5953 119.41C75.9744 118.948 74.4706 118.145 73.1844 117.056L72.7523 116.672L72.2483 116.96L66.5363 120.28L58.1123 125.168L38.4003 136.584C38.2916 136.646 38.1795 136.703 38.0643 136.752H38.0083C37.9125 136.782 37.8128 136.799 37.7123 136.8C37.1923 136.8 37.1123 136.168 37.1123 135.8V111.952C37.1472 111.211 37.3672 110.49 37.7523 109.856C38.0985 109.201 38.6119 108.649 39.2403 108.256L83.9043 82.4001C84.121 82.2562 84.3725 82.1733 84.6324 82.1601V82.1521ZM84.6324 81.3601C84.2331 81.3761 83.8446 81.4945 83.5043 81.7041L38.7843 107.584C38.0345 108.046 37.4192 108.697 37.0003 109.472C36.5456 110.225 36.2896 111.081 36.2563 111.96V135.832C36.2563 136.968 36.8243 137.632 37.6563 137.632C37.8327 137.632 38.008 137.605 38.1763 137.552C38.2374 137.542 38.2967 137.523 38.3523 137.496C38.5043 137.432 38.6483 137.36 38.7843 137.288L58.4964 125.872L66.9203 120.976L72.6404 117.664C74.905 119.623 77.806 120.69 80.8004 120.664C81.6056 120.666 82.4093 120.591 83.2003 120.44C83.3299 120.411 83.4472 120.342 83.5364 120.243C83.6256 120.145 83.6824 120.021 83.699 119.889C83.7155 119.757 83.6912 119.624 83.6292 119.506C83.5672 119.389 83.4705 119.293 83.3524 119.232C81.2294 118.167 79.5989 116.325 78.8004 114.088L83.7523 111.216C86.0243 109.936 86.0483 108.624 86.0483 107.016V83.2001C86.0451 82.7705 85.9749 82.3441 85.8404 81.9361C85.8909 82.115 85.9309 82.2966 85.9603 82.4801C85.9043 82.175 85.7432 81.8992 85.505 81.7004C85.2668 81.5017 84.9666 81.3926 84.6563 81.3921L84.6324 81.3601Z" fill="#0EA5C6"/>
<path d="M44.5603 118.648C44.5657 118.043 44.6491 117.44 44.8083 116.856C44.9728 116.252 45.2007 115.668 45.4883 115.112C45.7625 114.57 46.101 114.062 46.4963 113.6C46.8526 113.185 47.2741 112.831 47.7443 112.552C48.1176 112.318 48.5444 112.183 48.9843 112.16C49.3505 112.15 49.7092 112.266 50.0003 112.488C50.3098 112.735 50.5428 113.066 50.6723 113.44C50.8498 113.927 50.9339 114.442 50.9203 114.96C50.9188 115.568 50.8354 116.174 50.6723 116.76C50.5141 117.362 50.2886 117.944 50.0003 118.496C49.7198 119.034 49.3789 119.539 48.9843 120C48.6308 120.415 48.212 120.769 47.7443 121.048C47.3681 121.282 46.9387 121.417 46.4963 121.44C46.1337 121.451 45.7783 121.338 45.4883 121.12C45.1801 120.866 44.9454 120.535 44.8083 120.16C44.6348 119.675 44.5508 119.163 44.5603 118.648Z" fill="#0EA5C6"/>
<path d="M56.9923 111.48C56.9944 110.872 57.0751 110.267 57.2323 109.68C57.3967 109.076 57.6247 108.492 57.9123 107.936C58.1938 107.403 58.5347 106.904 58.9283 106.448C59.2817 106.033 59.7006 105.679 60.1683 105.4C60.5445 105.166 60.9738 105.031 61.4163 105.008C61.7798 105 62.1353 105.115 62.4243 105.336C62.7339 105.585 62.9691 105.914 63.1043 106.288C63.278 106.776 63.362 107.291 63.3523 107.808C63.3474 108.416 63.2641 109.021 63.1043 109.608C62.9397 110.209 62.7118 110.791 62.4243 111.344C62.1462 111.867 61.8079 112.356 61.4163 112.8C61.0622 113.217 60.6402 113.571 60.1683 113.848C59.795 114.082 59.3682 114.217 58.9283 114.24C58.5638 114.247 58.207 114.135 57.9123 113.92C57.6041 113.666 57.3694 113.335 57.2323 112.96C57.0653 112.485 56.9841 111.984 56.9923 111.48Z" fill="#0EA5C6"/>
<path d="M69.4159 104.304C69.4168 103.696 69.5002 103.09 69.6639 102.504C69.8248 101.899 70.0529 101.314 70.3439 100.76C70.6198 100.226 70.9582 99.7264 71.3519 99.272C71.7082 98.8572 72.1297 98.5032 72.5999 98.224C72.9721 97.9889 73.3999 97.8564 73.8399 97.84C74.2052 97.8275 74.5637 97.9405 74.8559 98.16C75.1654 98.4075 75.3984 98.7376 75.5279 99.112C75.7054 99.5986 75.7895 100.114 75.7759 100.632C75.775 101.241 75.6916 101.846 75.5279 102.432C75.2141 103.612 74.637 104.707 73.8399 105.632C73.4863 106.044 73.0674 106.396 72.5999 106.672C72.2236 106.906 71.7943 107.041 71.3519 107.064C70.9893 107.075 70.6339 106.962 70.3439 106.744C70.0315 106.494 69.7958 106.162 69.6639 105.784C69.4897 105.31 69.4056 104.809 69.4159 104.304Z" fill="#0EA5C6"/>
<path d="M163.136 274.536C163.304 272.36 161.584 269.88 157.752 266.944C150.688 261.52 125.016 243.664 115.04 237.056C115.038 237.034 115.029 237.013 115.015 236.996C115.001 236.979 114.982 236.966 114.96 236.96C107.328 231.448 105.608 193.688 101.456 175.616C101.213 174.492 100.911 173.381 100.552 172.288C100.552 172.2 100.496 172.128 100.472 172.04C100.384 171.8 100.304 171.552 100.208 171.296C100.16 171.176 100.12 171.048 100.08 170.928C99.3593 168.85 98.2458 166.93 96.8002 165.272C96.2935 164.722 95.715 164.243 95.0802 163.848C94.2162 163.272 92.1122 162.248 91.6642 161.904C86.4722 158.208 73.2642 167.584 63.9922 171.76C58.2002 174.352 53.1842 177.592 49.7682 184.096C47.8959 187.839 46.6372 191.858 46.0402 196C44.5042 205.224 44.8002 236.192 45.6002 249.8C46.5602 272.496 49.9122 272.8 54.4802 276.952C62.3442 284.096 85.4322 298.704 93.1362 302.472C107.112 309.296 119.6 301.488 128.736 297.848C137.872 294.208 155.176 285.728 159.136 283.336C161.456 281.912 162.72 280.384 162.84 278.68C162.84 278.008 163.08 275.248 163.136 274.536Z" fill="#263238"/>
<path d="M129.072 293.664C138.2 290.024 155.472 281.544 159.424 279.152C164.712 275.952 164.552 272.168 157.752 266.944C148.312 259.696 109.568 233.432 109.568 233.432C109.568 233.432 64.528 255.136 53.856 264.632C52.256 266.064 52.176 269.096 52.736 269.8C58.584 277.112 84.632 293.992 93.472 298.304C107.448 305.112 119.936 297.304 129.072 293.664Z" fill="#455A64"/>
<path d="M95.0719 163.848L94.928 163.76C93.7641 163.036 92.4335 162.622 91.064 162.56C86.344 162.176 78.888 165.48 67.728 172.688C64.2959 174.805 61.0804 177.254 58.128 180C58.072 180.056 58.008 180.112 57.96 180.168C57.0686 181.01 56.2497 181.925 55.512 182.904C55.384 183.064 55.264 183.224 55.144 183.392C55.024 183.56 55 183.576 54.944 183.672L54.488 184.336C54.2 184.792 53.912 185.264 53.632 185.752L53.544 185.904L53.224 186.504L49.752 184.104C53.176 177.6 58.4 174.248 63.824 170.928C73.128 165.224 83.496 157.808 90.096 161.008C90.6 161.248 94.2079 163.272 95.0719 163.848Z" fill="#455A64"/>
<path d="M101.456 175.616C100.856 173.216 98.7683 162.968 91.0563 162.552C86.3363 162.176 78.8803 165.48 67.7203 172.688C62.5283 176.048 56.5203 180.344 53.5683 185.904C49.2003 192.8 48.5203 212 48.8003 230.4C49.0803 248.8 50.2483 266.536 52.7443 269.792C57.1283 257.504 108.92 233.296 114.984 236.952C107.328 231.448 105.6 193.688 101.456 175.616Z" fill="#37474F"/>
<path d="M68.4081 233.072C67.7121 243.472 67.5201 257.072 68.7521 262.08C70.2561 268.24 74.0081 275.8 85.7681 282.72C102.504 292.568 114.136 299.096 114.136 299.096L169.552 262.992L129.28 239.536L68.4081 233.072Z" fill="#0EA5C6"/>
<g opacity="0.3">
<path opacity="0.3" d="M68.4081 233.072C67.7121 243.472 67.5201 257.072 68.7521 262.08C70.2561 268.24 74.0081 275.8 85.7681 282.72C102.504 292.568 114.136 299.096 114.136 299.096L169.552 262.992L129.28 239.536L68.4081 233.072Z" fill="black"/>
</g>
<path opacity="0.35" d="M87.1999 271.512C86.7519 271.024 86.32 270.536 85.896 270.048C90.072 268.944 92.528 263.76 92.008 257.904C91.5728 254.331 91.5111 250.722 91.8239 247.136L91.096 247.04C90.7707 250.679 90.8323 254.342 91.2799 257.968C91.7999 263.872 89.3119 268.648 85.3599 269.416C77.3599 259.816 78.6079 250.544 82.5039 238.216L81.7999 237.992C77.5279 251.528 76.8799 261.456 86.6639 272.032C93.064 278.976 110.664 288.472 120.88 294.792L121.568 294.352C111.336 288.04 93.64 278.48 87.1999 271.512Z" fill="black"/>
<path opacity="0.35" d="M131.936 251.68C130.737 255.814 128.347 259.504 125.064 262.288C133.744 268.608 140.864 274.48 145.864 278.792L151.944 274.896L130.608 260.576C133.064 255.488 131.936 251.68 131.936 251.68Z" fill="black"/>
<path d="M169.856 372.704L59.5762 309.04L233.64 208.592L343.92 272.256L169.856 372.704Z" fill="#0EA5C6"/>
<path opacity="0.8" d="M169.856 372.704L59.5762 309.04L233.64 208.592L343.92 272.256L169.856 372.704Z" fill="white"/>
<path d="M59.5762 309.04V317L169.856 380.664V372.704L59.5762 309.04Z" fill="#0EA5C6"/>
<path opacity="0.5" d="M59.5762 309.04V317L169.856 380.664V372.704L59.5762 309.04Z" fill="white"/>
<path d="M169.856 380.664L343.92 280.216V272.256L169.856 372.704V380.664Z" fill="#0EA5C6"/>
<path opacity="0.65" d="M169.856 372.704L343.92 272.256V280.216L169.856 380.664V372.704Z" fill="white"/>
<g opacity="0.2">
<path opacity="0.2" d="M178.513 346.96C184.617 350.488 184.617 356.2 178.513 359.72C172.409 363.24 162.513 363.248 156.409 359.72C150.305 356.192 150.305 350.488 156.409 346.96C162.513 343.432 172.409 343.44 178.513 346.96Z" fill="#0EA5C6"/>
</g>
<path d="M157.744 354.128C152.424 348.704 149.304 335.16 154.488 330.864H180.888C186.064 335.16 182.952 348.696 177.632 354.128L177.488 354.272C177.432 354.336 177.368 354.392 177.304 354.456C177.154 354.607 176.993 354.749 176.824 354.88L176.696 354.976C176.568 355.08 176.44 355.184 176.296 355.28C176.076 355.44 175.846 355.587 175.608 355.72C171.24 358.248 164.152 358.248 159.776 355.72C159.539 355.587 159.309 355.44 159.088 355.28L158.712 355L158.552 354.872C158.392 354.736 158.232 354.6 158.088 354.464L157.88 354.256C157.831 354.218 157.785 354.175 157.744 354.128Z" fill="#F0F0F0"/>
<path d="M178.577 329.128C184.601 332.6 184.601 338.24 178.577 341.712C172.553 345.184 162.801 345.184 156.777 341.712C150.753 338.24 150.761 332.6 156.777 329.128C162.793 325.656 172.561 325.656 178.577 329.128Z" fill="#FAFAFA"/>
<path d="M174.313 331.592C177.969 333.704 177.969 337.136 174.313 339.248C170.657 341.36 164.713 341.36 161.049 339.248C157.385 337.136 157.385 333.704 161.049 331.592C164.713 329.48 170.649 329.48 174.313 331.592Z" fill="#E0E0E0"/>
<path d="M161.048 335.2C164.712 333.088 170.648 333.088 174.312 335.2C175.197 335.683 175.95 336.375 176.504 337.216C175.949 338.055 175.197 338.745 174.312 339.224C170.648 341.336 164.712 341.336 161.048 339.224C160.162 338.747 159.409 338.057 158.856 337.216C159.409 336.373 160.162 335.68 161.048 335.2Z" fill="#455A64"/>
<path d="M173.504 337.24C175.38 335.328 176.994 333.176 178.304 330.84C180.52 326.92 182.416 321.944 181.272 321.296C180.128 320.648 173.976 325.608 173.976 325.608C174.405 323.409 174.571 321.167 174.472 318.928C174.272 315.44 173.424 312.264 172.424 311.624C171.424 310.984 169.224 315.392 168.232 318.576C167.24 321.76 166.888 323.752 166.888 323.752C166.888 323.752 166.088 320.08 164.984 317.048C163.816 313.736 162.768 312.992 161.944 313.32C161.12 313.648 160.592 315.192 160.344 319.6C160.257 321.706 160.321 323.815 160.536 325.912C160.536 325.912 158.936 324.104 157.072 322.352C155.064 320.424 153.648 320.432 153.072 320.8C152.496 321.168 152.896 323.888 156 329.504C157.544 332.361 159.519 334.962 161.856 337.216C161.856 337.216 166.16 340 173.504 337.24Z" fill="#0EA5C6"/>
<g opacity="0.2">
<path opacity="0.2" d="M173.504 337.24C175.38 335.328 176.994 333.176 178.304 330.84C180.52 326.92 182.416 321.944 181.272 321.296C180.128 320.648 173.976 325.608 173.976 325.608C174.405 323.409 174.571 321.167 174.472 318.928C174.272 315.44 173.424 312.264 172.424 311.624C171.424 310.984 169.224 315.392 168.232 318.576C167.24 321.76 166.888 323.752 166.888 323.752C166.888 323.752 166.088 320.08 164.984 317.048C163.816 313.736 162.768 312.992 161.944 313.32C161.12 313.648 160.592 315.192 160.344 319.6C160.257 321.706 160.321 323.815 160.536 325.912C160.536 325.912 158.936 324.104 157.072 322.352C155.064 320.424 153.648 320.432 153.072 320.8C152.496 321.168 152.896 323.888 156 329.504C157.544 332.361 159.519 334.962 161.856 337.216C161.856 337.216 166.16 340 173.504 337.24Z" fill="black"/>
</g>
<path opacity="0.2" d="M168.224 318.6C167.264 321.8 166.88 323.776 166.88 323.776L167.464 326.52C167.464 326.52 168.064 320.512 168.912 316.648C168.648 317.312 168.408 317.984 168.224 318.6Z" fill="black"/>
<path opacity="0.2" d="M161.601 323.416C161.069 320.901 160.785 318.339 160.753 315.768C160.537 317.044 160.403 318.332 160.353 319.624C160.265 321.73 160.33 323.839 160.545 325.936L164.801 330.4C163.5 328.187 162.427 325.847 161.601 323.416Z" fill="black"/>
<path opacity="0.2" d="M171.296 328.24L173.968 325.632C174.397 323.433 174.563 321.19 174.464 318.952C174.395 317.622 174.213 316.3 173.92 315C174.191 317.135 174.086 319.301 173.608 321.4C172.977 323.725 172.205 326.009 171.296 328.24Z" fill="black"/>
<path opacity="0.2" d="M135.096 308.88C135.096 308.776 135.096 308.664 135.096 308.56C135.093 308.544 135.093 308.528 135.096 308.512C134.784 300.072 123.768 292.176 114.424 290.608C104.944 289.008 99.3444 295.824 99.3444 300.16C99.1284 303.36 102.128 307.016 107.872 309.888C116.672 314.312 127.776 315.648 132.592 312.872C133.332 312.497 133.955 311.925 134.391 311.22C134.827 310.514 135.06 309.702 135.064 308.872L135.096 308.88Z" fill="#0EA5C6"/>
<path d="M134.56 306.936C134.56 306.832 134.56 306.736 134.56 306.632V306.584C134.256 298.536 123.76 291.016 114.848 289.52C105.808 288 100.448 294.488 100.448 298.624C100.248 301.64 103.104 305.152 108.584 307.896C117.016 312.12 127.568 313.392 132.152 310.736C132.87 310.387 133.475 309.843 133.899 309.167C134.323 308.491 134.549 307.71 134.552 306.912L134.56 306.936Z" fill="#37474F"/>
<path d="M128.968 296.504C120.512 298.568 116.4 305.856 115.128 310.504L116.048 310.76C117.28 306.232 121.344 299.04 129.792 297.28C129.528 297.016 129.256 296.8 128.968 296.504Z" fill="#0EA5C6"/>
<path d="M133.232 310C133.236 307.433 132.444 304.928 130.965 302.829C129.487 300.731 127.395 299.141 124.976 298.28L124.648 299.176C127.013 299.988 129.043 301.559 130.424 303.643C131.804 305.728 132.456 308.21 132.28 310.704C132.622 310.504 132.941 310.268 133.232 310Z" fill="#0EA5C6"/>
<path opacity="0.2" d="M131.64 289.328L157.792 304.488C158.233 304.713 158.721 304.83 159.216 304.83C159.711 304.83 160.199 304.713 160.64 304.488L235.688 261.224C235.86 261.165 236.008 261.054 236.113 260.906C236.218 260.758 236.275 260.581 236.275 260.4C236.275 260.219 236.218 260.042 236.113 259.894C236.008 259.747 235.86 259.635 235.688 259.576L209.544 244.376C209.103 244.151 208.615 244.034 208.12 244.034C207.625 244.034 207.137 244.151 206.696 244.376L131.648 287.648C131.459 287.693 131.291 287.799 131.17 287.951C131.05 288.103 130.983 288.291 130.982 288.485C130.982 288.679 131.046 288.868 131.165 289.021C131.285 289.174 131.452 289.282 131.64 289.328Z" fill="#0EA5C6"/>
<path d="M232.632 257.344C232.615 257.172 232.553 257.007 232.452 256.867C232.35 256.726 232.214 256.615 232.056 256.544L208.656 243.04C208.225 242.821 207.748 242.707 207.264 242.707C206.78 242.707 206.303 242.821 205.872 243.04L134.488 284.32C134.33 284.391 134.194 284.502 134.093 284.643C133.992 284.783 133.929 284.948 133.912 285.12V287.568C133.929 287.741 133.992 287.907 134.095 288.048C134.198 288.188 134.336 288.299 134.496 288.368L157.872 301.872C158.305 302.091 158.783 302.205 159.268 302.205C159.753 302.205 160.231 302.091 160.664 301.872L232.056 260.664C232.214 260.594 232.351 260.483 232.453 260.342C232.554 260.202 232.616 260.036 232.632 259.864V257.344Z" fill="#263238"/>
<path d="M157.872 299.36L134.496 285.92C134.33 285.862 134.187 285.754 134.085 285.61C133.984 285.467 133.929 285.296 133.929 285.12C133.929 284.944 133.984 284.773 134.085 284.63C134.187 284.487 134.33 284.378 134.496 284.32L205.88 243.04C206.311 242.821 206.788 242.707 207.272 242.707C207.756 242.707 208.233 242.821 208.664 243.04L232.064 256.544C232.23 256.602 232.373 256.711 232.475 256.854C232.576 256.997 232.631 257.168 232.631 257.344C232.631 257.52 232.576 257.691 232.475 257.834C232.373 257.978 232.23 258.086 232.064 258.144L160.664 299.36C160.232 299.581 159.753 299.696 159.268 299.696C158.783 299.696 158.304 299.581 157.872 299.36Z" fill="#37474F"/>
<path d="M159.2 299.696V302.2C158.746 302.202 158.298 302.092 157.896 301.88L134.52 288.376C134.362 288.306 134.225 288.195 134.124 288.054C134.023 287.914 133.961 287.749 133.944 287.576V285.112C133.962 285.284 134.025 285.448 134.126 285.589C134.227 285.729 134.363 285.84 134.52 285.912L157.896 299.36C158.299 299.571 158.746 299.686 159.2 299.696Z" fill="#263238"/>
<path d="M207.096 245.16H207.144L209.464 246.496L206.32 248.304L203.92 246.96L207.056 245.152L207.096 245.16ZM210.72 247.256H210.768L213.088 248.592L210.616 250.016L208.216 248.672L210.68 247.248L210.72 247.256ZM202.72 247.696H202.776L205.088 249.032L202.624 250.456L200.224 249.112L202.68 247.688L202.72 247.696ZM214.36 249.352H214.4L216.72 250.688L212.72 252.984L210.32 251.64L214.32 249.344L214.36 249.352ZM207.024 249.4H207.072L209.384 250.736L207.432 251.872L205.032 250.52L206.992 249.392L207.024 249.4ZM199.024 249.84H199.08L201.36 251.2L198.896 252.624L196.496 251.28L198.952 249.856L199.024 249.84ZM203.824 251.248H203.872L206.192 252.584L204.232 253.712L201.832 252.368L203.784 251.24L203.824 251.248ZM217.992 251.44H218.04L220.36 252.776L217.216 254.592L214.816 253.248L217.952 251.432L217.992 251.44ZM195.28 252H195.328L197.648 253.336L179.824 263.632L177.424 262.28L195.248 252H195.28ZM209.112 252.384H209.16L211.48 253.72L209.52 254.856L207.12 253.512L209.072 252.376L209.112 252.384ZM200.592 253.12H200.648L202.96 254.456L201 255.584L198.6 254.24L200.552 253.112L200.592 253.12ZM221.592 253.552H221.64L223.96 254.888L222 256L219.6 254.656L221.56 253.528L221.592 253.552ZM213.592 253.992H213.6L215.912 255.328L213.952 256.456L211.552 255.112L213.512 253.984L213.592 253.992ZM205.92 254.24H205.976L208.288 255.576L206.328 256.704L203.928 255.36L205.88 254.232L205.92 254.24ZM197.4 254.968H197.456L199.768 256.304L197.808 257.44L195.408 256.096L197.36 254.968H197.4ZM218.4 255.4H218.456L220.768 256.736L218.808 257.872L216.408 256.528L218.36 255.392L218.4 255.4ZM210.4 255.84L212.712 257.176L210.752 258.312L208.352 256.968L210.312 255.832L210.4 255.84ZM202.728 256.088H202.776L205.096 257.424L203.136 258.56L200.736 257.208L202.688 256.08L202.728 256.088ZM226.024 256.088H226.072L228.392 257.424L225.92 258.848L223.52 257.504L225.984 256.08L226.024 256.088ZM194.208 256.824H194.264L196.576 258.16L194.616 259.288L192.216 257.944L194.176 256.816L194.208 256.824ZM215.208 257.256H215.2L217.512 258.592L215.552 259.72L213.152 258.376L215.104 257.248L215.208 257.256ZM207.208 257.696H207.2L209.52 259.032L207.56 260.16L205.16 258.816L207.12 257.688L207.208 257.696ZM199.536 257.936C199.554 257.929 199.574 257.929 199.592 257.936L201.904 259.272L199.944 260.4L197.544 259.056L199.504 257.928L199.536 257.936ZM191.016 258.672H191.072L193.384 260.008L191.424 261.144L189.024 259.8L190.984 258.664L191.016 258.672ZM220.928 259.04H220.984L223.296 260.376L221.336 261.504L218.936 260.16L220.888 259.032L220.928 259.04ZM212.016 259.104H212L214.312 260.44L212.376 261.6L209.976 260.248L211.936 259.12L212.016 259.104ZM204.016 259.544H204L206.32 260.88L204.36 262.016L201.96 260.672L203.92 259.536L204.016 259.544ZM196.336 259.792H196.392L198.704 261.128L196.744 262.256L194.344 260.912L196.304 259.784L196.336 259.792ZM187.816 260.52C187.834 260.513 187.854 260.513 187.872 260.52L190.192 261.856L188.224 262.984L185.824 261.64L187.784 260.512L187.816 260.52ZM217.728 260.888H217.784L220.096 262.224L218.136 263.36L215.736 262.016L217.696 260.88L217.728 260.888ZM208.824 260.952H208.8L211.112 262.296L209.152 263.424L206.752 262.08L208.712 260.952H208.824ZM200.824 261.392H200.872L203.192 262.728L201.232 263.856L198.832 262.512L200.784 261.384L200.824 261.392ZM193.152 261.64H193.2L195.512 262.984L193.552 264.112L191.152 262.768L193.112 261.64H193.152ZM184.56 262.4H184.608L186.928 263.736L184.968 264.872L182.568 263.52L184.52 262.392L184.56 262.4ZM214.464 262.768H214.52L216.832 264.104L214.872 265.232L212.472 263.888L214.432 262.76L214.464 262.768ZM205.56 262.832H205.6L207.92 264.168L205.952 265.296L203.552 263.952L205.512 262.824L205.56 262.832ZM176.208 263.032H176.256L178.576 264.368L176.112 265.792L173.712 264.44L176.176 263.024L176.208 263.032ZM197.544 263.272H197.6L199.912 264.608L197.952 265.744L195.552 264.392L197.504 263.264L197.544 263.272ZM189.872 263.52H189.92L192.24 264.856L190.28 265.984L187.88 264.64L189.84 263.512L189.872 263.52ZM181.352 264.248H181.408L183.72 265.584L181.76 266.712L179.36 265.368L181.312 264.24L181.352 264.248ZM211.264 264.616H211.312L213.6 265.92L211.648 267.056L209.248 265.704L211.208 264.576L211.264 264.616ZM202.352 264.68H202.4L204.72 266.016L202.76 267.152L200.36 265.808L202.32 264.68H202.352ZM194.352 265.12H194.4L196.712 266.464L194.752 267.592L192.352 266.248L194.312 265.12H194.352ZM172.512 265.176H172.568L174.88 266.512L172.416 267.936L170.016 266.584L172.48 265.168L172.512 265.176ZM186.68 265.368H186.736L189.048 266.704L187.088 267.84L184.688 266.488L186.64 265.36L186.68 265.368ZM178.16 266.104H178.216L180.528 267.44L178.568 268.568L176.168 267.224L178.12 266.096L178.16 266.104ZM199.16 266.536H199.2L201.52 267.872L199.56 269L197.16 267.656L199.112 266.528L199.16 266.536ZM191.16 266.976H191.2L193.512 268.312L191.552 269.44L189.152 268.096L191.112 266.968L191.16 266.976ZM183.488 267.216H183.544L185.856 268.552L183.896 269.68L181.496 268.336L183.448 267.208L183.488 267.216ZM206.688 267.272H206.744L209.056 268.608L207.096 269.744L204.696 268.4L206.656 267.264L206.688 267.272ZM168.8 267.28L171.12 268.624L168.648 270.048L166.248 268.696L168.712 267.28H168.8ZM174.952 267.912H175.008L177.32 269.248L175.344 270.4L172.944 269.056L174.904 267.92L174.952 267.912ZM195.952 268.344H196L198.312 269.68L196.352 270.816L193.952 269.464L195.904 268.336L195.952 268.344ZM187.952 268.784H188L190.32 270.12L188.352 271.256L185.952 269.912L187.912 268.776L187.952 268.784ZM180.272 269.032H180.328L182.64 270.368L180.68 271.504L178.28 270.152L180.24 269.024L180.272 269.032ZM203.472 269.088H203.52L205.832 270.424L203.872 271.552L201.472 270.208L203.432 269.08L203.472 269.088ZM165.072 269.424H165.12L167.44 270.768L164.296 272.576L161.896 271.232L165.032 269.424H165.072ZM171.728 269.768H171.784L174.096 271.104L167.92 274.672L165.52 273.328L171.696 269.76L171.728 269.768ZM192.728 270.192C192.746 270.185 192.766 270.185 192.784 270.192L195.096 271.528L193.136 272.656L190.736 271.312L192.696 270.184L192.728 270.192ZM184.728 270.64H184.8L187.12 271.976L185.16 273.104L182.76 271.76L184.72 270.632L184.728 270.64ZM177.056 270.88H177.104L179.416 272.224L177.456 273.352L175.056 272.008L177.016 270.88H177.056ZM200.256 270.936H200.304L202.624 272.272L200.664 273.408L198.264 272.056L200.224 270.928L200.256 270.936ZM189.536 272.048H189.6L191.912 273.384L189.952 274.52L187.552 273.168L189.512 272.04L189.536 272.048ZM160.016 272.352H160.064L162.384 273.688L160.424 274.816L158.024 273.472L159.984 272.344L160.016 272.352ZM181.52 272.488H181.6L183.92 273.824L181.96 274.96L179.56 273.608L181.512 272.48L181.52 272.488ZM173.848 272.736H173.896L176.208 274.072L174.4 275.112C174.34 275.143 174.289 275.19 174.254 275.248C174.219 275.306 174.2 275.372 174.2 275.44C174.201 275.511 174.221 275.58 174.258 275.64C174.294 275.701 174.346 275.75 174.408 275.784L177.448 277.536L175.2 278.864L169.184 275.424L173.84 272.736H173.848ZM197.048 272.784H197.096L199.416 274.12L197.456 275.248L195.056 273.904L197.008 272.776L197.048 272.784ZM186.328 273.896H186.4L188.712 275.232L186.752 276.368L184.352 275.024L186.312 273.896H186.328ZM156.808 274.2H156.856L159.176 275.536L157.216 276.672L154.816 275.32L156.768 274.192L156.808 274.2ZM178.312 274.336H178.368L180.68 275.672L178.712 276.8L176.312 275.456L178.264 274.328L178.312 274.336ZM192.448 275.448H192.496L194.816 276.784L192.856 277.912L190.456 276.568L192.416 275.44L192.448 275.448ZM183.12 275.752H183.2L185.512 277.088L183.552 278.216L181.152 276.872L183.112 275.744L183.12 275.752ZM153.6 276.048H153.656L155.968 277.384L154.008 278.512L151.608 277.168L153.56 276.04L153.6 276.048ZM160.432 276.296H160.488L162.8 277.632L160.8 278.768L158.4 277.424L160.352 276.296H160.432ZM189.232 277.296H189.28L191.6 278.632L189.64 279.768L187.24 278.416L189.192 277.288L189.232 277.296ZM179.904 277.6H180L182.312 278.936L178.832 280.944L176.432 279.6L179.904 277.592V277.6ZM149.712 278.296H149.76L152.08 279.632L146.912 282.616L144.512 281.272L149.672 278.288L149.712 278.296ZM170.88 278.624H170.936L173.248 279.96L171.288 281.088L168.888 279.744L170.848 278.616L170.88 278.624ZM186.024 279.144H186.072L188.392 280.48L186.4 281.6L184 280.256L185.952 279.128L186.024 279.144ZM153.336 280.384H153.392L155.704 281.72L153.744 282.856L151.344 281.512L153.296 280.376L153.336 280.384ZM167.672 280.48H167.728L170.04 281.816L168.08 282.944L165.68 281.6L167.632 280.472L167.672 280.48ZM174.504 280.72H174.552L176.872 282.056L174.912 283.2L172.512 281.848L174.464 280.72H174.504ZM182.816 281H182.872L185.184 282.336L183.2 283.472L180.8 282.128L182.752 281H182.816ZM143.296 281.992C143.314 281.985 143.334 281.985 143.352 281.992L145.664 283.328L143.704 284.456L141.304 283.112L143.264 281.984L143.296 281.992ZM150.128 282.24H150.184L152.496 283.576L150.536 284.704L148.136 283.36L150.088 282.232L150.128 282.24ZM164.464 282.328H164.52L166.832 283.664L164.872 284.8L162.472 283.456L164.424 282.32L164.464 282.328ZM156.96 282.48H157.008L159.328 283.816L157.368 284.944L154.968 283.6L156.92 282.472L156.96 282.48ZM171.296 282.568H171.352L173.664 283.904L171.704 285.032L169.304 283.688L171.256 282.56L171.296 282.568ZM178.904 283.256H178.952L181.272 284.592L179.312 285.72L176.912 284.376L178.872 283.248L178.904 283.256ZM140.088 283.848H140.144L146.08 287.28L144.12 288.408L138.104 284.976L140.064 283.84L140.088 283.848ZM146.92 284.088H146.976L149.288 285.424L147.328 286.56L144.928 285.216L146.888 284.08L146.92 284.088ZM153.752 284.328H153.808L156.12 285.664L154.16 286.8L151.76 285.456L153.712 284.32L153.752 284.328ZM168.088 284.424H168.144L170.456 285.76L168.496 286.888L166.096 285.544L168.056 284.416L168.088 284.424ZM160.584 284.568H160.632L162.952 285.912L160.992 287.04L158.592 285.696L160.544 284.568H160.584ZM175.696 285.112H175.744L178.064 286.448L176.104 287.576L173.704 286.232L175.656 285.104L175.696 285.112ZM150.544 286.184H150.6L152.912 287.52L150.952 288.648L148.552 287.304L150.512 286.176L150.544 286.184ZM157.376 286.424H157.424L159.744 287.76L157.784 288.888L155.384 287.544L157.336 286.416L157.376 286.424ZM164.208 286.664H164.256L166.576 288L164.616 289.136L162.216 287.784L164.168 286.656L164.208 286.664ZM172.488 286.96H172.544L174.856 288.296L172.896 289.432L170.496 288.088L172.448 286.952L172.488 286.96ZM147.336 288H147.392L153.328 291.432L151.368 292.56L145.352 289.128L147.312 287.992L147.336 288ZM154.168 288.24H154.224L156.536 289.576L154.576 290.712L152.176 289.368L154.136 288.24H154.168ZM161 288.48H161.048L163.368 289.816L161.408 290.952L159.008 289.608L160.968 288.48H161ZM169.536 289.712H169.6L170.6 290.28L168.64 291.408L167.568 290.824L169.512 289.704L169.536 289.712ZM157.792 290.336H157.848L160.16 291.672L158.2 292.8L155.8 291.456L157.76 290.328L157.792 290.336ZM166.328 291.56H166.4L167.4 292.128L165.448 293.264L164.368 292.68L166.32 291.552L166.328 291.56ZM154.592 292.184H154.64L156.952 293.52L154.992 294.656L152.592 293.312L154.552 292.176L154.592 292.184ZM163.12 293.408C163.138 293.401 163.158 293.401 163.176 293.408L164.184 293.968L162.224 295.104L161.144 294.52L163.096 293.4L163.12 293.408ZM159.92 295.264H160L161.008 295.832L159.048 296.96L157.968 296.384L159.92 295.256V295.264Z" fill="#0EA5C6"/>
<path d="M188.801 240.256C186.827 237.352 184.488 234.715 181.841 232.408C178.697 229.832 177.409 229.048 171.745 226.336L163.329 237.664L165.857 238.424C166.921 238.8 167.457 238.904 167.897 239.888C168.128 241.002 168.286 242.129 168.369 243.264C168.581 245.148 168.994 247.004 169.601 248.8C170.489 251.472 171.065 251.288 172.665 253.408C174.153 255.376 174.753 256.68 175.577 256.608C176.401 256.536 177.433 254.888 177.009 253.072C176.585 251.256 175.073 248.648 174.857 247.896C174.641 247.144 174.353 246.032 176.305 246.648C178.257 247.264 181.905 251.736 183.673 253.568C185.441 255.4 186.537 258.2 188.193 259.432C189.849 260.664 192.337 260.608 191.641 257.928C191.905 256.376 192.857 253.704 193.089 251.224C193.321 248.744 190.609 242.912 188.801 240.256Z" fill="#B16668"/>
<path opacity="0.2" d="M295.696 283.2L291.552 280.88C290.832 280.493 290.029 280.286 289.211 280.276C288.393 280.266 287.585 280.454 286.856 280.824L266.216 292.736L263.504 291.136C262.857 290.805 262.14 290.632 261.412 290.632C260.685 290.632 259.968 290.805 259.32 291.136L234.264 305.696C233.104 306.368 233.104 307.448 234.264 308.096L236.904 309.624L207.08 326.832C205.768 327.592 205.776 328.824 207.08 329.576L211.232 331.976C211.966 332.347 212.778 332.54 213.6 332.54C214.423 332.54 215.234 332.347 215.968 331.976L245.792 314.752C246.442 315.08 247.16 315.25 247.888 315.25C248.616 315.25 249.334 315.08 249.984 314.752L274.944 300.24C276.072 299.592 276.096 298.552 275.032 297.84L295.656 285.928C296.968 285.208 296.984 283.952 295.696 283.2Z" fill="#0EA5C6"/>
<path d="M286.145 261.856L291.425 199.104C291.471 198.185 291.279 197.269 290.869 196.445C290.458 195.621 289.842 194.917 289.081 194.4C288.238 193.995 287.311 193.793 286.376 193.811C285.441 193.829 284.523 194.067 283.697 194.504L204.841 240C204.02 240.537 203.324 241.244 202.799 242.071C202.273 242.899 201.93 243.829 201.793 244.8L196.513 307.552C196.466 308.471 196.658 309.387 197.068 310.211C197.479 311.035 198.095 311.739 198.857 312.256C199.699 312.663 200.625 312.866 201.56 312.85C202.495 312.833 203.413 312.597 204.241 312.16L283.105 266.624C283.921 266.09 284.614 265.389 285.138 264.567C285.662 263.745 286.005 262.821 286.145 261.856Z" fill="#263238"/>
<path d="M286.144 261.856L291.424 199.104C291.471 198.185 291.279 197.269 290.869 196.445C290.458 195.621 289.842 194.917 289.08 194.4C288.237 193.995 287.311 193.793 286.376 193.811C285.441 193.829 284.523 194.067 283.696 194.504L204.84 240C204.016 240.513 203.323 241.212 202.816 242.04L212.48 247.64L211.888 307.76L283.088 266.64C283.909 266.106 284.606 265.403 285.134 264.578C285.661 263.753 286.005 262.825 286.144 261.856Z" fill="#455A64"/>
<path d="M201.728 310.592L207.008 247.84C207.143 246.869 207.483 245.938 208.008 245.11C208.532 244.282 209.228 243.576 210.048 243.04L287.944 198.024C289.48 197.144 290.12 197.816 289.976 199.584L286.144 261.856C286.009 262.827 285.668 263.757 285.144 264.585C284.619 265.413 283.924 266.119 283.104 266.656L204.24 312.192C202.704 313.072 201.6 312.36 201.728 310.592Z" fill="#37474F"/>
<path d="M244.609 255.344C244.849 252.44 246.889 249.008 249.161 247.696C251.433 246.384 253.089 247.696 252.849 250.576C252.609 253.456 250.569 256.904 248.297 258.224C246.025 259.544 244.369 258.248 244.609 255.344Z" fill="#0EA5C6"/>
<path d="M244.08 279.56L260.936 269.768L258.064 268.104L241.216 277.904L244.08 279.56Z" fill="#455A64"/>
<path d="M268.752 298.504L248.232 310.352C247.828 310.57 247.371 310.673 246.912 310.648C246.525 310.641 246.145 310.545 245.8 310.368L236.768 305.152H236.72C236.374 304.921 236.088 304.611 235.885 304.249C235.682 303.886 235.568 303.48 235.552 303.064V302.584C235.552 301.784 236.088 301.48 236.768 301.872L242.224 305.016L243.44 305.72L243.168 304.336L241.248 277.936L244.112 279.592L260.968 269.808L269.768 296.44C269.815 296.845 269.745 297.256 269.565 297.622C269.384 297.988 269.102 298.294 268.752 298.504Z" fill="#37474F"/>
<path d="M235.896 301.728L242.896 297.688L244.312 307.104L235.896 301.728Z" fill="black"/>
<path d="M244.08 279.56L241.216 277.904L243.137 304.304C243.297 305.064 242.856 305.376 242.192 304.984L236.737 301.84C236.057 301.448 235.521 301.768 235.521 302.552V303.032C235.536 303.448 235.651 303.854 235.854 304.216C236.057 304.579 236.343 304.889 236.688 305.12H236.737L245.768 310.336C246.113 310.513 246.493 310.609 246.88 310.616L244.08 279.56Z" fill="#263238"/>
<path d="M126 166.44C130.424 167.488 134.968 171.168 137.816 180.112C141.216 190.792 144.464 214.464 144.464 214.464L171.72 226.336L163.304 237.664C163.304 237.664 145.32 233.2 136.648 230.672C127.288 227.944 127.6 225.136 124.608 209.688C122.672 199.688 120.608 187.4 120.608 187.4C121.6 178.992 126 166.44 126 166.44Z" fill="#B16668"/>
<path d="M137.8 177.192C136.744 173.192 134.792 166.976 123.936 165.656L119.384 186.112C119.384 186.112 121.424 197.88 123.384 208.256C130.864 207.824 137.464 207.216 142.824 202C141.024 192.92 139.528 183.736 137.8 177.192Z" fill="#263238"/>
<path d="M134.4 191.808C135.248 174.208 130.336 167.392 124 165.656C123.832 165.656 111.52 164.512 104.344 164.856C95.6083 165.28 85.6963 167.424 82.5203 168.856C77.7203 170.992 74.8963 177.984 73.0963 190.304C71.8243 199.048 70.3443 209.544 68.4643 226.168C67.3123 236.328 66.3763 240.296 67.1843 251.408C78.8723 257.208 121.632 256.208 131.184 240.456C130.384 236.72 130.52 232.496 130.52 225.136C130.936 212.288 134.088 197.344 134.4 191.808Z" fill="#F0F0F0"/>
<path d="M99.5842 157.264C99.4722 152.056 95.2082 146.016 93.5842 141.264C91.9842 136.672 91.1842 133.168 92.0402 129.192C92.5442 126.84 94.5122 123.84 96.3762 123.424C95.6402 114.296 102.872 111.176 106.512 110.856C108.216 110.759 109.91 110.545 111.584 110.216C113.616 109.696 114.272 108.224 116.008 107.144C119 105.28 123.48 105.888 124.68 109.544C126.784 107.52 129.176 107.944 131.88 109.048C133.007 109.491 133.924 110.342 134.449 111.433C134.974 112.523 135.068 113.771 134.712 114.928C138.712 113.4 141.736 116.528 141.752 118.744C141.752 120.392 141.224 121.696 142.064 123.288C143.008 125.08 145.264 125.384 146.128 124.176C146.128 126.512 145.024 128.12 142.568 127.632C142.896 128.328 143.066 129.087 143.066 129.856C143.066 130.625 142.896 131.384 142.568 132.08C142.135 132.947 141.449 133.663 140.6 134.133C139.752 134.603 138.781 134.805 137.816 134.712C137.368 135.928 137.144 137.064 136.216 138.032C135.307 139.017 134.174 139.769 132.912 140.224C128.912 141.456 124.672 141.424 120.512 141.664L115.576 141.952C115.288 141.952 113.832 141.84 113.624 142.064L99.5842 157.264Z" fill="#263238"/>
<path d="M94.4004 149.792C97.6484 152.448 100.408 150.496 100.408 150.496L97.6884 167.2C99.4164 174.768 111.48 177.784 116.224 176.416C120.968 175.048 120.808 172.32 118.504 167.88L119.216 165.192C121.229 165.522 123.259 165.731 125.296 165.816C129.352 165.816 132.824 163.072 134.6 158.928C136.682 153.504 137.7 147.729 137.6 141.92C137.537 140.506 137.672 139.089 138 137.712C138.936 134.064 138.584 131.816 138.088 128.56C134.232 124.392 124.28 121.696 113.984 126.04C114.248 131.816 111.408 135.952 107 137.488C107 139.032 106.592 142.896 104.112 142.456C102.32 142.144 102.512 139.872 100.984 137.608C99.4564 135.344 95.2004 134.184 93.1044 136.864C90.1764 140.616 90.8404 146.88 94.4004 149.792Z" fill="#B16668"/>
<path d="M132.328 149.048L125.88 151.288L125.608 137.168L132.328 149.048Z" fill="#9A4A4D"/>
<path d="M119.2 165.192C113 163.512 108.304 162.12 105.696 157.056C104.514 154.493 103.608 151.811 102.992 149.056C102.992 149.056 102.816 154.744 104.32 158.832C105.472 161.984 108.848 165.12 118.624 167.432L119.2 165.192Z" fill="#9A4A4D"/>
<path d="M120.68 140.8C120.63 141.147 120.479 141.472 120.246 141.734C120.013 141.997 119.708 142.185 119.369 142.275C119.03 142.366 118.672 142.355 118.339 142.243C118.006 142.132 117.713 141.926 117.497 141.65C117.28 141.374 117.149 141.04 117.121 140.69C117.092 140.341 117.167 139.99 117.335 139.682C117.504 139.375 117.759 139.123 118.069 138.959C118.38 138.795 118.731 138.726 119.08 138.76C119.32 138.788 119.551 138.863 119.762 138.981C119.972 139.098 120.157 139.257 120.306 139.446C120.455 139.636 120.564 139.853 120.629 140.086C120.693 140.318 120.71 140.561 120.68 140.8Z" fill="#263238"/>
<path d="M120.713 133.304L116.713 135.04C116.491 134.488 116.491 133.872 116.713 133.32C116.935 132.769 117.362 132.324 117.905 132.08C118.169 131.974 118.452 131.922 118.737 131.926C119.022 131.93 119.303 131.991 119.564 132.105C119.826 132.219 120.062 132.384 120.259 132.589C120.456 132.795 120.61 133.038 120.713 133.304Z" fill="#263238"/>
<path d="M118.209 151.664L123.865 154.28C123.489 155.035 122.838 155.617 122.046 155.904C121.253 156.192 120.38 156.163 119.609 155.824C119.238 155.649 118.907 155.4 118.635 155.094C118.363 154.788 118.155 154.43 118.024 154.042C117.894 153.653 117.843 153.243 117.874 152.834C117.906 152.426 118.02 152.028 118.209 151.664Z" fill="#9A4A4D"/>
<path d="M121.312 156.08C121.288 155.174 120.93 154.309 120.307 153.65C119.684 152.992 118.84 152.587 117.936 152.512C117.804 153.171 117.898 153.856 118.201 154.456C118.504 155.057 118.999 155.538 119.608 155.824C120.142 156.063 120.731 156.152 121.312 156.08Z" fill="#F28F8F"/>
<path d="M135.817 136.712L132 134.544C132.128 134.286 132.308 134.056 132.527 133.87C132.747 133.683 133.003 133.544 133.279 133.46C133.555 133.376 133.845 133.349 134.131 133.382C134.418 133.414 134.694 133.505 134.944 133.648C135.455 133.95 135.83 134.436 135.992 135.006C136.155 135.576 136.092 136.187 135.817 136.712Z" fill="#263238"/>
<path d="M134.465 141.656C134.385 141.998 134.207 142.309 133.952 142.55C133.697 142.792 133.377 142.953 133.031 143.014C132.685 143.075 132.329 143.033 132.007 142.894C131.685 142.754 131.411 142.523 131.219 142.229C131.027 141.936 130.926 141.592 130.927 141.241C130.929 140.89 131.034 140.547 131.229 140.255C131.424 139.963 131.7 139.734 132.023 139.598C132.347 139.462 132.703 139.424 133.049 139.488C133.284 139.537 133.508 139.631 133.707 139.767C133.906 139.902 134.076 140.076 134.208 140.277C134.34 140.479 134.43 140.704 134.474 140.941C134.518 141.178 134.515 141.421 134.465 141.656Z" fill="#263238"/>
<path d="M59.0002 223.264C60.8642 207.456 64.4882 195.704 68.0002 184.8C70.0882 178.4 75.0882 174.752 82.7362 171.464C90.9602 177.328 87.5362 195.64 86.3362 199.928L80.2722 226.376C80.2722 226.376 86.8962 231.64 94.3922 237.136C100.728 241.784 104.992 244.576 112.472 245.456C119.952 246.336 122.984 246.088 126.872 247.784C128.952 248.68 133.688 250.776 135.304 251.592C136.92 252.408 139.816 255.328 142.504 257.296C145.032 259.304 141.88 260.416 139.92 259.848C137.845 259.158 135.868 258.201 134.04 257C132.415 256.223 130.729 255.578 129 255.072C129.551 256.995 129.91 258.967 130.072 260.96C130.072 262.032 130.312 263.36 129.376 264.16C128.676 264.577 127.919 264.89 127.128 265.088C127.107 265.477 126.948 265.846 126.68 266.128C126.129 266.531 125.445 266.708 124.768 266.624C124.402 266.594 124.038 266.538 123.68 266.456C123.63 266.797 123.493 267.12 123.281 267.392C123.069 267.664 122.791 267.876 122.472 268.008C120.985 268.478 119.398 268.536 117.88 268.176C117.656 268.08 115.952 267.16 115.48 266.904C114.76 266.52 114.112 266.312 113.792 265.84C113.472 265.368 114.464 263.992 115.344 263.848C116.321 263.749 117.307 263.812 118.264 264.032C117.872 263.235 117.584 262.391 117.408 261.52C116.608 260.248 110.872 261.52 105.776 260.664C101.92 260 99.1362 256.344 97.4082 255.568C86.3122 250.576 78.0402 246.768 66.6562 240.368C57.3122 235.016 58.0722 231.144 59.0002 223.264Z" fill="#B16668"/>
<path d="M130.008 255.376C129.416 253.928 128.504 252.176 127.4 251.792C128.078 252.795 128.616 253.885 129 255.032C129.344 255.2 129.68 255.272 130.008 255.376Z" fill="#9A4A4D"/>
<path d="M127.144 265.016C127.319 263.959 127.351 262.882 127.24 261.816C127.16 260.762 127.024 259.712 126.832 258.672C126.665 257.615 126.375 256.582 125.968 255.592C125.585 254.584 124.925 253.705 124.064 253.056C124.429 253.431 124.724 253.867 124.936 254.344C125.175 254.799 125.376 255.272 125.536 255.76C125.838 256.751 126.071 257.761 126.232 258.784C126.432 259.808 126.6 260.84 126.776 261.872C126.96 262.912 127.083 263.962 127.144 265.016Z" fill="#9A4A4D"/>
<path d="M123.696 266.4C123.804 265.366 123.804 264.323 123.696 263.288C123.6 262.253 123.442 261.225 123.224 260.208C123.013 259.187 122.73 258.182 122.376 257.2C122.084 256.188 121.532 255.27 120.776 254.536C121.091 254.939 121.327 255.398 121.472 255.888C121.64 256.36 121.792 256.848 121.92 257.344C122.176 258.336 122.416 259.328 122.624 260.336C123.056 262.32 123.448 264.328 123.696 266.4Z" fill="#9A4A4D"/>
<path d="M115.328 263.776C115.763 263.784 116.196 263.846 116.616 263.96C117.032 264.056 117.328 264.264 117.848 264.432L117.64 264.096C117.615 264.305 117.642 264.517 117.72 264.712C117.79 264.888 117.89 265.051 118.016 265.192C118.245 265.462 118.548 265.659 118.888 265.76C118.687 265.511 118.511 265.243 118.36 264.96C118.308 264.83 118.265 264.696 118.232 264.56C118.217 264.441 118.217 264.32 118.232 264.2V263.96L117.992 263.864C117.603 263.713 117.193 263.627 116.776 263.608C116.287 263.526 115.785 263.584 115.328 263.776Z" fill="#9A4A4D"/>
<path d="M82.4563 168.856C71.0003 171.424 68.8563 178.136 67.0403 183.792C65.1203 189.84 63.8403 195.36 60.8643 207.456C65.9203 211.888 73.9523 213.584 84.2563 213.176C85.8563 206.552 87.5843 199.2 88.2563 196.376C89.6643 190.824 91.0163 173.6 82.4563 168.856Z" fill="#263238"/>
</svg>
