<svg width="86" height="86" viewBox="0 0 86 86" fill="none" xmlns="http://www.w3.org/2000/svg">
<path d="M37.7962 48.8021C37.8822 48.9071 37.9819 49.0002 38.0915 49.0823C42.3537 53.0597 48.0692 55.4972 54.3451 55.4972C60.5403 55.4972 66.1908 53.122 70.4353 49.2345C70.6696 49.1 70.8671 48.911 71.0121 48.6866C75.4377 44.3555 78.1895 38.3198 78.1895 31.6535C78.1895 18.5054 67.4926 7.8092 54.3451 7.8092C41.197 7.8092 30.5008 18.5054 30.5008 31.6535C30.5008 38.3795 33.3011 44.4631 37.7962 48.8021ZM40.8879 47.085C41.7448 42.6752 45.6029 39.4451 50.1833 39.4451H52.6654V45.7918C52.6654 46.7189 53.4173 47.4715 54.3451 47.4715C55.2722 47.4715 56.0248 46.7189 56.0248 45.7918V39.4451H58.5063C63.0926 39.4451 66.946 42.6732 67.8023 47.0844C64.2001 50.2298 59.4911 52.1385 54.3451 52.1385C49.1984 52.1379 44.4901 50.2298 40.8879 47.085ZM49.2759 29.7711H50.8958C53.107 29.7711 55.2125 28.9746 56.8541 27.5488L59.4137 29.0527V31.0164C59.4137 33.8115 57.1396 36.0857 54.3451 36.0857C51.55 36.0857 49.2759 33.8115 49.2759 31.0164V29.7711ZM59.4137 25.1566L57.4296 23.9913C56.7223 23.5753 55.8188 23.7315 55.2912 24.3607C54.1988 25.6644 52.5972 26.4117 50.8958 26.4117H49.2759V24.8049C49.2759 22.0098 51.55 19.7363 54.3451 19.7363C57.1396 19.7363 59.4137 22.0098 59.4137 24.8049V25.1566ZM54.3451 11.1686C65.6404 11.1686 74.8301 20.3576 74.8301 31.6535C74.8301 36.4072 73.2016 40.7882 70.474 44.2676C68.8902 40.1583 65.2808 37.1256 60.8992 36.3068C62.0704 34.8587 62.7731 33.0183 62.7731 31.0164V24.8049C62.7731 20.1575 58.9925 16.3763 54.3451 16.3763C49.6978 16.3763 45.9165 20.1575 45.9165 24.8049V31.0164C45.9165 33.0189 46.6199 34.8594 47.7904 36.3068C43.4134 37.1276 39.8014 40.1615 38.2168 44.2689C35.4886 40.7888 33.8601 36.4078 33.8601 31.6535C33.8601 20.3576 43.0492 11.1686 54.3451 11.1686Z" fill="#0EA5C6"/>
<path d="M54.0957 63.8067C62.6174 63.8067 70.6294 60.488 76.6553 54.4622C82.6811 48.4363 85.9998 40.4244 85.9998 31.9026C85.9998 23.3808 82.6811 15.3689 76.6553 9.34298C71.5099 4.1983 64.6993 0.943251 57.478 0.177551C50.3617 -0.576994 43.1292 1.09613 37.1092 4.8892C36.3245 5.38326 36.0889 6.4206 36.583 7.20532C37.0777 7.99005 38.1151 8.22626 38.8998 7.73154C50.2396 0.586974 64.7879 2.22663 74.2794 11.7188C79.6708 17.1102 82.6405 24.2784 82.6405 31.9026C82.6405 39.5274 79.6708 46.6956 74.2794 52.087C68.8887 57.4784 61.7205 60.4474 54.0957 60.4474C46.4708 60.4474 39.3026 57.4784 33.9119 52.087C24.4197 42.5955 22.7801 28.0465 29.924 16.7073C30.4187 15.922 30.1831 14.8853 29.3984 14.3906C28.613 13.8958 27.5763 14.1314 27.0816 14.9161C23.2892 20.9361 21.6161 28.1699 22.3706 35.2849C22.8299 39.6206 24.1881 43.8073 26.3126 47.5748L19.4692 54.4182L2.50837 71.3804C0.89102 72.9978 0 75.1479 0 77.4351C0 79.7224 0.89102 81.8732 2.50837 83.4905C4.12572 85.1079 6.27585 85.9983 8.56376 85.9983C10.851 85.9983 13.0011 85.1079 14.6185 83.4905L31.58 66.529C31.58 66.529 31.58 66.5284 31.5807 66.5284L38.409 59.7C43.1416 62.3803 48.5088 63.8067 54.0957 63.8067ZM12.2433 81.1147C11.2598 82.0976 9.95344 82.6389 8.56311 82.6389C7.17343 82.6389 5.86643 82.0976 4.88355 81.1147C2.85481 79.086 2.85481 75.7843 4.88355 73.7556L20.6575 57.9816L28.0166 65.3414L12.2433 81.1147ZM30.3924 62.9656L23.0327 55.6065L28.1616 50.4775C29.172 51.8902 30.2986 53.2247 31.5361 54.4622C32.7814 55.7075 34.1127 56.8347 35.5142 57.8439L30.3924 62.9656Z" fill="#0EA5C6"/>
<path d="M32.7244 12.2105C33.1541 12.2105 33.5839 12.0471 33.912 11.7191C34.5681 11.0629 34.5681 9.99934 33.912 9.34321V9.34256C33.2558 8.68708 32.1923 8.68708 31.5361 9.34256C30.8807 9.99868 30.8807 11.0629 31.5368 11.7184C31.8649 12.0471 32.2946 12.2105 32.7244 12.2105Z" fill="#0EA5C6"/>
</svg>
