<svg width="400" height="400" viewBox="0 0 400 400" fill="none" xmlns="http://www.w3.org/2000/svg">
<path d="M329.848 205.112C402.032 244.896 402.408 309.4 330.696 349.184C258.984 388.968 142.336 388.968 70.16 349.184C-2.016 309.4 -2.39999 244.896 69.304 205.104C141.008 165.312 257.664 165.32 329.848 205.112Z" fill="#F5F5F5"/>
<path d="M108.6 314.024L121.864 321.728C122.874 322.318 124.022 322.629 125.192 322.629C126.362 322.629 127.51 322.318 128.52 321.728L236.344 259.04C236.678 258.846 236.955 258.567 237.147 258.232C237.339 257.898 237.441 257.518 237.441 257.132C237.441 256.746 237.339 256.366 237.147 256.032C236.955 255.697 236.678 255.418 236.344 255.224L223.088 247.512C222.077 246.926 220.929 246.618 219.76 246.618C218.591 246.618 217.443 246.926 216.432 247.512L108.6 310.208C108.266 310.402 107.989 310.681 107.797 311.016C107.604 311.35 107.503 311.73 107.503 312.116C107.503 312.502 107.604 312.882 107.797 313.216C107.989 313.551 108.266 313.83 108.6 314.024Z" fill="#E6E6E6"/>
<path d="M291.728 294.56C307.672 303.768 307.728 318.696 291.912 327.896C276.096 337.096 250.312 337.104 234.352 327.896C218.392 318.688 218.352 303.768 234.168 294.56C249.984 285.352 275.776 285.352 291.728 294.56Z" fill="#E6E6E6"/>
<path d="M97.368 256.896C95.256 254.872 92.84 252.664 92.688 249.744C92.552 247.144 94.464 244.704 96.896 243.76C98.1316 243.343 99.4384 243.18 100.739 243.279C102.039 243.378 103.306 243.737 104.464 244.336C106.777 245.552 108.836 247.201 110.528 249.192C115.641 254.87 119.342 261.673 121.331 269.05C123.32 276.427 123.541 284.17 121.976 291.648C121.768 292.632 121.432 293.72 120.544 294.192C119.136 294.936 117.528 293.624 116.544 292.352C114.443 289.561 112.855 286.419 111.856 283.072C111.016 280.248 111.392 277.12 110.328 274.456C107.736 267.912 102.4 261.696 97.368 256.896Z" fill="#0EA5C6"/>
<path d="M119.32 290.4C119.171 290.4 119.029 290.341 118.924 290.236C118.819 290.131 118.76 289.989 118.76 289.84C118.696 281.644 116.808 273.564 113.232 266.189C109.657 258.813 104.483 252.327 98.088 247.2C98.0196 247.158 97.9607 247.102 97.9154 247.036C97.8701 246.97 97.8392 246.895 97.825 246.816C97.8107 246.737 97.8133 246.656 97.8326 246.579C97.8518 246.501 97.8874 246.428 97.9368 246.365C97.9863 246.302 98.0486 246.25 98.1195 246.212C98.1905 246.175 98.2686 246.153 98.3486 246.148C98.4286 246.143 98.5088 246.155 98.5838 246.183C98.6589 246.212 98.7271 246.256 98.784 246.312C105.307 251.544 110.584 258.163 114.233 265.687C117.882 273.212 119.811 281.454 119.88 289.816C119.883 289.892 119.871 289.967 119.844 290.038C119.818 290.108 119.777 290.173 119.725 290.228C119.672 290.282 119.61 290.326 119.54 290.355C119.47 290.385 119.396 290.4 119.32 290.4Z" fill="white"/>
<path d="M112.4 312.8C108.84 313.944 104.4 313.2 102.32 310.08C99.92 306.416 101.416 300.768 98.168 297.808C96.36 296.152 93.688 295.992 91.288 295.488C88.888 294.984 86.208 293.664 85.848 291.232C85.376 288.032 89.336 285.336 88.776 282.128C88.216 278.92 83.856 277.976 82.568 275.04C81.392 272.36 83.472 269.112 86.224 268.12C88.976 267.128 92.04 267.808 94.784 268.824C97.528 269.84 100.2 271.184 103.104 271.544C106.128 271.912 109.616 271.32 111.84 273.4C114.808 276.176 113.112 281.472 115.408 284.824C116.944 287.064 119.84 287.848 122.056 289.424C123.436 290.423 124.556 291.738 125.321 293.26C126.087 294.782 126.476 296.465 126.456 298.168C126.384 301.856 124.44 304.52 121.656 306.64C118.704 308.864 116.056 311.584 112.4 312.8Z" fill="#0EA5C6"/>
<path opacity="0.2" d="M112.4 312.8C108.84 313.944 104.4 313.2 102.32 310.08C99.92 306.416 101.416 300.768 98.168 297.808C96.36 296.152 93.688 295.992 91.288 295.488C88.888 294.984 86.208 293.664 85.848 291.232C85.376 288.032 89.336 285.336 88.776 282.128C88.216 278.92 83.856 277.976 82.568 275.04C81.392 272.36 83.472 269.112 86.224 268.12C88.976 267.128 92.04 267.808 94.784 268.824C97.528 269.84 100.2 271.184 103.104 271.544C106.128 271.912 109.616 271.32 111.84 273.4C114.808 276.176 113.112 281.472 115.408 284.824C116.944 287.064 119.84 287.848 122.056 289.424C123.436 290.423 124.556 291.738 125.321 293.26C126.087 294.782 126.476 296.465 126.456 298.168C126.384 301.856 124.44 304.52 121.656 306.64C118.704 308.864 116.056 311.584 112.4 312.8Z" fill="black"/>
<path d="M110.8 287.552L110.752 287.496C110.224 286.696 109.672 285.968 109.088 285.24C103.833 278.716 96.696 273.967 88.648 271.64C88.5048 271.599 88.351 271.616 88.2205 271.688C88.09 271.76 87.9934 271.881 87.952 272.024C87.9106 272.167 87.9279 272.321 87.9999 272.452C88.0719 272.582 88.1928 272.679 88.336 272.72C96.1592 274.986 103.097 279.603 108.208 285.944C108.368 286.136 108.504 286.352 108.664 286.552C102.264 284.216 95.792 285.544 92.328 288.336C92.2696 288.383 92.2209 288.44 92.1849 288.506C92.1488 288.571 92.126 288.643 92.1179 288.718C92.1097 288.792 92.1163 288.867 92.1372 288.939C92.1582 289.011 92.1931 289.078 92.24 289.136C92.2937 289.201 92.3609 289.253 92.437 289.289C92.513 289.325 92.5959 289.344 92.68 289.344C92.809 289.346 92.9343 289.3 93.032 289.216C96.464 286.456 103.544 285.216 109.968 288.336C113.987 294.227 116.347 301.091 116.8 308.208C116.806 308.352 116.868 308.487 116.973 308.586C117.077 308.684 117.216 308.738 117.36 308.736C117.434 308.732 117.506 308.713 117.572 308.681C117.638 308.649 117.698 308.605 117.747 308.55C117.796 308.495 117.834 308.43 117.858 308.361C117.882 308.291 117.892 308.218 117.888 308.144C117.427 300.766 114.978 293.65 110.8 287.552Z" fill="white"/>
<path d="M86.512 60.496C82.864 62.6 79.728 66.832 78.216 71.216C77.2559 71.3323 76.3315 71.6513 75.504 72.152C75.312 72.264 75.12 72.384 74.92 72.52C71.6317 74.9271 69.3969 78.5084 68.68 82.52C68.5031 83.5471 68.5031 84.5969 68.68 85.624C68.6885 85.7235 68.6691 85.8234 68.6238 85.9125C68.5786 86.0015 68.5094 86.0762 68.424 86.128L64.672 88.296C63.8115 88.8566 63.0956 89.6126 62.5826 90.5023C62.0696 91.392 61.774 92.3904 61.72 93.416C61.72 95.304 63.056 96.064 64.696 95.112L101.384 73.928C102.247 73.3697 102.966 72.6145 103.48 71.7244C103.995 70.8343 104.291 69.8348 104.344 68.808C104.344 66.928 103.008 66.168 101.368 67.112L95.36 70.584C95.176 70.688 95.048 70.584 95.12 70.312C95.6709 68.5653 95.8959 66.7321 95.784 64.904C95.392 59.936 91.712 57.896 87.192 60.104L86.512 60.496Z" fill="#E6E6E6"/>
<path d="M66.24 42.896C63.5459 44.6408 61.5258 47.2506 60.512 50.296C59.8489 50.3759 59.2106 50.5969 58.64 50.944L58.24 51.192C55.9716 52.8584 54.4306 55.3331 53.936 58.104C53.8154 58.8136 53.8154 59.5384 53.936 60.248C53.9422 60.3152 53.9299 60.3829 53.9002 60.4436C53.8706 60.5042 53.8249 60.5556 53.768 60.592L51.2 62.088C50.6023 62.4687 50.103 62.9853 49.7429 63.5956C49.3829 64.2059 49.1721 64.8927 49.128 65.6C49.128 66.896 50.048 67.424 51.184 66.768L76.504 52.176C77.0995 51.7893 77.5954 51.2676 77.9512 50.6531C78.3071 50.0387 78.5129 49.349 78.552 48.64C78.552 47.336 77.624 46.816 76.496 47.464L72.344 49.864C72.224 49.944 72.136 49.864 72.184 49.68C72.561 48.4753 72.7155 47.212 72.64 45.952C72.368 42.52 69.832 41.152 66.712 42.656C66.552 42.728 66.4 42.808 66.24 42.896Z" fill="#E6E6E6"/>
<path d="M230.208 35.512C229.488 32.968 224.336 28.144 219.208 28.248C218.716 28.261 218.229 28.3556 217.768 28.528L118.168 85.192C116.504 86.1393 115.167 87.5707 114.336 89.296C113.695 90.5953 113.359 92.0234 113.352 93.472V308.936C113.352 314.424 119.68 319.664 125.616 317.144C125.748 317.105 125.877 317.054 126 316.992L225.616 260.192C227.074 259.358 228.285 258.154 229.128 256.701C229.971 255.249 230.415 253.599 230.416 251.92V36.544C230.428 36.1885 230.357 35.8352 230.208 35.512Z" fill="#37474F"/>
<path d="M127.24 116.248C127.242 115.408 127.465 114.583 127.886 113.855C128.307 113.128 128.912 112.524 129.64 112.104L222.12 59.488C222.487 59.2819 222.901 59.1757 223.322 59.1802C223.742 59.1847 224.154 59.2997 224.517 59.5136C224.879 59.7275 225.178 60.0329 225.385 60.399C225.592 60.7652 225.699 61.1794 225.696 61.6V235.296C225.694 236.136 225.471 236.961 225.05 237.689C224.629 238.416 224.024 239.02 223.296 239.44L130.808 292.144C130.444 292.347 130.035 292.451 129.619 292.447C129.202 292.444 128.794 292.332 128.435 292.123C128.075 291.914 127.775 291.615 127.566 291.255C127.357 290.896 127.244 290.488 127.24 290.072V116.248Z" fill="#0EA5C6"/>
<path opacity="0.5" d="M127.24 116.248C127.242 115.408 127.465 114.583 127.886 113.855C128.307 113.128 128.912 112.524 129.64 112.104L222.12 59.488C222.487 59.2819 222.901 59.1757 223.322 59.1802C223.742 59.1847 224.154 59.2997 224.517 59.5136C224.879 59.7275 225.178 60.0329 225.385 60.399C225.592 60.7652 225.699 61.1794 225.696 61.6V235.296C225.694 236.136 225.471 236.961 225.05 237.689C224.629 238.416 224.024 239.02 223.296 239.44L130.808 292.144C130.444 292.347 130.035 292.451 129.619 292.447C129.202 292.444 128.794 292.332 128.435 292.123C128.075 291.914 127.775 291.615 127.566 291.255C127.357 290.896 127.244 290.488 127.24 290.072V116.248Z" fill="white"/>
<path d="M113.352 93.472V308.936C113.352 314.424 119.68 319.664 125.616 317.144C125.257 317.271 124.873 317.311 124.496 317.26C124.118 317.209 123.759 317.069 123.446 316.852C123.133 316.635 122.877 316.346 122.698 316.01C122.519 315.674 122.422 315.301 122.416 314.92V99.432C122.417 97.5577 122.974 95.7257 124.016 94.168L114.264 89.296C113.648 90.6012 113.336 92.029 113.352 93.472Z" fill="#263238"/>
<path d="M219.2 28.24C218.708 28.253 218.221 28.3476 217.76 28.52L118.168 85.192C116.504 86.1393 115.167 87.5707 114.336 89.296L124.088 94.168C124.902 92.9223 125.998 91.8862 127.288 91.144L226.904 34.48C227.187 34.3243 227.499 34.2274 227.821 34.1951C228.142 34.1628 228.467 34.1959 228.776 34.2923C229.084 34.3886 229.37 34.5464 229.616 34.756C229.863 34.9656 230.064 35.2227 230.208 35.512C229.496 32.96 224.344 28.136 219.2 28.24Z" fill="#455A64"/>
<path d="M188.752 70.056C189.448 69.648 190.024 69.968 190.032 70.768C190.011 71.2061 189.888 71.6332 189.674 72.0162C189.461 72.3992 189.162 72.7277 188.8 72.976L169.256 84.256C168.552 84.664 167.992 84.32 167.984 83.52C168.007 83.082 168.134 82.6557 168.354 82.2761C168.573 81.8965 168.88 81.5743 169.248 81.336L188.752 70.056Z" fill="#263238"/>
<path d="M164.184 84.24C164.888 83.832 165.448 84.152 165.456 84.96C165.433 85.3992 165.307 85.8269 165.087 86.2079C164.868 86.5889 164.561 86.9125 164.192 87.152C163.496 87.56 162.912 87.224 162.912 86.424C162.938 85.9857 163.067 85.5597 163.288 85.1803C163.509 84.8009 163.816 84.4788 164.184 84.24Z" fill="#263238"/>
<path d="M176.696 68.416C178.096 67.616 179.224 68.248 179.224 69.856C179.179 70.7339 178.929 71.5889 178.492 72.3519C178.056 73.1149 177.446 73.7644 176.712 74.248C175.312 75.048 174.16 74.392 174.152 72.784C174.204 71.9075 174.461 71.0554 174.903 70.2966C175.345 69.5379 175.959 68.8937 176.696 68.416Z" fill="#263238"/>
<path d="M176.704 271.256C179.552 269.608 181.848 270.92 181.856 274.192C181.766 275.979 181.256 277.72 180.366 279.273C179.476 280.826 178.233 282.147 176.736 283.128C173.888 284.728 171.528 283.424 171.52 280.152C171.624 278.366 172.147 276.63 173.048 275.084C173.949 273.538 175.201 272.227 176.704 271.256Z" fill="#263238"/>
<path d="M149.056 134.625C149.189 134.559 149.321 134.509 149.45 134.477C149.569 134.379 149.691 134.294 149.815 134.226L149.056 134.625Z" fill="#0EA5C6"/>
<path d="M153.613 122.764C153.308 122.448 152.936 122.226 152.513 122.107C151.626 121.834 150.552 121.999 149.449 122.58C148.347 123.16 147.273 124.124 146.386 125.33C145.961 125.896 145.587 126.51 145.28 127.149C144.977 127.756 144.738 128.381 144.573 128.999C144.271 130.081 144.179 131.124 144.304 132.032C144.43 132.94 144.769 133.684 145.291 134.197C145.355 134.261 145.425 134.31 145.488 134.361C145.703 133.467 146.114 132.557 146.671 131.741C147.228 130.925 147.908 130.239 148.627 129.765C148.177 129.78 147.795 129.614 147.529 129.289C147.262 128.964 147.122 128.494 147.127 127.937C147.104 127.584 147.148 127.195 147.256 126.794C147.364 126.393 147.534 125.988 147.754 125.605C147.975 125.221 148.242 124.868 148.538 124.566C148.835 124.264 149.155 124.02 149.478 123.85C149.802 123.68 150.122 123.587 150.418 123.577C150.715 123.566 150.982 123.639 151.202 123.79C151.423 123.942 151.592 124.168 151.7 124.456C151.808 124.744 151.852 125.087 151.829 125.463C151.834 126.014 151.695 126.63 151.429 127.235C151.164 127.84 150.783 128.407 150.335 128.867C151.047 128.589 151.717 128.566 152.265 128.8C152.812 129.034 153.212 129.515 153.416 130.184L153.607 129.822C154.13 128.759 154.469 127.658 154.595 126.618C154.72 125.578 154.627 124.633 154.325 123.869C154.156 123.426 153.916 123.054 153.613 122.764Z" fill="#FAFAFA"/>
<path d="M154.615 123.598C154.443 123.122 154.193 122.721 153.874 122.411C153.551 122.079 153.16 121.843 152.716 121.712C151.772 121.418 150.629 121.592 149.455 122.21C148.281 122.828 147.138 123.856 146.195 125.143C145.749 125.74 145.357 126.388 145.037 127.061C144.718 127.708 144.466 128.372 144.29 129.031C143.96 130.253 143.884 131.423 144.07 132.418C144.229 133.288 144.586 133.997 145.112 134.487C145.866 135.196 146.937 135.408 148.141 135.086C148.461 135.004 148.79 134.875 149.119 134.702C149.233 134.659 149.348 134.599 149.461 134.522C149.332 134.555 149.2 134.604 149.067 134.671L149.826 134.271C149.703 134.34 149.58 134.424 149.461 134.522C149.574 134.48 149.689 134.419 149.803 134.342C150.132 134.169 150.461 133.952 150.781 133.697C151.984 132.752 153.052 131.415 153.804 129.914C154.334 128.87 154.694 127.784 154.852 126.745C155.035 125.554 154.953 124.467 154.615 123.598ZM154.563 126.832C154.417 127.824 154.082 128.864 153.584 129.866L153.393 130.229C153.189 129.56 152.789 129.079 152.241 128.845C151.694 128.611 151.023 128.634 150.312 128.911C150.76 128.452 151.141 127.885 151.406 127.28C151.672 126.675 151.811 126.059 151.806 125.508C151.829 125.131 151.785 124.789 151.677 124.501C151.569 124.213 151.4 123.987 151.179 123.835C150.959 123.684 150.692 123.611 150.395 123.622C150.099 123.632 149.779 123.725 149.455 123.895C149.132 124.065 148.812 124.309 148.515 124.611C148.219 124.912 147.952 125.266 147.731 125.649C147.511 126.033 147.341 126.438 147.233 126.839C147.125 127.24 147.081 127.629 147.104 127.982C147.099 128.539 147.239 129.009 147.506 129.334C147.772 129.659 148.154 129.825 148.604 129.81C147.885 130.284 147.205 130.97 146.648 131.786C146.091 132.601 145.68 133.512 145.465 134.406C145.402 134.355 145.332 134.306 145.268 134.242C144.746 133.729 144.406 132.985 144.281 132.077C144.156 131.169 144.248 130.126 144.55 129.044C144.715 128.425 144.954 127.801 145.257 127.194C145.564 126.555 145.938 125.941 146.363 125.375C147.25 124.168 148.324 123.205 149.426 122.624C150.529 122.044 151.602 121.879 152.49 122.151C152.913 122.271 153.285 122.493 153.59 122.809C153.893 123.099 154.133 123.471 154.302 123.913C154.627 124.717 154.717 125.725 154.563 126.832Z" fill="#0EA5C6"/>
<path d="M212.021 107.007C212.021 107.007 212.189 106.918 212.502 106.682C212.966 106.329 213.394 105.85 213.736 105.3C214.01 104.855 214.222 104.378 214.356 103.904C214.49 103.429 214.544 102.968 214.512 102.555C214.512 101.515 214.512 100.317 214.512 98.9755C214.512 96.2793 214.512 92.9876 214.483 89.1745C214.483 88.2191 214.483 87.2113 214.483 86.2035C214.506 85.6831 214.406 85.2305 214.192 84.895C213.979 84.5595 213.661 84.3541 213.272 84.3012C212.473 84.1523 211.431 84.9495 210.429 85.4243L207.313 87.0636L140.71 122.157C140.331 122.359 139.957 122.659 139.62 123.033C139.282 123.407 138.991 123.845 138.77 124.31C138.55 124.775 138.409 125.253 138.359 125.704C138.329 126.155 138.32 126.597 138.33 127.028V142.99C138.347 143.385 138.444 143.728 138.615 143.995C138.785 144.261 139.024 144.442 139.315 144.526C139.601 144.612 139.932 144.597 140.282 144.482C140.647 144.339 141.015 144.161 141.382 143.949L154.506 137.044L184.442 121.334L204.62 110.776L210.11 107.921L211.535 107.171C211.859 107 212.021 106.915 212.021 106.915L211.535 107.171L210.11 107.921L204.62 110.848L184.442 121.523L154.506 137.313L141.382 144.217C140.996 144.436 140.608 144.622 140.224 144.775C139.621 144.97 139.072 144.908 138.668 144.6C138.264 144.292 138.028 143.755 138 143.078C138 139.61 138 136.085 138 132.503V127.097C138 126.639 138 126.201 138 125.71C138.063 125.205 138.224 124.672 138.469 124.154C138.719 123.62 139.051 123.116 139.437 122.686C139.823 122.255 140.252 121.909 140.687 121.678L207.29 86.6897L211.923 84.252C212.431 83.963 212.934 83.8439 213.371 83.9091C213.789 83.9689 214.132 84.1928 214.362 84.5564C214.591 84.9201 214.699 85.4097 214.674 85.972C214.674 86.9929 214.674 87.9876 214.674 88.9431C214.674 92.7649 214.674 96.0566 214.645 98.7746C214.645 100.116 214.645 101.314 214.645 102.354C214.671 102.784 214.61 103.262 214.466 103.752C214.322 104.242 214.098 104.732 213.811 105.188C213.455 105.746 213.013 106.226 212.537 106.572C212.373 106.741 212.199 106.887 212.021 107.007Z" fill="white"/>
<path d="M178.581 107.92L159.77 117.817V119.414L178.581 109.517V107.92Z" fill="white"/>
<path d="M192.724 109.484L159.77 126.822V128.419L192.724 111.081V109.484Z" fill="white"/>
<path d="M207.527 97.0823L159.77 122.208V123.805L207.527 98.6791V97.0823Z" fill="white"/>
<path d="M149.056 191.01C149.311 190.915 149.45 190.842 149.45 190.868C149.569 190.77 149.691 190.685 149.815 190.617L149.056 191.01Z" fill="#0EA5C6"/>
<path d="M153.613 179.156C153.309 178.837 152.938 178.615 152.513 178.498C151.626 178.225 150.552 178.391 149.449 178.971C148.347 179.551 147.273 180.515 146.386 181.721C145.557 182.839 144.926 184.117 144.573 185.391C144.271 186.473 144.179 187.515 144.304 188.423C144.43 189.331 144.769 190.075 145.291 190.588L145.488 190.753C145.701 189.858 146.112 188.946 146.669 188.13C147.227 187.314 147.907 186.628 148.627 186.157C148.177 186.171 147.795 186.006 147.529 185.68C147.262 185.355 147.122 184.885 147.127 184.328C147.104 183.976 147.148 183.587 147.256 183.185C147.364 182.784 147.534 182.379 147.754 181.996C147.975 181.612 148.242 181.259 148.538 180.957C148.835 180.655 149.155 180.412 149.478 180.241C149.802 180.071 150.122 179.978 150.418 179.968C150.715 179.958 150.982 180.03 151.202 180.182C151.423 180.333 151.592 180.559 151.7 180.847C151.808 181.135 151.852 181.478 151.829 181.854C151.833 182.406 151.694 183.021 151.428 183.626C151.163 184.231 150.783 184.798 150.335 185.258C151.046 184.979 151.717 184.955 152.264 185.188C152.811 185.421 153.212 185.901 153.416 186.568L153.607 186.213C154.13 185.15 154.469 184.049 154.595 183.009C154.72 181.969 154.627 181.024 154.325 180.26C154.156 179.818 153.916 179.445 153.613 179.156Z" fill="#FAFAFA"/>
<path d="M154.615 179.99C154.445 179.509 154.195 179.106 153.874 178.796C153.551 178.463 153.16 178.227 152.715 178.097C151.772 177.802 150.629 177.977 149.455 178.595C148.281 179.213 147.138 180.241 146.195 181.527C145.32 182.721 144.656 184.079 144.284 185.432C143.953 186.654 143.877 187.824 144.064 188.819C144.223 189.689 144.58 190.398 145.106 190.888C145.862 191.592 146.932 191.801 148.135 191.48C148.455 191.403 148.783 191.277 149.113 191.103C149.227 191.06 149.342 191 149.455 190.923C149.455 190.923 149.316 190.996 149.061 191.065L149.82 190.666C149.697 190.734 149.574 190.818 149.455 190.916C149.569 190.874 149.683 190.813 149.797 190.737C150.127 190.563 150.456 190.344 150.775 190.084C151.976 189.14 153.044 187.806 153.798 186.308C154.327 185.264 154.687 184.178 154.847 183.139C155.032 181.948 154.952 180.859 154.615 179.99ZM154.563 183.223C154.42 184.2 154.093 185.224 153.607 186.213L153.416 186.568C153.212 185.901 152.811 185.421 152.264 185.188C151.717 184.955 151.046 184.979 150.335 185.258C150.783 184.798 151.163 184.231 151.428 183.626C151.694 183.021 151.833 182.406 151.829 181.854C151.852 181.478 151.808 181.135 151.7 180.847C151.592 180.559 151.423 180.333 151.202 180.182C150.982 180.03 150.715 179.958 150.418 179.968C150.122 179.978 149.802 180.071 149.478 180.241C149.155 180.412 148.835 180.655 148.538 180.957C148.242 181.259 147.975 181.612 147.754 181.996C147.534 182.379 147.364 182.784 147.256 183.185C147.148 183.586 147.104 183.976 147.127 184.328C147.122 184.885 147.262 185.355 147.529 185.68C147.795 186.006 148.177 186.171 148.627 186.157C147.907 186.628 147.227 187.314 146.669 188.13C146.112 188.946 145.701 189.858 145.488 190.753L145.291 190.588C144.769 190.075 144.43 189.331 144.304 188.423C144.179 187.515 144.271 186.472 144.573 185.39C144.926 184.117 145.557 182.839 146.386 181.721C147.273 180.515 148.347 179.551 149.449 178.971C150.552 178.391 151.626 178.225 152.513 178.498C152.938 178.615 153.309 178.837 153.613 179.156C153.916 179.445 154.156 179.818 154.325 180.26C154.647 181.077 154.729 182.101 154.563 183.223Z" fill="#0EA5C6"/>
<path d="M212.021 163.399C212.021 163.399 212.189 163.31 212.502 163.074C212.966 162.721 213.393 162.242 213.736 161.692C214.011 161.246 214.223 160.768 214.358 160.292C214.492 159.816 214.544 159.355 214.512 158.941C214.512 157.907 214.512 156.709 214.512 155.361C214.512 152.672 214.512 149.373 214.483 145.56C214.483 144.605 214.483 143.597 214.483 142.596C214.506 142.075 214.406 141.621 214.192 141.285C213.979 140.948 213.661 140.741 213.272 140.687C212.473 140.538 211.431 141.335 210.429 141.81L207.313 143.449L140.71 178.549C140.331 178.749 139.956 179.049 139.619 179.424C139.281 179.798 138.99 180.237 138.77 180.702C138.549 181.164 138.408 181.641 138.359 182.09C138.33 182.541 138.32 182.983 138.33 183.414V199.408C138.348 199.803 138.445 200.146 138.616 200.412C138.786 200.678 139.025 200.86 139.315 200.945C139.601 201.031 139.932 201.015 140.282 200.901C140.647 200.754 141.015 200.576 141.382 200.368L154.506 193.463L184.442 177.752L204.62 167.201L210.11 164.313L211.535 163.563C211.859 163.393 212.021 163.307 212.021 163.307C212.021 163.307 211.859 163.393 211.535 163.563L210.11 164.313L204.62 167.234L184.442 177.915L154.506 193.705L141.382 200.61C140.996 200.83 140.608 201.019 140.224 201.173C139.636 201.363 139.1 201.31 138.699 201.021C138.298 200.733 138.054 200.226 138.006 199.579C138.006 196.11 138.006 192.585 138.006 189.003V183.598C138.006 183.14 138.006 182.708 138.006 182.21C138.064 181.696 138.225 181.151 138.475 180.622C138.726 180.088 139.058 179.585 139.444 179.154C139.829 178.724 140.258 178.378 140.693 178.146L207.295 143.157L211.929 140.72C212.298 140.509 212.667 140.386 213.01 140.36C213.354 140.333 213.665 140.403 213.925 140.565C214.184 140.727 214.385 140.978 214.515 141.3C214.645 141.623 214.701 142.011 214.68 142.44C214.68 143.461 214.68 144.449 214.68 145.404C214.68 149.226 214.68 152.524 214.651 155.236C214.651 156.584 214.651 157.781 214.651 158.815C214.677 159.245 214.616 159.723 214.472 160.213C214.328 160.703 214.104 161.194 213.817 161.649C213.461 162.209 213.019 162.691 212.542 163.04C212.373 163.185 212.198 163.306 212.021 163.399Z" fill="white"/>
<path d="M178.581 164.305L159.77 174.202V175.799L178.581 165.902V164.305Z" fill="white"/>
<path d="M192.724 165.875L159.77 183.213V184.81L192.724 167.472V165.875Z" fill="white"/>
<path d="M207.527 153.473L159.77 178.599V180.196L207.527 155.07V153.473Z" fill="white"/>
<path d="M138.345 153.27L138.302 170.694C138.298 172.116 139.315 172.736 140.572 172.079L212.421 134.504C213.678 133.846 214.7 132.16 214.703 130.738L214.746 113.315C214.75 111.892 213.734 111.272 212.477 111.93L140.627 149.505C139.37 150.162 138.348 151.848 138.345 153.27Z" fill="#0EA5C6"/>
<path d="M178.772 135.416L159.961 145.254L159.957 146.853L178.768 137.015L178.772 135.416Z" fill="#FAFAFA"/>
<path d="M192.892 137.036L159.939 154.27L159.935 155.869L192.888 138.635L192.892 137.036Z" fill="#FAFAFA"/>
<path d="M207.707 124.682L159.95 149.657L159.946 151.256L207.703 126.281L207.707 124.682Z" fill="#FAFAFA"/>
<path d="M150.521 156.268C150.965 155.799 151.338 155.225 151.595 154.618C151.853 154.011 151.982 153.396 151.969 152.849C151.985 152.476 151.936 152.137 151.823 151.855C151.71 151.573 151.536 151.352 151.311 151.207C151.087 151.063 150.817 150.997 150.519 151.013C150.221 151.03 149.9 151.13 149.577 151.306C149.254 151.481 148.936 151.73 148.641 152.035C148.347 152.341 148.083 152.697 147.867 153.082C147.65 153.467 147.485 153.872 147.382 154.272C147.278 154.672 147.239 155.059 147.266 155.408C147.265 155.969 147.412 156.44 147.687 156.761C147.963 157.082 148.354 157.239 148.812 157.212C148.072 157.72 147.379 158.448 146.822 159.305C146.266 160.162 145.87 161.109 145.685 162.025C146.55 162.63 147.72 162.691 148.986 162.199L150.434 161.437C151.714 160.544 152.88 159.191 153.712 157.632C153.512 156.926 153.101 156.419 152.531 156.175C151.962 155.932 151.262 155.964 150.521 156.268Z" fill="#FAFAFA"/>
<path d="M149.733 161.845C149.733 161.799 150.208 161.595 151.019 160.881C151.723 160.286 152.377 159.554 152.941 158.731C153.505 157.907 153.965 157.011 154.292 156.1C154.619 155.189 154.806 154.282 154.841 153.439C154.875 152.595 154.757 151.832 154.493 151.2C154.317 150.764 154.069 150.4 153.758 150.121C153.44 149.818 153.059 149.608 152.629 149.498C151.722 149.26 150.637 149.46 149.532 150.068C148.426 150.677 147.357 151.663 146.479 152.885C146.061 153.461 145.695 154.081 145.396 154.724C145.101 155.336 144.871 155.962 144.712 156.582C144.478 157.489 144.39 158.365 144.454 159.154C144.519 159.944 144.734 160.631 145.086 161.17C145.438 161.709 145.92 162.09 146.501 162.288C147.081 162.486 147.748 162.496 148.459 162.319C149.281 162.109 149.762 161.81 149.756 161.859C149.315 162.142 148.869 162.345 148.436 162.462C147.232 162.81 146.151 162.632 145.378 161.957C144.842 161.492 144.469 160.81 144.29 159.965C144.083 158.986 144.139 157.827 144.452 156.608C144.799 155.262 145.442 153.902 146.299 152.698C147.224 151.402 148.355 150.355 149.525 149.711C150.695 149.067 151.842 148.861 152.797 149.122C153.252 149.244 153.653 149.475 153.984 149.806C154.311 150.105 154.571 150.493 154.754 150.958C155.109 151.813 155.207 152.892 155.038 154.081C154.862 155.33 154.395 156.651 153.692 157.885C152.99 159.119 152.082 160.215 151.077 161.04C150.637 161.39 150.183 161.662 149.733 161.845Z" fill="#FAFAFA"/>
<path d="M171.834 256.162C171.787 256.547 171.626 256.96 171.382 257.326C171.138 257.693 170.827 257.987 170.505 258.157C170.182 258.326 169.871 258.359 169.627 258.25C169.383 258.14 169.223 257.896 169.176 257.56C169.223 257.175 169.383 256.762 169.627 256.396C169.871 256.029 170.182 255.735 170.505 255.565C170.827 255.396 171.138 255.363 171.382 255.472C171.626 255.582 171.787 255.826 171.834 256.162Z" fill="#0EA5C6"/>
<path d="M175.957 254.012C175.995 254.298 175.949 254.635 175.825 254.976C175.702 255.317 175.507 255.647 175.266 255.921C175.025 256.195 174.75 256.4 174.478 256.509C174.206 256.617 173.949 256.625 173.743 256.53C173.537 256.435 173.39 256.242 173.324 255.977C173.257 255.712 173.273 255.387 173.37 255.047C173.466 254.707 173.639 254.367 173.864 254.072C174.09 253.778 174.357 253.544 174.631 253.401C174.961 253.202 175.285 253.155 175.534 253.27C175.783 253.384 175.935 253.651 175.957 254.012Z" fill="#0EA5C6"/>
<path d="M180.075 251.865C180.113 252.152 180.067 252.489 179.943 252.83C179.819 253.172 179.623 253.501 179.382 253.775C179.141 254.049 178.866 254.254 178.593 254.363C178.321 254.471 178.064 254.478 177.858 254.382C177.652 254.286 177.507 254.092 177.44 253.826C177.374 253.561 177.391 253.236 177.489 252.895C177.586 252.554 177.76 252.214 177.986 251.92C178.212 251.626 178.481 251.393 178.755 251.251C179.083 251.055 179.406 251.009 179.654 251.124C179.901 251.239 180.053 251.506 180.075 251.865Z" fill="#0EA5C6"/>
<path d="M149.056 220.256C149.311 220.161 149.45 220.088 149.45 220.114C149.45 220.14 149.577 220.047 149.815 219.863L149.056 220.256Z" fill="#0EA5C6"/>
<path d="M153.613 208.382C153.308 208.068 152.936 207.848 152.513 207.731C151.626 207.458 150.552 207.623 149.449 208.203C148.347 208.784 147.273 209.748 146.386 210.954C145.961 211.518 145.587 212.129 145.28 212.766C144.977 213.376 144.738 214.002 144.573 214.623C144.271 215.705 144.179 216.748 144.304 217.656C144.43 218.564 144.769 219.308 145.291 219.821C145.355 219.879 145.425 219.927 145.488 219.979C145.703 219.085 146.114 218.175 146.671 217.36C147.228 216.545 147.908 215.86 148.627 215.389C148.173 215.404 147.788 215.235 147.521 214.904C147.254 214.572 147.117 214.094 147.127 213.528C147.104 213.176 147.148 212.787 147.256 212.385C147.364 211.984 147.534 211.579 147.754 211.196C147.975 210.812 148.242 210.459 148.538 210.157C148.835 209.855 149.155 209.612 149.478 209.441C149.802 209.271 150.122 209.178 150.418 209.168C150.715 209.158 150.982 209.23 151.202 209.382C151.423 209.533 151.592 209.759 151.7 210.047C151.808 210.335 151.852 210.678 151.829 211.054C151.833 211.606 151.694 212.222 151.428 212.826C151.163 213.431 150.783 213.998 150.335 214.458C151.046 214.179 151.717 214.155 152.264 214.388C152.811 214.621 153.212 215.101 153.416 215.768L153.607 215.413C154.127 214.35 154.465 213.25 154.591 212.21C154.716 211.171 154.625 210.226 154.325 209.46C154.154 209.028 153.913 208.665 153.613 208.382Z" fill="#FAFAFA"/>
<path d="M154.615 209.235C154.443 208.757 154.193 208.354 153.874 208.042C153.55 207.71 153.159 207.474 152.715 207.343C151.772 207.048 150.629 207.223 149.455 207.841C148.281 208.458 147.138 209.487 146.195 210.773C145.317 211.965 144.652 213.325 144.284 214.677C143.953 215.9 143.877 217.07 144.064 218.065C144.224 218.934 144.581 219.642 145.106 220.134C145.862 220.838 146.932 221.047 148.135 220.726C148.456 220.642 148.784 220.516 149.113 220.349C149.227 220.306 149.342 220.246 149.455 220.169C149.455 220.169 149.316 220.242 149.061 220.311L149.82 219.912C149.582 220.069 149.455 220.136 149.455 220.162C149.568 220.12 149.683 220.059 149.797 219.983C150.126 219.803 150.454 219.584 150.775 219.33C151.976 218.386 153.044 217.052 153.798 215.554C154.327 214.51 154.686 213.424 154.846 212.385C155.032 211.193 154.952 210.105 154.615 209.235ZM154.563 212.463C154.422 213.441 154.094 214.467 153.607 215.459L153.416 215.814C153.212 215.147 152.811 214.667 152.264 214.434C151.716 214.201 151.046 214.225 150.335 214.504C150.783 214.044 151.163 213.477 151.428 212.872C151.694 212.267 151.833 211.651 151.829 211.1C151.852 210.724 151.808 210.381 151.7 210.093C151.592 209.805 151.423 209.579 151.202 209.427C150.982 209.276 150.715 209.203 150.418 209.214C150.122 209.224 149.802 209.317 149.478 209.487C149.155 209.657 148.835 209.901 148.538 210.203C148.242 210.505 147.975 210.858 147.754 211.242C147.534 211.625 147.364 212.03 147.256 212.431C147.148 212.832 147.104 213.221 147.127 213.574C147.117 214.14 147.254 214.618 147.521 214.95C147.788 215.281 148.173 215.45 148.627 215.435C147.908 215.906 147.228 216.591 146.671 217.406C146.114 218.221 145.703 219.131 145.488 220.025C145.424 219.973 145.355 219.925 145.291 219.866C144.769 219.354 144.429 218.61 144.304 217.702C144.179 216.794 144.271 215.751 144.573 214.669C144.738 214.048 144.976 213.422 145.28 212.812C145.587 212.175 145.961 211.563 146.386 211C147.273 209.793 148.347 208.829 149.449 208.249C150.552 207.669 151.625 207.503 152.513 207.776C152.936 207.894 153.308 208.114 153.613 208.428C153.916 208.72 154.156 209.094 154.325 209.538C154.641 210.347 154.723 211.356 154.563 212.463Z" fill="#0EA5C6"/>
<path d="M212.021 192.645C212.021 192.645 212.189 192.556 212.502 192.32C212.966 191.967 213.394 191.488 213.736 190.938C214.011 190.492 214.223 190.014 214.358 189.538C214.492 189.062 214.544 188.601 214.512 188.187C214.512 187.146 214.512 185.955 214.512 184.607C214.512 181.911 214.512 178.619 214.483 174.806C214.483 173.851 214.483 172.843 214.483 171.842C214.506 171.32 214.406 170.867 214.192 170.53C213.979 170.194 213.661 169.987 213.272 169.933C212.473 169.784 211.431 170.581 210.429 171.056L207.313 172.695L140.71 207.795C140.33 207.994 139.955 208.293 139.618 208.668C139.28 209.043 138.989 209.482 138.77 209.948C138.548 210.41 138.407 210.887 138.359 211.336C138.33 211.787 138.32 212.229 138.33 212.66V228.66C138.347 229.057 138.444 229.401 138.614 229.668C138.785 229.935 139.024 230.118 139.315 230.204C139.601 230.29 139.932 230.274 140.282 230.16C140.647 230.009 141.015 229.831 141.382 229.626L154.506 222.722L184.442 207.011L204.62 196.46L210.11 193.604L211.535 192.855C211.859 192.684 212.021 192.599 212.021 192.599L211.535 192.855L210.11 193.604L204.62 196.493L184.442 207.168L154.506 222.964L141.382 229.869C140.996 230.09 140.608 230.276 140.224 230.426C139.824 230.563 139.445 230.583 139.118 230.484C138.786 230.39 138.513 230.182 138.32 229.878C138.126 229.574 138.017 229.181 138 228.729C138 225.239 138 221.714 138 218.154V212.749C138 212.29 138 211.859 138 211.361C138.059 210.847 138.219 210.302 138.469 209.773C138.721 209.24 139.054 208.738 139.439 208.307C139.825 207.877 140.252 207.531 140.687 207.297L207.29 172.315L211.923 169.877C212.431 169.594 212.932 169.476 213.371 169.534C213.789 169.595 214.132 169.821 214.362 170.185C214.591 170.55 214.699 171.04 214.674 171.604C214.674 172.624 214.674 173.613 214.674 174.568C214.674 178.39 214.674 181.682 214.645 184.4C214.645 185.748 214.645 186.939 214.645 187.979C214.672 188.409 214.611 188.887 214.466 189.377C214.322 189.867 214.098 190.357 213.811 190.813C213.456 191.372 213.013 191.855 212.537 192.203C212.373 192.375 212.2 192.523 212.021 192.645Z" fill="white"/>
<path d="M178.581 193.551L159.77 203.448V205.044L178.581 195.148V193.551Z" fill="white"/>
<path d="M192.724 195.121L159.77 212.459V214.056L192.724 196.718V195.121Z" fill="white"/>
<path d="M207.527 182.719L159.77 207.845V209.442L207.527 184.316V182.719Z" fill="white"/>
<path d="M149.056 248.919C149.311 248.818 149.45 248.751 149.45 248.777C149.45 248.804 149.577 248.678 149.815 248.527L149.056 248.919Z" fill="#0EA5C6"/>
<path d="M153.613 237.058C153.306 236.745 152.935 236.522 152.513 236.401C151.622 236.138 150.55 236.309 149.449 236.888C148.349 237.467 147.276 238.425 146.386 239.624C145.962 240.191 145.589 240.805 145.28 241.443C144.977 242.052 144.738 242.679 144.573 243.3C144.271 244.382 144.179 245.424 144.304 246.332C144.43 247.24 144.769 247.985 145.291 248.497C145.355 248.555 145.425 248.604 145.488 248.655C145.703 247.761 146.114 246.852 146.671 246.037C147.228 245.222 147.908 244.537 148.627 244.066C148.178 244.079 147.796 243.914 147.53 243.589C147.263 243.264 147.123 242.794 147.127 242.238C147.104 241.885 147.148 241.496 147.256 241.095C147.364 240.693 147.534 240.288 147.754 239.905C147.975 239.522 148.242 239.168 148.538 238.866C148.835 238.564 149.155 238.321 149.478 238.151C149.802 237.981 150.122 237.887 150.418 237.877C150.715 237.867 150.982 237.94 151.202 238.091C151.423 238.242 151.592 238.469 151.7 238.757C151.808 239.044 151.852 239.387 151.829 239.764C151.833 240.315 151.694 240.931 151.428 241.535C151.163 242.14 150.783 242.707 150.335 243.167C151.046 242.888 151.717 242.863 152.265 243.096C152.812 243.329 153.213 243.809 153.416 244.478C153.48 244.359 153.544 244.247 153.607 244.115C154.096 243.127 154.423 242.102 154.563 241.126C154.728 240.006 154.646 238.985 154.325 238.169C154.156 237.725 153.916 237.35 153.613 237.058Z" fill="#FAFAFA"/>
<path d="M154.615 237.892C154.443 237.416 154.193 237.015 153.874 236.705C153.551 236.373 153.16 236.137 152.715 236.006C151.771 235.716 150.628 235.893 149.455 236.51C148.282 237.128 147.139 238.153 146.195 239.437C145.748 240.034 145.357 240.682 145.037 241.355C144.717 242.002 144.465 242.666 144.289 243.325C143.96 244.547 143.884 245.717 144.069 246.712C144.228 247.583 144.585 248.292 145.112 248.781C145.866 249.49 146.937 249.702 148.141 249.38C148.461 249.296 148.79 249.17 149.119 249.003C149.233 248.96 149.347 248.9 149.461 248.823C149.461 248.823 149.322 248.863 149.067 248.965L149.826 248.565C149.588 248.69 149.461 248.757 149.461 248.816C149.574 248.774 149.689 248.713 149.803 248.636C150.132 248.457 150.46 248.238 150.781 247.984C151.791 247.178 152.71 246.097 153.429 244.871C154.147 243.645 154.635 242.325 154.835 241.068C155.026 239.868 154.95 238.77 154.615 237.892ZM154.563 241.126C154.423 242.102 154.096 243.127 153.607 244.115C153.544 244.247 153.48 244.359 153.416 244.478C153.213 243.809 152.812 243.329 152.265 243.096C151.717 242.863 151.046 242.888 150.335 243.167C150.783 242.707 151.163 242.14 151.428 241.535C151.694 240.931 151.833 240.315 151.829 239.764C151.852 239.387 151.808 239.044 151.7 238.757C151.592 238.469 151.423 238.242 151.202 238.091C150.982 237.94 150.715 237.867 150.418 237.877C150.122 237.887 149.802 237.981 149.478 238.151C149.155 238.321 148.835 238.564 148.538 238.866C148.242 239.168 147.975 239.522 147.754 239.905C147.534 240.288 147.364 240.693 147.256 241.095C147.148 241.496 147.104 241.885 147.127 242.238C147.123 242.794 147.263 243.264 147.53 243.589C147.796 243.914 148.178 244.079 148.627 244.066C147.907 244.535 147.225 245.219 146.665 246.034C146.106 246.849 145.693 247.759 145.477 248.655C145.413 248.603 145.343 248.555 145.28 248.497C144.757 247.984 144.418 247.24 144.292 246.332C144.167 245.424 144.26 244.381 144.562 243.299C144.726 242.679 144.965 242.052 145.268 241.442C145.577 240.804 145.95 240.191 146.374 239.624C147.265 238.424 148.337 237.466 149.438 236.887C150.538 236.308 151.611 236.138 152.501 236.4C153.328 236.653 153.958 237.267 154.314 238.169C154.639 238.983 154.725 240.004 154.563 241.126Z" fill="#0EA5C6"/>
<path d="M212.021 221.308C212.021 221.308 212.189 221.22 212.502 220.983C213.111 220.515 213.652 219.837 214.022 219.076C214.392 218.314 214.566 217.523 214.512 216.85C214.512 215.81 214.512 214.619 214.512 213.271C214.512 210.574 214.512 207.283 214.483 203.47C214.483 202.514 214.483 201.506 214.483 200.505C214.504 199.98 214.399 199.524 214.18 199.189C213.96 198.854 213.634 198.653 213.237 198.608C212.438 198.459 211.396 199.256 210.394 199.731L207.278 201.37L140.676 236.464C140.295 236.665 139.921 236.966 139.583 237.342C139.246 237.718 138.955 238.157 138.736 238.623C138.514 239.085 138.372 239.563 138.324 240.011C138.295 240.462 138.285 240.904 138.295 241.335V257.342C138.312 257.737 138.409 258.081 138.58 258.347C138.75 258.613 138.99 258.795 139.28 258.879C139.566 258.967 139.897 258.954 140.247 258.841C140.613 258.692 140.98 258.512 141.347 258.302L154.471 251.397L184.407 235.686L204.585 225.129L210.075 222.28L211.5 221.53L211.987 221.274C211.987 221.274 211.824 221.359 211.5 221.53L210.075 222.28L204.585 225.208L184.407 235.882L154.471 251.672L141.382 258.558C140.996 258.777 140.608 258.963 140.224 259.115C139.823 259.25 139.444 259.268 139.118 259.167C138.786 259.074 138.513 258.868 138.32 258.565C138.126 258.262 138.017 257.87 138 257.419C138 253.951 138 250.425 138 246.844V241.438C138 240.98 138 240.548 138 240.051C138.059 239.537 138.219 238.992 138.469 238.462C138.72 237.929 139.052 237.426 139.438 236.995C139.824 236.565 140.252 236.219 140.687 235.987L207.29 201.004L211.923 198.567C212.431 198.284 212.932 198.165 213.371 198.224C213.79 198.284 214.133 198.509 214.362 198.874C214.592 199.239 214.7 199.73 214.674 200.293C214.674 201.314 214.674 202.302 214.674 203.258C214.674 207.08 214.674 210.371 214.645 213.089C214.645 214.437 214.645 215.628 214.645 216.669C214.671 217.099 214.61 217.576 214.466 218.066C214.322 218.556 214.098 219.047 213.811 219.503C213.457 220.062 213.014 220.543 212.537 220.886C212.373 221.053 212.199 221.195 212.021 221.308Z" fill="white"/>
<path d="M178.581 222.214L159.77 232.111V233.708L178.581 223.811V222.214Z" fill="white"/>
<path d="M192.724 223.778L159.77 241.116V242.713L192.724 225.375V223.778Z" fill="white"/>
<path d="M207.527 211.376L159.77 236.502V238.099L207.527 212.973V211.376Z" fill="white"/>
<path d="M212.247 118.046C214.377 116.925 216.104 114.066 216.104 111.659C216.104 109.252 214.377 108.209 212.247 109.33C210.117 110.451 208.39 113.31 208.39 115.717C208.39 118.124 210.117 119.167 212.247 118.046Z" fill="#263238"/>
<path d="M210.353 114.331L211.975 115.088L214.135 111.439" stroke="#FAFAFA" stroke-linecap="round" stroke-linejoin="round"/>
<path d="M267.8 323.336C267.168 325.32 264.992 326.456 262.912 326.624C260.832 326.792 258.784 326.2 256.736 325.824C252.144 325.024 247.72 325.824 243.136 325.712C241.632 325.722 240.131 325.559 238.664 325.224C237.189 324.88 235.855 324.092 234.84 322.968C234.265 322.281 233.886 321.452 233.744 320.568C233.65 321.233 233.699 321.91 233.888 322.554C234.077 323.199 234.402 323.795 234.84 324.304C235.855 325.428 237.189 326.216 238.664 326.56C240.131 326.892 241.632 327.053 243.136 327.04C247.72 327.152 252.144 326.328 256.736 327.16C258.784 327.528 260.84 328.112 262.912 327.96C264.984 327.808 267.168 326.656 267.8 324.672C267.997 323.984 268.052 323.262 267.96 322.552C267.931 322.818 267.878 323.08 267.8 323.336Z" fill="#263238"/>
<path d="M267.688 319.528C267.4 318.136 267.12 316.752 266.84 315.36C266.733 314.615 266.495 313.894 266.136 313.232C265.948 312.905 265.676 312.635 265.348 312.449C265.021 312.263 264.649 312.169 264.272 312.176C261.76 311.84 258.224 310.928 256.136 312.368C252.831 314.628 248.89 315.772 244.888 315.632C242.816 315.552 240.736 315.128 238.672 315.384C236.608 315.64 234.464 316.784 233.872 318.768C233.698 319.357 233.663 319.979 233.768 320.584C233.91 321.468 234.289 322.297 234.864 322.984C235.879 324.108 237.213 324.896 238.688 325.24C240.155 325.575 241.656 325.738 243.16 325.728C247.744 325.832 252.168 325.008 256.76 325.84C258.808 326.208 260.864 326.792 262.936 326.64C265.008 326.488 267.192 325.336 267.824 323.352C267.902 323.091 267.956 322.823 267.984 322.552C268.044 321.535 267.944 320.514 267.688 319.528Z" fill="#455A64"/>
<path d="M255.528 308L255.344 313.432C255.328 313.989 255.527 314.53 255.899 314.944C256.271 315.358 256.789 315.613 257.344 315.656C259.169 315.782 261.002 315.763 262.824 315.6C263.561 315.529 264.249 315.196 264.763 314.662C265.276 314.128 265.582 313.428 265.624 312.688L265.84 308.688L255.528 308Z" fill="#FFA8A7"/>
<path d="M291.008 305.104C290.987 305.908 290.734 306.688 290.28 307.352C289.636 308.134 288.723 308.648 287.72 308.792C286.515 309.005 285.275 308.872 284.142 308.409C283.009 307.946 282.031 307.172 281.32 306.176C280.64 305.184 280.248 304.024 279.6 302.976C278.623 301.619 277.415 300.444 276.032 299.504C274.649 298.565 273.435 297.399 272.44 296.056C271.968 295.401 271.659 294.642 271.54 293.843C271.42 293.045 271.493 292.229 271.752 291.464C271.619 291.643 271.506 291.836 271.416 292.04C271.11 292.845 271.008 293.714 271.12 294.569C271.232 295.423 271.553 296.236 272.056 296.936C273.075 298.315 274.316 299.515 275.728 300.488C277.14 301.459 278.372 302.669 279.368 304.064C280.032 305.112 280.424 306.312 281.12 307.328C281.837 308.346 282.827 309.141 283.977 309.619C285.127 310.098 286.388 310.241 287.616 310.032C288.644 309.881 289.577 309.35 290.232 308.544C290.82 307.615 291.087 306.519 290.992 305.424C291.024 305.336 291.016 305.224 291.008 305.104Z" fill="#263238"/>
<path d="M289.36 298.288C287.712 295.392 284.304 293.28 281.672 291.232C280.237 289.983 278.469 289.179 276.584 288.92C275.645 288.808 274.693 288.976 273.849 289.403C273.005 289.83 272.306 290.497 271.84 291.32C271.817 291.369 271.798 291.42 271.784 291.472C271.525 292.237 271.452 293.053 271.572 293.851C271.691 294.65 272 295.409 272.472 296.064C273.467 297.407 274.681 298.573 276.064 299.512C277.447 300.452 278.655 301.627 279.632 302.984C280.28 304 280.672 305.16 281.352 306.184C282.063 307.18 283.041 307.954 284.174 308.417C285.307 308.88 286.547 309.013 287.752 308.8C288.755 308.656 289.668 308.142 290.312 307.36C290.766 306.696 291.019 305.916 291.04 305.112C291.057 304.846 291.057 304.578 291.04 304.312C290.991 302.195 290.414 300.124 289.36 298.288Z" fill="#455A64"/>
<path d="M282.2 295.776V300.712C283.412 301.28 284.744 301.547 286.081 301.488C287.419 301.43 288.722 301.048 289.88 300.376L290.344 295.928L282.2 295.776Z" fill="#FFA8A7"/>
<path d="M291.64 206.168C293.128 210.608 291.304 231.72 290.44 251.976C293.64 259.624 292.784 281.36 290.936 296.776C290.936 296.776 287.736 298.752 281.92 296.776L274.632 254.176L273.6 230.12C273.6 230.12 271.768 251.48 269.672 265.184C271.648 275.68 271.152 277.656 266.28 309.936C264.585 310.789 262.714 311.233 260.816 311.233C258.918 311.233 257.047 310.789 255.352 309.936C252.592 264.584 253.608 223.248 254.128 208.384L291.64 206.168Z" fill="#37474F"/>
<path d="M293.216 179.552L295.344 184.048L290.256 189.648L290.624 203.032L307.048 188.8C307.785 188.162 308.29 187.299 308.487 186.344C308.684 185.39 308.56 184.397 308.136 183.52L303.128 173.12L293.216 179.552Z" fill="#FFA8A7"/>
<path d="M298.28 188.048C298.28 188.048 295.976 186.144 295.344 184.048L294.08 185.44C295.082 186.828 296.591 187.765 298.28 188.048Z" fill="#F28F8F"/>
<path d="M292.8 180.632C299.32 180.064 303.768 173.304 303.768 173.304C297.936 161.36 292.84 148.064 282.656 151.24L292.8 180.632Z" fill="#0EA5C6"/>
<path d="M253.272 172.088V209.6C275.376 218.856 289.696 210.496 291.672 206.144C290.656 190.864 294.264 172.992 293.992 165.392C293.72 157.792 292.784 149.248 281.008 150.992L268.488 152.216L262.136 153.76L253.272 172.088Z" fill="#0EA5C6"/>
<path opacity="0.4" d="M253.272 172.088V209.6C275.376 218.856 289.696 210.496 291.672 206.144C290.656 190.864 294.264 172.992 293.992 165.392C293.72 157.792 292.784 149.248 281.008 150.992L268.488 152.216L262.136 153.76L253.272 172.088Z" fill="white"/>
<path d="M215.288 162.336C215.465 162.825 215.687 163.296 215.952 163.744L229.904 187.112C230.402 187.953 231.079 188.674 231.887 189.223C232.695 189.772 233.615 190.136 234.58 190.288C235.545 190.441 236.532 190.379 237.47 190.107C238.408 189.834 239.275 189.358 240.008 188.712L248.888 180.824L239.88 171.224L235.368 175.912L222.4 159.328L220.408 150.632C220.272 150.039 220.012 149.481 219.643 148.997C219.275 148.513 218.807 148.113 218.272 147.824L212.752 144.856C212.546 144.744 212.308 144.701 212.076 144.736C211.843 144.771 211.629 144.88 211.464 145.048C211.352 145.163 211.266 145.302 211.214 145.454C211.161 145.606 211.143 145.768 211.161 145.928C211.178 146.087 211.231 146.241 211.315 146.378C211.4 146.516 211.513 146.632 211.648 146.72L215.648 149.32L210.4 152.424C210.098 152.602 209.85 152.858 209.681 153.164C209.512 153.471 209.429 153.818 209.44 154.168L209.496 156.688C209.508 157.213 209.712 157.715 210.071 158.099C210.43 158.483 210.917 158.721 211.44 158.768L212.304 158.848L212.504 159.376C213.002 160.688 213.996 161.751 215.272 162.336H215.288Z" fill="#FFA8A7"/>
<path d="M232.608 181.672C232.608 181.672 233.352 178.016 235.368 175.912L234.128 174.264C233.192 176 231.864 179.368 232.608 181.672Z" fill="#F28F8F"/>
<path d="M238.768 171.256L251.448 158.776C254.266 156.005 257.924 154.247 261.848 153.776H262.08C267.448 165.536 260.352 171.28 260.352 171.28L248.56 182.112C244.117 179.763 240.648 175.917 238.768 171.256Z" fill="#0EA5C6"/>
<path d="M261.024 123C258.336 121.984 255.712 118.128 258.4 116.432C259.144 115.872 261.328 116.52 263.088 116.432C261.544 115.04 261.176 113.376 261.952 112.848C262.728 112.32 264.784 114.304 268.536 113.928C272.288 113.552 285.208 109.392 286.824 118.84C288.632 116.44 290.624 118.192 290.624 118.192L287.936 120.088C291.936 125.688 290.624 132.176 280.976 144.984C279.854 146.342 278.266 147.234 276.523 147.486C274.779 147.737 273.004 147.33 271.544 146.344L267.544 136.528L263.656 131.8L261.024 123Z" fill="#263238"/>
<path d="M260.128 130.848L257.536 135.352L260.376 136.4L260.128 130.848Z" fill="#F28F8F"/>
<path d="M261.024 123C259.301 129.241 259.043 135.795 260.272 142.152C260.411 143.246 260.821 144.288 261.464 145.184C261.887 145.64 262.396 146.009 262.962 146.268C263.527 146.527 264.138 146.673 264.76 146.696C266.002 146.742 267.245 146.624 268.456 146.344V152.208C272.904 153.256 277.488 153.672 280.976 150.984V144.984C278.464 145.787 275.793 145.955 273.2 145.472C270.128 143.808 269.512 138.192 269.944 136.672C270.218 137.032 270.591 137.304 271.017 137.455C271.444 137.605 271.905 137.628 272.344 137.52C272.768 137.402 273.164 137.2 273.508 136.925C273.852 136.65 274.136 136.308 274.344 135.92C274.757 135.146 275.01 134.297 275.088 133.424C275.305 132.373 275.144 131.279 274.632 130.336C274.243 129.806 273.7 129.409 273.078 129.199C272.455 128.989 271.783 128.975 271.152 129.16C269.889 129.556 268.833 130.436 268.216 131.608C268.016 131.97 267.845 132.347 267.704 132.736C267.652 132.887 267.549 133.016 267.413 133.101C267.276 133.185 267.115 133.22 266.956 133.199C266.797 133.178 266.651 133.103 266.54 132.987C266.43 132.871 266.364 132.72 266.352 132.56C266.196 130.876 266.5 129.181 267.232 127.656C266.724 127.603 266.235 127.437 265.8 127.17C265.366 126.902 264.996 126.541 264.72 126.112C264.427 125.712 264.232 125.249 264.148 124.761C264.065 124.272 264.096 123.77 264.24 123.296C263.159 123.38 262.072 123.28 261.024 123Z" fill="#FFA8A7"/>
<path opacity="0.3" d="M274.24 244.8L273.44 225.168C278.512 225.168 283.224 221.376 286.808 217.776C283.36 223.904 276.696 226.624 276.696 226.624L274.24 244.8Z" fill="black"/>
<path d="M274.352 210.4C280.936 187.32 286.944 153.824 281.936 150.888C282.515 150.413 283.23 150.132 283.977 150.084C284.725 150.037 285.469 150.226 286.104 150.624L286.36 150.792C292.72 158.12 278.552 212.04 278.552 212.04L274.352 210.4Z" fill="#0EA5C6"/>
<path opacity="0.3" d="M274.352 210.4C280.936 187.32 286.944 153.824 281.936 150.888C282.515 150.413 283.23 150.132 283.977 150.084C284.725 150.037 285.469 150.226 286.104 150.624L286.36 150.792C292.72 158.12 278.552 212.04 278.552 212.04L274.352 210.4Z" fill="black"/>
<path d="M279.2 211.656C279.824 225.72 278.568 237.64 271.76 240.504C264.952 243.368 254.912 239.968 251.152 238.904C247.392 237.84 240.312 234.16 238.608 231.648C237.984 224.752 240.312 217.944 241.92 215.704C243.528 213.464 279.2 211.656 279.2 211.656Z" fill="#0EA5C6"/>
<path opacity="0.2" d="M279.2 211.656C279.824 225.72 278.568 237.64 271.76 240.504C264.952 243.368 254.912 239.968 251.152 238.904C247.392 237.84 240.312 234.16 238.608 231.648C237.984 224.752 240.312 217.944 241.92 215.704C243.528 213.464 279.2 211.656 279.2 211.656Z" fill="black"/>
<path d="M253.24 202.968C261.304 204.496 271.504 207.584 279.232 211.656C277.68 215.152 275.512 218.712 273.96 222.208C273.495 223.501 272.756 224.677 271.792 225.656C270.016 227.2 267.4 227.208 265.056 226.976C258.477 226.31 252.083 224.41 246.208 221.376C244.2 220.336 242.112 218.976 241.408 216.832C240.856 215.048 241.408 213.12 242.112 211.392C242.568 210.264 243.096 209.04 243.712 207.816C244.538 206.066 245.922 204.64 247.647 203.763C249.372 202.885 251.339 202.605 253.24 202.968Z" fill="#0EA5C6"/>
</svg>
