<svg width="400" height="400" viewBox="0 0 400 400" fill="none" xmlns="http://www.w3.org/2000/svg">
<path d="M65.1041 357.752C-9.39993 314.736 -9.39993 245 65.1041 201.984C139.608 158.968 260.408 158.968 334.904 201.984C409.4 245 409.408 314.736 334.904 357.752C260.4 400.768 139.608 400.8 65.1041 357.752Z" fill="#FAFAFA"/>
<path d="M47.1441 307.552C49.9201 294.352 52.6161 283.944 49.5921 263.816C47.0641 246.92 37.6561 230 22.912 227.48C10.72 225.4 10.616 237.584 18.6 248.104C26.584 258.624 41.0001 277.664 39.4001 291.608L38.4001 312.624L47.1441 307.552Z" fill="#0EA5C6"/>
<path opacity="0.4" d="M47.1441 307.552C49.9201 294.352 52.6161 283.944 49.5921 263.816C47.0641 246.92 37.6561 230 22.912 227.48C10.72 225.4 10.616 237.584 18.6 248.104C26.584 258.624 41.0001 277.664 39.4001 291.608L38.4001 312.624L47.1441 307.552Z" fill="white"/>
<path d="M46.984 307.648C52.8 268.8 34.96 243.456 23.888 234.192C23.7706 234.098 23.6212 234.054 23.4718 234.069C23.3223 234.084 23.1846 234.157 23.088 234.272C23.0371 234.332 22.9985 234.401 22.9745 234.476C22.9505 234.55 22.9416 234.629 22.9483 234.707C22.955 234.785 22.9772 234.861 23.0135 234.931C23.0499 235 23.0997 235.062 23.16 235.112C34.104 244.264 51.344 269.864 45.68 308.416L46.984 307.648Z" fill="white"/>
<path d="M34.2638 314.992C33.3118 310.408 31.7518 299.904 25.4158 290.912C18.3998 280.968 7.59979 273.6 6.71979 267.552C5.65579 260.28 12.3198 256.64 21.8478 260.72C33.3038 265.6 44.1198 282.792 40.8558 311.2L34.2638 314.992Z" fill="#0EA5C6"/>
<g opacity="0.25">
<path opacity="0.25" d="M34.2638 314.992C33.3118 310.408 31.7518 299.904 25.4158 290.912C18.3998 280.968 7.59979 273.6 6.71979 267.552C5.65579 260.28 12.3198 256.64 21.8478 260.72C33.3038 265.6 44.1198 282.792 40.8558 311.2L34.2638 314.992Z" fill="white"/>
</g>
<path d="M37.6003 309.864C37.4978 309.815 37.4112 309.737 37.3504 309.641C37.2896 309.545 37.257 309.434 37.2563 309.32C37.4803 283.992 23.2963 269.856 15.7683 265.92C15.6308 265.845 15.5279 265.72 15.4816 265.57C15.4353 265.421 15.4492 265.259 15.5203 265.12C15.5557 265.05 15.6047 264.989 15.6644 264.938C15.7241 264.888 15.7933 264.85 15.8679 264.827C15.9425 264.804 16.021 264.796 16.0987 264.804C16.1764 264.811 16.2517 264.835 16.3203 264.872C24.6483 269.224 38.7203 283.488 38.4483 309.336C38.4462 309.494 38.3821 309.644 38.2698 309.755C38.1575 309.866 38.0061 309.928 37.8483 309.928C37.7622 309.923 37.678 309.901 37.6003 309.864Z" fill="white"/>
<path d="M231.656 293.576L298.6 254.904L215.4 206.856L148.448 245.528L231.656 293.576Z" fill="#E0E0E0"/>
<path d="M313.728 346.048C353.324 346.048 385.424 327.516 385.424 304.656C385.424 281.796 353.324 263.264 313.728 263.264C274.131 263.264 242.032 281.796 242.032 304.656C242.032 327.516 274.131 346.048 313.728 346.048Z" fill="#E0E0E0"/>
<path d="M216.24 296.232L232.488 286.848L157.896 243.608L34.2639 314.992L112.256 360.016L128.504 350.64L170.744 375.032L261.736 322.496L216.24 296.232Z" fill="#E0E0E0"/>
<path d="M230.807 287.344V242.52L289.039 208.896V253.72L230.807 287.344Z" fill="#0EA5C6"/>
<path opacity="0.3" d="M230.807 287.344V242.52L289.039 208.896V253.72L230.807 287.344Z" fill="black"/>
<path d="M230.808 242.52L158.016 200.488V245.32L230.808 287.344V242.52Z" fill="#0EA5C6"/>
<path opacity="0.55" d="M230.808 242.52L158.016 200.488V245.32L230.808 287.344V242.52Z" fill="black"/>
<path d="M230.808 242.52L290.76 207.888L216.248 164.848L156.288 199.488L230.808 242.52Z" fill="#0EA5C6"/>
<path opacity="0.15" d="M230.808 242.52L290.76 207.888L216.248 164.848L156.288 199.488L230.808 242.52Z" fill="black"/>
<path d="M230.807 242.52V253.72L290.759 219.104V207.888L230.807 242.52Z" fill="#0EA5C6"/>
<path opacity="0.3" d="M230.807 242.52V253.72L290.759 219.104V207.888L230.807 242.52Z" fill="black"/>
<path opacity="0.2" d="M230.807 253.72L289.039 220.104V222.568L230.807 256.192V253.72Z" fill="black"/>
<path d="M156.288 199.488L230.808 242.52V253.72L156.288 210.704V199.488Z" fill="#0EA5C6"/>
<path opacity="0.55" d="M156.288 199.488L230.808 242.52V253.72L156.288 210.704V199.488Z" fill="black"/>
<path opacity="0.2" d="M230.808 253.72L158.016 211.696V214.16L230.808 256.192V253.72Z" fill="black"/>
<path d="M249.976 249.328L269.872 237.848C270.728 237.352 271.424 237.752 271.424 238.744V250.504C271.395 251.042 271.239 251.566 270.969 252.033C270.7 252.5 270.324 252.897 269.872 253.192L249.976 264.672C249.12 265.168 248.424 264.768 248.424 263.776V252C248.456 251.464 248.613 250.943 248.882 250.479C249.152 250.015 249.526 249.621 249.976 249.328Z" fill="#37474F"/>
<path d="M251.248 250.664L268.592 240.648C269.168 240.32 269.632 240.592 269.632 241.248V250.048C269.613 250.408 269.509 250.758 269.328 251.069C269.147 251.381 268.895 251.645 268.592 251.84L251.248 261.856C250.68 262.184 250.216 261.92 250.216 261.256V252.456C250.235 252.097 250.338 251.748 250.517 251.436C250.697 251.125 250.947 250.86 251.248 250.664Z" fill="#F5F5F5"/>
<g opacity="0.5">
<path opacity="0.5" d="M251.736 252.992C251.691 252.991 251.647 252.979 251.607 252.957C251.568 252.935 251.535 252.903 251.512 252.864C251.48 252.805 251.472 252.737 251.49 252.672C251.508 252.608 251.55 252.553 251.608 252.52L268 243.064C268.058 243.032 268.127 243.024 268.191 243.042C268.256 243.06 268.31 243.102 268.344 243.16C268.361 243.188 268.373 243.22 268.377 243.252C268.382 243.285 268.381 243.319 268.372 243.351C268.364 243.383 268.35 243.413 268.33 243.439C268.31 243.465 268.285 243.488 268.256 243.504L251.864 252.96C251.825 252.982 251.781 252.993 251.736 252.992Z" fill="#455A64"/>
<path opacity="0.5" d="M251.736 255.2C251.691 255.2 251.647 255.188 251.607 255.165C251.568 255.143 251.535 255.111 251.512 255.072C251.48 255.014 251.472 254.945 251.49 254.881C251.508 254.816 251.55 254.762 251.608 254.728L268 245.232C268.029 245.215 268.06 245.204 268.094 245.2C268.127 245.196 268.16 245.198 268.192 245.207C268.224 245.216 268.254 245.231 268.28 245.252C268.306 245.273 268.328 245.299 268.344 245.328C268.361 245.356 268.373 245.388 268.377 245.42C268.382 245.453 268.381 245.486 268.372 245.519C268.364 245.551 268.35 245.581 268.33 245.607C268.31 245.633 268.285 245.655 268.256 245.672L251.864 255.12C251.83 255.159 251.786 255.187 251.736 255.2Z" fill="#455A64"/>
<path opacity="0.5" d="M251.736 257.32C251.691 257.321 251.646 257.31 251.606 257.288C251.567 257.265 251.534 257.232 251.512 257.192C251.48 257.134 251.472 257.065 251.49 257.001C251.508 256.936 251.55 256.882 251.608 256.848L268 247.4C268.028 247.383 268.06 247.372 268.092 247.367C268.125 247.363 268.158 247.365 268.19 247.373C268.222 247.381 268.252 247.395 268.278 247.415C268.305 247.435 268.327 247.46 268.344 247.488C268.361 247.516 268.372 247.548 268.376 247.58C268.381 247.613 268.379 247.646 268.371 247.678C268.363 247.71 268.349 247.74 268.329 247.767C268.309 247.793 268.284 247.815 268.256 247.832L251.88 257.288C251.836 257.313 251.786 257.324 251.736 257.32Z" fill="#455A64"/>
<path opacity="0.5" d="M251.736 259.488C251.691 259.488 251.647 259.476 251.607 259.453C251.568 259.431 251.535 259.399 251.512 259.36C251.48 259.301 251.472 259.233 251.49 259.169C251.508 259.104 251.55 259.05 251.608 259.016L268 249.6C268.058 249.568 268.127 249.56 268.191 249.578C268.256 249.596 268.31 249.638 268.344 249.696C268.361 249.724 268.373 249.756 268.377 249.788C268.382 249.821 268.381 249.854 268.372 249.887C268.364 249.919 268.35 249.949 268.33 249.975C268.31 250.001 268.285 250.023 268.256 250.04L251.88 259.496C251.832 259.507 251.782 259.504 251.736 259.488Z" fill="#455A64"/>
</g>
<path opacity="0.3" d="M157.896 198.56L230.984 240.76L289.336 207.056L216.248 164.848L157.896 198.56Z" fill="black"/>
<path d="M230.984 239.048V194.224L289.216 160.6V205.432L230.984 239.048Z" fill="#0EA5C6"/>
<path d="M230.984 194.224L158.192 152.2V197.024L230.984 239.048V194.224Z" fill="#0EA5C6"/>
<path opacity="0.15" d="M230.984 194.224L158.192 152.2V197.024L230.984 239.048V194.224Z" fill="black"/>
<path d="M230.984 194.224L290.944 159.592L216.424 116.56L156.464 151.192L230.984 194.224Z" fill="#0EA5C6"/>
<path opacity="0.2" d="M230.984 194.224L290.944 159.592L216.424 116.56L156.464 151.192L230.984 194.224Z" fill="white"/>
<path d="M230.984 194.224V205.432L290.944 170.816V159.592L230.984 194.224Z" fill="#0EA5C6"/>
<path opacity="0.2" d="M230.984 205.432L289.216 171.808V174.272L230.984 207.896V205.432Z" fill="black"/>
<path d="M156.464 151.192L230.984 194.224V205.432L156.464 162.408V151.192Z" fill="#0EA5C6"/>
<path opacity="0.2" d="M156.464 151.192L230.984 194.224V205.432L156.464 162.408V151.192Z" fill="black"/>
<path opacity="0.2" d="M230.984 205.432L158.192 163.4V165.872L230.984 207.896V205.432Z" fill="black"/>
<path d="M250.152 201.04L270.048 189.552C270.904 189.056 271.6 189.456 271.6 190.448V202.208C271.571 202.747 271.415 203.271 271.146 203.738C270.876 204.205 270.5 204.601 270.048 204.896L250.152 216.384C249.296 216.88 248.6 216.472 248.6 215.488V203.728C248.629 203.189 248.784 202.665 249.054 202.198C249.323 201.73 249.7 201.334 250.152 201.04Z" fill="#455A64"/>
<path d="M251.424 202.4L268.8 192.36C269.376 192.024 269.84 192.296 269.84 192.952V201.752C269.822 202.112 269.717 202.462 269.537 202.773C269.356 203.085 269.103 203.349 268.8 203.544L251.424 213.6C250.856 213.928 250.392 213.664 250.392 213V204.2C250.411 203.84 250.514 203.489 250.694 203.177C250.873 202.864 251.123 202.598 251.424 202.4Z" fill="#F5F5F5"/>
<g opacity="0.5">
<path opacity="0.5" d="M251.912 204.696C251.869 204.697 251.826 204.686 251.788 204.665C251.75 204.644 251.719 204.613 251.696 204.576C251.679 204.547 251.667 204.515 251.662 204.482C251.657 204.448 251.659 204.414 251.667 204.382C251.675 204.349 251.69 204.318 251.71 204.291C251.73 204.264 251.755 204.241 251.784 204.224L268.161 194.776C268.218 194.742 268.286 194.732 268.351 194.749C268.415 194.765 268.471 194.807 268.505 194.864C268.539 194.921 268.548 194.99 268.532 195.054C268.515 195.119 268.474 195.174 268.417 195.208L252.04 204.664C252.001 204.686 251.957 204.697 251.912 204.696Z" fill="#455A64"/>
<path opacity="0.5" d="M251.912 206.864C251.868 206.863 251.825 206.851 251.788 206.828C251.75 206.806 251.718 206.774 251.696 206.736C251.679 206.708 251.668 206.676 251.663 206.644C251.658 206.611 251.66 206.578 251.668 206.546C251.676 206.513 251.691 206.483 251.711 206.457C251.731 206.431 251.756 206.409 251.784 206.392L268.16 196.936C268.219 196.904 268.288 196.896 268.352 196.914C268.416 196.932 268.471 196.974 268.504 197.032C268.522 197.06 268.533 197.092 268.538 197.124C268.543 197.157 268.541 197.19 268.533 197.222C268.525 197.254 268.51 197.285 268.49 197.311C268.47 197.337 268.445 197.359 268.416 197.376L252.04 206.832C252.001 206.854 251.957 206.865 251.912 206.864Z" fill="#455A64"/>
<path opacity="0.5" d="M251.912 209.032C251.868 209.031 251.825 209.019 251.788 208.996C251.75 208.974 251.718 208.942 251.696 208.904C251.679 208.876 251.668 208.844 251.663 208.812C251.658 208.779 251.66 208.746 251.668 208.713C251.676 208.681 251.691 208.651 251.711 208.625C251.731 208.599 251.756 208.577 251.784 208.56L268.16 199.104C268.189 199.087 268.221 199.076 268.254 199.072C268.287 199.067 268.321 199.07 268.353 199.079C268.385 199.088 268.415 199.103 268.441 199.124C268.467 199.145 268.489 199.17 268.504 199.2C268.522 199.228 268.533 199.26 268.538 199.292C268.543 199.325 268.541 199.358 268.533 199.39C268.525 199.422 268.51 199.453 268.49 199.479C268.47 199.505 268.445 199.527 268.416 199.544L252.04 208.992C252.002 209.016 251.958 209.03 251.912 209.032Z" fill="#455A64"/>
<path opacity="0.5" d="M251.912 211.2C251.868 211.201 251.824 211.189 251.786 211.166C251.748 211.144 251.717 211.111 251.696 211.072C251.679 211.044 251.668 211.012 251.663 210.98C251.658 210.947 251.66 210.913 251.668 210.881C251.676 210.849 251.691 210.819 251.711 210.793C251.731 210.767 251.756 210.744 251.784 210.728L268.16 201.28C268.189 201.263 268.22 201.252 268.253 201.248C268.286 201.243 268.319 201.245 268.351 201.253C268.383 201.261 268.413 201.275 268.439 201.295C268.465 201.315 268.488 201.34 268.504 201.368C268.521 201.396 268.532 201.428 268.537 201.46C268.542 201.493 268.54 201.526 268.532 201.558C268.524 201.59 268.509 201.62 268.489 201.647C268.47 201.673 268.445 201.695 268.416 201.712L252.04 211.2C251.998 211.211 251.954 211.211 251.912 211.2Z" fill="#455A64"/>
</g>
<path d="M116.104 351.28L45.6 310.576V107.384L116.104 148.088V351.28Z" fill="#263238"/>
<path d="M116.104 148.088L212.528 92.4161V295.608L116.104 351.28V148.088Z" fill="#37474F"/>
<path d="M212.528 92.416L116.104 148.088L45.6 107.384L142.024 51.712L212.528 92.416Z" fill="#455A64"/>
<path d="M124.616 287.656L204.008 241.816V289.16L124.616 335V287.656Z" fill="#263238"/>
<path d="M238.072 268.808L200.272 247V288.712L238.072 310.528V268.808Z" fill="#37474F"/>
<g opacity="0.1">
<path opacity="0.1" d="M238.072 268.808L200.272 247V288.712L238.072 310.528V268.808Z" fill="black"/>
</g>
<path d="M202.912 245.464L200.272 246.992L238.072 268.808L240.72 267.288L202.912 245.464Z" fill="#455A64"/>
<path d="M204.368 254.936C204.384 254.767 204.356 254.596 204.288 254.441C204.219 254.285 204.112 254.15 203.976 254.048C203.947 254.022 203.915 254.001 203.88 253.984L201.84 252.8C201.68 252.728 201.504 252.7 201.33 252.718C201.156 252.737 200.989 252.801 200.848 252.904L162.752 274.848L162.136 272.752C162.045 272.421 161.834 272.136 161.544 271.952L159.416 270.72C159.22 270.602 158.996 270.54 158.768 270.54C158.54 270.54 158.316 270.602 158.12 270.72L140.8 280.8C140.39 281.061 140.047 281.414 139.797 281.831C139.547 282.247 139.398 282.716 139.36 283.2V333.6C139.343 333.769 139.369 333.939 139.436 334.094C139.504 334.25 139.609 334.385 139.744 334.488L141.928 335.76C142.085 335.822 142.256 335.844 142.423 335.823C142.591 335.802 142.751 335.739 142.888 335.64L202.984 300.968C203.394 300.7 203.736 300.338 203.981 299.913C204.225 299.487 204.366 299.01 204.392 298.52L204.368 254.936Z" fill="#0EA5C6"/>
<path d="M204.368 254.936V298.592C204.341 299.082 204.199 299.558 203.953 299.982C203.707 300.406 203.364 300.766 202.952 301.032L142.72 335.8C142.596 335.885 142.45 335.933 142.299 335.938C142.149 335.944 142 335.907 141.87 335.832C141.74 335.756 141.633 335.646 141.563 335.513C141.492 335.38 141.461 335.23 141.472 335.08V284.464C141.49 283.972 141.633 283.493 141.888 283.072C142.128 282.647 142.468 282.287 142.88 282.024L160.24 272C160.428 271.882 160.643 271.815 160.865 271.805C161.086 271.795 161.306 271.843 161.504 271.944H161.544C161.689 272.032 161.816 272.148 161.916 272.286C162.016 272.423 162.088 272.579 162.128 272.744L162.752 274.848L162.944 275.36C163.2 276.224 164.608 276.224 165.392 275.776L202.992 254.128C203.124 254.034 203.276 253.973 203.436 253.95C203.596 253.926 203.759 253.941 203.912 253.992H203.976C204.121 254.099 204.234 254.243 204.303 254.41C204.372 254.576 204.394 254.758 204.368 254.936Z" fill="#0EA5C6"/>
<path opacity="0.15" d="M204.368 254.936V298.592C204.341 299.082 204.199 299.558 203.953 299.982C203.707 300.406 203.364 300.766 202.952 301.032L142.72 335.8C142.596 335.885 142.45 335.933 142.299 335.938C142.149 335.944 142 335.907 141.87 335.832C141.74 335.756 141.633 335.646 141.563 335.513C141.492 335.38 141.461 335.23 141.472 335.08V284.464C141.49 283.972 141.633 283.493 141.888 283.072C142.128 282.647 142.468 282.287 142.88 282.024L160.24 272C160.428 271.882 160.643 271.815 160.865 271.805C161.086 271.795 161.306 271.843 161.504 271.944H161.544C161.689 272.032 161.816 272.148 161.916 272.286C162.016 272.423 162.088 272.579 162.128 272.744L162.752 274.848L162.944 275.36C163.2 276.224 164.608 276.224 165.392 275.776L202.992 254.128C203.124 254.034 203.276 253.973 203.436 253.95C203.596 253.926 203.759 253.941 203.912 253.992H203.976C204.121 254.099 204.234 254.243 204.303 254.41C204.372 254.576 204.394 254.758 204.368 254.936Z" fill="black"/>
<path opacity="0.35" d="M141.984 335.848H141.929L139.744 334.584C139.61 334.478 139.504 334.339 139.437 334.181C139.37 334.023 139.344 333.851 139.36 333.68V283.2C139.378 282.708 139.521 282.229 139.776 281.808L141.888 283.04C141.636 283.459 141.495 283.935 141.48 284.424V335.04C141.467 335.211 141.508 335.382 141.599 335.527C141.69 335.673 141.825 335.785 141.984 335.848Z" fill="black"/>
<path d="M211.201 258.904C211.217 258.734 211.19 258.562 211.122 258.405C211.053 258.248 210.945 258.111 210.809 258.008C210.781 257.983 210.748 257.964 210.713 257.952L208.641 256.8C208.481 256.728 208.305 256.7 208.131 256.718C207.956 256.737 207.79 256.801 207.649 256.904L169.56 278.856L168.936 276.752C168.85 276.419 168.638 276.132 168.344 275.952L166.224 274.72C166.025 274.609 165.799 274.554 165.571 274.561C165.343 274.568 165.121 274.637 164.928 274.76L147.568 284.776C147.161 285.042 146.821 285.4 146.577 285.821C146.332 286.242 146.19 286.714 146.16 287.2V337.6C146.143 337.77 146.17 337.941 146.237 338.098C146.304 338.254 146.41 338.392 146.544 338.496L148.728 339.76C148.885 339.824 149.055 339.847 149.223 339.828C149.391 339.808 149.551 339.746 149.688 339.648L209.785 304.968C210.194 304.7 210.535 304.34 210.78 303.916C211.024 303.492 211.166 303.017 211.193 302.528L211.201 258.904Z" fill="#0EA5C6"/>
<path opacity="0.15" d="M168.304 275.904C168.106 275.803 167.886 275.755 167.665 275.765C167.443 275.775 167.228 275.842 167.04 275.96L149.688 285.984C149.272 286.248 148.929 286.611 148.688 287.04L146.576 285.808C146.809 285.376 147.151 285.012 147.568 284.752L164.928 274.728C165.123 274.613 165.345 274.552 165.572 274.552C165.799 274.552 166.021 274.613 166.216 274.728L168.304 275.904Z" fill="white"/>
<path opacity="0.15" d="M210.68 257.952C210.525 257.902 210.361 257.889 210.2 257.912C210.039 257.936 209.886 257.996 209.752 258.088L172.152 279.736C171.352 280.192 169.968 280.192 169.704 279.32L169.52 278.808L207.608 256.856C207.796 256.74 208.011 256.674 208.232 256.664C208.361 256.662 208.488 256.695 208.6 256.76L210.68 257.952Z" fill="white"/>
<path d="M211.2 258.904V302.552C211.174 303.043 211.032 303.521 210.786 303.946C210.54 304.372 210.196 304.733 209.784 305L149.52 339.768C149.395 339.853 149.25 339.901 149.099 339.906C148.949 339.912 148.8 339.875 148.67 339.8C148.54 339.724 148.433 339.614 148.363 339.481C148.292 339.348 148.261 339.198 148.272 339.048V288.424C148.29 287.935 148.433 287.458 148.688 287.04C148.928 286.613 149.268 286.25 149.68 285.984L167.04 276C167.226 275.879 167.441 275.81 167.663 275.799C167.885 275.787 168.106 275.835 168.304 275.936H168.344C168.636 276.116 168.846 276.403 168.928 276.736L169.56 278.832L169.744 279.352C170.008 280.216 171.408 280.216 172.192 279.768L209.792 258.112C209.924 258.021 210.076 257.961 210.236 257.937C210.395 257.914 210.558 257.927 210.712 257.976H210.776C210.921 258.08 211.037 258.221 211.111 258.384C211.186 258.546 211.216 258.726 211.2 258.904Z" fill="#0EA5C6"/>
<path opacity="0.2" d="M148.8 339.808C148.8 339.808 148.752 339.808 148.736 339.808L146.552 338.544C146.418 338.439 146.312 338.302 146.245 338.146C146.178 337.989 146.151 337.818 146.168 337.648V287.2C146.185 286.711 146.328 286.234 146.584 285.816L148.696 287.048C148.443 287.47 148.303 287.949 148.288 288.44V339.04C148.284 339.205 148.331 339.368 148.422 339.505C148.514 339.643 148.646 339.749 148.8 339.808Z" fill="black"/>
<path d="M217.969 262.864C217.983 262.695 217.956 262.524 217.889 262.368C217.822 262.212 217.717 262.074 217.585 261.968L217.481 261.912L215.441 260.72C215.281 260.648 215.105 260.62 214.931 260.638C214.756 260.657 214.59 260.721 214.449 260.824L176.36 282.768L175.736 280.672C175.646 280.341 175.435 280.056 175.144 279.872L173.024 278.64C172.829 278.522 172.605 278.46 172.376 278.46C172.148 278.46 171.924 278.522 171.728 278.64L154.4 288.712C153.978 288.981 153.627 289.347 153.377 289.78C153.126 290.213 152.983 290.7 152.96 291.2V341.6C152.943 341.768 152.97 341.939 153.037 342.094C153.104 342.249 153.21 342.385 153.344 342.488L155.528 343.76C155.686 343.822 155.856 343.844 156.024 343.823C156.192 343.802 156.351 343.739 156.488 343.64L216.585 308.968C216.995 308.699 217.337 308.338 217.581 307.912C217.826 307.487 217.967 307.01 217.993 306.52L217.969 262.864Z" fill="#0EA5C6"/>
<path opacity="0.3" d="M175.104 279.872C174.908 279.767 174.687 279.717 174.464 279.727C174.242 279.737 174.026 279.806 173.84 279.928L156.488 289.944C156.076 290.212 155.733 290.574 155.488 291L153.376 289.768C153.614 289.337 153.958 288.973 154.376 288.712L171.728 278.696C171.922 278.579 172.145 278.517 172.372 278.517C172.599 278.517 172.821 278.579 173.016 278.696L175.104 279.872Z" fill="white"/>
<path opacity="0.3" d="M217.48 261.912C217.325 261.862 217.161 261.849 217 261.872C216.84 261.896 216.686 261.956 216.552 262.048L178.952 283.704C178.152 284.152 176.768 284.152 176.504 283.288L176.32 282.768L214.44 260.8C214.629 260.686 214.844 260.623 215.064 260.616C215.192 260.616 215.318 260.646 215.432 260.704L217.48 261.912Z" fill="white"/>
<path d="M217.968 262.864V306.52C217.941 307.01 217.799 307.486 217.553 307.91C217.307 308.334 216.964 308.694 216.552 308.96L156.32 343.728C156.195 343.813 156.05 343.861 155.899 343.866C155.749 343.872 155.6 343.835 155.47 343.76C155.339 343.685 155.233 343.574 155.163 343.441C155.092 343.308 155.061 343.158 155.072 343.008V292.392C155.09 291.9 155.233 291.421 155.488 291C155.73 290.577 156.07 290.217 156.48 289.952L173.84 279.928C174.029 279.81 174.246 279.743 174.468 279.733C174.691 279.723 174.913 279.771 175.112 279.872C175.257 279.96 175.383 280.076 175.484 280.214C175.584 280.351 175.656 280.507 175.696 280.672L176.328 282.776L176.512 283.288C176.776 284.152 178.176 284.152 178.96 283.704L216.56 262.056C216.693 261.962 216.846 261.901 217.008 261.877C217.169 261.854 217.333 261.868 217.488 261.92H217.544C217.693 262.024 217.811 262.167 217.886 262.333C217.961 262.5 217.989 262.683 217.968 262.864Z" fill="#0EA5C6"/>
<path opacity="0.15" d="M217.968 262.864V306.52C217.941 307.01 217.799 307.486 217.553 307.91C217.307 308.334 216.964 308.694 216.552 308.96L156.32 343.728C156.195 343.813 156.05 343.861 155.899 343.866C155.749 343.872 155.6 343.835 155.47 343.76C155.339 343.685 155.233 343.574 155.163 343.441C155.092 343.308 155.061 343.158 155.072 343.008V292.392C155.09 291.9 155.233 291.421 155.488 291C155.73 290.577 156.07 290.217 156.48 289.952L173.84 279.928C174.029 279.81 174.246 279.743 174.468 279.733C174.691 279.723 174.913 279.771 175.112 279.872C175.257 279.96 175.383 280.076 175.484 280.214C175.584 280.351 175.656 280.507 175.696 280.672L176.328 282.776L176.512 283.288C176.776 284.152 178.176 284.152 178.96 283.704L216.56 262.056C216.693 261.962 216.846 261.901 217.008 261.877C217.169 261.854 217.333 261.868 217.488 261.92H217.544C217.693 262.024 217.811 262.167 217.886 262.333C217.961 262.5 217.989 262.683 217.968 262.864Z" fill="white"/>
<path opacity="0.05" d="M155.592 343.776H155.528L153.344 342.512C153.21 342.406 153.104 342.267 153.037 342.109C152.97 341.951 152.943 341.779 152.96 341.608V291.2C152.978 290.708 153.121 290.229 153.376 289.808L155.488 291.04C155.234 291.458 155.094 291.935 155.08 292.424V343.04C155.082 343.2 155.132 343.355 155.223 343.487C155.315 343.618 155.443 343.719 155.592 343.776Z" fill="black"/>
<path d="M224.8 266.832C224.816 266.662 224.79 266.492 224.722 266.335C224.655 266.178 224.55 266.041 224.416 265.936C224.384 265.913 224.349 265.894 224.312 265.88L222.272 264.688C222.112 264.616 221.936 264.588 221.762 264.606C221.588 264.625 221.421 264.689 221.28 264.792L183.192 286.744L182.568 284.64C182.482 284.307 182.27 284.02 181.976 283.84L179.856 282.608C179.657 282.497 179.431 282.442 179.202 282.449C178.974 282.456 178.752 282.525 178.56 282.648L161.208 292.664C160.801 292.926 160.461 293.279 160.216 293.696C159.97 294.113 159.825 294.581 159.792 295.064V345.464C159.775 345.634 159.801 345.805 159.868 345.961C159.936 346.118 160.041 346.255 160.176 346.36L162.36 347.624C162.517 347.687 162.687 347.709 162.854 347.689C163.022 347.67 163.182 347.609 163.32 347.512L223.416 312.832C223.82 312.568 224.158 312.214 224.402 311.798C224.647 311.381 224.791 310.914 224.824 310.432L224.8 266.832Z" fill="#0EA5C6"/>
<path opacity="0.5" d="M181.912 283.832C181.714 283.731 181.494 283.683 181.272 283.693C181.051 283.703 180.836 283.77 180.648 283.888L163.288 293.912C162.872 294.176 162.528 294.539 162.288 294.968L160.176 293.736C160.409 293.301 160.755 292.937 161.176 292.68L178.528 282.656C178.724 282.541 178.948 282.48 179.176 282.48C179.404 282.48 179.627 282.541 179.824 282.656L181.912 283.832Z" fill="white"/>
<path opacity="0.5" d="M224.28 265.88C224.125 265.83 223.961 265.817 223.8 265.84C223.639 265.864 223.486 265.924 223.352 266.016L185.752 287.664C184.952 288.112 183.568 288.12 183.304 287.248L183.12 286.736L221.24 264.8C221.428 264.684 221.643 264.618 221.864 264.608C221.993 264.606 222.121 264.639 222.232 264.704L224.28 265.88Z" fill="white"/>
<path d="M224.8 266.832V310.48C224.774 310.971 224.633 311.449 224.386 311.874C224.14 312.3 223.797 312.661 223.384 312.928L163.136 347.696C163.011 347.781 162.865 347.829 162.714 347.835C162.562 347.84 162.413 347.802 162.282 347.726C162.152 347.65 162.045 347.538 161.976 347.404C161.906 347.27 161.876 347.119 161.888 346.968V296.352C161.903 295.863 162.043 295.387 162.296 294.968C162.539 294.54 162.882 294.178 163.296 293.912L180.648 283.896C180.836 283.775 181.053 283.706 181.276 283.695C181.499 283.683 181.721 283.731 181.92 283.832C182.213 284.013 182.425 284.3 182.512 284.632L183.136 286.728L183.32 287.248C183.584 288.112 184.984 288.112 185.768 287.664L223.368 266.008C223.502 265.916 223.656 265.856 223.816 265.832C223.977 265.809 224.141 265.822 224.296 265.872H224.352C224.507 265.976 224.631 266.12 224.71 266.29C224.789 266.459 224.82 266.646 224.8 266.832Z" fill="#0EA5C6"/>
<path opacity="0.3" d="M224.8 266.832V310.48C224.774 310.971 224.633 311.449 224.386 311.874C224.14 312.3 223.797 312.661 223.384 312.928L163.136 347.696C163.011 347.781 162.865 347.829 162.714 347.835C162.562 347.84 162.413 347.802 162.282 347.726C162.152 347.65 162.045 347.538 161.976 347.404C161.906 347.27 161.876 347.119 161.888 346.968V296.352C161.903 295.863 162.043 295.387 162.296 294.968C162.539 294.54 162.882 294.178 163.296 293.912L180.648 283.896C180.836 283.775 181.053 283.706 181.276 283.695C181.499 283.683 181.721 283.731 181.92 283.832C182.213 284.013 182.425 284.3 182.512 284.632L183.136 286.728L183.32 287.248C183.584 288.112 184.984 288.112 185.768 287.664L223.368 266.008C223.502 265.916 223.656 265.856 223.816 265.832C223.977 265.809 224.141 265.822 224.296 265.872H224.352C224.507 265.976 224.631 266.12 224.71 266.29C224.789 266.459 224.82 266.646 224.8 266.832Z" fill="white"/>
<path d="M163.984 311.584L126.176 289.776V331.488L163.976 353.304L163.984 311.584Z" fill="#37474F"/>
<path d="M128.824 288.248L126.176 289.768L163.984 311.584L166.624 310.064L128.824 288.248Z" fill="#455A64"/>
<path d="M165.232 309.504L244.624 263.664V311.016L165.232 356.848V309.504Z" fill="#455A64"/>
<path d="M165.232 309.504L161.224 307.184V354.536L165.232 356.848V309.504Z" fill="#263238"/>
<path d="M161.224 307.184L240.616 261.344L244.624 263.664L165.232 309.504L161.224 307.184Z" fill="#37474F"/>
<path d="M218.784 290.784L215.992 289.184C215.859 289.117 215.71 289.088 215.562 289.1C215.413 289.113 215.272 289.167 215.152 289.256C214.81 289.477 214.525 289.777 214.322 290.131C214.119 290.484 214.003 290.881 213.984 291.288C213.958 291.44 213.977 291.597 214.038 291.739C214.099 291.881 214.2 292.002 214.328 292.088L217.128 293.688C217.52 293.912 217.624 294.112 217.632 294.144C217.64 294.176 217.488 294.496 216.904 294.832L203.888 302.352C203.072 302.772 202.172 303.002 201.255 303.024C200.338 303.046 199.427 302.86 198.592 302.48L195.808 300.88C195.679 300.823 195.537 300.801 195.396 300.816C195.256 300.832 195.122 300.884 195.008 300.968C194.667 301.191 194.383 301.491 194.179 301.844C193.974 302.197 193.856 302.593 193.832 303C193.815 303.144 193.837 303.29 193.896 303.423C193.955 303.555 194.049 303.669 194.168 303.752L196.96 305.352C198.222 306.024 199.635 306.36 201.064 306.328C202.635 306.35 204.186 305.97 205.568 305.224L218.592 297.704C219.274 297.379 219.856 296.878 220.278 296.252C220.7 295.626 220.947 294.898 220.992 294.144C220.963 293.437 220.742 292.75 220.353 292.159C219.964 291.567 219.422 291.092 218.784 290.784Z" fill="#263238"/>
<path d="M170.584 310.056L185.696 301.328C186.2 301.04 186.6 301.272 186.6 301.848V309.536C186.584 309.849 186.494 310.154 186.336 310.425C186.179 310.696 185.96 310.926 185.696 311.096L170.584 319.824C170.088 320.112 169.68 319.88 169.68 319.304V311.616C169.698 311.303 169.789 310.999 169.946 310.728C170.103 310.457 170.322 310.227 170.584 310.056Z" fill="#FAFAFA"/>
<path d="M170.64 318.688V311.616C170.657 311.471 170.703 311.331 170.776 311.204C170.849 311.077 170.947 310.967 171.064 310.88L185.648 302.464V309.536C185.63 309.681 185.583 309.82 185.51 309.947C185.438 310.073 185.34 310.184 185.224 310.272L170.64 318.688ZM185.472 302.76L171.152 311.032C170.968 311.176 170.845 311.385 170.808 311.616V318.4L185.136 310.128C185.319 309.983 185.439 309.774 185.472 309.544V302.76Z" fill="#0EA5C6"/>
<path d="M172.504 313.248C172.443 313.248 172.382 313.232 172.329 313.201C172.276 313.17 172.231 313.125 172.2 313.072C172.178 313.033 172.163 312.989 172.157 312.944C172.151 312.899 172.154 312.853 172.166 312.809C172.178 312.765 172.198 312.724 172.226 312.688C172.254 312.652 172.289 312.622 172.328 312.6L183.608 306.088C183.688 306.042 183.782 306.03 183.871 306.054C183.959 306.078 184.035 306.136 184.08 306.216C184.126 306.296 184.138 306.39 184.114 306.479C184.09 306.567 184.032 306.642 183.952 306.688L172.672 313.2C172.622 313.232 172.564 313.248 172.504 313.248Z" fill="#E0E0E0"/>
<path d="M172.504 315.112C172.443 315.114 172.383 315.099 172.33 315.069C172.276 315.04 172.232 314.996 172.2 314.944C172.154 314.863 172.141 314.768 172.165 314.678C172.189 314.588 172.248 314.511 172.328 314.464L183.608 307.952C183.688 307.906 183.782 307.894 183.871 307.918C183.959 307.942 184.035 308 184.08 308.08C184.126 308.16 184.138 308.254 184.114 308.343C184.09 308.431 184.032 308.506 183.952 308.552L172.672 315.064C172.622 315.096 172.564 315.112 172.504 315.112Z" fill="#E0E0E0"/>
<path d="M128.568 229.72L207.968 183.88L207.96 231.232L128.568 277.072V229.72Z" fill="#455A64"/>
<path d="M128.568 229.72L124.56 227.408V274.76L128.568 277.072V229.72Z" fill="#263238"/>
<path d="M124.56 227.408L203.952 181.568L207.968 183.88L128.568 229.72L124.56 227.408Z" fill="#37474F"/>
<path d="M124.56 227.408L134.4 221.544L144.272 215.728C150.856 211.848 157.48 208.04 164.08 204.192L184 192.8C190.648 189.032 197.28 185.24 204 181.528L208 183.928L203.92 181.6H204C197.448 185.528 190.848 189.376 184.264 193.248L164.432 204.8C157.8 208.592 151.192 212.424 144.536 216.184L134.568 221.832L124.56 227.408Z" fill="#263238"/>
<path d="M182.128 211.008L179.336 209.408C179.202 209.339 179.052 209.309 178.902 209.322C178.752 209.335 178.609 209.389 178.488 209.48C178.147 209.701 177.864 210 177.661 210.351C177.458 210.703 177.341 211.098 177.32 211.504C177.295 211.657 177.315 211.814 177.377 211.956C177.44 212.098 177.542 212.219 177.672 212.304L180.472 213.904C180.864 214.128 180.968 214.32 180.976 214.36C180.984 214.4 180.832 214.712 180.248 215.048L167.2 222.536C166.386 222.959 165.486 223.191 164.568 223.215C163.65 223.238 162.739 223.053 161.904 222.672L159.112 221.072C158.983 221.015 158.841 220.993 158.7 221.008C158.56 221.024 158.426 221.076 158.312 221.16C157.97 221.381 157.685 221.681 157.482 222.035C157.279 222.388 157.163 222.785 157.144 223.192C157.127 223.334 157.149 223.478 157.207 223.609C157.264 223.74 157.356 223.853 157.472 223.936L160.256 225.536C161.52 226.21 162.936 226.549 164.368 226.52C165.94 226.543 167.491 226.16 168.872 225.408L181.888 217.896C182.568 217.569 183.149 217.067 183.571 216.442C183.993 215.816 184.241 215.089 184.288 214.336C184.258 213.639 184.041 212.963 183.661 212.378C183.282 211.793 182.752 211.32 182.128 211.008Z" fill="#263238"/>
<path d="M133.92 230.28L149.04 221.552C149.536 221.264 149.944 221.496 149.944 222.072V229.76C149.926 230.073 149.834 230.377 149.677 230.648C149.52 230.919 149.302 231.149 149.04 231.32L133.92 240.048C133.424 240.336 133.024 240.104 133.024 239.528V231.84C133.04 231.528 133.13 231.224 133.286 230.953C133.441 230.682 133.658 230.451 133.92 230.28Z" fill="#FAFAFA"/>
<path d="M133.976 238.912V231.84C133.994 231.695 134.041 231.556 134.114 231.429C134.186 231.303 134.284 231.192 134.4 231.104L148.984 222.68V229.76C148.966 229.905 148.919 230.044 148.846 230.171C148.773 230.297 148.676 230.408 148.56 230.496L133.976 238.912ZM148.8 222.984L134.472 231.256C134.289 231.401 134.169 231.61 134.136 231.84V238.616L148.456 230.344C148.64 230.2 148.763 229.991 148.8 229.76V222.984Z" fill="#0EA5C6"/>
<path d="M135.839 233.464C135.779 233.465 135.719 233.449 135.665 233.42C135.612 233.391 135.567 233.348 135.535 233.296C135.493 233.214 135.483 233.12 135.506 233.031C135.53 232.942 135.586 232.865 135.663 232.816L146.943 226.304C147.023 226.264 147.116 226.257 147.201 226.282C147.287 226.308 147.36 226.366 147.404 226.443C147.449 226.52 147.463 226.612 147.443 226.699C147.422 226.786 147.37 226.862 147.295 226.912L135.999 233.424C135.95 233.45 135.895 233.463 135.839 233.464Z" fill="#E0E0E0"/>
<path d="M135.839 235.336C135.761 235.34 135.684 235.317 135.621 235.27C135.558 235.224 135.512 235.158 135.492 235.083C135.471 235.007 135.477 234.927 135.508 234.855C135.54 234.784 135.594 234.725 135.663 234.688L146.943 228.176C147.024 228.13 147.12 228.117 147.21 228.141C147.3 228.165 147.377 228.224 147.423 228.304C147.467 228.384 147.479 228.478 147.455 228.566C147.431 228.654 147.374 228.729 147.295 228.776L135.999 235.288C135.95 235.316 135.896 235.333 135.839 235.336Z" fill="#E0E0E0"/>
<path d="M128.568 169.136L207.968 123.296L207.96 170.648L128.568 216.488V169.136Z" fill="#455A64"/>
<path d="M128.568 169.136L124.56 166.824V214.176L128.568 216.488V169.136Z" fill="#263238"/>
<path d="M124.56 166.824L203.952 120.984L207.968 123.296L128.568 169.136L124.56 166.824Z" fill="#37474F"/>
<path d="M124.56 166.824L134.4 160.96L144.272 155.144C150.856 151.264 157.48 147.456 164.08 143.608L184 132.192C190.648 128.424 197.28 124.632 204 120.92L208 123.32L203.952 121.072H204C197.448 125.008 190.848 128.848 184.264 132.728L164.44 144.224C157.808 148.016 151.2 151.848 144.544 155.608L134.576 161.256L124.56 166.824Z" fill="#263238"/>
<path d="M182.128 150.4L179.336 148.8C179.202 148.731 179.052 148.701 178.902 148.714C178.752 148.727 178.609 148.782 178.488 148.872C178.147 149.093 177.864 149.392 177.661 149.744C177.458 150.095 177.341 150.49 177.32 150.896C177.295 151.049 177.315 151.206 177.377 151.348C177.44 151.49 177.542 151.611 177.672 151.696L180.472 153.296C180.864 153.52 180.968 153.712 180.976 153.752C180.984 153.792 180.832 154.104 180.248 154.44L167.2 161.952C166.386 162.375 165.486 162.607 164.568 162.631C163.65 162.654 162.739 162.469 161.904 162.088L159.112 160.488C158.983 160.431 158.841 160.409 158.7 160.424C158.56 160.44 158.426 160.492 158.312 160.576C157.97 160.797 157.685 161.097 157.482 161.451C157.279 161.804 157.163 162.201 157.144 162.608C157.127 162.75 157.149 162.894 157.207 163.025C157.264 163.156 157.356 163.269 157.472 163.352L160.256 164.952C161.52 165.626 162.936 165.965 164.368 165.936C165.94 165.959 167.491 165.576 168.872 164.824L181.888 157.312C182.568 156.985 183.149 156.483 183.571 155.858C183.993 155.232 184.241 154.505 184.288 153.752C184.262 153.051 184.047 152.37 183.667 151.78C183.287 151.19 182.756 150.714 182.128 150.4Z" fill="#263238"/>
<path d="M133.92 169.376L149.04 160.648C149.536 160.36 149.944 160.592 149.944 161.168V168.856C149.932 169.176 149.844 169.488 149.686 169.766C149.529 170.044 149.307 170.281 149.04 170.456L133.92 179.184C133.424 179.472 133.024 179.24 133.024 178.664V170.976C133.034 170.657 133.121 170.345 133.277 170.067C133.433 169.788 133.653 169.551 133.92 169.376Z" fill="#FAFAFA"/>
<path d="M133.976 178.008V170.936C133.994 170.791 134.041 170.652 134.114 170.525C134.186 170.399 134.284 170.288 134.4 170.2L148.984 161.776V168.856C148.966 169.001 148.919 169.14 148.846 169.267C148.773 169.393 148.676 169.504 148.56 169.592L133.976 178.008ZM148.8 162.08L134.472 170.352C134.289 170.497 134.169 170.706 134.136 170.936V177.712L148.456 169.44C148.64 169.296 148.763 169.087 148.8 168.856V162.08Z" fill="#0EA5C6"/>
<path d="M135.84 172.568C135.779 172.567 135.718 172.55 135.665 172.52C135.612 172.489 135.567 172.445 135.536 172.392C135.494 172.312 135.484 172.218 135.508 172.131C135.531 172.043 135.587 171.968 135.664 171.92L146.944 165.4C146.984 165.373 147.029 165.355 147.076 165.346C147.124 165.338 147.172 165.339 147.219 165.35C147.266 165.361 147.31 165.381 147.349 165.41C147.388 165.438 147.42 165.475 147.444 165.516C147.468 165.558 147.484 165.604 147.489 165.652C147.495 165.7 147.49 165.748 147.477 165.794C147.463 165.84 147.44 165.883 147.408 165.92C147.377 165.957 147.339 165.987 147.296 166.008L136 172.52C135.951 172.548 135.896 172.565 135.84 172.568Z" fill="#E0E0E0"/>
<path d="M135.84 174.4C135.779 174.399 135.718 174.383 135.665 174.352C135.612 174.321 135.567 174.277 135.536 174.224C135.494 174.144 135.484 174.051 135.508 173.963C135.531 173.876 135.587 173.8 135.664 173.752L146.944 167.24C147.025 167.194 147.12 167.181 147.21 167.205C147.3 167.229 147.377 167.288 147.424 167.368C147.468 167.448 147.479 167.542 147.455 167.63C147.431 167.718 147.374 167.793 147.296 167.84L136 174.4C135.947 174.412 135.893 174.412 135.84 174.4Z" fill="#E0E0E0"/>
<path d="M125.464 148.896L156.496 130.992C156.992 130.704 157.392 130.944 157.392 131.512V142.456C157.382 142.775 157.295 143.087 157.139 143.365C156.983 143.644 156.763 143.881 156.496 144.056L125.464 161.92C124.96 162.208 124.56 161.976 124.56 161.4V150.456C124.576 150.143 124.666 149.838 124.824 149.567C124.981 149.296 125.2 149.066 125.464 148.896Z" fill="#FAFAFA"/>
<path d="M125.512 160.8V150.456C125.53 150.311 125.577 150.172 125.65 150.045C125.723 149.919 125.82 149.808 125.936 149.72L156.44 132.12V142.448C156.422 142.593 156.375 142.732 156.302 142.859C156.229 142.985 156.132 143.096 156.016 143.184L125.512 160.8ZM156.264 132.448L126.024 149.888C125.845 150.035 125.725 150.243 125.688 150.472V160.504L155.928 143.056C156.111 142.911 156.231 142.702 156.264 142.472V132.448Z" fill="#0EA5C6"/>
<path d="M129.8 153.016L130.984 149.16C130.984 149.112 131.032 149.048 131.072 148.952C131.111 148.865 131.175 148.793 131.256 148.744L131.68 148.496C131.697 148.482 131.719 148.475 131.74 148.475C131.762 148.475 131.783 148.482 131.8 148.496C131.835 148.539 131.852 148.593 131.848 148.648V154.864C131.848 154.939 131.831 155.012 131.8 155.08C131.776 155.139 131.734 155.189 131.68 155.224L131.176 155.512C131.16 155.527 131.139 155.536 131.116 155.536C131.094 155.536 131.073 155.527 131.056 155.512C131.038 155.491 131.025 155.467 131.017 155.441C131.008 155.415 131.005 155.387 131.008 155.36V151.6L130.208 154.232C130.188 154.305 130.158 154.375 130.12 154.44C130.095 154.512 130.044 154.572 129.976 154.608L129.656 154.792C129.592 154.829 129.544 154.829 129.512 154.792C129.474 154.766 129.444 154.73 129.424 154.688L128.624 152.992V156.752C128.624 156.827 128.607 156.9 128.576 156.968C128.552 157.027 128.51 157.077 128.456 157.112L127.952 157.4C127.936 157.415 127.915 157.424 127.892 157.424C127.87 157.424 127.849 157.415 127.832 157.4C127.814 157.379 127.801 157.355 127.792 157.329C127.784 157.303 127.781 157.275 127.784 157.248V151.032C127.785 150.96 127.801 150.889 127.832 150.824C127.855 150.764 127.897 150.713 127.952 150.68L128.376 150.432C128.464 150.384 128.52 150.384 128.56 150.432L128.648 150.536L129.8 153.016Z" fill="#455A64"/>
<path d="M136.144 145.92C136.161 145.905 136.182 145.896 136.204 145.896C136.227 145.896 136.248 145.905 136.264 145.92C136.285 145.939 136.301 145.963 136.311 145.989C136.321 146.016 136.324 146.044 136.32 146.072C136.324 146.104 136.324 146.136 136.32 146.168L134.84 151.032V153.152C134.839 153.224 134.823 153.295 134.792 153.36C134.77 153.42 134.728 153.471 134.672 153.504L134.168 153.792C134.153 153.807 134.133 153.815 134.112 153.815C134.091 153.815 134.071 153.807 134.056 153.792C134.036 153.773 134.02 153.749 134.01 153.723C134 153.696 133.997 153.668 134 153.64V151.52L132.52 148.368C132.516 148.341 132.516 148.314 132.52 148.288C132.52 148.216 132.536 148.145 132.568 148.08C132.593 148.019 132.634 147.966 132.688 147.928L133.152 147.664C133.24 147.616 133.304 147.608 133.344 147.664C133.377 147.692 133.402 147.728 133.416 147.768L134.432 149.904L135.44 146.6C135.458 146.533 135.485 146.468 135.52 146.408C135.557 146.322 135.622 146.252 135.704 146.208L136.144 145.92Z" fill="#455A64"/>
<path d="M141.544 142.8C141.561 142.786 141.582 142.779 141.604 142.779C141.626 142.779 141.647 142.786 141.664 142.8C141.699 142.843 141.716 142.897 141.712 142.952V143.64C141.711 143.712 141.695 143.783 141.664 143.848C141.642 143.908 141.599 143.959 141.544 143.992L139.552 145.144V147.016L141.424 145.936C141.44 145.921 141.462 145.912 141.484 145.912C141.506 145.912 141.528 145.921 141.544 145.936C141.562 145.957 141.575 145.981 141.584 146.007C141.592 146.033 141.595 146.061 141.592 146.088V146.768C141.591 146.843 141.575 146.916 141.544 146.984C141.517 147.041 141.475 147.091 141.424 147.128L139.552 148.208V150.4C139.551 150.475 139.535 150.548 139.504 150.616C139.482 150.676 139.439 150.727 139.384 150.76L138.88 151.048C138.864 151.063 138.842 151.072 138.82 151.072C138.798 151.072 138.776 151.063 138.76 151.048C138.742 151.027 138.728 151.003 138.72 150.977C138.712 150.951 138.709 150.923 138.712 150.896V144.68C138.713 144.608 138.73 144.537 138.76 144.472C138.782 144.412 138.825 144.361 138.88 144.328L141.544 142.8Z" fill="#455A64"/>
<path d="M142.608 148.92C142.592 148.935 142.57 148.944 142.548 148.944C142.526 148.944 142.504 148.935 142.488 148.92C142.47 148.899 142.457 148.875 142.448 148.849C142.44 148.823 142.437 148.795 142.44 148.768V142.552C142.441 142.48 142.457 142.409 142.488 142.344C142.51 142.284 142.553 142.233 142.608 142.2L143.112 141.904C143.129 141.89 143.15 141.883 143.172 141.883C143.194 141.883 143.215 141.89 143.232 141.904C143.25 141.925 143.264 141.949 143.272 141.975C143.28 142.001 143.283 142.029 143.28 142.056V148.272C143.28 148.344 143.264 148.415 143.232 148.48C143.208 148.541 143.166 148.594 143.112 148.632L142.608 148.92Z" fill="#455A64"/>
<path d="M147.2 145.088C147.217 145.074 147.238 145.067 147.26 145.067C147.282 145.067 147.303 145.074 147.32 145.088C147.358 145.129 147.378 145.184 147.376 145.24V145.928C147.374 146.001 147.355 146.072 147.32 146.136C147.296 146.197 147.254 146.25 147.2 146.288L144.464 147.888C144.447 147.902 144.426 147.909 144.404 147.909C144.382 147.909 144.361 147.902 144.344 147.888C144.326 147.867 144.313 147.843 144.304 147.817C144.296 147.791 144.293 147.763 144.296 147.736V141.52C144.297 141.445 144.313 141.372 144.344 141.304C144.376 141.25 144.416 141.201 144.464 141.16L144.976 140.872C144.992 140.857 145.014 140.848 145.036 140.848C145.058 140.848 145.08 140.857 145.096 140.872C145.114 140.893 145.128 140.917 145.136 140.943C145.144 140.969 145.147 140.997 145.144 141.024V146.296L147.2 145.088Z" fill="#455A64"/>
<path d="M150.839 142.968C150.856 142.953 150.877 142.944 150.899 142.944C150.922 142.944 150.943 142.953 150.959 142.968C150.977 142.989 150.991 143.013 150.999 143.039C151.007 143.065 151.01 143.093 151.007 143.12V143.8C151.007 143.875 150.99 143.948 150.959 144.016C150.937 144.076 150.895 144.127 150.839 144.16L148.103 145.76C148.086 145.774 148.065 145.781 148.043 145.781C148.022 145.781 148 145.774 147.983 145.76C147.946 145.719 147.926 145.664 147.927 145.608V139.392C147.939 139.324 147.963 139.259 147.999 139.2C148.026 139.142 148.067 139.093 148.119 139.056L150.807 137.504C150.824 137.49 150.846 137.483 150.867 137.483C150.889 137.483 150.91 137.49 150.927 137.504C150.945 137.525 150.959 137.549 150.967 137.575C150.975 137.601 150.978 137.629 150.975 137.656V138.336C150.975 138.411 150.958 138.484 150.927 138.552C150.905 138.612 150.863 138.663 150.807 138.696L148.799 139.832V141.36L150.679 140.272C150.696 140.258 150.718 140.251 150.739 140.251C150.761 140.251 150.782 140.258 150.799 140.272C150.834 140.315 150.851 140.369 150.847 140.424V141.112C150.848 141.184 150.831 141.255 150.799 141.32C150.775 141.381 150.733 141.434 150.679 141.472L148.799 142.56V144.16L150.839 142.968Z" fill="#455A64"/>
<path d="M153.288 135.928C153.509 135.785 153.761 135.698 154.024 135.672C154.208 135.66 154.393 135.705 154.552 135.8C154.693 135.894 154.804 136.028 154.872 136.184C154.949 136.35 154.993 136.529 155 136.712C155 136.784 154.983 136.855 154.952 136.92C154.927 136.979 154.885 137.029 154.832 137.064L154.392 137.32C154.32 137.32 154.272 137.368 154.232 137.32C154.19 137.292 154.157 137.253 154.136 137.208C154.078 137.092 153.978 137.003 153.856 136.96C153.756 136.943 153.654 136.948 153.556 136.972C153.459 136.997 153.367 137.042 153.288 137.104C153.175 137.17 153.071 137.247 152.976 137.336C152.879 137.428 152.794 137.53 152.72 137.64C152.649 137.747 152.593 137.863 152.552 137.984C152.507 138.099 152.485 138.221 152.488 138.344C152.479 138.456 152.498 138.569 152.544 138.672C152.565 138.707 152.594 138.737 152.629 138.759C152.663 138.781 152.703 138.795 152.744 138.8C152.868 138.817 152.995 138.817 153.12 138.8L153.696 138.672C153.905 138.618 154.12 138.591 154.336 138.592C154.498 138.591 154.656 138.644 154.784 138.744C154.906 138.846 154.995 138.983 155.04 139.136C155.099 139.349 155.126 139.571 155.12 139.792C155.118 140.087 155.078 140.38 155 140.664C154.916 140.958 154.795 141.241 154.64 141.504C154.482 141.777 154.291 142.029 154.072 142.256C153.848 142.484 153.595 142.68 153.32 142.84C153.114 142.967 152.886 143.054 152.648 143.096C152.458 143.138 152.26 143.121 152.08 143.048C151.912 142.976 151.773 142.849 151.688 142.688C151.576 142.482 151.518 142.251 151.52 142.016C151.512 141.941 151.529 141.865 151.568 141.8C151.594 141.742 151.636 141.693 151.688 141.656L152.128 141.408C152.15 141.39 152.175 141.377 152.203 141.37C152.231 141.363 152.26 141.362 152.288 141.368C152.331 141.397 152.365 141.439 152.384 141.488C152.412 141.555 152.447 141.62 152.488 141.68C152.529 141.737 152.588 141.779 152.656 141.8C152.742 141.821 152.833 141.821 152.92 141.8C153.061 141.765 153.196 141.709 153.32 141.632C153.445 141.558 153.565 141.475 153.68 141.384C153.795 141.289 153.897 141.178 153.984 141.056C154.071 140.943 154.143 140.819 154.2 140.688C154.254 140.556 154.281 140.415 154.28 140.272C154.29 140.166 154.259 140.059 154.192 139.976C154.156 139.944 154.114 139.921 154.068 139.907C154.023 139.893 153.975 139.889 153.928 139.896C153.779 139.909 153.632 139.933 153.488 139.968C153.312 139.968 153.112 140.056 152.88 140.096C152.699 140.122 152.516 140.122 152.336 140.096C152.19 140.086 152.051 140.027 151.944 139.928C151.83 139.817 151.752 139.675 151.72 139.52C151.658 139.291 151.631 139.053 151.64 138.816C151.643 138.521 151.686 138.228 151.768 137.944C151.855 137.667 151.971 137.399 152.112 137.144C152.257 136.89 152.431 136.653 152.632 136.44C152.824 136.239 153.045 136.066 153.288 135.928Z" fill="#455A64"/>
<path opacity="0.15" d="M152.543 77.7361C147.223 80.8161 147.223 85.8001 152.543 88.8721C157.863 91.9441 166.503 91.9441 171.831 88.8721C177.159 85.8001 177.151 80.8161 171.831 77.7361C166.511 74.6561 157.871 74.6641 152.543 77.7361Z" fill="black"/>
<path d="M170.976 84.112C175.68 79.312 178.44 67.312 173.856 63.528H150.52C145.936 67.328 148.696 79.304 153.392 84.104L153.52 84.24L153.68 84.4C153.816 84.528 153.96 84.656 154.112 84.776L154.224 84.864C154.336 84.9584 154.454 85.0465 154.576 85.128C154.77 85.2716 154.973 85.4026 155.184 85.52C159.056 87.752 165.32 87.752 169.192 85.52C169.404 85.4008 169.61 85.27 169.808 85.128L170.136 84.88L170.272 84.768L170.68 84.408L170.872 84.224L170.976 84.112Z" fill="#EBEBEB"/>
<path d="M152.543 61.992C147.223 65.072 147.223 70.056 152.543 73.128C157.863 76.2 166.503 76.2 171.831 73.128C177.159 70.056 177.151 65.072 171.831 61.992C166.511 58.912 157.871 58.92 152.543 61.992Z" fill="#FAFAFA"/>
<path d="M156.32 64.176C153.08 66.048 153.08 69.08 156.32 70.944C158.138 71.8668 160.149 72.3476 162.188 72.3476C164.227 72.3476 166.237 71.8668 168.056 70.944C171.296 69.08 171.296 66.048 168.056 64.176C166.237 63.2533 164.227 62.7724 162.188 62.7724C160.149 62.7724 158.138 63.2533 156.32 64.176Z" fill="#EBEBEB"/>
<path d="M168.056 67.3921C166.238 66.4693 164.227 65.9885 162.188 65.9885C160.149 65.9885 158.138 66.4693 156.32 67.3921C155.543 67.8156 154.883 68.4259 154.4 69.1681C154.889 69.9104 155.554 70.5205 156.336 70.9441C158.154 71.8668 160.165 72.3476 162.204 72.3476C164.243 72.3476 166.254 71.8668 168.072 70.9441C168.854 70.5205 169.519 69.9104 170.008 69.1681C169.516 68.422 168.845 67.8113 168.056 67.3921Z" fill="#E0E0E0"/>
<path d="M161.328 70.1921C160.012 70.0639 158.738 69.66 157.588 69.0067C156.439 68.3533 155.44 67.4652 154.656 66.4001C153.977 65.4831 153.357 64.5239 152.8 63.5281C150.84 60.0641 150.48 55.4161 151.496 54.8481C152.512 54.2801 156.632 58.9041 156.632 58.9041C156.254 56.9575 156.106 54.9732 156.192 52.9921C156.368 49.9041 157.12 47.096 158.008 46.536C158.896 45.976 160.864 49.8641 161.712 52.6801C162.56 55.4961 163.072 57.8241 163.072 57.8241C163.411 55.6229 163.919 53.4511 164.592 51.3281C165.616 48.4001 166.552 47.7361 167.272 48.0321C167.992 48.3281 168.472 49.6881 168.688 53.5841C168.763 55.4525 168.704 57.324 168.512 59.1841C168.512 59.1841 169.968 57.5841 171.576 56.0321C173.352 54.3361 174.112 54.0961 174.616 54.4321C175.12 54.7681 175.264 57.4081 172.52 62.3681C171.685 63.8779 170.724 65.3149 169.648 66.6641C168.685 67.8827 167.437 68.8457 166.014 69.4679C164.591 70.0902 163.037 70.3526 161.488 70.2321L161.328 70.1921Z" fill="#0EA5C6"/>
<path opacity="0.15" d="M161.328 70.1921C160.012 70.0639 158.738 69.66 157.588 69.0067C156.439 68.3533 155.44 67.4652 154.656 66.4001C153.977 65.4831 153.357 64.5239 152.8 63.5281C150.84 60.0641 150.48 55.4161 151.496 54.8481C152.512 54.2801 156.632 58.9041 156.632 58.9041C156.254 56.9575 156.106 54.9732 156.192 52.9921C156.368 49.9041 157.12 47.096 158.008 46.536C158.896 45.976 160.864 49.8641 161.712 52.6801C162.56 55.4961 163.072 57.8241 163.072 57.8241C163.411 55.6229 163.919 53.4511 164.592 51.3281C165.616 48.4001 166.552 47.7361 167.272 48.0321C167.992 48.3281 168.472 49.6881 168.688 53.5841C168.763 55.4525 168.704 57.324 168.512 59.1841C168.512 59.1841 169.968 57.5841 171.576 56.0321C173.352 54.3361 174.112 54.0961 174.616 54.4321C175.12 54.7681 175.264 57.4081 172.52 62.3681C171.685 63.8779 170.724 65.3149 169.648 66.6641C168.685 67.8827 167.437 68.8457 166.014 69.4679C164.591 70.0902 163.037 70.3526 161.488 70.2321L161.328 70.1921Z" fill="black"/>
<path opacity="0.15" d="M156.8 49.08C156.484 50.3627 156.291 51.6727 156.224 52.992C156.138 54.9732 156.285 56.9575 156.664 58.904L158.712 61.0321C158.712 61.0321 156.624 54.232 156.8 49.08Z" fill="black"/>
<path opacity="0.15" d="M173.6 54.44C172.852 54.8729 172.17 55.4118 171.576 56.04C169.976 57.592 168.512 59.192 168.512 59.192C168.429 60.178 168.274 61.1566 168.048 62.12C171.048 60.36 173.6 54.44 173.6 54.44Z" fill="black"/>
<path opacity="0.15" d="M164.208 55.576C164.53 53.135 165.145 50.7417 166.04 48.448C165.368 49.3012 164.869 50.2765 164.568 51.32C163.895 53.443 163.387 55.6148 163.048 57.816L163.592 60.464C163.592 60.464 163.808 58.128 164.208 55.576Z" fill="black"/>
<path opacity="0.15" d="M173.296 111.12C173.471 111.065 173.624 110.955 173.733 110.807C173.842 110.659 173.9 110.48 173.9 110.296C173.9 110.112 173.842 109.933 173.733 109.785C173.624 109.637 173.471 109.527 173.296 109.472L111.576 74.5439C111.125 74.3192 110.628 74.2022 110.124 74.2022C109.62 74.2022 109.123 74.3192 108.672 74.5439L52.6721 106.248L117.32 142.808L173.296 111.12Z" fill="black"/>
<path d="M168.104 111.424C168.252 111.359 168.38 111.256 168.476 111.125C168.571 110.994 168.63 110.841 168.648 110.68V109.528L113.384 78.2799C112.973 78.0786 112.521 77.9739 112.064 77.9739C111.606 77.9739 111.155 78.0786 110.744 78.2799L59.8877 107.08L117.264 140.208L168.104 111.424Z" fill="#0EA5C6"/>
<path d="M168.104 110.304C168.832 109.888 168.832 109.224 168.104 108.808L113.384 77.16C112.973 76.9586 112.521 76.854 112.064 76.854C111.606 76.854 111.155 76.9586 110.744 77.16L59.8877 105.96L117.264 139.088L168.104 110.304Z" fill="#0EA5C6"/>
<path opacity="0.5" d="M168.104 110.304C168.832 109.888 168.832 109.224 168.104 108.808L113.384 77.16C112.973 76.9586 112.521 76.854 112.064 76.854C111.606 76.854 111.155 76.9586 110.744 77.16L59.8877 105.96L117.264 139.088L168.104 110.304Z" fill="black"/>
<path d="M71.5915 98.4L109.247 77.096C109.656 76.8906 110.106 76.7836 110.563 76.7836C111.021 76.7836 111.471 76.8906 111.879 77.096L162.279 106.28L167.175 103.48V109.168L167.079 109.224C167.247 109.568 167.079 109.96 166.631 110.232L123.503 134.632L66.1035 101.536V95.32L71.5915 98.4Z" fill="#EBEBEB"/>
<path d="M166.608 104.056C166.759 103.998 166.89 103.896 166.982 103.762C167.074 103.629 167.124 103.47 167.124 103.308C167.124 103.146 167.074 102.987 166.982 102.854C166.89 102.72 166.759 102.618 166.608 102.56L111.88 70.912C111.47 70.7108 111.02 70.6062 110.564 70.6062C110.107 70.6062 109.657 70.7108 109.248 70.912L66.1035 95.32L123.48 128.448L166.608 104.056Z" fill="#FAFAFA"/>
<path d="M123.48 128.448V134.664L66.1035 101.536V95.328L123.48 128.448Z" fill="#E6E6E6"/>
<path d="M122.783 126.024C123.173 126.223 123.621 126.277 124.047 126.176C124.131 126.16 124.212 126.13 124.287 126.088C124.687 125.88 124.639 125.488 124.183 125.232C123.969 125.122 123.735 125.056 123.495 125.04C123.221 125.01 122.944 125.057 122.695 125.176C122.665 125.188 122.637 125.207 122.615 125.232C122.295 125.456 122.399 125.784 122.783 126.024Z" fill="#263238"/>
<path d="M116.135 130.888C116.102 131.659 116.34 132.418 116.807 133.032C117.036 133.311 117.324 133.535 117.651 133.687C117.978 133.84 118.335 133.916 118.695 133.912C119.34 133.896 119.969 133.711 120.519 133.376C120.632 133.318 120.741 133.254 120.847 133.184L120.103 132.768C118.311 133.752 116.903 132.912 116.903 130.888C116.97 129.773 117.3 128.691 117.866 127.728C118.432 126.766 119.218 125.952 120.159 125.352C120.51 125.093 120.93 124.944 121.365 124.923C121.801 124.901 122.233 125.009 122.607 125.232C122.936 125.464 123.173 125.804 123.279 126.192C123.542 126.26 123.817 126.26 124.079 126.192C123.988 125.775 123.799 125.385 123.527 125.056C123.298 124.781 123.01 124.56 122.685 124.411C122.36 124.261 122.005 124.187 121.647 124.192C120.998 124.209 120.364 124.394 119.807 124.728C118.744 125.382 117.855 126.285 117.215 127.357C116.576 128.43 116.205 129.641 116.135 130.888Z" fill="#455A64"/>
<path d="M118.024 125.016L168.648 100.8V101.6C168.636 101.825 168.57 102.045 168.456 102.24C168.341 102.434 168.182 102.599 167.992 102.72L118.024 126.176V125.016Z" fill="#0EA5C6"/>
<path d="M168.104 101.504C168.832 101.088 168.832 100.424 168.104 100.008L113.384 68.36C112.973 68.1586 112.521 68.054 112.064 68.054C111.606 68.054 111.155 68.1586 110.744 68.36L59.8877 92.304L117.264 125.432L168.104 101.504Z" fill="#0EA5C6"/>
<path opacity="0.4" d="M168.104 101.504C168.832 101.088 168.832 100.424 168.104 100.008L113.384 68.36C112.973 68.1586 112.521 68.054 112.064 68.054C111.606 68.054 111.155 68.1586 110.744 68.36L59.8877 92.304L117.264 125.432L168.104 101.504Z" fill="white"/>
<path d="M117.264 140.2L59.8877 107.072V92.2799L117.264 125.44V140.2Z" fill="#0EA5C6"/>
<path opacity="0.2" d="M117.264 140.2L59.8877 107.072V92.2799L117.264 125.44V140.2Z" fill="white"/>
<path d="M105.688 130.712C106.049 130.718 106.408 130.642 106.736 130.489C107.065 130.337 107.354 130.112 107.584 129.832C108.044 129.215 108.279 128.458 108.248 127.688C108.183 126.441 107.818 125.227 107.184 124.151C106.551 123.074 105.667 122.166 104.608 121.504C104.05 121.171 103.417 120.987 102.768 120.968C101.232 120.968 100.208 122.184 100.208 124C100.272 125.247 100.636 126.459 101.27 127.535C101.904 128.61 102.788 129.516 103.848 130.176C104.401 130.511 105.033 130.696 105.68 130.712H105.688Z" fill="#455A64"/>
<path d="M107.488 127.688C107.488 129.728 106.032 130.552 104.224 129.536C103.281 128.938 102.494 128.123 101.928 127.161C101.362 126.198 101.033 125.115 100.968 124C100.968 121.96 102.424 121.136 104.224 122.152C105.168 122.749 105.957 123.563 106.525 124.526C107.092 125.488 107.422 126.572 107.488 127.688Z" fill="#F5F5F5"/>
<path d="M95.6559 120.264V121.384C95.6559 123.624 94.0559 124.528 92.0719 123.408L67.9999 109.088C66.964 108.43 66.0989 107.536 65.4758 106.48C64.8528 105.423 64.4895 104.233 64.4159 103.008V101.888C64.4159 99.648 66.0159 98.744 67.9999 99.856L92.1119 114.184C93.1422 114.844 94.0008 115.74 94.617 116.797C95.2332 117.854 95.5893 119.042 95.6559 120.264Z" fill="#F5F5F5"/>
<path d="M118.048 139.76V125.064L117.264 125.44V140.2L118.048 139.76Z" fill="#0EA5C6"/>
<path d="M110.272 81.3679L88.9044 91.4319C88.3684 91.6799 88.3524 92.1199 88.8564 92.4159L114.4 107.2C114.69 107.347 115.007 107.43 115.332 107.444C115.656 107.457 115.98 107.402 116.28 107.28L137.648 97.2159C138.184 96.9679 138.2 96.5279 137.696 96.2319L112.144 81.4719C111.858 81.3224 111.542 81.2357 111.22 81.2178C110.897 81.1999 110.574 81.251 110.272 81.3679Z" fill="#FAFAFA"/>
<path d="M137.896 96.3599C138.192 96.6319 138.104 96.9839 137.656 97.1599L131.672 99.9999L124.472 95.1999C127.848 94.0079 128.888 94.2079 132.568 95.0639C134.072 95.4159 136 95.8719 137.896 96.3599Z" fill="#E6E6E6"/>
<path d="M132.64 97.4079C133.32 97.8559 133.928 98.2879 134.48 98.6879L116.288 107.256C115.988 107.383 115.664 107.443 115.338 107.433C115.012 107.424 114.692 107.344 114.4 107.2L112.344 106.016C111.336 104.952 110.544 103.736 110.896 102.52C110.896 102.52 114.776 99.6319 113.344 98.6879L119.784 95.8879C120.584 96.4159 123.112 95.3599 125.592 95.0159C127.896 94.6639 131.296 96.5039 132.64 97.4079Z" fill="#F5F5F5"/>
<path d="M114.584 92.2238C114.337 92.8034 113.932 93.3023 113.416 93.6638C112.88 94.0078 112.616 94.4638 112.112 94.8238C111.064 95.6238 112.912 96.9678 111.224 97.2238C109.624 96.6398 105.072 96.8798 101.536 94.9118C99.7442 93.9198 99.1362 92.5678 100.136 91.3038C99.1282 90.4318 99.5762 89.7998 99.7762 89.4638C100.312 88.6655 101.034 88.0093 101.88 87.5519C102.815 86.9705 103.804 86.4803 104.832 86.0879C106 85.6559 107.152 85.2879 107.688 84.4879C107.92 84.1599 108.432 84.3199 108.744 84.4879C108.969 84.6279 109.173 84.7974 109.352 84.9918C109.467 85.1362 109.571 85.2886 109.664 85.4478C109.841 85.245 109.93 84.9803 109.912 84.7119C109.912 84.4959 109.784 84.0159 110.232 84.0559C110.68 84.1331 111.098 84.3324 111.44 84.6319C111.787 84.9021 112.03 85.2835 112.128 85.7118C112.682 85.5134 113.287 85.5134 113.84 85.7118C114.163 85.7929 114.456 85.9612 114.689 86.1983C114.922 86.4354 115.085 86.7321 115.16 87.0558C115.145 87.2983 115.078 87.5348 114.965 87.7498C114.852 87.9648 114.695 88.1536 114.504 88.3038C114.41 88.4005 114.346 88.523 114.32 88.6558C114.32 88.8078 114.488 88.9998 114.552 89.1518C114.769 89.634 114.884 90.1558 114.89 90.6845C114.895 91.2132 114.791 91.7373 114.584 92.2238Z" fill="#37474F"/>
<path d="M104.048 90.4638C105.568 90.6638 109.864 92.7038 112.528 94.4638C112.401 94.5986 112.262 94.7218 112.112 94.8318C111.064 95.6318 113.008 97.0398 111.312 97.2318C109.712 96.6398 105.272 97.0718 101.712 95.1038C99.9202 94.1118 98.6882 92.4238 100.112 91.2478C101.368 90.7582 102.7 90.4928 104.048 90.4638Z" fill="#455A64"/>
<path d="M104.048 90.4638C105.912 91.1758 106.736 92.8158 105.92 93.5598C106.612 93.7932 107.257 94.1481 107.824 94.6078C107.972 94.7159 108.09 94.8588 108.168 95.0238C108.196 95.1032 108.196 95.1899 108.166 95.2688C108.137 95.3477 108.081 95.4139 108.008 95.4558C107.895 95.524 107.767 95.5651 107.636 95.5762C107.504 95.5873 107.371 95.568 107.248 95.5198C106.888 95.4398 106.504 95.3918 106.12 95.3358C105.953 95.3199 105.784 95.3199 105.616 95.3358C104.88 95.3358 103.32 95.7838 104.016 96.7758C104.712 97.7678 107.368 98.0958 108.584 97.7598C110.232 97.3118 109.824 96.2798 109.824 96.2798L113.824 99.0478C114.542 99.5171 115.369 99.7927 116.224 99.8478C118.544 100.08 121.56 99.6478 124.672 100.12C123.849 98.5405 122.495 97.3024 120.848 96.6238L118.728 95.1998C119.407 94.8952 120.058 94.5312 120.672 94.1118C121.856 93.1598 121.192 92.0238 120.2 91.1358C117.984 89.1598 112.008 86.1118 110.176 86.5438C109.56 86.8958 109.992 88.0958 109.376 88.5358C107.92 89.5998 105.136 89.1838 104.048 90.4638Z" fill="#FFA8A7"/>
<path d="M110.192 91.9999C110.349 92.0929 110.526 92.1479 110.708 92.1604C110.89 92.1729 111.072 92.1426 111.24 92.0719C111.56 91.9199 111.616 91.6559 111.36 91.4639C111.203 91.3704 111.026 91.3158 110.844 91.3046C110.662 91.2935 110.479 91.3262 110.312 91.3999C109.992 91.5119 109.936 91.7839 110.192 91.9999Z" fill="#263238"/>
<path d="M114.264 89.6559C114.425 89.7407 114.605 89.785 114.788 89.785C114.97 89.785 115.15 89.7407 115.312 89.6559C115.608 89.4959 115.624 89.2159 115.312 89.048C115.147 88.9668 114.967 88.9246 114.784 88.9246C114.601 88.9246 114.42 88.9668 114.256 89.048C113.984 89.2159 113.976 89.4879 114.264 89.6559Z" fill="#263238"/>
<path d="M118.728 95.1999C117.508 95.7262 116.248 96.1542 114.96 96.4799C113.83 96.6805 112.674 96.6805 111.544 96.4799C112.432 96.8975 113.416 97.0688 114.392 96.9759C116.109 96.798 117.78 96.3158 119.328 95.5519L118.728 95.1999Z" fill="#F28F8F"/>
<path d="M111.4 90.2398L115.488 91.9918L116.432 90.5758L111.4 90.2398Z" fill="#F28F8F"/>
<path d="M109.473 90.6638L108.673 91.6398C108.193 91.5038 107.993 91.1678 108.217 90.8958C108.387 90.7491 108.592 90.6503 108.813 90.6095C109.034 90.5687 109.262 90.5875 109.473 90.6638Z" fill="#263238"/>
<path d="M114.632 88.2319L112.776 88.4639C112.648 88.1759 112.952 87.8799 113.464 87.8159C113.678 87.7686 113.901 87.7825 114.108 87.8561C114.314 87.9297 114.496 88.0599 114.632 88.2319Z" fill="#263238"/>
<path d="M114.249 93.5118L116.353 93.0398C116.609 93.3678 116.353 93.7438 115.761 93.8398C115.501 93.9174 115.227 93.928 114.962 93.8707C114.698 93.8133 114.452 93.6898 114.249 93.5118Z" fill="#B16668"/>
<path d="M114.713 93.6638C114.655 93.6808 114.601 93.7078 114.553 93.7438C114.928 93.9241 115.354 93.972 115.761 93.8798H115.825C115.674 93.7511 115.492 93.6636 115.297 93.6257C115.102 93.5879 114.901 93.601 114.713 93.6638Z" fill="#F28F8F"/>
<path d="M123.464 99.9998C121.76 99.8558 118.272 99.5758 116.568 99.4238C115.477 99.3106 114.403 99.0689 113.368 98.7038L112.72 98.2558C112.72 98.2558 112.4 98.2558 112.72 99.0558C112.868 99.7513 112.795 100.476 112.512 101.128C112.512 101.128 117.312 102.512 121.312 102.12C121.144 100.136 122.536 99.9998 123.464 99.9998Z" fill="#E6E6E6"/>
<path d="M124.336 99.3439C123.384 98.221 122.224 97.292 120.92 96.6078L119.32 95.5518C119.599 95.5169 119.881 95.5169 120.16 95.5518C121.034 95.7285 121.934 95.7285 122.808 95.5518C124.976 96.2478 126.904 97.5679 127.352 98.5759C125.944 98.3999 124 98.0959 124.336 99.3439Z" fill="#E6E6E6"/>
<path d="M117.792 105.528C118.024 105.712 118.28 105.944 118.544 106.192L116.288 107.256C115.988 107.383 115.664 107.443 115.338 107.433C115.013 107.424 114.693 107.344 114.4 107.2L109.128 104.16C109.68 103.586 110.27 103.051 110.896 102.56C112.376 102.496 115.384 103.608 117.792 105.528Z" fill="#E6E6E6"/>
<path d="M143.576 97.6001L112.968 111.872C112.104 112.28 112.072 112.992 112.896 113.472L117.912 116.384C118.386 116.625 118.906 116.762 119.437 116.785C119.969 116.809 120.499 116.718 120.992 116.52L151.592 102.248C152.464 101.84 152.496 101.128 151.664 100.648L146.648 97.7361C146.176 97.4952 145.657 97.3585 145.127 97.335C144.597 97.3116 144.068 97.4019 143.576 97.6001Z" fill="#FAFAFA"/>
<path d="M147.632 102.072C146.841 101.958 146.07 101.729 145.344 101.392C144.859 100.947 144.287 100.607 143.664 100.392C143.448 100.304 143.472 100.728 143.576 100.816C144.072 101.213 144.608 101.556 145.176 101.84C145.288 102.152 145.272 102.544 144.856 102.528C144.562 102.469 144.287 102.337 144.056 102.144C143.968 102.088 143.912 102.296 143.976 102.352L144.184 102.672C143.631 102.584 143.107 102.365 142.656 102.032L142.416 101.856C142.32 101.792 142.256 102.024 142.32 102.08L142.432 102.168C142.512 102.236 142.594 102.301 142.68 102.36C142.986 102.585 143.255 102.855 143.48 103.16L143.648 103.376C143.784 103.664 143.776 103.768 143.608 103.68C143.52 103.768 142.736 103.28 142.504 103.152C141.614 102.668 140.774 102.095 140 101.44C139.832 101.296 139.744 101.688 139.872 101.792C140.423 102.242 140.922 102.752 141.36 103.312C141.648 103.672 141.88 104.28 141.144 104.112C140.803 104.005 140.48 103.849 140.184 103.648C140.056 103.568 140.016 103.848 140.048 103.912C140.166 104.184 140.221 104.48 140.208 104.776C139.777 104.669 139.384 104.445 139.072 104.128C138.896 103.944 138.784 104.232 138.832 104.384C138.976 104.888 139.248 105.984 138.376 105.36C138.178 105.22 138 105.053 137.848 104.864C137.846 104.631 137.783 104.403 137.665 104.202C137.548 104.001 137.379 103.835 137.176 103.72C136.968 103.584 136.92 103.952 136.96 104.072C137.078 104.374 137.226 104.663 137.4 104.936C137.254 105.525 136.943 106.061 136.504 106.48C136.17 106.808 135.783 107.079 135.36 107.28C134.936 107.504 134.072 107.904 134.376 107.016C134.45 106.803 134.561 106.606 134.704 106.432C134.996 106.227 135.264 105.991 135.504 105.728C135.656 105.576 135.504 105.112 135.24 105.248C134.974 105.398 134.734 105.59 134.528 105.816C133.912 106.208 133.144 106.44 133.064 105.344C133.064 105.344 133.064 105.28 133.064 105.248C133.851 105.004 134.536 104.509 135.016 103.84C135.051 103.795 135.069 103.74 135.069 103.684C135.069 103.628 135.051 103.573 135.016 103.528C133.992 102.816 132.824 104.104 132.712 105.168C132.464 105.243 132.21 105.296 131.952 105.328C131.952 105.328 131.896 105.416 131.952 105.416C132.221 105.419 132.489 105.395 132.752 105.344C132.748 105.4 132.748 105.456 132.752 105.512C132.779 105.778 132.885 106.03 133.058 106.235C133.231 106.439 133.462 106.586 133.72 106.656C133.834 106.672 133.95 106.672 134.064 106.656C133.965 106.911 133.917 107.183 133.92 107.456C133.92 108.432 134.784 108.168 135.432 107.872C136.495 107.332 137.341 106.446 137.832 105.36C137.962 105.555 138.135 105.718 138.337 105.836C138.54 105.954 138.767 106.024 139 106.04C139.528 105.992 139.488 105.304 139.368 104.744C139.684 104.97 140.044 105.128 140.424 105.208C140.528 105.208 140.6 105.128 140.6 105.032C140.611 104.716 140.57 104.4 140.48 104.096C141.088 104.416 142.136 104.896 142.08 103.92C142.031 103.595 141.883 103.294 141.656 103.056C141.808 103.16 141.952 103.264 142.104 103.352C142.488 103.584 143.472 104.352 143.968 104.2C144.608 104 144.216 103.4 143.68 102.832C143.964 102.94 144.259 103.015 144.56 103.056C144.672 103.056 144.696 102.864 144.664 102.792C144.645 102.742 144.621 102.693 144.592 102.648C145.104 102.88 145.704 102.944 145.8 102.224C145.809 102.174 145.809 102.122 145.8 102.072C146.447 102.348 147.123 102.547 147.816 102.664C148 102.736 147.912 102.112 147.632 102.072ZM134.616 103.816C134.212 104.341 133.681 104.754 133.072 105.016C133.173 104.68 133.376 104.385 133.653 104.17C133.93 103.955 134.266 103.831 134.616 103.816Z" fill="#455A64"/>
<path d="M133.6 109.152C133.084 108.795 132.55 108.464 132 108.16C131.54 107.503 130.913 106.981 130.184 106.648C129.976 106.552 129.992 106.992 130.08 107.088C130.168 107.184 130.48 107.488 130.696 107.672C130.788 107.758 130.89 107.833 131 107.896C131.112 107.968 131.2 108.064 131.312 108.144C131.424 108.224 131.544 108.336 131.656 108.432C131.715 108.477 131.766 108.531 131.808 108.592C131.885 108.702 131.945 108.823 131.984 108.952C132.009 109.047 132.012 109.147 131.995 109.244C131.977 109.341 131.938 109.432 131.881 109.513C131.823 109.593 131.749 109.659 131.663 109.708C131.578 109.756 131.482 109.785 131.384 109.792C131.114 109.814 130.843 109.784 130.584 109.704C130.366 109.652 130.176 109.517 130.056 109.328C130 109.232 129.888 109.272 129.856 109.368C129.824 109.464 129.784 109.648 129.792 109.64C129.56 109.832 129.264 109.456 129.128 109.328C128.992 109.2 128.904 109.568 128.944 109.664V109.92C128.781 109.86 128.627 109.776 128.488 109.672C128.357 109.505 128.207 109.355 128.04 109.224C127.84 109.072 127.8 109.496 127.888 109.608C127.984 109.732 128.091 109.847 128.208 109.952C128.616 110.528 128.4 111.224 127.568 111.096C127.32 111.053 127.082 110.966 126.864 110.84C126.864 110.84 126.864 110.768 126.864 110.736C126.807 110.238 126.603 109.769 126.278 109.387C125.953 109.005 125.522 108.728 125.04 108.592C124.976 108.592 124.936 108.592 124.904 108.656C124.544 109.216 125.104 109.776 125.456 110.176C125.782 110.549 126.156 110.877 126.568 111.152C126.538 111.26 126.478 111.357 126.396 111.432C126.314 111.508 126.212 111.559 126.102 111.579C125.992 111.6 125.879 111.59 125.775 111.55C125.67 111.51 125.579 111.441 125.512 111.352C125.501 111.344 125.488 111.338 125.475 111.336C125.461 111.333 125.447 111.334 125.434 111.338C125.421 111.342 125.409 111.349 125.398 111.358C125.388 111.367 125.381 111.379 125.376 111.392C125.376 111.392 125.312 111.76 125.312 111.768C125.072 112.096 124.464 111.456 124.256 111.272C124.048 111.088 124.032 111.496 124.128 111.6L124.28 112.32C124.012 112.19 123.777 112.001 123.592 111.768L123.552 111.712C123.502 111.651 123.457 111.587 123.416 111.52L123.376 111.472C123.168 111.224 123.056 111.688 123.152 111.848C123.171 111.879 123.192 111.909 123.216 111.936C123.348 112.107 123.43 112.312 123.454 112.526C123.478 112.741 123.443 112.958 123.352 113.154C123.261 113.35 123.119 113.518 122.94 113.639C122.761 113.76 122.552 113.829 122.336 113.84C121.998 113.824 121.669 113.723 121.381 113.545C121.093 113.367 120.854 113.119 120.688 112.824C120.288 112.304 119.216 110.608 120.528 110.424C121.28 110.32 122.048 111.176 122.464 111.64C122.464 111.64 122.536 111.584 122.52 111.552C122.096 110.848 120.832 109.416 119.92 110.272C119.008 111.128 119.92 112.504 120.488 113.216C121.152 114.08 122.232 114.816 123.272 114.016C123.486 113.846 123.653 113.623 123.757 113.369C123.861 113.116 123.898 112.84 123.864 112.568C124.052 112.701 124.26 112.803 124.48 112.872C124.568 112.872 124.632 112.808 124.656 112.736C124.712 112.497 124.712 112.248 124.656 112.008C124.904 112.168 125.168 112.296 125.344 112.208C125.52 112.12 125.496 111.872 125.488 111.672C125.592 111.751 125.714 111.804 125.843 111.825C125.972 111.846 126.105 111.836 126.229 111.794C126.353 111.752 126.464 111.68 126.554 111.585C126.644 111.49 126.709 111.374 126.744 111.248C126.948 111.356 127.166 111.437 127.392 111.488C127.534 111.543 127.686 111.564 127.837 111.552C127.988 111.539 128.134 111.493 128.265 111.416C128.396 111.339 128.507 111.234 128.592 111.108C128.676 110.982 128.731 110.838 128.752 110.688C128.776 110.551 128.776 110.41 128.752 110.272C128.847 110.32 128.946 110.36 129.048 110.392C129.128 110.392 129.192 110.336 129.216 110.264C129.239 110.169 129.255 110.073 129.264 109.976C129.456 110.144 129.688 110.296 129.88 110.184C129.948 110.127 129.996 110.05 130.017 109.963C130.037 109.876 130.028 109.785 129.992 109.704C130.13 109.836 130.301 109.928 130.488 109.968C130.683 110.027 130.884 110.062 131.088 110.072C131.274 110.08 131.46 110.047 131.632 109.976C131.952 109.84 132.288 109.728 132.32 109.32C132.34 109.166 132.34 109.01 132.32 108.856C132.687 109.118 133.108 109.293 133.552 109.368C133.68 109.44 133.68 109.208 133.6 109.152ZM125.448 109.6L125.248 109.36C125.096 109.08 125.136 109.008 125.36 109.152C125.682 109.288 125.96 109.513 126.16 109.8C126.373 110.061 126.516 110.372 126.576 110.704C126.151 110.392 125.774 110.02 125.456 109.6H125.448Z" fill="#455A64"/>
<path d="M128.8 109.416C128.8 109.416 128.84 109.392 128.8 109.416V109.416Z" fill="#455A64"/>
<path d="M322.008 306.552C322.002 307.229 322.163 307.897 322.477 308.498C322.791 309.098 323.248 309.611 323.808 309.992C327.744 312.192 333.448 312.632 338.152 311.176C343.551 309.504 346.007 306.688 347.055 302.992C348.103 299.296 347.855 295.176 346.319 290.248C345.335 287.048 346.007 282.704 346.415 279.456C347.095 273.928 346.567 270.6 344.815 268.064C343.855 266.671 342.469 265.628 340.864 265.091C339.26 264.554 337.525 264.553 335.92 265.088L336.984 303.064L322.008 306.552Z" fill="black"/>
<path d="M328.664 289.696C328.704 294.68 327.56 296.472 325.376 299.432C323.464 302.024 318.48 306.12 324.856 309.256C329.832 311.696 342.176 311.432 345.472 303.208C348.032 296.808 344.176 290.84 345.128 282.472C345.768 276.872 345.272 267.04 338.728 265.536C335.16 264.736 334 264.784 328.416 267.648C324.528 269.632 324.208 270.528 324.36 271.048L325.312 270.616C326.727 270.335 328.194 270.491 329.518 271.063C330.842 271.634 331.962 272.594 332.728 273.816C334.984 277.336 335.256 282.544 332.84 285.976L328.664 289.696Z" fill="#263238"/>
<path d="M287.632 235.512L316.968 228.12C318.392 234.04 319.288 245.72 316.824 254.64C314.36 263.56 306.088 278.456 306.088 278.456L326.44 268.096C326.44 268.096 330.648 267.712 333.76 273.336C338.68 282.216 334.04 291.136 334.04 291.136C334.04 291.136 309.872 305.4 294.536 314.632C279.376 323.752 269.8 326.592 261.52 319.984C256.632 316.08 255.584 308.848 257.52 298.488C260.72 280.888 287.672 235.512 287.672 235.512" fill="#455A64"/>
<path d="M294.536 314.632C309.872 305.4 334.04 291.136 334.04 291.136C334.04 291.136 338.68 282.216 333.76 273.336C330.672 267.736 326.56 268.088 326.448 268.088L306.096 278.448C306.096 278.448 309.848 271.68 313.056 264.536C313.184 264.248 313.32 263.96 313.448 263.664V263.624L313.816 262.784V262.744C314.384 261.416 314.92 260.096 315.416 258.824V258.744L315.864 257.52L290.4 249.24C292 258.384 299.432 266.968 299.432 266.968C299.432 266.968 289.208 293.696 284.176 306.784C280.232 317.064 271.136 320.104 264.576 318.512C258.736 317.096 257.184 312.624 257 312.024C257.159 312.839 257.378 313.642 257.656 314.424C257.784 314.8 257.936 315.168 258.088 315.52V315.576C258.24 315.904 258.408 316.232 258.576 316.544L258.664 316.68C258.824 316.96 258.992 317.24 259.176 317.48C259.232 317.56 259.296 317.632 259.352 317.72C259.512 317.936 259.672 318.16 259.848 318.368C260.024 318.576 260.088 318.624 260.2 318.752C260.312 318.88 260.464 319.048 260.608 319.192C260.88 319.456 261.168 319.704 261.464 319.944C262.454 320.738 263.527 321.422 264.664 321.984C265.462 322.382 266.295 322.706 267.152 322.952C267.717 323.119 268.291 323.249 268.872 323.344C269.766 323.489 270.67 323.562 271.576 323.56C272.172 323.56 272.768 323.527 273.36 323.464C274.737 323.312 276.1 323.044 277.432 322.664C278.472 322.384 279.544 322.032 280.632 321.616C281.376 321.336 282.128 321.032 282.904 320.696C286.887 318.908 290.749 316.861 294.464 314.568L294.536 314.632Z" fill="#37474F"/>
<path opacity="0.15" d="M305.136 291.016C311.16 283.296 327.824 272.736 331.488 270.328C328.96 267.928 326.504 268.088 326.448 268.088L316.272 273.264L306.096 278.448C306.096 278.448 296.256 299.736 288.248 302.976C294.877 300.632 300.724 296.492 305.136 291.016Z" fill="black"/>
<path d="M348.224 322.488C348.218 323.167 348.379 323.836 348.693 324.437C349.006 325.039 349.464 325.554 350.024 325.936C353.96 328.136 359.664 328.568 364.368 327.12C369.768 325.448 372.224 322.624 373.272 318.936C374.32 315.248 374.072 311.12 372.536 306.184C371.552 302.984 372.232 298.648 372.632 295.4C373.312 289.864 372.784 286.544 371.032 284C370.069 282.609 368.681 281.567 367.075 281.03C365.47 280.494 363.735 280.491 362.128 281.024L363.2 319L348.224 322.488Z" fill="#263238"/>
<path d="M354.88 305.6C354.88 310.584 353.776 312.384 351.592 315.336C349.68 317.936 344.696 322.024 351.08 325.16C356.048 327.608 368.392 327.344 371.688 319.12C374.248 312.72 370.392 306.752 371.344 298.376C371.984 292.776 371.488 282.952 364.944 281.448C361.376 280.648 360.216 280.696 354.632 283.552C350.744 285.544 350.424 286.432 350.576 286.96L351.528 286.52C352.944 286.241 354.411 286.398 355.736 286.969C357.061 287.54 358.183 288.499 358.952 289.72C361.2 293.24 361.472 298.448 359.056 301.872L354.88 305.6Z" fill="#37474F"/>
<path d="M360.72 289.04C357.208 282.336 350.496 284.608 350.496 284.608L335.2 293.024C335.2 293.024 344.088 278.464 347.464 269.824C351.464 259.616 352.928 253.568 351.16 238.808L309.872 238.088L287.616 235.488C288.344 256.288 303.08 266.024 303.08 266.024C303.08 266.024 289.272 300.104 286.504 311.624C283.904 322.464 285.744 330.632 290.632 334.536C298.912 341.144 309.648 340.136 324.808 330.984C340.144 321.76 361.608 306.552 361.608 306.552C361.608 306.552 365.76 298.648 360.72 289.04Z" fill="#455A64"/>
<path d="M334.273 305.6C343.601 292.8 351.969 287.456 356.281 284.8C354.426 284.106 352.397 284.033 350.497 284.592L335.201 293.024C335.201 293.024 325.361 314.312 317.353 317.552C324.087 315.401 329.995 311.228 334.273 305.6Z" fill="#37474F"/>
<path d="M291.064 163.248C279.864 167.504 279.304 170.704 276.112 180.048C272.464 190.76 266.4 207.512 263.264 216.456C263.888 220.944 276.112 230.152 280.864 229.056L295.36 196.52L291.064 163.248Z" fill="#E6E6E6"/>
<path d="M347.88 181.6C355.352 214.512 352.088 245.208 352.088 245.208C343.352 253.016 298.2 255.92 286.248 236.184C292.176 215.48 286.248 209.488 284.368 183.896C283.984 178.784 284.368 167.232 289.368 164.2C294.792 160.904 302.408 159.68 302.208 156.64L322.024 153.856C322.392 159.24 338.024 161.216 338.024 161.216C344.472 165.84 346.4 174.912 347.88 181.6Z" fill="#F5F5F5"/>
<path d="M299.431 139.608C301.383 140.552 303.815 141.472 306.015 141.424C307.999 141.384 309.911 142.12 311.919 142.224C316.215 142.472 317.608 149.728 321.08 147.152C321.76 142.472 329.88 134.6 329.176 122.44C328.808 116.272 325.368 111.384 319.648 109.696C319.343 108.331 318.68 107.073 317.727 106.05C316.773 105.028 315.564 104.278 314.223 103.88C311.162 102.728 307.886 102.258 304.623 102.504C301.376 102.594 298.153 103.08 295.023 103.952C291.735 104.952 288.567 106.024 285.167 104.856C283.719 104.368 283.431 105.784 283.567 106.912C283.671 107.79 283.897 108.649 284.239 109.464C284.524 110.102 284.847 110.722 285.207 111.32C284.156 111.039 283.196 110.487 282.423 109.72C281.711 109.088 280.343 107.52 279.751 108.488C279.231 109.336 279.295 111.264 279.679 112.36C280.117 113.976 280.94 115.461 282.079 116.688C280.319 117.08 279.567 118.864 279.391 119.976C279.256 121.118 279.387 122.276 279.774 123.358C280.162 124.441 280.794 125.419 281.623 126.216C283.031 127.568 284.903 128.064 286.767 128.456C287.292 128.579 287.787 128.805 288.223 129.12C288.706 129.669 289.122 130.273 289.463 130.92C292.035 134.579 295.455 137.561 299.431 139.608Z" fill="#37474F"/>
<path d="M310.68 114.824C308.904 118.256 308.616 132.064 310.04 141.984C310.661 142.106 311.289 142.192 311.92 142.24C316.216 142.488 317.584 150.08 321.064 147.504C321.744 142.824 330.392 135.688 329.664 123.504C329.296 117.336 325.8 110.296 319.648 109.688C319.648 109.712 313.464 111.28 310.68 114.824Z" fill="#455A64"/>
<path d="M310.679 114.824C309.999 120.336 314.031 126.464 317.767 127.008C317.527 130.072 317.551 131.536 318.127 133.544C318.281 134.186 318.552 134.793 318.927 135.336C319.12 135.604 319.37 135.827 319.659 135.987C319.949 136.148 320.27 136.242 320.599 136.264C321.487 136.264 321.815 135.72 322.047 135.008C322.39 134.102 322.788 133.218 323.239 132.36C323.436 131.983 323.681 131.634 323.967 131.32C325.239 130 329.127 128.248 331.223 132.376C333.391 136.648 330.111 142.384 327.063 143.744C322.935 145.6 320.207 141.928 320.207 141.928L322.127 154.472C322.545 156.833 322.102 159.265 320.879 161.328C317.871 166.344 311.623 170.832 308.128 178.024C304.032 172.424 302.44 164.768 302.872 161.032L302.32 155.648C299.756 156.13 297.136 156.23 294.544 155.944C289.56 155.144 287.344 150.888 286.16 146.52C283.856 138.224 283.488 117.552 287.864 115.32C290 115.152 293.232 119.32 295.624 119.424C301.528 119.632 304.752 113.312 310.679 114.824Z" fill="#FFA8A7"/>
<path d="M306.24 130.968C306.312 131.339 306.272 131.723 306.126 132.072C305.98 132.42 305.734 132.717 305.419 132.926C305.104 133.135 304.734 133.245 304.356 133.244C303.978 133.243 303.609 133.129 303.296 132.918C302.982 132.708 302.738 132.409 302.594 132.059C302.451 131.71 302.414 131.325 302.488 130.955C302.563 130.585 302.745 130.244 303.013 129.978C303.28 129.711 303.621 129.529 303.992 129.456C304.49 129.36 305.007 129.465 305.428 129.748C305.849 130.031 306.141 130.47 306.24 130.968Z" fill="#263238"/>
<path d="M291.704 131.84C291.74 132.216 291.663 132.594 291.485 132.927C291.306 133.26 291.033 133.532 290.699 133.71C290.366 133.887 289.987 133.962 289.612 133.925C289.236 133.888 288.879 133.74 288.587 133.5C288.295 133.261 288.081 132.94 287.971 132.579C287.861 132.217 287.861 131.831 287.97 131.47C288.079 131.108 288.293 130.787 288.584 130.547C288.876 130.307 289.232 130.158 289.608 130.12C289.858 130.095 290.111 130.119 290.353 130.192C290.594 130.265 290.818 130.384 291.013 130.544C291.208 130.704 291.369 130.901 291.488 131.123C291.606 131.346 291.68 131.589 291.704 131.84Z" fill="#263238"/>
<path d="M302.32 155.648C302.32 155.648 309.52 153.976 312.592 152.112C315.084 150.638 317.057 148.427 318.24 145.784C318.245 147.055 317.982 148.312 317.468 149.475C316.953 150.637 316.2 151.677 315.256 152.528C310.184 156.952 302.552 157.864 302.552 157.864L302.32 155.648Z" fill="#F28F8F"/>
<path d="M298.8 127.32L297.96 140.552L291.424 139.752C292 136.28 295.328 130.152 298.8 127.32Z" fill="#F28F8F"/>
<path d="M302.985 126.464L307.641 127.744C307.799 127.11 307.706 126.439 307.381 125.873C307.056 125.306 306.524 124.887 305.897 124.704C305.59 124.628 305.271 124.612 304.958 124.66C304.646 124.707 304.345 124.815 304.075 124.979C303.804 125.142 303.569 125.358 303.382 125.613C303.194 125.868 303.06 126.157 302.985 126.464Z" fill="#263238"/>
<path d="M286.696 128.416L291.192 126.544C291.085 126.245 290.918 125.971 290.702 125.739C290.486 125.506 290.225 125.32 289.934 125.192C289.644 125.064 289.33 124.997 289.013 124.994C288.695 124.991 288.381 125.053 288.088 125.176C287.486 125.436 287.007 125.917 286.748 126.519C286.489 127.122 286.47 127.8 286.696 128.416Z" fill="#263238"/>
<path d="M305.528 142.312L298.4 144.44C298.515 144.911 298.725 145.354 299.017 145.742C299.31 146.13 299.678 146.453 300.099 146.694C300.521 146.934 300.987 147.086 301.469 147.14C301.952 147.194 302.44 147.149 302.904 147.008C303.86 146.711 304.666 146.058 305.154 145.184C305.643 144.31 305.776 143.282 305.528 142.312Z" fill="#B16668"/>
<path d="M302.904 147.008C303.555 146.809 304.14 146.441 304.603 145.942C305.065 145.443 305.387 144.831 305.536 144.168C305.425 144.126 305.31 144.097 305.192 144.08C304.252 143.975 303.307 144.218 302.534 144.764C301.761 145.309 301.216 146.119 301 147.04C301.626 147.205 302.285 147.194 302.904 147.008Z" fill="#F28F8F"/>
<path d="M309.504 175.536C311.248 171.92 316.056 165.136 318.576 161.688C320.205 159.31 321.374 156.648 322.024 153.84L321.616 151.136C321.616 151.136 322.368 150.8 324.272 153.84C326.176 156.88 330.944 159.768 330.944 159.768C330.944 159.768 326.672 172.456 318.528 178.232C312.8 172 311.272 174.032 309.504 175.536Z" fill="#E6E6E6"/>
<path d="M306.225 174.968C304.145 169.72 302.873 166.368 302.873 160.888L302.321 155.648C301.67 155.899 301.112 156.343 300.721 156.92C299.452 158.61 297.855 160.025 296.025 161.08C294.329 166.984 296.641 174.56 298.897 178.392C299.705 174.992 303.017 170.608 306.225 174.968Z" fill="#E6E6E6"/>
<path d="M307.784 230.104C308.168 229.52 309.528 230.584 312.312 231C315.856 231.528 317.2 231.312 320.976 232.016C322.678 232.46 324.434 232.66 326.192 232.608L312.904 236.32C311.495 235.841 310.166 235.153 308.96 234.28C306.992 232.752 307.296 230.848 307.784 230.104Z" fill="#FFA8A7"/>
<path d="M246.016 197.6C245.032 197.264 244.416 197.696 244.576 198.568L254.056 243.2L319.216 265.6L309.616 220.936C309.453 220.434 309.179 219.976 308.813 219.596C308.447 219.216 307.999 218.925 307.504 218.744L270.288 205.944L267.392 201.544C267.196 201.258 266.917 201.04 266.592 200.92L251.16 195.608C250.784 195.461 250.366 195.462 249.991 195.611C249.616 195.759 249.31 196.044 249.136 196.408L248.536 198.472L246.016 197.6Z" fill="#0EA5C6"/>
<path opacity="0.6" d="M246.016 197.6C245.032 197.264 244.416 197.696 244.576 198.568L254.056 243.2L319.216 265.6L309.616 220.936C309.453 220.434 309.179 219.976 308.813 219.596C308.447 219.216 307.999 218.925 307.504 218.744L270.288 205.944L267.392 201.544C267.196 201.258 266.917 201.04 266.592 200.92L251.16 195.608C250.784 195.461 250.366 195.462 249.991 195.611C249.616 195.759 249.31 196.044 249.136 196.408L248.536 198.472L246.016 197.6Z" fill="white"/>
<path d="M254.056 243.16L317.008 264.8L307.464 220.504L242.472 198.168L254.056 243.16Z" fill="#F0F0F0"/>
<path d="M319.2 265.552L305.6 223.632C305.385 223.137 305.073 222.69 304.681 222.319C304.289 221.948 303.826 221.66 303.32 221.472L241.872 200.352C240.896 200.016 240.32 200.44 240.6 201.296L254.056 243.2L319.2 265.552Z" fill="#0EA5C6"/>
<path opacity="0.4" d="M319.2 265.552L305.6 223.632C305.385 223.137 305.073 222.69 304.681 222.319C304.289 221.948 303.826 221.66 303.32 221.472L241.872 200.352C240.896 200.016 240.32 200.44 240.6 201.296L254.056 243.2L319.2 265.552Z" fill="white"/>
<path d="M245.336 216C242.848 219.488 243.008 222.096 244.312 226.4C245.616 230.704 248.816 235.64 250.496 236.936C252.176 238.232 255.296 240 258.592 239.096C261.888 238.192 261.68 233.904 263.056 232.016C265.248 228.992 261.872 227.112 258.736 226.904C251.336 226.408 247.536 222.96 247.536 222.96L245.336 216Z" fill="#FFA8A7"/>
<path d="M303.368 237.08C306.564 237.111 309.757 236.844 312.904 236.28L326.192 232.568C332.256 232.84 348.592 219.6 348.592 219.6L339.552 194.416C334.336 182.696 334.168 166.496 338.032 161.16C350.688 164.36 353.368 165.328 356.776 176.288C359.544 185.168 366.528 208.752 369.536 217.808C371.256 222.992 372.112 227.624 366.584 231.32C361.6 234.648 348.8 241.272 337.68 245.296C331.728 247.448 328.48 249.376 322.136 250.768C319.08 251.501 315.972 251.993 312.84 252.24C310.6 252.368 307.864 252.584 306.264 250.576C305.912 250.128 305.576 249.24 305.12 248.976C304.784 248.768 304.112 248.808 303.72 248.664C303.301 248.512 302.916 248.281 302.584 247.984C301.962 247.414 301.527 246.669 301.336 245.848C301.152 245.008 301.016 245.12 300.168 244.832C299.412 244.645 298.742 244.204 298.272 243.584C297.936 243.08 297.952 241.984 297.592 241.648C297.232 241.312 295.992 241.296 295.464 241.104C294.664 240.84 293.112 240.08 293.296 239.072C293.448 238.272 294.536 237.808 295.208 237.552C297.744 236.56 300.72 237.056 303.368 237.08Z" fill="#FFA8A7"/>
<path d="M338 161.2C335.408 163.792 333.496 172.448 335.112 182.52C336.728 192.592 347.792 219.584 347.792 219.584L336.744 228.12C336.744 228.12 341.08 230.52 343.192 234.6C344.453 237.097 344.852 239.941 344.328 242.688C349.7 240.62 354.963 238.279 360.096 235.672C366.76 232.248 370.656 230.072 371.528 227.248C372.4 224.424 370.536 218.248 368.544 212.048C366.552 205.848 357.136 174.4 354.472 168.96C352.4 164.72 347.024 162.792 338 161.2Z" fill="#E6E6E6"/>
<path d="M336.744 228.12L331.512 231.056C331.512 231.056 336.272 233.736 337.48 238.088C338.186 240.344 338.458 242.714 338.28 245.072L344.304 242.672C344.304 242.672 345.904 239.12 343.744 234.36C342.308 231.451 339.798 229.214 336.744 228.12Z" fill="#E0E0E0"/>
</svg>
