<svg width="400" height="400" viewBox="0 0 400 400" fill="none" xmlns="http://www.w3.org/2000/svg">
<path d="M78.2 330.28C145.464 365.424 254.536 365.424 321.8 330.28C389.064 295.136 389.072 238.16 321.8 203.016C254.528 167.872 145.464 167.872 78.2 203.016C10.936 238.16 10.928 295.136 78.2 330.28Z" fill="#F5F5F5"/>
<path d="M252.568 321.392C272.852 321.392 289.296 313.555 289.296 303.888C289.296 294.221 272.852 286.384 252.568 286.384C232.284 286.384 215.84 294.221 215.84 303.888C215.84 313.555 232.284 321.392 252.568 321.392Z" fill="#EBEBEB"/>
<path d="M317.632 281.472C333.281 281.472 345.968 275.426 345.968 267.968C345.968 260.51 333.281 254.464 317.632 254.464C301.982 254.464 289.296 260.51 289.296 267.968C289.296 275.426 301.982 281.472 317.632 281.472Z" fill="#EBEBEB"/>
<path d="M115.672 264.184C114.072 255.736 108.216 243.696 101.072 236.984C94.2001 230.536 84.0001 228.288 79.9361 231.264C75.8721 234.24 78.5361 240.672 86.4241 248.512C95.3281 257.352 112.424 281.88 115.672 295.776V264.184Z" fill="#0EA5C6"/>
<g opacity="0.2">
<path opacity="0.2" d="M115.672 264.184C114.072 255.736 108.216 243.696 101.072 236.984C94.2001 230.536 84.0001 228.288 79.9361 231.264C75.8721 234.24 78.5361 240.672 86.4241 248.512C95.3281 257.352 112.424 281.88 115.672 295.776V264.184Z" fill="black"/>
</g>
<path d="M115.672 284.512C115.572 284.51 115.476 284.472 115.402 284.404C115.328 284.336 115.282 284.244 115.272 284.144C113.256 262.864 98.376 238.944 84.072 233.96C83.9721 233.924 83.8903 233.85 83.844 233.754C83.7977 233.659 83.7905 233.549 83.824 233.448C83.8602 233.348 83.934 233.266 84.0296 233.22C84.1252 233.174 84.2352 233.167 84.336 233.2C99.168 238.36 114.008 262.136 116.088 284.072C116.097 284.178 116.064 284.283 115.997 284.365C115.93 284.447 115.833 284.5 115.728 284.512H115.672Z" fill="white"/>
<path d="M115.672 305.992C115.672 305.992 112.904 308.2 103.672 307.336C94.4401 306.472 89.6801 299.872 89.6801 297.04C89.6801 294.208 98.1681 293.72 100.008 286.696C98.1364 288.702 95.6466 290.023 92.9361 290.448C88.1361 291.352 84.2801 289.816 83.1841 281.072C85.5499 281.418 87.9634 281.218 90.2401 280.488C94.0401 279.264 94.9441 277.176 93.9521 276.728C92.9601 276.28 87.6641 276.728 84.2721 275.44C80.8801 274.152 83.4721 256.488 85.6961 255.232C87.9201 253.976 98.4401 256.936 100.488 258.52C102.312 259.928 104.872 262.368 103.688 267.528C105.091 266.217 106.184 264.61 106.888 262.824C107.88 260.424 108.6 260.984 110.088 261.904C110.982 262.408 111.757 263.097 112.363 263.924C112.969 264.752 113.39 265.7 113.6 266.704C113.96 268.944 113.376 276.672 110.224 279.184C110.224 279.184 113.248 279.568 115.72 274.464C115.72 274.464 120.52 276.4 121.608 279.536C122.696 282.672 123.88 298.024 115.672 305.992Z" fill="#0EA5C6"/>
<path d="M116.488 307.736C116.39 307.735 116.296 307.699 116.223 307.634C116.149 307.57 116.101 307.481 116.088 307.384C113.976 290.096 100.832 267.384 87.944 258.856C87.8549 258.797 87.793 258.704 87.772 258.599C87.751 258.494 87.7726 258.385 87.832 258.296C87.8914 258.207 87.9838 258.145 88.0888 258.124C88.1938 258.103 88.3029 258.125 88.392 258.184C101.44 266.864 114.792 289.808 116.88 307.288C116.894 307.393 116.865 307.499 116.801 307.583C116.736 307.667 116.641 307.722 116.536 307.736H116.488Z" fill="white"/>
<path d="M117.296 310.152C116.818 309.821 116.425 309.384 116.147 308.874C115.87 308.364 115.715 307.796 115.696 307.216V116.088C115.728 115.487 115.903 114.901 116.204 114.38C116.506 113.859 116.927 113.416 117.432 113.088L237.432 43.792C237.933 43.4774 238.511 43.3055 239.103 43.2947C239.695 43.284 240.279 43.4348 240.791 43.731C241.304 44.0272 241.726 44.4576 242.012 44.9758C242.298 45.494 242.438 46.0804 242.416 46.672L120.656 310.088C120.14 310.362 119.567 310.511 118.983 310.522C118.4 310.533 117.821 310.406 117.296 310.152Z" fill="#E0E0E0"/>
<path d="M118.92 119.72L167.664 87.824L164.416 85.944L117.408 113.088C116.903 113.416 116.482 113.859 116.18 114.38C115.879 114.901 115.705 115.487 115.672 116.088V117.84L118.92 119.72Z" fill="#37474F"/>
<path opacity="0.2" d="M118.92 119.72L167.664 87.824L164.416 85.944L117.408 113.088C116.903 113.416 116.482 113.859 116.18 114.38C115.879 114.901 115.705 115.487 115.672 116.088V117.84L118.92 119.72Z" fill="#37474F"/>
<path d="M135.2 125.344L116.176 114.4C115.866 114.916 115.692 115.502 115.672 116.104V307.2C115.651 307.791 115.792 308.376 116.079 308.893C116.366 309.41 116.788 309.84 117.3 310.135C117.813 310.43 118.396 310.58 118.987 310.569C119.578 310.558 120.155 310.386 120.656 310.072L135.2 301.712V125.344Z" fill="#263238"/>
<path opacity="0.4" d="M135.2 125.344L116.176 114.4C115.866 114.916 115.692 115.502 115.672 116.104V307.2C115.651 307.791 115.792 308.376 116.079 308.893C116.366 309.41 116.788 309.84 117.3 310.135C117.813 310.43 118.396 310.58 118.987 310.569C119.578 310.558 120.155 310.386 120.656 310.072L135.2 301.712V125.344Z" fill="#263238"/>
<path d="M120.656 310.088L240.656 240.792C241.161 240.464 241.582 240.021 241.883 239.5C242.185 238.979 242.359 238.393 242.392 237.792V46.672C242.392 45.568 241.592 45.12 240.656 45.672L120.656 114.968C120.151 115.296 119.73 115.739 119.429 116.26C119.127 116.781 118.953 117.367 118.92 117.968V309.088C118.92 310.192 119.696 310.64 120.656 310.088Z" fill="#455A64"/>
<path opacity="0.1" d="M120.656 310.088L240.656 240.792C241.161 240.464 241.582 240.021 241.883 239.5C242.185 238.979 242.359 238.393 242.392 237.792V46.672C242.392 45.568 241.592 45.12 240.656 45.672L120.656 114.968C120.151 115.296 119.73 115.739 119.429 116.26C119.127 116.781 118.953 117.367 118.92 117.968V309.088C118.92 310.192 119.696 310.64 120.656 310.088Z" fill="#455A64"/>
<path d="M128.888 162.112L157.688 145.472C159.6 144.368 161.152 145.152 161.152 147.224C161.066 148.387 160.708 149.514 160.106 150.514C159.505 151.513 158.676 152.356 157.688 152.976L128.888 169.616C126.968 170.72 125.424 169.936 125.424 167.864C125.507 166.7 125.865 165.573 126.467 164.573C127.069 163.573 127.898 162.73 128.888 162.112Z" fill="#0EA5C6"/>
<path d="M128.888 173.92L147.952 162.912C149.864 161.808 151.416 162.592 151.416 164.664C151.33 165.827 150.972 166.954 150.37 167.953C149.769 168.953 148.94 169.796 147.952 170.416L128.888 181.424C126.968 182.528 125.424 181.744 125.424 179.672C125.507 178.508 125.865 177.381 126.467 176.381C127.069 175.381 127.898 174.538 128.888 173.92Z" fill="#0EA5C6"/>
<path d="M126.808 194.128L130.536 191.976C131.336 191.536 131.92 191.896 131.92 192.776V197.08C131.894 197.561 131.755 198.028 131.515 198.445C131.274 198.862 130.939 199.217 130.536 199.48L126.808 201.6C126.008 202.048 125.424 201.688 125.424 200.8V196.496C125.455 196.021 125.597 195.56 125.837 195.149C126.077 194.738 126.409 194.389 126.808 194.128Z" fill="#0EA5C6"/>
<path opacity="0.2" d="M126.808 194.128L130.536 191.976C131.336 191.536 131.92 191.896 131.92 192.776V197.08C131.894 197.561 131.755 198.028 131.515 198.445C131.274 198.862 130.939 199.217 130.536 199.48L126.808 201.6C126.008 202.048 125.424 201.688 125.424 200.8V196.496C125.455 196.021 125.597 195.56 125.837 195.149C126.077 194.738 126.409 194.389 126.808 194.128Z" fill="black"/>
<path d="M126.808 209.144L130.536 206.992C131.336 206.544 131.92 206.904 131.92 207.792V212.096C131.892 212.576 131.752 213.043 131.512 213.46C131.272 213.877 130.938 214.231 130.536 214.496L126.808 216.648C126.008 217.088 125.424 216.728 125.424 215.848V211.544C125.449 211.063 125.587 210.595 125.827 210.178C126.068 209.76 126.404 209.406 126.808 209.144Z" fill="#0EA5C6"/>
<g opacity="0.2">
<path opacity="0.2" d="M126.808 209.144L130.536 206.992C131.336 206.544 131.92 206.904 131.92 207.792V212.096C131.892 212.576 131.752 213.043 131.512 213.46C131.272 213.877 130.938 214.231 130.536 214.496L126.808 216.648C126.008 217.088 125.424 216.728 125.424 215.848V211.544C125.449 211.063 125.587 210.595 125.827 210.178C126.068 209.76 126.404 209.406 126.808 209.144Z" fill="black"/>
</g>
<path d="M136.904 205.192L159.432 192.176C160.392 191.624 161.168 192.016 161.168 193.056C161.124 193.637 160.945 194.2 160.643 194.699C160.341 195.198 159.927 195.619 159.432 195.928L136.904 208.944C135.944 209.496 135.168 209.104 135.168 208.064C135.211 207.483 135.391 206.92 135.693 206.421C135.994 205.922 136.409 205.501 136.904 205.192Z" fill="#0EA5C6"/>
<path opacity="0.2" d="M136.904 205.192L159.432 192.176C160.392 191.624 161.168 192.016 161.168 193.056C161.124 193.637 160.945 194.2 160.643 194.699C160.341 195.198 159.927 195.619 159.432 195.928L136.904 208.944C135.944 209.496 135.168 209.104 135.168 208.064C135.211 207.483 135.391 206.92 135.693 206.421C135.994 205.922 136.409 205.501 136.904 205.192Z" fill="black"/>
<path d="M126.808 224.152L130.536 222C131.336 221.552 131.92 221.912 131.92 222.8V227.104C131.893 227.584 131.753 228.052 131.513 228.468C131.273 228.885 130.938 229.24 130.536 229.504L126.808 231.656C126.008 232.096 125.424 231.736 125.424 230.856V226.552C125.449 226.071 125.587 225.603 125.827 225.186C126.068 224.768 126.404 224.414 126.808 224.152Z" fill="#E0E0E0"/>
<path d="M136.904 220.2L159.432 207.2C160.392 206.648 161.168 207.04 161.168 208.08C161.126 208.662 160.946 209.225 160.645 209.724C160.343 210.224 159.927 210.644 159.432 210.952L136.904 223.968C135.944 224.52 135.168 224.128 135.168 223.088C135.209 222.504 135.388 221.938 135.689 221.436C135.991 220.934 136.407 220.51 136.904 220.2Z" fill="#F0F0F0"/>
<path d="M126.808 239.2L130.536 237.048C131.336 236.6 131.92 236.96 131.92 237.848V242.152C131.893 242.632 131.753 243.1 131.513 243.516C131.273 243.933 130.938 244.288 130.536 244.552L126.808 246.704C126.008 247.144 125.424 246.784 125.424 245.904V241.6C125.449 241.119 125.587 240.651 125.827 240.234C126.068 239.816 126.404 239.462 126.808 239.2Z" fill="#E0E0E0"/>
<path d="M136.904 235.248L159.432 222.24C160.392 221.68 161.168 222.08 161.168 223.112C161.126 223.695 160.946 224.259 160.645 224.76C160.343 225.26 159.928 225.682 159.432 225.992L136.904 239C135.944 239.552 135.168 239.16 135.168 238.12C135.211 237.539 135.391 236.976 135.693 236.477C135.994 235.978 136.409 235.557 136.904 235.248Z" fill="#F0F0F0"/>
<path d="M126.808 254.208L130.536 252.056C131.336 251.608 131.92 251.968 131.92 252.856V257.16C131.893 257.64 131.753 258.108 131.513 258.524C131.273 258.941 130.938 259.296 130.536 259.56L126.808 261.712C126.008 262.152 125.424 261.792 125.424 260.912V256.608C125.449 256.127 125.587 255.659 125.827 255.242C126.068 254.825 126.404 254.47 126.808 254.208Z" fill="#E0E0E0"/>
<path d="M136.904 250.256L159.432 237.248C160.392 236.688 161.168 237.088 161.168 238.12C161.126 238.703 160.946 239.267 160.645 239.768C160.343 240.268 159.928 240.69 159.432 241L136.904 254.008C135.944 254.56 135.168 254.168 135.168 253.128C135.211 252.547 135.391 251.984 135.693 251.485C135.994 250.986 136.409 250.565 136.904 250.256Z" fill="#F0F0F0"/>
<path d="M127.152 268.976L143.152 259.72C144.112 259.168 144.888 259.56 144.888 260.6C144.844 261.181 144.665 261.744 144.363 262.243C144.061 262.742 143.646 263.163 143.152 263.472L127.152 272.728C126.2 273.28 125.424 272.888 125.424 271.856C125.466 271.274 125.644 270.71 125.944 270.21C126.244 269.71 126.658 269.287 127.152 268.976Z" fill="#0EA5C6"/>
<path d="M127.152 276.48L159.432 257.848C160.392 257.296 161.168 257.688 161.168 258.72C161.126 259.303 160.946 259.867 160.645 260.368C160.343 260.868 159.927 261.29 159.432 261.6L127.152 280.232C126.2 280.784 125.424 280.392 125.424 279.36C125.466 278.778 125.644 278.214 125.944 277.714C126.244 277.214 126.658 276.791 127.152 276.48Z" fill="#0EA5C6"/>
<path opacity="0.8" d="M127.152 276.48L159.432 257.848C160.392 257.296 161.168 257.688 161.168 258.72C161.126 259.303 160.946 259.867 160.645 260.368C160.343 260.868 159.927 261.29 159.432 261.6L127.152 280.232C126.2 280.784 125.424 280.392 125.424 279.36C125.466 278.778 125.644 278.214 125.944 277.714C126.244 277.214 126.658 276.791 127.152 276.48Z" fill="white"/>
<path d="M127.152 276.48L149.688 263.472C150.64 262.92 151.416 263.312 151.416 264.352C151.373 264.933 151.194 265.495 150.894 265.994C150.593 266.492 150.18 266.914 149.688 267.224L127.152 280.232C126.2 280.784 125.424 280.392 125.424 279.36C125.466 278.778 125.644 278.214 125.944 277.714C126.244 277.214 126.658 276.791 127.152 276.48Z" fill="#0EA5C6"/>
<path d="M127.152 284L143.152 274.744C144.112 274.192 144.888 274.584 144.888 275.624C144.844 276.205 144.665 276.768 144.363 277.267C144.061 277.766 143.646 278.187 143.152 278.496L127.152 287.752C126.2 288.304 125.424 287.912 125.424 286.88C125.466 286.298 125.644 285.734 125.944 285.234C126.244 284.734 126.658 284.311 127.152 284Z" fill="#0EA5C6"/>
<path d="M136.904 190.176L159.432 177.168C160.392 176.616 161.168 177.008 161.168 178.048C161.124 178.629 160.945 179.192 160.643 179.691C160.341 180.19 159.927 180.611 159.432 180.92L136.904 193.928C135.944 194.48 135.168 194.088 135.168 193.056C135.21 192.473 135.389 191.909 135.691 191.408C135.993 190.908 136.408 190.486 136.904 190.176Z" fill="#0EA5C6"/>
<path opacity="0.2" d="M136.904 190.176L159.432 177.168C160.392 176.616 161.168 177.008 161.168 178.048C161.124 178.629 160.945 179.192 160.643 179.691C160.341 180.19 159.927 180.611 159.432 180.92L136.904 193.928C135.944 194.48 135.168 194.088 135.168 193.056C135.21 192.473 135.389 191.909 135.691 191.408C135.993 190.908 136.408 190.486 136.904 190.176Z" fill="black"/>
<path d="M127.152 284L143.152 274.744C144.112 274.192 144.888 274.584 144.888 275.624C144.844 276.205 144.665 276.768 144.363 277.267C144.061 277.766 143.646 278.187 143.152 278.496L127.152 287.752C126.2 288.304 125.424 287.912 125.424 286.88C125.466 286.298 125.644 285.734 125.944 285.234C126.244 284.734 126.658 284.311 127.152 284Z" fill="#0EA5C6"/>
<path d="M127.152 291.48L159.432 272.848C160.392 272.296 161.168 272.688 161.168 273.72C161.126 274.303 160.946 274.867 160.645 275.368C160.343 275.868 159.927 276.29 159.432 276.6L127.152 295.2C126.2 295.76 125.424 295.36 125.424 294.328C125.471 293.752 125.651 293.194 125.951 292.7C126.251 292.205 126.662 291.788 127.152 291.48Z" fill="#0EA5C6"/>
<path opacity="0.8" d="M127.152 291.48L159.432 272.848C160.392 272.296 161.168 272.688 161.168 273.72C161.126 274.303 160.946 274.867 160.645 275.368C160.343 275.868 159.927 276.29 159.432 276.6L127.152 295.2C126.2 295.76 125.424 295.36 125.424 294.328C125.471 293.752 125.651 293.194 125.951 292.7C126.251 292.205 126.662 291.788 127.152 291.48Z" fill="white"/>
<path d="M127.152 291.48L156.184 274.68C157.144 274.128 157.92 274.52 157.92 275.56C157.876 276.141 157.697 276.704 157.395 277.203C157.093 277.702 156.678 278.123 156.184 278.432L127.152 295.232C126.2 295.792 125.424 295.392 125.424 294.36C125.466 293.778 125.644 293.214 125.944 292.714C126.244 292.214 126.658 291.791 127.152 291.48Z" fill="#0EA5C6"/>
<path d="M240.672 45.672L167.664 87.824V282.944L240.672 240.8C241.177 240.472 241.598 240.029 241.899 239.508C242.201 238.987 242.375 238.401 242.408 237.8V46.672C242.4 45.6 241.6 45.12 240.672 45.672Z" fill="#EBEBEB"/>
<path opacity="0.6" d="M240.672 45.672L167.664 87.824V282.944L240.672 240.8C241.177 240.472 241.598 240.029 241.899 239.508C242.201 238.987 242.375 238.401 242.408 237.8V46.672C242.4 45.6 241.6 45.12 240.672 45.672Z" fill="#FAFAFA"/>
<path d="M167.664 95.328V110.336L161.168 117.84H167.664V132.848L235.904 93.448V55.928L167.664 95.328Z" fill="#0EA5C6"/>
<g opacity="0.6">
<path opacity="0.6" d="M176.592 95.848L204.24 79.848C205.576 79.048 206.64 79.704 206.64 81.248C206.596 82.0869 206.356 82.9038 205.939 83.6332C205.522 84.3626 204.94 84.9841 204.24 85.448L176.592 101.408C175.248 102.208 174.192 101.552 174.192 100.008C174.24 99.1756 174.482 98.3659 174.899 97.6437C175.316 96.9214 175.895 96.3065 176.592 95.848Z" fill="white"/>
</g>
<path d="M175.032 108L228.544 77.104C229.024 76.832 229.408 77.024 229.408 77.544C229.387 77.835 229.298 78.1171 229.148 78.3673C228.998 78.6175 228.791 78.8288 228.544 78.984L175.032 109.84C174.552 110.112 174.168 109.92 174.168 109.4C174.195 109.116 174.287 108.842 174.436 108.599C174.586 108.356 174.79 108.151 175.032 108Z" fill="#0EA5C6"/>
<path d="M175.032 108L228.544 77.104C229.024 76.832 229.408 77.024 229.408 77.544C229.387 77.835 229.298 78.1171 229.148 78.3673C228.998 78.6175 228.791 78.8288 228.544 78.984L175.032 109.84C174.552 110.112 174.168 109.92 174.168 109.4C174.195 109.116 174.287 108.842 174.436 108.599C174.586 108.356 174.79 108.151 175.032 108Z" fill="#0EA5C6"/>
<path opacity="0.6" d="M175.032 108L228.544 77.104C229.024 76.832 229.408 77.024 229.408 77.544C229.387 77.835 229.298 78.1171 229.148 78.3673C228.998 78.6175 228.791 78.8288 228.544 78.984L175.032 109.84C174.552 110.112 174.168 109.92 174.168 109.4C174.195 109.116 174.287 108.842 174.436 108.599C174.586 108.356 174.79 108.151 175.032 108Z" fill="white"/>
<path d="M175.032 113.6L228.544 82.7039C229.024 82.4239 229.408 82.6239 229.408 83.1439C229.387 83.4339 229.298 83.7149 229.148 83.9638C228.998 84.2127 228.791 84.4225 228.544 84.5759L175.032 115.472C174.552 115.752 174.168 115.552 174.168 115.032C174.189 114.742 174.278 114.461 174.428 114.212C174.578 113.963 174.785 113.753 175.032 113.6Z" fill="#0EA5C6"/>
<path opacity="0.6" d="M175.032 113.6L228.544 82.7039C229.024 82.4239 229.408 82.6239 229.408 83.1439C229.387 83.4339 229.298 83.7149 229.148 83.9638C228.998 84.2127 228.791 84.4225 228.544 84.5759L175.032 115.472C174.552 115.752 174.168 115.552 174.168 115.032C174.189 114.742 174.278 114.461 174.428 114.212C174.578 113.963 174.785 113.753 175.032 113.6Z" fill="white"/>
<path opacity="0.6" d="M175.032 119.2L228.544 88.304C229.024 88.032 229.408 88.224 229.408 88.744C229.387 89.0351 229.298 89.3172 229.148 89.5673C228.998 89.8175 228.791 90.0288 228.544 90.184L175.032 121.08C174.552 121.352 174.168 121.16 174.168 120.64C174.189 120.349 174.278 120.067 174.428 119.817C174.578 119.567 174.785 119.355 175.032 119.2Z" fill="white"/>
<path d="M177.048 134.96L180.8 132.8C181.6 132.352 182.184 132.712 182.184 133.6V137.904C182.157 138.385 182.018 138.852 181.778 139.269C181.538 139.686 181.203 140.04 180.8 140.304L177.072 142.456C176.272 142.896 175.688 142.536 175.688 141.656V137.36C175.71 136.881 175.845 136.414 176.081 135.997C176.317 135.58 176.649 135.225 177.048 134.96Z" fill="#0EA5C6"/>
<path opacity="0.2" d="M177.048 134.96L180.8 132.8C181.6 132.352 182.184 132.712 182.184 133.6V137.904C182.157 138.385 182.018 138.852 181.778 139.269C181.538 139.686 181.203 140.04 180.8 140.304L177.072 142.456C176.272 142.896 175.688 142.536 175.688 141.656V137.36C175.71 136.881 175.845 136.414 176.081 135.997C176.317 135.58 176.649 135.225 177.048 134.96Z" fill="white"/>
<path d="M187.144 131.008L209.672 117.992C210.632 117.44 211.408 117.832 211.408 118.872C211.364 119.453 211.185 120.016 210.883 120.515C210.581 121.014 210.167 121.435 209.672 121.744L187.144 134.76C186.184 135.312 185.408 134.92 185.408 133.88C185.451 133.299 185.631 132.736 185.933 132.237C186.234 131.738 186.649 131.317 187.144 131.008Z" fill="#0EA5C6"/>
<path opacity="0.8" d="M187.144 131.008L209.672 117.992C210.632 117.44 211.408 117.832 211.408 118.872C211.364 119.453 211.185 120.016 210.883 120.515C210.581 121.014 210.167 121.435 209.672 121.744L187.144 134.76C186.184 135.312 185.408 134.92 185.408 133.88C185.451 133.299 185.631 132.736 185.933 132.237C186.234 131.738 186.649 131.317 187.144 131.008Z" fill="white"/>
<path d="M176.528 148.4L233.328 115.6C233.808 115.32 234.192 115.52 234.192 116.032C234.172 116.323 234.083 116.605 233.933 116.856C233.783 117.106 233.575 117.317 233.328 117.472L176.528 150.272C176.048 150.552 175.664 150.352 175.664 149.832C175.684 149.542 175.774 149.261 175.924 149.012C176.074 148.763 176.281 148.553 176.528 148.4Z" fill="#0EA5C6"/>
<path d="M176.528 154.024L233.328 121.224C233.808 120.952 234.192 121.144 234.192 121.664C234.171 121.955 234.082 122.237 233.932 122.487C233.782 122.737 233.575 122.949 233.328 123.104L176.528 155.904C176.048 156.176 175.664 155.984 175.664 155.464C175.685 155.173 175.774 154.891 175.924 154.641C176.074 154.39 176.281 154.179 176.528 154.024Z" fill="#0EA5C6"/>
<path d="M176.528 159.656L233.328 126.856C233.808 126.576 234.192 126.776 234.192 127.288C234.172 127.579 234.083 127.862 233.933 128.112C233.783 128.362 233.575 128.573 233.328 128.728L176.528 161.528C176.048 161.808 175.664 161.608 175.664 161.096C175.684 160.805 175.773 160.523 175.923 160.272C176.073 160.022 176.28 159.811 176.528 159.656Z" fill="#0EA5C6"/>
<path d="M176.528 165.296L233.328 132.496C233.808 132.224 234.192 132.416 234.192 132.936C234.171 133.227 234.082 133.509 233.932 133.759C233.782 134.009 233.575 134.221 233.328 134.376L176.528 167.176C176.048 167.448 175.664 167.256 175.664 166.736C175.685 166.445 175.774 166.163 175.924 165.913C176.074 165.662 176.281 165.451 176.528 165.296Z" fill="#0EA5C6"/>
<path d="M176.528 148.4L233.328 115.6C233.808 115.32 234.192 115.52 234.192 116.032C234.172 116.323 234.083 116.605 233.933 116.856C233.783 117.106 233.575 117.317 233.328 117.472L176.528 150.272C176.048 150.552 175.664 150.352 175.664 149.832C175.684 149.542 175.774 149.261 175.924 149.012C176.074 148.763 176.281 148.553 176.528 148.4Z" fill="#E0E0E0"/>
<path d="M176.528 154.024L233.328 121.224C233.808 120.952 234.192 121.144 234.192 121.664C234.171 121.955 234.082 122.237 233.932 122.487C233.782 122.737 233.575 122.949 233.328 123.104L176.528 155.904C176.048 156.176 175.664 155.984 175.664 155.464C175.685 155.173 175.774 154.891 175.924 154.641C176.074 154.39 176.281 154.179 176.528 154.024Z" fill="#E0E0E0"/>
<path d="M176.528 159.656L233.328 126.856C233.808 126.576 234.192 126.776 234.192 127.288C234.172 127.579 234.083 127.862 233.933 128.112C233.783 128.362 233.575 128.573 233.328 128.728L176.528 161.528C176.048 161.808 175.664 161.608 175.664 161.096C175.684 160.805 175.773 160.523 175.923 160.272C176.073 160.022 176.28 159.811 176.528 159.656Z" fill="#E0E0E0"/>
<path d="M176.528 165.296L233.328 132.496C233.808 132.224 234.192 132.416 234.192 132.936C234.171 133.227 234.082 133.509 233.932 133.759C233.782 134.009 233.575 134.221 233.328 134.376L176.528 167.176C176.048 167.448 175.664 167.256 175.664 166.736C175.685 166.445 175.774 166.163 175.924 165.913C176.074 165.662 176.281 165.451 176.528 165.296Z" fill="#E0E0E0"/>
<path opacity="0.8" d="M176.528 148.4L233.328 115.6C233.808 115.32 234.192 115.52 234.192 116.032C234.172 116.323 234.083 116.605 233.933 116.856C233.783 117.106 233.575 117.317 233.328 117.472L176.528 150.272C176.048 150.552 175.664 150.352 175.664 149.832C175.684 149.542 175.774 149.261 175.924 149.012C176.074 148.763 176.281 148.553 176.528 148.4Z" fill="#E0E0E0"/>
<path opacity="0.8" d="M176.528 154.024L233.328 121.224C233.808 120.952 234.192 121.144 234.192 121.664C234.171 121.955 234.082 122.237 233.932 122.487C233.782 122.737 233.575 122.949 233.328 123.104L176.528 155.904C176.048 156.176 175.664 155.984 175.664 155.464C175.685 155.173 175.774 154.891 175.924 154.641C176.074 154.39 176.281 154.179 176.528 154.024Z" fill="#E0E0E0"/>
<path opacity="0.8" d="M176.528 159.656L233.328 126.856C233.808 126.576 234.192 126.776 234.192 127.288C234.172 127.579 234.083 127.862 233.933 128.112C233.783 128.362 233.575 128.573 233.328 128.728L176.528 161.528C176.048 161.808 175.664 161.608 175.664 161.096C175.684 160.805 175.773 160.523 175.923 160.272C176.073 160.022 176.28 159.811 176.528 159.656Z" fill="#E0E0E0"/>
<path opacity="0.8" d="M176.528 165.296L233.328 132.496C233.808 132.224 234.192 132.416 234.192 132.936C234.171 133.227 234.082 133.509 233.932 133.759C233.782 134.009 233.575 134.221 233.328 134.376L176.528 167.176C176.048 167.448 175.664 167.256 175.664 166.736C175.685 166.445 175.774 166.163 175.924 165.913C176.074 165.662 176.281 165.451 176.528 165.296Z" fill="#E0E0E0"/>
<path d="M176.528 189.2L233.328 156.4C233.808 156.12 234.192 156.32 234.192 156.832C234.172 157.123 234.083 157.405 233.933 157.656C233.783 157.906 233.575 158.117 233.328 158.272L176.528 191.072C176.048 191.352 175.664 191.152 175.664 190.632C175.684 190.342 175.774 190.061 175.924 189.812C176.074 189.563 176.281 189.353 176.528 189.2Z" fill="#E0E0E0"/>
<path d="M176.528 194.824L233.328 162.024C233.808 161.752 234.192 161.944 234.192 162.464C234.171 162.755 234.082 163.037 233.932 163.287C233.782 163.538 233.575 163.749 233.328 163.904L176.528 196.704C176.048 196.976 175.664 196.784 175.664 196.264C175.685 195.973 175.774 195.691 175.924 195.441C176.074 195.19 176.281 194.979 176.528 194.824Z" fill="#E0E0E0"/>
<path d="M176.528 200.456L233.328 167.656C233.808 167.376 234.192 167.576 234.192 168.088C234.172 168.379 234.083 168.661 233.933 168.912C233.783 169.162 233.575 169.373 233.328 169.528L176.528 202.328C176.048 202.608 175.664 202.408 175.664 201.896C175.684 201.605 175.773 201.322 175.923 201.072C176.073 200.822 176.28 200.611 176.528 200.456Z" fill="#E0E0E0"/>
<path d="M176.528 206.096L233.328 173.296C233.808 173.024 234.192 173.216 234.192 173.736C234.171 174.027 234.082 174.309 233.932 174.559C233.782 174.809 233.575 175.021 233.328 175.176L176.528 207.976C176.048 208.248 175.664 208.056 175.664 207.536C175.685 207.245 175.774 206.963 175.924 206.713C176.074 206.462 176.281 206.251 176.528 206.096Z" fill="#E0E0E0"/>
<path opacity="0.8" d="M176.528 189.2L233.328 156.4C233.808 156.12 234.192 156.32 234.192 156.832C234.172 157.123 234.083 157.405 233.933 157.656C233.783 157.906 233.575 158.117 233.328 158.272L176.528 191.072C176.048 191.352 175.664 191.152 175.664 190.632C175.684 190.342 175.774 190.061 175.924 189.812C176.074 189.563 176.281 189.353 176.528 189.2Z" fill="#E0E0E0"/>
<path opacity="0.8" d="M176.528 194.824L233.328 162.024C233.808 161.752 234.192 161.944 234.192 162.464C234.171 162.755 234.082 163.037 233.932 163.287C233.782 163.538 233.575 163.749 233.328 163.904L176.528 196.704C176.048 196.976 175.664 196.784 175.664 196.264C175.685 195.973 175.774 195.691 175.924 195.441C176.074 195.19 176.281 194.979 176.528 194.824Z" fill="#E0E0E0"/>
<path opacity="0.8" d="M176.528 200.456L233.328 167.656C233.808 167.376 234.192 167.576 234.192 168.088C234.172 168.379 234.083 168.661 233.933 168.912C233.783 169.162 233.575 169.373 233.328 169.528L176.528 202.328C176.048 202.608 175.664 202.408 175.664 201.896C175.684 201.605 175.773 201.322 175.923 201.072C176.073 200.822 176.28 200.611 176.528 200.456Z" fill="#E0E0E0"/>
<path opacity="0.8" d="M176.528 206.096L233.328 173.296C233.808 173.024 234.192 173.216 234.192 173.736C234.171 174.027 234.082 174.309 233.932 174.559C233.782 174.809 233.575 175.021 233.328 175.176L176.528 207.976C176.048 208.248 175.664 208.056 175.664 207.536C175.685 207.245 175.774 206.963 175.924 206.713C176.074 206.462 176.281 206.251 176.528 206.096Z" fill="#E0E0E0"/>
<path d="M176.528 230.8L233.328 198C233.808 197.72 234.192 197.92 234.192 198.432C234.172 198.723 234.083 199.005 233.933 199.256C233.783 199.506 233.575 199.717 233.328 199.872L176.528 232.672C176.048 232.952 175.664 232.752 175.664 232.232C175.684 231.942 175.774 231.661 175.924 231.412C176.074 231.163 176.281 230.953 176.528 230.8Z" fill="#E0E0E0"/>
<path d="M176.528 236.424L233.328 203.624C233.808 203.352 234.192 203.544 234.192 204.064C234.171 204.355 234.082 204.637 233.932 204.887C233.782 205.137 233.575 205.349 233.328 205.504L176.528 238.304C176.048 238.576 175.664 238.384 175.664 237.864C175.685 237.573 175.774 237.291 175.924 237.041C176.074 236.79 176.281 236.579 176.528 236.424Z" fill="#E0E0E0"/>
<path d="M176.528 242.056L233.328 209.256C233.808 208.976 234.192 209.176 234.192 209.688C234.172 209.979 234.083 210.261 233.933 210.512C233.783 210.762 233.575 210.973 233.328 211.128L176.528 243.928C176.048 244.208 175.664 244.008 175.664 243.496C175.684 243.205 175.773 242.922 175.923 242.672C176.073 242.422 176.28 242.211 176.528 242.056Z" fill="#E0E0E0"/>
<path d="M176.528 247.696L233.328 214.896C233.808 214.624 234.192 214.816 234.192 215.336C234.171 215.627 234.082 215.909 233.932 216.159C233.782 216.409 233.575 216.621 233.328 216.776L176.528 249.576C176.048 249.848 175.664 249.656 175.664 249.136C175.685 248.845 175.774 248.563 175.924 248.313C176.074 248.062 176.281 247.851 176.528 247.696Z" fill="#E0E0E0"/>
<path opacity="0.8" d="M176.528 230.8L233.328 198C233.808 197.72 234.192 197.92 234.192 198.432C234.172 198.723 234.083 199.005 233.933 199.256C233.783 199.506 233.575 199.717 233.328 199.872L176.528 232.672C176.048 232.952 175.664 232.752 175.664 232.232C175.684 231.942 175.774 231.661 175.924 231.412C176.074 231.163 176.281 230.953 176.528 230.8Z" fill="#E0E0E0"/>
<path opacity="0.8" d="M176.528 236.424L233.328 203.624C233.808 203.352 234.192 203.544 234.192 204.064C234.171 204.355 234.082 204.637 233.932 204.887C233.782 205.137 233.575 205.349 233.328 205.504L176.528 238.304C176.048 238.576 175.664 238.384 175.664 237.864C175.685 237.573 175.774 237.291 175.924 237.041C176.074 236.79 176.281 236.579 176.528 236.424Z" fill="#E0E0E0"/>
<path opacity="0.8" d="M176.528 242.056L233.328 209.256C233.808 208.976 234.192 209.176 234.192 209.688C234.172 209.979 234.083 210.261 233.933 210.512C233.783 210.762 233.575 210.973 233.328 211.128L176.528 243.928C176.048 244.208 175.664 244.008 175.664 243.496C175.684 243.205 175.773 242.922 175.923 242.672C176.073 242.422 176.28 242.211 176.528 242.056Z" fill="#E0E0E0"/>
<path opacity="0.8" d="M176.528 247.696L233.328 214.896C233.808 214.624 234.192 214.816 234.192 215.336C234.171 215.627 234.082 215.909 233.932 216.159C233.782 216.409 233.575 216.621 233.328 216.776L176.528 249.576C176.048 249.848 175.664 249.656 175.664 249.136C175.685 248.845 175.774 248.563 175.924 248.313C176.074 248.062 176.281 247.851 176.528 247.696Z" fill="#E0E0E0"/>
<path d="M177.048 176.232L180.8 174.08C181.6 173.64 182.184 174 182.184 174.88V179.2C182.159 179.681 182.021 180.149 181.78 180.566C181.54 180.983 181.204 181.338 180.8 181.6L177.072 183.752C176.272 184.192 175.688 183.84 175.688 182.952V178.648C175.708 178.167 175.842 177.697 176.078 177.277C176.315 176.857 176.647 176.499 177.048 176.232Z" fill="#0EA5C6"/>
<path opacity="0.2" d="M177.048 176.232L180.8 174.08C181.6 173.64 182.184 174 182.184 174.88V179.2C182.159 179.681 182.021 180.149 181.78 180.566C181.54 180.983 181.204 181.338 180.8 181.6L177.072 183.752C176.272 184.192 175.688 183.84 175.688 182.952V178.648C175.708 178.167 175.842 177.697 176.078 177.277C176.315 176.857 176.647 176.499 177.048 176.232Z" fill="white"/>
<path d="M187.144 172.28L209.672 159.272C210.632 158.72 211.408 159.112 211.408 160.144C211.366 160.727 211.186 161.291 210.885 161.792C210.583 162.292 210.168 162.714 209.672 163.024L187.144 176C186.184 176.552 185.408 176.16 185.408 175.128C185.455 174.551 185.637 173.993 185.938 173.498C186.24 173.003 186.652 172.586 187.144 172.28Z" fill="#0EA5C6"/>
<path opacity="0.8" d="M187.144 172.28L209.672 159.272C210.632 158.72 211.408 159.112 211.408 160.144C211.366 160.727 211.186 161.291 210.885 161.792C210.583 162.292 210.168 162.714 209.672 163.024L187.144 176C186.184 176.552 185.408 176.16 185.408 175.128C185.455 174.551 185.637 173.993 185.938 173.498C186.24 173.003 186.652 172.586 187.144 172.28Z" fill="white"/>
<path d="M177.048 217.512L180.8 215.36C181.6 214.912 182.184 215.272 182.184 216.16V220.464C182.159 220.945 182.02 221.413 181.78 221.83C181.539 222.247 181.203 222.601 180.8 222.864L177.072 225.016C176.272 225.456 175.688 225.096 175.688 224.216V219.912C175.71 219.433 175.845 218.966 176.081 218.549C176.317 218.132 176.649 217.777 177.048 217.512Z" fill="#0EA5C6"/>
<path opacity="0.2" d="M177.048 217.512L180.8 215.36C181.6 214.912 182.184 215.272 182.184 216.16V220.464C182.159 220.945 182.02 221.413 181.78 221.83C181.539 222.247 181.203 222.601 180.8 222.864L177.072 225.016C176.272 225.456 175.688 225.096 175.688 224.216V219.912C175.71 219.433 175.845 218.966 176.081 218.549C176.317 218.132 176.649 217.777 177.048 217.512Z" fill="white"/>
<path d="M187.144 213.6L209.672 200.584C210.632 200.032 211.408 200.424 211.408 201.464C211.365 202.047 211.186 202.611 210.884 203.111C210.582 203.612 210.167 204.034 209.672 204.344L187.144 217.352C186.184 217.904 185.408 217.512 185.408 216.472C185.451 215.891 185.631 215.328 185.933 214.829C186.234 214.33 186.649 213.909 187.144 213.6Z" fill="#0EA5C6"/>
<path opacity="0.8" d="M187.144 213.6L209.672 200.584C210.632 200.032 211.408 200.424 211.408 201.464C211.365 202.047 211.186 202.611 210.884 203.111C210.582 203.612 210.167 204.034 209.672 204.344L187.144 217.352C186.184 217.904 185.408 217.512 185.408 216.472C185.451 215.891 185.631 215.328 185.933 214.829C186.234 214.33 186.649 213.909 187.144 213.6Z" fill="white"/>
<path d="M182.352 253.848L186.08 251.696C186.88 251.256 187.472 251.616 187.472 252.496V256.8C187.446 257.281 187.306 257.75 187.064 258.167C186.822 258.584 186.485 258.938 186.08 259.2L182.352 261.352C181.592 261.8 180.968 261.44 180.968 260.552V256.248C180.996 255.768 181.135 255.301 181.376 254.884C181.616 254.467 181.95 254.113 182.352 253.848Z" fill="#0EA5C6"/>
<path d="M176.528 268.472L191.912 259.592C192.392 259.32 192.776 259.512 192.776 260.032C192.755 260.323 192.666 260.605 192.516 260.855C192.366 261.106 192.159 261.317 191.912 261.472L176.528 270.352C176.048 270.624 175.664 270.432 175.664 269.912C175.685 269.621 175.774 269.339 175.924 269.089C176.074 268.839 176.281 268.627 176.528 268.472Z" fill="#E0E0E0"/>
<path d="M203.048 241.896L206.776 239.744C207.536 239.304 208.16 239.664 208.16 240.544V244.848C208.134 245.329 207.995 245.796 207.755 246.213C207.514 246.63 207.179 246.985 206.776 247.248L203.048 249.4C202.248 249.84 201.656 249.488 201.656 248.6V244.296C201.683 243.815 201.823 243.346 202.065 242.929C202.307 242.512 202.644 242.158 203.048 241.896Z" fill="#0EA5C6"/>
<path d="M197.216 256.52L212.6 247.64C213.08 247.36 213.464 247.56 213.464 248.08C213.443 248.37 213.354 248.651 213.204 248.9C213.054 249.149 212.847 249.359 212.6 249.512L197.216 258.4C196.736 258.68 196.352 258.48 196.352 257.968C196.371 257.675 196.459 257.391 196.609 257.14C196.759 256.888 196.967 256.675 197.216 256.52Z" fill="#E0E0E0"/>
<path d="M223.736 229.944L227.464 227.792C228.224 227.344 228.848 227.704 228.848 228.592V232.896C228.821 233.376 228.681 233.844 228.441 234.26C228.201 234.677 227.866 235.032 227.464 235.296L223.736 237.448C222.936 237.888 222.352 237.528 222.352 236.648V232.344C222.377 231.863 222.515 231.395 222.755 230.978C222.996 230.56 223.332 230.206 223.736 229.944Z" fill="#0EA5C6"/>
<path opacity="0.2" d="M182.352 253.848L186.08 251.696C186.88 251.256 187.472 251.616 187.472 252.496V256.8C187.446 257.281 187.306 257.75 187.064 258.167C186.822 258.584 186.485 258.938 186.08 259.2L182.352 261.352C181.592 261.8 180.968 261.44 180.968 260.552V256.248C180.996 255.768 181.135 255.301 181.376 254.884C181.616 254.467 181.95 254.113 182.352 253.848Z" fill="white"/>
<path opacity="0.2" d="M203.048 241.896L206.776 239.744C207.536 239.304 208.16 239.664 208.16 240.544V244.848C208.134 245.329 207.995 245.796 207.755 246.213C207.514 246.63 207.179 246.985 206.776 247.248L203.048 249.4C202.248 249.84 201.656 249.488 201.656 248.6V244.296C201.683 243.815 201.823 243.346 202.065 242.929C202.307 242.512 202.644 242.158 203.048 241.896Z" fill="white"/>
<path opacity="0.2" d="M223.736 229.944L227.464 227.792C228.224 227.344 228.848 227.704 228.848 228.592V232.896C228.821 233.376 228.681 233.844 228.441 234.26C228.201 234.677 227.866 235.032 227.464 235.296L223.736 237.448C222.936 237.888 222.352 237.528 222.352 236.648V232.344C222.377 231.863 222.515 231.395 222.755 230.978C222.996 230.56 223.332 230.206 223.736 229.944Z" fill="white"/>
<path d="M217.904 244.568L233.288 235.688C233.768 235.408 234.152 235.608 234.152 236.12C234.132 236.411 234.043 236.693 233.893 236.944C233.743 237.194 233.535 237.405 233.288 237.56L217.904 246.44C217.432 246.72 217.04 246.52 217.04 246C217.062 245.71 217.152 245.43 217.302 245.182C217.452 244.933 217.658 244.723 217.904 244.568Z" fill="#E0E0E0"/>
<path d="M141.672 111.088C132.696 116.144 125.424 128.744 125.424 139.224C125.424 149.704 132.696 154.008 141.672 148.824C150.648 143.64 157.92 131.048 157.92 120.68C157.92 110.312 150.64 106.024 141.672 111.088Z" fill="#FAFAFA"/>
<path d="M149.544 143.384L136.536 146.872C136.312 146.945 136.073 146.961 135.841 146.919C135.61 146.876 135.392 146.776 135.209 146.629C135.025 146.481 134.881 146.29 134.79 146.072C134.699 145.855 134.664 145.618 134.688 145.384V123.24C134.734 121.407 135.346 119.633 136.44 118.162C137.535 116.691 139.057 115.595 140.8 115.024L145.248 113.832C148.632 112.928 151.376 115.136 151.376 118.76V140.912C151.361 141.462 151.178 141.995 150.85 142.437C150.522 142.879 150.066 143.21 149.544 143.384Z" fill="#37474F"/>
<path d="M150.168 149.112L148.8 143.072C148.8 143.072 148.8 134.92 147.64 134.168C146.48 133.416 146.144 133.272 146.144 133.272C147.632 132.76 150.768 132.376 151.744 135.24C152.68 137.944 154.08 144.608 154.744 147.888L150.168 149.112Z" fill="#F28F8F"/>
<path d="M150.056 149.144L145.416 133.344C147.472 132.544 150.112 131.88 151.392 134C152.544 135.904 154.384 145.88 154.744 147.888L150.056 149.144Z" fill="#0EA5C6"/>
<g opacity="0.4">
<path opacity="0.4" d="M150.056 149.144L145.416 133.344C147.472 132.544 150.112 131.88 151.392 134C152.544 135.904 154.384 145.88 154.744 147.888L150.056 149.144Z" fill="black"/>
</g>
<path d="M150.68 148.976L146.12 150.2C146.304 148.89 146.735 147.628 147.392 146.48C148.305 145.165 149.618 144.18 151.136 143.672C150.807 145.42 150.655 147.197 150.68 148.976Z" fill="#0EA5C6"/>
<path d="M150.68 148.976L146.12 150.2C146.304 148.89 146.735 147.628 147.392 146.48C148.305 145.165 149.618 144.18 151.136 143.672C150.807 145.42 150.655 147.197 150.68 148.976Z" fill="#0EA5C6"/>
<g opacity="0.7">
<path opacity="0.7" d="M150.68 148.976L146.12 150.2C146.304 148.89 146.735 147.628 147.392 146.48C148.305 145.165 149.618 144.18 151.136 143.672C150.807 145.42 150.655 147.197 150.68 148.976Z" fill="black"/>
</g>
<path d="M149.704 149.24L136.904 152.656L135.496 148.296C135.496 148.296 139.232 139.552 134.616 137.304C135.2 136.864 140.12 134.944 140.12 134.944L145.408 133.344C146.416 133.072 150.488 134.88 151.52 138.888C151.888 140.304 151.76 141.576 149.688 148.952C149.712 149.048 149.704 149.144 149.704 149.24Z" fill="#0EA5C6"/>
<path d="M148.648 116.552C149.528 116.872 150.616 118.952 150.512 123.968C150.424 128.224 149.144 129.568 148.504 130.08C147.545 130.56 146.488 130.809 145.416 130.808V133.344C145.416 133.344 147.08 134.944 146.976 136.16C146.872 137.376 144.576 138.24 143.024 137.52C141.89 136.881 140.91 136.002 140.152 134.944V129.104C140.035 129.239 139.892 129.349 139.733 129.428C139.573 129.507 139.399 129.553 139.221 129.564C139.043 129.576 138.865 129.551 138.696 129.493C138.528 129.434 138.373 129.343 138.24 129.224C137.99 129.053 137.777 128.834 137.613 128.579C137.45 128.324 137.339 128.039 137.288 127.741C137.236 127.442 137.245 127.137 137.314 126.842C137.382 126.547 137.51 126.269 137.688 126.024C138.488 124.976 139.888 124.824 140.432 125.872C141.109 124.228 142.321 122.861 143.872 121.992C146.4 120.456 147.776 119.088 148.648 116.552Z" fill="#FFA8A7"/>
<path d="M146.112 124.088C146.115 124.24 146.072 124.389 145.987 124.515C145.903 124.641 145.782 124.738 145.64 124.792C145.58 124.813 145.515 124.819 145.453 124.809C145.39 124.8 145.33 124.775 145.279 124.737C145.228 124.699 145.186 124.649 145.159 124.592C145.131 124.535 145.118 124.472 145.12 124.408C145.116 124.256 145.16 124.107 145.244 123.981C145.329 123.855 145.45 123.758 145.592 123.704C145.652 123.683 145.716 123.677 145.779 123.687C145.842 123.697 145.902 123.721 145.953 123.759C146.004 123.797 146.045 123.847 146.073 123.904C146.101 123.961 146.114 124.024 146.112 124.088Z" fill="#37474F"/>
<path d="M146.24 127.64L147.392 127.72C147.358 127.896 147.266 128.055 147.132 128.172C146.997 128.29 146.826 128.359 146.648 128.368C146.328 128.344 146.144 128 146.24 127.64Z" fill="#F28F8F"/>
<path d="M150.176 121.368L149.176 120.896C149.235 120.741 149.35 120.614 149.498 120.539C149.645 120.463 149.816 120.445 149.976 120.488C150.047 120.532 150.109 120.59 150.158 120.658C150.207 120.727 150.242 120.804 150.261 120.886C150.279 120.968 150.281 121.053 150.267 121.136C150.252 121.218 150.221 121.297 150.176 121.368Z" fill="#37474F"/>
<path d="M144.672 123.24L145.672 122.224C145.619 122.17 145.555 122.128 145.484 122.1C145.414 122.073 145.338 122.061 145.263 122.065C145.187 122.068 145.113 122.088 145.046 122.122C144.978 122.157 144.919 122.205 144.872 122.264C144.733 122.38 144.638 122.54 144.601 122.717C144.565 122.894 144.59 123.079 144.672 123.24Z" fill="#37474F"/>
<path d="M149.944 122.68C149.948 122.832 149.905 122.982 149.821 123.108C149.736 123.234 149.614 123.331 149.472 123.384C149.411 123.405 149.346 123.411 149.282 123.401C149.219 123.391 149.159 123.366 149.107 123.327C149.056 123.288 149.015 123.237 148.988 123.179C148.961 123.12 148.948 123.056 148.952 122.992C148.949 122.841 148.993 122.692 149.078 122.566C149.162 122.44 149.283 122.343 149.424 122.288C149.485 122.267 149.55 122.261 149.613 122.271C149.677 122.281 149.737 122.307 149.788 122.345C149.84 122.384 149.881 122.435 149.908 122.493C149.935 122.552 149.947 122.616 149.944 122.68Z" fill="#37474F"/>
<path d="M147.608 123L147.68 126.176L149.256 125.232L147.608 123Z" fill="#F28F8F"/>
<path d="M145.416 130.808C144.152 130.968 141.544 130.864 141.136 129.872C141.284 130.359 141.609 130.773 142.048 131.032C142.848 131.544 145.416 131.656 145.416 131.656V130.808Z" fill="#F28F8F"/>
<path d="M136.976 152.648L136.44 150.744L137.848 152.416L136.976 152.648Z" fill="#0EA5C6"/>
<path d="M135.928 152.928C135.353 150.191 134.575 147.501 133.6 144.88C132.256 141.192 133.76 138.008 134.664 137.304C135.568 136.6 140.168 134.944 140.168 134.944C141.832 139.68 142.288 146.024 142.328 151.216L135.928 152.928Z" fill="#0EA5C6"/>
<path opacity="0.4" d="M135.928 152.928C135.353 150.191 134.575 147.501 133.6 144.88C132.256 141.192 133.76 138.008 134.664 137.304C135.568 136.6 140.168 134.944 140.168 134.944C141.832 139.68 142.288 146.024 142.328 151.216L135.928 152.928Z" fill="black"/>
<path d="M133.656 153.536L129.088 154.76C128.96 154.674 128.84 154.578 128.728 154.472C128.728 154.472 130.888 146.136 131.576 143.368C132.264 140.6 132.792 138.696 134.648 137.304C137.984 139.472 136.44 145.496 136.44 145.496L133.656 153.536Z" fill="#0EA5C6"/>
<path opacity="0.4" d="M133.656 153.536L129.088 154.76C128.96 154.674 128.84 154.578 128.728 154.472C128.728 154.472 130.888 146.136 131.576 143.368C132.264 140.6 132.792 138.696 134.648 137.304C137.984 139.472 136.44 145.496 136.44 145.496L133.656 153.536Z" fill="black"/>
<path d="M67.1442 100.264V84.416C67.0962 81.344 69.0962 78.264 73.1522 75.928C81.1522 71.296 94.1602 71.296 102.176 75.928C106.232 78.264 108.232 81.344 108.184 84.416V100.208C108.184 103.264 106.216 108.728 102.176 111.056C94.1762 115.688 81.1682 115.688 73.1522 111.056C69.1522 108.752 67.1522 103.328 67.1442 100.296V100.264Z" fill="#EBEBEB"/>
<path d="M87.6641 64.752L121.528 84.3039L87.6641 103.856L53.8 84.3039L87.6641 64.752Z" fill="#F5F5F5"/>
<path d="M70.72 94.072L87.4 84.552C87.4688 84.5126 87.5447 84.4871 87.6233 84.4771C87.702 84.467 87.7818 84.4725 87.8584 84.4933C87.9349 84.5141 88.0065 84.5498 88.0693 84.5983C88.132 84.6468 88.1846 84.7072 88.224 84.776C88.2634 84.8448 88.2888 84.9207 88.2989 84.9993C88.3089 85.078 88.3034 85.1578 88.2826 85.2344C88.2618 85.3109 88.2262 85.3825 88.1777 85.4453C88.1292 85.508 88.0688 85.5606 88 85.6L71.912 94.76L70.72 94.072Z" fill="#E0E0E0"/>
<path d="M121.528 84.304V85.704L87.6641 105.248V103.856L121.528 84.304Z" fill="#E6E6E6"/>
<path d="M53.8 84.304V85.704L87.6641 105.248V103.856L53.8 84.304Z" fill="#F0F0F0"/>
<path d="M69.8801 94.984L70.9121 95.576C71.0681 95.3211 71.2854 95.1094 71.5441 94.96L71.9041 94.752L70.7281 94.08C70.3808 94.3133 70.0908 94.6224 69.8801 94.984Z" fill="#E0E0E0"/>
<path d="M108.224 93.3839L87.6642 107.344L67.1602 93.4159L87.6642 105.248L108.224 93.3839Z" fill="#E0E0E0"/>
<path d="M68.56 111.448C68.8469 111.596 69.1651 111.673 69.488 111.673C69.8109 111.673 70.1291 111.596 70.416 111.448L71.944 121.312C71.944 123.176 67.104 123.176 67.104 121.312L68.56 111.448Z" fill="#F5F5F5"/>
<path d="M68.4721 117.08L68.1681 122.488C68.0683 122.458 67.9719 122.418 67.8801 122.368L68.4721 117.08Z" fill="#EBEBEB"/>
<path d="M70.7601 122.528L70.1201 113.728L71.0721 122.4C70.9707 122.449 70.8666 122.491 70.7601 122.528Z" fill="#EBEBEB"/>
<path d="M69.6722 122.704H69.3682L69.5282 115.72L69.6722 122.704Z" fill="#EBEBEB"/>
<path d="M69.4799 112.272C69.8346 112.263 70.178 112.146 70.4639 111.936C70.5855 111.846 70.6682 111.713 70.6949 111.565C70.7217 111.416 70.6906 111.263 70.6079 111.136C70.5206 111.012 70.3882 110.926 70.2388 110.898C70.0894 110.869 69.9348 110.9 69.8079 110.984C69.7318 111.058 69.63 111.099 69.5239 111.099C69.4179 111.099 69.3161 111.058 69.2399 110.984C69.1777 110.929 69.1047 110.887 69.0254 110.861C68.9461 110.836 68.8624 110.827 68.7795 110.835C68.6966 110.844 68.6165 110.87 68.5441 110.911C68.4717 110.952 68.4087 111.008 68.359 111.075C68.3094 111.142 68.2743 111.218 68.2558 111.299C68.2374 111.381 68.2361 111.465 68.252 111.547C68.2679 111.628 68.3006 111.706 68.3481 111.774C68.3956 111.843 68.4569 111.901 68.528 111.944C68.8033 112.15 69.1362 112.265 69.4799 112.272Z" fill="#E0E0E0"/>
<path d="M69.5201 110.736C69.5985 110.737 69.6763 110.722 69.7491 110.693C69.8218 110.664 69.888 110.621 69.9438 110.565C69.9997 110.51 70.044 110.445 70.0742 110.372C70.1045 110.3 70.1201 110.222 70.1201 110.144V96.16C70.1208 95.8456 70.204 95.5368 70.3612 95.2645C70.5184 94.9922 70.7442 94.7659 71.0161 94.608L88 84.928C88.1349 84.8507 88.234 84.7235 88.2759 84.5739C88.3179 84.4242 88.2992 84.264 88.224 84.128C88.1866 84.0604 88.136 84.0009 88.0754 83.953C88.0148 83.9051 87.9452 83.8697 87.8708 83.8489C87.7964 83.8281 87.7186 83.8222 87.6419 83.8317C87.5652 83.8411 87.4912 83.8657 87.424 83.904L70.4001 93.6C69.9463 93.862 69.5692 94.2385 69.3067 94.692C69.0441 95.1455 68.9053 95.66 68.9041 96.184V110.168C68.9071 110.246 68.9255 110.322 68.9582 110.393C68.9908 110.463 69.0371 110.527 69.0943 110.58C69.1515 110.632 69.2185 110.673 69.2916 110.7C69.3647 110.727 69.4423 110.739 69.5201 110.736Z" fill="#FAFAFA"/>
<path d="M70.832 110.144C70.8336 109.884 70.758 109.63 70.6148 109.413C70.4716 109.196 70.2672 109.027 70.0276 108.926C69.788 108.826 69.524 108.798 69.269 108.848C69.0139 108.898 68.7794 109.022 68.5951 109.205C68.4108 109.389 68.2851 109.622 68.2338 109.877C68.1825 110.132 68.208 110.396 68.3071 110.636C68.4062 110.876 68.5743 111.082 68.7902 111.226C69.0062 111.371 69.2602 111.448 69.52 111.448C69.6919 111.449 69.8623 111.416 70.0215 111.351C70.1806 111.286 70.3253 111.19 70.4472 111.069C70.5692 110.948 70.6659 110.804 70.732 110.645C70.798 110.486 70.832 110.316 70.832 110.144Z" fill="#F5F5F5"/>
<path d="M68.224 110.216C68.2786 110.351 68.3618 110.473 68.4678 110.574C68.5738 110.674 68.7003 110.75 68.8384 110.797C68.9766 110.844 69.1233 110.861 69.2685 110.846C69.4137 110.832 69.554 110.786 69.68 110.712C69.8406 110.615 69.9736 110.478 70.0658 110.315C70.1581 110.152 70.2066 109.967 70.2066 109.78C70.2066 109.592 70.1581 109.408 70.0658 109.245C69.9736 109.081 69.8406 108.945 69.68 108.848C69.9247 108.882 70.1548 108.984 70.3435 109.144C70.5322 109.303 70.6717 109.513 70.7457 109.749C70.8198 109.984 70.8254 110.236 70.7619 110.475C70.6983 110.714 70.5683 110.93 70.3868 111.097C70.2054 111.265 69.9801 111.378 69.7371 111.422C69.4941 111.467 69.2434 111.441 69.0143 111.349C68.7851 111.257 68.5869 111.101 68.4428 110.901C68.2986 110.7 68.2144 110.463 68.2 110.216H68.224Z" fill="#EBEBEB"/>
<path d="M240.84 177.32C237.816 176.376 234.712 178.824 232.68 183.768C230.648 188.712 226.384 201.288 225.752 204.64C225.12 207.992 239.424 215.288 239.024 215.096C238.624 214.904 240.84 177.32 240.84 177.32Z" fill="#263238"/>
<path d="M234.192 293.688C233.76 293.848 233.656 294.664 233.592 296.28C233.544 297.504 233.28 299.64 234.712 300.064C236.144 300.488 238.248 300.272 239.168 299.12C240.312 297.68 241.088 296.416 242.72 294.656C244.144 293.136 245.672 291.712 246.248 289.576C246.768 287.64 246.336 286.808 245.016 286.248C243.208 285.448 240.36 287.992 238.944 288.392C237.72 288.736 234.616 293.528 234.192 293.688Z" fill="#263238"/>
<path d="M234.192 292.192V294.176C234.937 294.652 235.797 294.917 236.681 294.941C237.565 294.965 238.438 294.747 239.208 294.312C239.296 294.12 239.728 291.472 239.728 291.472L234.192 292.192Z" fill="#FFA8A7"/>
<path d="M250.264 305.128C250.264 305.128 249.696 306.856 249.392 308.328C249.144 309.528 248.8 311.528 249.216 312.44C249.632 313.352 251.28 313.928 253.816 313.904C255.464 313.904 258.032 315.016 259.784 315.992C261.536 316.968 265.384 317.408 267.296 317.184C269.552 316.92 271.896 315.584 272.264 314.672C272.632 313.76 272.144 312.76 266.816 310.488C266.768 310.488 259.408 308.088 256.824 305.232L250.264 305.128Z" fill="#263238"/>
<path d="M250.264 302.984C250.264 302.984 250.264 304.456 250.264 305.296C250.264 306.136 251.256 307.392 253.832 307.304C255.64 307.24 256.896 306.752 256.824 305.264V303.112L250.264 302.984Z" fill="#FFA8A7"/>
<path d="M232.896 265.848C233.338 262.332 234.123 258.867 235.24 255.504C235.24 255.504 234.536 246.584 234.192 238.128C233.824 228.992 234.192 217.504 234.04 215.232C234.04 215.232 263.52 209.264 264.048 219.824C264.576 230.384 262.88 257.264 262.536 261.904C262.192 266.544 261.384 270.648 260.424 278.168C259.464 285.688 256.824 303.112 256.824 303.112C255.804 303.632 254.672 303.892 253.528 303.869C252.384 303.847 251.263 303.543 250.264 302.984C250.264 302.984 248.192 281.864 248.408 276.512C248.577 272.537 249.26 268.6 250.44 264.8L249.392 248.52C248.896 240.944 248.376 237.32 248.256 234.016L247.624 233.696C247.624 233.696 246.976 246.768 246.632 251.408C246.288 256.048 245.544 260.496 244.232 269.112C243.064 276.584 239.6 292.4 239.6 292.4C236.232 294.224 234.224 292.168 234.224 292.168C234.224 292.168 232 272.328 232.896 265.848Z" fill="#455A64"/>
<path d="M248.256 234.04C248.256 234.04 241.104 230.512 237.528 227.336C237.528 227.336 240.848 232.016 245.216 234.096C245.216 234.096 246.768 250.328 246.76 250.008L247.656 234.008L248.256 234.04Z" fill="#37474F"/>
<path d="M254.624 173.976L252.88 183.576L244.208 182.944L246.024 172.056L254.624 173.976Z" fill="#FFA8A7"/>
<path d="M235.048 182.24C235.904 179.632 239.216 176.792 242.528 177.44C247.454 178.273 252.308 179.485 257.048 181.064C260.08 182.144 262.84 184.768 263.096 194.752L264.632 224.48L260.96 225.28L259.68 218.544L259.088 225.28C255.248 226.24 248.584 225.448 244.208 224.48C235.088 222.488 233.992 218.704 233.992 218.704C233.992 218.704 233.872 201.976 234.144 194.752C234.4 188.576 234.456 184 235.048 182.24Z" fill="#37474F"/>
<path d="M261.04 162.6C261.04 162.6 263.144 165.712 262.872 166.04C262.386 166.368 261.843 166.604 261.272 166.736L261.04 162.6Z" fill="#FFA8A7"/>
<path d="M254.624 152.744C256.648 153.768 260.144 155.656 261.104 163.056C262.096 170.656 260.792 173.104 259.768 174.112C259.072 174.792 255.296 174.832 253.408 174.264C251.008 173.552 245.712 171.528 243.28 167.624C240.416 163.032 239.776 156.88 243.008 154.432C247.544 150.992 252.912 151.88 254.624 152.744Z" fill="#FFA8A7"/>
<path d="M261.528 155.288C260.864 157.112 259.744 161.576 255.088 163.44C255.088 163.44 254.424 160.592 252.032 160.896C249.64 161.2 249.232 164.248 250.704 166.144C252.176 168.04 253.6 167.352 253.6 167.352C253.6 167.352 253.92 171.432 251.2 173.28C251.2 173.28 247.912 175.36 244.432 173.76C242.832 173.04 240.648 169.288 239.352 166.208C236.6 159.696 236.208 154.472 240.36 152.824C240.872 149.864 242.208 148.752 244.888 148.2C250.656 147.008 255.016 150.8 259.864 150.136C262.4 149.784 262.288 153.208 261.528 155.288Z" fill="#37474F"/>
<path d="M240.264 153.816L237.544 152.136C237.649 151.948 237.792 151.782 237.963 151.651C238.134 151.519 238.33 151.423 238.539 151.368C238.748 151.314 238.966 151.303 239.179 151.335C239.393 151.367 239.597 151.442 239.781 151.556C239.965 151.669 240.124 151.819 240.248 151.995C240.373 152.172 240.46 152.372 240.505 152.583C240.55 152.794 240.552 153.012 240.511 153.224C240.469 153.436 240.385 153.637 240.264 153.816Z" fill="#37474F"/>
<path d="M253.984 177.472L254.976 180.344C254.976 180.344 254.248 181.624 251.152 181.688C248.056 181.752 244.752 180.768 243.728 179.448C243.495 179.19 243.322 178.882 243.223 178.549C243.123 178.215 243.099 177.864 243.152 177.52C243.152 177.52 244.384 174.8 245.552 174.92L245.36 176.104C245.36 176.104 245.624 177.072 248.432 177.816C252.8 178.976 253.984 177.472 253.984 177.472Z" fill="#455A64"/>
<path d="M278.864 196.56C280.112 195.128 280.592 191.952 282.256 189.776C283.92 187.6 284.536 186.008 285.192 186.96C286.064 188.216 284.096 190.736 284.536 190.96C284.976 191.184 286.6 194.528 286.768 196.368C286.936 198.208 282.056 202.848 282.056 202.848L278.864 196.56Z" fill="#FFA8A7"/>
<path d="M253.984 177.472C254.185 177.468 254.384 177.519 254.559 177.619C254.733 177.719 254.878 177.864 254.976 178.04C255.465 178.923 255.903 179.834 256.288 180.768L254.976 180.344L253.984 177.472Z" fill="#455A64"/>
<path d="M284.4 190.704C284.4 190.704 290.296 190.192 291.152 190.704C292.008 191.216 291.752 193.768 291.152 195.336C290.552 196.904 287.544 197.92 284.752 199.808C284.752 199.52 284.4 190.704 284.4 190.704Z" fill="#FFA8A7"/>
<path d="M256.288 180.8C258.824 181.688 261.04 182.704 263.408 187.152C266.448 192.864 272.208 202 272.208 202L278.84 196.152C278.84 196.152 279.84 195.184 281.704 198.264C282.25 199.093 282.596 200.038 282.714 201.024C282.832 202.01 282.719 203.009 282.384 203.944C282.384 203.944 274.728 212.928 273.264 214.296C271.8 215.664 269.376 214.6 267.8 212.448C266.224 210.296 256.264 197.856 256.264 197.856C256.264 197.856 250.856 190.672 256.288 180.8Z" fill="#37474F"/>
<path d="M324.696 165.864H305.808C305.095 165.864 304.411 165.581 303.907 165.077C303.403 164.573 303.12 163.889 303.12 163.176V133.168C303.12 130.807 304.058 128.542 305.728 126.872C307.398 125.202 309.663 124.264 312.024 124.264H318.504C320.861 124.27 323.12 125.211 324.785 126.88C326.449 128.55 327.384 130.811 327.384 133.168V163.176C327.384 163.889 327.101 164.573 326.597 165.077C326.093 165.581 325.409 165.864 324.696 165.864Z" fill="#37474F"/>
<path d="M302.624 155.624C300.792 161.024 297.72 176.56 297.72 176.56C297.72 176.56 291.32 184.384 289.232 186.28C288.088 187.336 285.512 189.232 285.512 189.232L290.192 192.672C294.418 189.422 298.387 185.851 302.064 181.992C302.882 181.122 303.456 180.051 303.728 178.888L306.928 165.16C306.928 165.16 306.928 154.12 308.616 152.672C310.304 151.224 310.792 150.92 310.792 150.92C308.624 150.76 304.064 151.376 302.624 155.624Z" fill="#F28F8F"/>
<path d="M311.792 150.76C308.808 150.416 304.984 150.48 303.12 153.816C301.256 157.152 298.152 174.4 298.152 174.4C298.152 174.4 301.088 176.68 304.256 176.64L311.792 150.76Z" fill="#0EA5C6"/>
<path d="M303.496 166.832C304.033 169.403 304.24 172.032 304.112 174.656C303.88 178.112 301.496 184.144 301.496 184.144C301.496 184.144 303.36 186.192 308.616 185.368C312.896 184.704 311.384 171.768 308.928 169.288C307.496 167.808 305.553 166.93 303.496 166.832Z" fill="#0EA5C6"/>
<path opacity="0.3" d="M303.496 166.832C304.033 169.403 304.24 172.032 304.112 174.656C303.88 178.112 301.496 184.144 301.496 184.144C301.496 184.144 303.36 186.192 308.616 185.368C312.896 184.704 311.384 171.768 308.928 169.288C307.496 167.808 305.553 166.93 303.496 166.832Z" fill="black"/>
<path d="M313.384 258.192C313.418 258.782 313.27 259.369 312.96 259.872C312.169 261.179 311.238 262.397 310.184 263.504C308.704 265.104 306.488 266.984 304.896 268.368C304.016 269.168 303.984 270.304 305.248 270.712C307.604 271.286 310.09 270.94 312.2 269.744C313.8 268.896 316.024 264.944 317.336 264.384C318.848 263.704 319.688 263.368 320.2 262.672C320.587 262.276 320.829 261.761 320.885 261.211C320.942 260.66 320.81 260.106 320.512 259.64C319.8 258.312 318.728 256.272 318.288 256.504L318.424 256.92C318.08 258 315.136 259.256 313.624 258.96L313.384 258.192Z" fill="#37474F"/>
<path d="M328.8 213.056C329.48 205.856 331.432 194.272 329.432 185.696L302.872 187.104C302.136 195.56 301.272 221.96 302.2 224.984C303.272 228.552 312.848 253.248 313.4 258.216C313.438 258.799 313.29 259.379 312.976 259.872C312.186 261.183 311.255 262.403 310.2 263.512C309.48 264.312 308.6 265.112 307.672 265.912C307.594 266.026 307.547 266.158 307.536 266.296C307.536 267.096 309.552 267.344 310.736 267C312.213 266.479 313.485 265.501 314.368 264.208C315.048 263.304 316.576 261.568 317.568 260.264C317.899 259.862 318.181 259.421 318.408 258.952C318.673 258.366 318.718 257.705 318.536 257.088L318.472 256.888C317.953 255.269 317.631 253.593 317.512 251.896C317.144 246.448 316.208 233.864 315.344 230.512C314.744 228.069 313.833 225.714 312.632 223.504L315.664 199.912C315.664 199.912 315.984 220.712 316.928 226.016C317.672 230.264 317.96 235.576 318.832 242.864C319.632 249.84 320.56 262.128 320.56 262.128C320.584 262.132 320.608 262.132 320.632 262.128V268H325.6V264.592C325.6 263.053 325.728 261.517 325.984 260C326.784 255.36 328.448 244.744 328.792 241.152C329.336 235.456 327.28 228.296 327.28 228.296C327.28 228.296 328.136 220.08 328.8 213.056Z" fill="#FFA8A7"/>
<path d="M319.44 151.008C319.44 151.008 326.584 151.808 327.44 152.216C320.736 156.928 326.168 167.416 326.168 167.416L323.6 175.472C326.456 179.128 328.92 181.304 330.448 185.312C332.144 189.792 333.648 196.456 333.248 210.112C326.848 214.912 307.376 214.392 299.792 210.112C299.792 210.112 301.072 198.056 302.584 188.688C303.584 182.504 305.944 175.768 305.544 173.488C302.536 164.24 302.344 162.576 302.888 160.512C304.384 154.704 310.304 150.776 311.76 150.776L319.44 151.008Z" fill="#0EA5C6"/>
<path opacity="0.6" d="M319.44 151.008C319.44 151.008 326.584 151.808 327.44 152.216C320.736 156.928 326.168 167.416 326.168 167.416L323.6 175.472C326.456 179.128 328.92 181.304 330.448 185.312C332.144 189.792 333.648 196.456 333.248 210.112C326.848 214.912 307.376 214.392 299.792 210.112C299.792 210.112 301.072 198.056 302.584 188.688C303.584 182.504 305.944 175.768 305.544 173.488C302.536 164.24 302.344 162.576 302.888 160.512C304.384 154.704 310.304 150.776 311.76 150.776L319.44 151.008Z" fill="white"/>
<path d="M320.584 265.512V264.8C319.96 267.192 318.712 269.376 316.968 271.128C315.368 272.576 313.208 274.256 312.648 275.88C312.088 277.504 315.216 278.232 317.28 278.024C319.28 277.78 321.123 276.816 322.464 275.312C323.776 273.808 323.752 272.784 324.36 271.952C324.968 271.12 326.384 270.208 326.712 269.248C326.814 268.352 326.716 267.445 326.424 266.592C326.192 265.704 325.936 264.72 325.624 264.8V265.352C324.904 265.918 324.012 266.221 323.096 266.208C322.4 266.224 320.576 266.072 320.584 265.512Z" fill="#37474F"/>
<path d="M325.6 265.336C324.88 265.902 323.988 266.205 323.072 266.192C322.336 266.192 320.544 266.072 320.552 265.512V264.8C319.928 267.192 318.68 269.376 316.936 271.128L315.728 272.208C314.88 273.152 315.12 273.976 317.112 274.144C319.104 274.312 320.856 273.112 322.36 271.264C323.642 269.406 324.728 267.419 325.6 265.336Z" fill="#FFA8A7"/>
<path d="M307.104 129.168C305.824 129.928 304.24 133.168 304.392 139.904C304.528 145.632 306.384 147.048 307.32 147.456C308.256 147.864 310.048 147.616 311.792 147.328V150.76C311.792 150.76 309.392 153.568 309.528 155.144C309.664 156.72 313.016 157.088 315.28 155.552C316.915 154.285 318.321 152.748 319.44 151.008L319.4 143.112C319.4 143.112 320.432 144.104 322.176 142.584C323.616 141.328 324.096 139.2 322.976 138.064C322.685 137.791 322.333 137.591 321.949 137.481C321.566 137.371 321.161 137.355 320.77 137.433C320.378 137.511 320.011 137.682 319.699 137.931C319.387 138.18 319.139 138.5 318.976 138.864C318.976 138.864 318.008 136.168 313.984 134.864C310.352 133.656 308.376 132.288 307.104 129.168Z" fill="#FFA8A7"/>
<path d="M310.792 138.472C310.792 138.613 310.834 138.751 310.911 138.868C310.989 138.986 311.1 139.078 311.23 139.134C311.359 139.189 311.502 139.205 311.641 139.18C311.78 139.154 311.908 139.089 312.01 138.991C312.112 138.894 312.183 138.769 312.214 138.631C312.245 138.494 312.236 138.35 312.186 138.218C312.136 138.086 312.049 137.971 311.935 137.889C311.821 137.806 311.685 137.758 311.544 137.752C311.447 137.75 311.351 137.767 311.261 137.802C311.171 137.837 311.089 137.889 311.019 137.956C310.949 138.023 310.893 138.103 310.854 138.192C310.815 138.28 310.794 138.375 310.792 138.472Z" fill="#37474F"/>
<path d="M310.6 143.32L308.928 143.856C308.957 143.968 309.009 144.072 309.08 144.163C309.151 144.254 309.239 144.33 309.34 144.386C309.441 144.442 309.552 144.477 309.667 144.489C309.782 144.501 309.898 144.49 310.008 144.456C310.234 144.379 310.421 144.218 310.531 144.007C310.642 143.795 310.666 143.549 310.6 143.32Z" fill="#F28F8F"/>
<path d="M304.888 136.256L306.344 135.248C306.282 135.15 306.202 135.065 306.106 134.999C306.011 134.932 305.903 134.886 305.789 134.863C305.675 134.84 305.558 134.84 305.445 134.864C305.331 134.887 305.223 134.934 305.128 135C304.933 135.137 304.799 135.345 304.754 135.58C304.709 135.814 304.757 136.056 304.888 136.256Z" fill="#37474F"/>
<path d="M312.888 136.8L311.424 135.792C311.486 135.694 311.567 135.609 311.662 135.543C311.757 135.476 311.864 135.43 311.978 135.406C312.091 135.382 312.208 135.381 312.322 135.404C312.436 135.426 312.544 135.471 312.64 135.536C312.834 135.676 312.967 135.885 313.013 136.119C313.059 136.354 313.014 136.597 312.888 136.8Z" fill="#37474F"/>
<path d="M305.224 137.944C305.223 138.085 305.263 138.224 305.34 138.343C305.417 138.461 305.527 138.555 305.656 138.611C305.786 138.668 305.929 138.685 306.068 138.66C306.208 138.636 306.337 138.571 306.439 138.474C306.542 138.377 306.614 138.252 306.646 138.114C306.677 137.976 306.668 137.832 306.619 137.7C306.569 137.567 306.482 137.452 306.368 137.369C306.254 137.286 306.117 137.238 305.976 137.232C305.782 137.228 305.595 137.3 305.454 137.433C305.313 137.567 305.23 137.75 305.224 137.944Z" fill="#37474F"/>
<path d="M308.616 137.536L308.504 141.872L306.224 141.168L308.616 137.536Z" fill="#F28F8F"/>
<path d="M311.792 147.328C313.632 147.08 317.392 145.992 318.016 144.496C317.779 145.254 317.315 145.921 316.688 146.408C315.552 147.376 311.792 148.472 311.792 148.472V147.328Z" fill="#F28F8F"/>
<path d="M324.84 171.08L319.792 177.912L323.6 175.472L324.84 171.08Z" fill="#0EA5C6"/>
<path d="M285.072 189.232C283.992 190.624 283.328 193.328 282.76 194.24C282.192 195.152 281.512 195.944 282.76 196.112C284.008 196.28 285.832 193.84 286.512 192.36C286.856 191.525 287.506 190.853 288.328 190.48C287.744 190.28 288.048 187.936 287.64 187.608C287.64 187.608 285.512 188.48 285.072 189.232Z" fill="#F28F8F"/>
<path d="M284.752 199.792C285.88 198.952 285.92 197.92 286.136 196.28C286.352 194.64 290.872 192.864 291.016 194.088C291.16 195.312 291.568 196.336 290.216 197.824C288.864 199.312 286.816 200.896 284.752 199.792Z" fill="#F28F8F"/>
<path d="M319.44 151.008C319.44 151.008 326.128 151.592 327.44 152.216C328.752 152.84 330.936 156.616 328.984 162.096C327.032 167.576 325.256 174.024 325.456 175.32C325.656 176.616 330.32 183.32 330.32 183.32C329.033 184.27 327.578 184.967 326.032 185.376L323.632 180.16L324.192 185.704C321.781 186.29 319.304 186.559 316.824 186.504C316.824 186.504 314.56 165.208 319.44 151.008Z" fill="#0EA5C6"/>
<path d="M335.92 177.128C336.456 173.976 335.92 172.944 334.816 169.856L329.216 173.48C329.675 174.646 329.945 175.877 330.016 177.128C329.968 178.04 328.728 187.08 327.568 190.232C327.359 190.793 326.948 191.255 326.416 191.528C325.263 192.232 324.217 193.1 323.312 194.104C322.456 194.904 321.768 195.048 321.856 195.32C321.988 195.615 322.225 195.851 322.52 195.982C322.815 196.113 323.149 196.131 323.456 196.032C324.153 195.806 324.821 195.5 325.448 195.12C324.893 196.297 324.153 197.377 323.256 198.32C321.2 200.512 321.016 201.936 324.856 202.232C327.256 202.416 329.264 201.072 331.432 195.912C332.104 194.02 332.657 192.089 333.088 190.128C334.256 185.656 335.392 180.304 335.92 177.128Z" fill="#FFA8A7"/>
<path d="M327.44 152.216C330.136 153.424 330.904 155.808 331.904 159.312C332.904 162.816 336.04 173.328 336.04 173.328C336.04 173.328 333.352 176.528 329.64 175.632L324.84 163.976C324.84 163.976 322.6 156.368 327.44 152.216Z" fill="#0EA5C6"/>
</svg>
