<svg width="16" height="16" viewBox="0 0 16 16" fill="none" xmlns="http://www.w3.org/2000/svg">
<path fill-rule="evenodd" clip-rule="evenodd" d="M8.00073 0.000488281C5.82805 0.000488281 5.55538 0.00998838 4.70203 0.0488221C3.85036 0.0878225 3.26902 0.222657 2.76035 0.420493C2.23417 0.624828 1.78784 0.898164 1.34317 1.343C0.898161 1.78767 0.624825 2.23401 0.419822 2.76002C0.221487 3.26886 0.0864856 3.85036 0.0481519 4.7017C0.00998484 5.55505 -1.52588e-05 5.82788 -1.52588e-05 8.00057C-1.52588e-05 10.1733 0.00965149 10.4451 0.0483186 11.2984C0.0874856 12.1501 0.22232 12.7315 0.419989 13.2401C0.624491 13.7663 0.897827 14.2126 1.34267 14.6573C1.78717 15.1023 2.23351 15.3763 2.75935 15.5806C3.26835 15.7785 3.84986 15.9133 4.70137 15.9523C5.55471 15.9912 5.82721 16.0007 7.99973 16.0007C10.1726 16.0007 10.4444 15.9912 11.2978 15.9523C12.1494 15.9133 12.7315 15.7785 13.2405 15.5806C13.7665 15.3763 14.2121 15.1023 14.6566 14.6573C15.1016 14.2126 15.375 13.7663 15.58 13.2403C15.7766 12.7315 15.9116 12.1499 15.9517 11.2986C15.99 10.4453 16 10.1733 16 8.00057C16 5.82788 15.99 5.55521 15.9517 4.70187C15.9116 3.85019 15.7766 3.26886 15.58 2.76018C15.375 2.23401 15.1016 1.78767 14.6566 1.343C14.2116 0.897998 13.7666 0.624661 13.24 0.420493C12.73 0.222657 12.1483 0.0878225 11.2966 0.0488221C10.4433 0.00998838 10.1716 0.000488281 7.99823 0.000488281H8.00073ZM7.73405 1.44162H7.73418L8.00082 1.4417C10.1368 1.4417 10.39 1.44936 11.2335 1.4877C12.0135 1.52336 12.4369 1.6537 12.7189 1.7632C13.0922 1.9082 13.3584 2.08154 13.6382 2.36154C13.9182 2.64154 14.0916 2.90821 14.2369 3.28155C14.3464 3.56322 14.4769 3.98656 14.5124 4.76657C14.5507 5.60991 14.5591 5.86324 14.5591 7.99827C14.5591 10.1333 14.5507 10.3866 14.5124 11.23C14.4767 12.01 14.3464 12.4333 14.2369 12.715C14.0919 13.0883 13.9182 13.3542 13.6382 13.634C13.3582 13.914 13.0924 14.0873 12.7189 14.2323C12.4372 14.3423 12.0135 14.4723 11.2335 14.508C10.3902 14.5463 10.1368 14.5547 8.00082 14.5547C5.86463 14.5547 5.61146 14.5463 4.76812 14.508C3.98811 14.472 3.56478 14.3417 3.28261 14.2322C2.90927 14.0872 2.6426 13.9138 2.3626 13.6338C2.08259 13.3538 1.90926 13.0878 1.76392 12.7143C1.65442 12.4326 1.52392 12.0093 1.48842 11.2293C1.45009 10.386 1.44242 10.1326 1.44242 7.99627C1.44242 5.85991 1.45009 5.60791 1.48842 4.76457C1.52409 3.98456 1.65442 3.56122 1.76392 3.27922C1.90893 2.90588 2.08259 2.63921 2.3626 2.35921C2.6426 2.0792 2.90927 1.90587 3.28261 1.76053C3.56461 1.65053 3.98811 1.52053 4.76812 1.4847C5.50613 1.45136 5.79213 1.44136 7.28315 1.4397V1.4417C7.42246 1.44148 7.57233 1.44155 7.73405 1.44162ZM11.3112 3.72979C11.3112 3.19961 11.7412 2.77011 12.2712 2.77011V2.76978C12.8012 2.76978 13.2312 3.19978 13.2312 3.72979C13.2312 4.25979 12.8012 4.6898 12.2712 4.6898C11.7412 4.6898 11.3112 4.25979 11.3112 3.72979ZM8.00058 3.89185C5.7318 3.89193 3.89237 5.73142 3.89237 8.00022C3.89237 10.2691 5.73189 12.1078 8.00075 12.1078C10.2696 12.1078 12.1085 10.2691 12.1085 8.00022C12.1085 5.73136 10.2694 3.89185 8.00058 3.89185ZM10.6674 8.00068C10.6674 6.52783 9.47341 5.33398 8.00072 5.33398C6.52788 5.33398 5.33403 6.52783 5.33403 8.00068C5.33403 9.47336 6.52788 10.6674 8.00072 10.6674C9.47341 10.6674 10.6674 9.47336 10.6674 8.00068Z" fill="#0EA5C6"/>
</svg>
