<svg width="16" height="16" viewBox="0 0 16 16" fill="none" xmlns="http://www.w3.org/2000/svg">
<path fill-rule="evenodd" clip-rule="evenodd" d="M3.82417 2.26419C3.82417 3.24488 3.08597 4.02959 1.90068 4.02959H1.87896C0.737725 4.02959 -6.10352e-05 3.24488 -6.10352e-05 2.26419C-6.10352e-05 1.26275 0.760195 0.5 1.92308 0.5C3.08597 0.5 3.8021 1.26275 3.82417 2.26419ZM3.60023 5.42334V15.6369H0.200897V5.42334H3.60023ZM15.8594 15.6372L15.8595 9.78109C15.8595 6.64393 14.1825 5.18384 11.9456 5.18384C10.1408 5.18384 9.33275 6.17517 8.88158 6.87061V5.42394H5.48184C5.52665 6.38233 5.48184 15.6375 5.48184 15.6375H8.88158V9.93341C8.88158 9.62816 8.90364 9.32366 8.99352 9.10511C9.2392 8.49529 9.79858 7.86391 10.7377 7.86391C11.9683 7.86391 12.4602 8.80047 12.4602 10.173V15.6372H15.8594Z" fill="#0EA5C6"/>
</svg>
