<svg width="51" height="50" viewBox="0 0 51 50" fill="none" xmlns="http://www.w3.org/2000/svg">
<g clip-path="url(#clip0)">
<path fill-rule="evenodd" clip-rule="evenodd" d="M25.1621 44C37.3124 44 47.1621 34.1503 47.1621 22C47.1621 9.84974 37.3124 0 25.1621 0C13.0118 0 3.16211 9.84974 3.16211 22C3.16211 27.7294 5.35223 32.9472 8.94095 36.862C9.3911 37.3531 9.66205 37.9871 9.66205 38.6532V47.017C9.66205 48.8603 11.5889 50.0698 13.2489 49.2684L24.1462 44.0076C24.1525 44.0046 24.1524 43.9957 24.146 43.9928C24.1378 43.9891 24.1407 43.9767 24.1497 43.9771C24.4853 43.9923 24.8228 44 25.1621 44Z" fill="#B15500"/>
<path fill-rule="evenodd" clip-rule="evenodd" d="M22.9126 24.5002C22.9126 25.3287 23.5842 26.0002 24.4126 26.0002H25.9126C26.741 26.0002 27.4126 25.3287 27.4126 24.5002L27.4126 13.5002C27.4126 12.6718 26.741 12.0002 25.9126 12.0002H24.4126C23.5842 12.0002 22.9126 12.6718 22.9126 13.5002L22.9126 24.5002ZM25.1621 32.0005C26.4048 32.0005 27.4121 30.9932 27.4121 29.7505C27.4121 28.5079 26.4048 27.5005 25.1621 27.5005C23.9195 27.5005 22.9121 28.5079 22.9121 29.7505C22.9121 30.9932 23.9195 32.0005 25.1621 32.0005Z" fill="white"/>
</g>
<defs>
<clipPath id="clip0">
<rect width="50" height="50" fill="white" transform="translate(0.162109)"/>
</clipPath>
</defs>
</svg>
